<svg width="397" height="233" viewBox="0 0 397 233" fill="none" xmlns="http://www.w3.org/2000/svg">
<mask id="mask0_499_97" style="mask-type:alpha" maskUnits="userSpaceOnUse" x="-389" y="0" width="393" height="233">
<rect x="-389" width="393" height="233" rx="25" fill="#F0F0F0"/>
</mask>
<g mask="url(#mask0_499_97)">
<g filter="url(#filter0_bd_499_97)">
</g>
</g>
<mask id="mask1_499_97" style="mask-type:alpha" maskUnits="userSpaceOnUse" x="4" y="0" width="393" height="233">
<rect x="4" width="393" height="233" rx="25" fill="#F0F0F0"/>
</mask>
<g mask="url(#mask1_499_97)">
<g filter="url(#filter1_bd_499_97)">
<rect x="3" y="-1" width="393" height="233" rx="25" fill="#FAA955" fill-opacity="0.6"/>
<g filter="url(#filter2_dd_499_97)">
<path d="M118.425 121.675H111.475L110.325 125H106.65L112.925 107.525H117L123.275 125H119.575L118.425 121.675ZM117.475 118.875L114.95 111.575L112.425 118.875H117.475ZM124.721 118.075C124.721 116.642 125.012 115.392 125.596 114.325C126.179 113.242 126.987 112.408 128.021 111.825C129.054 111.225 130.237 110.925 131.571 110.925C133.287 110.925 134.704 111.358 135.821 112.225C136.954 113.075 137.712 114.275 138.096 115.825H134.321C134.121 115.225 133.779 114.758 133.296 114.425C132.829 114.075 132.246 113.9 131.546 113.9C130.546 113.9 129.754 114.267 129.171 115C128.587 115.717 128.296 116.742 128.296 118.075C128.296 119.392 128.587 120.417 129.171 121.15C129.754 121.867 130.546 122.225 131.546 122.225C132.962 122.225 133.887 121.592 134.321 120.325H138.096C137.712 121.825 136.954 123.017 135.821 123.9C134.687 124.783 133.271 125.225 131.571 125.225C130.237 125.225 129.054 124.933 128.021 124.35C126.987 123.75 126.179 122.917 125.596 121.85C125.012 120.767 124.721 119.508 124.721 118.075ZM139.76 118.075C139.76 116.642 140.051 115.392 140.635 114.325C141.218 113.242 142.026 112.408 143.06 111.825C144.093 111.225 145.276 110.925 146.61 110.925C148.326 110.925 149.743 111.358 150.86 112.225C151.993 113.075 152.751 114.275 153.135 115.825H149.36C149.16 115.225 148.818 114.758 148.335 114.425C147.868 114.075 147.285 113.9 146.585 113.9C145.585 113.9 144.793 114.267 144.21 115C143.626 115.717 143.335 116.742 143.335 118.075C143.335 119.392 143.626 120.417 144.21 121.15C144.793 121.867 145.585 122.225 146.585 122.225C148.001 122.225 148.926 121.592 149.36 120.325H153.135C152.751 121.825 151.993 123.017 150.86 123.9C149.726 124.783 148.31 125.225 146.61 125.225C145.276 125.225 144.093 124.933 143.06 124.35C142.026 123.75 141.218 122.917 140.635 121.85C140.051 120.767 139.76 119.508 139.76 118.075ZM161.849 125.225C160.515 125.225 159.315 124.933 158.249 124.35C157.182 123.75 156.34 122.908 155.724 121.825C155.124 120.742 154.824 119.492 154.824 118.075C154.824 116.658 155.132 115.408 155.749 114.325C156.382 113.242 157.24 112.408 158.324 111.825C159.407 111.225 160.615 110.925 161.949 110.925C163.282 110.925 164.49 111.225 165.574 111.825C166.657 112.408 167.507 113.242 168.124 114.325C168.757 115.408 169.074 116.658 169.074 118.075C169.074 119.492 168.749 120.742 168.099 121.825C167.465 122.908 166.599 123.75 165.499 124.35C164.415 124.933 163.199 125.225 161.849 125.225ZM161.849 122.175C162.482 122.175 163.074 122.025 163.624 121.725C164.19 121.408 164.64 120.942 164.974 120.325C165.307 119.708 165.474 118.958 165.474 118.075C165.474 116.758 165.124 115.75 164.424 115.05C163.74 114.333 162.899 113.975 161.899 113.975C160.899 113.975 160.057 114.333 159.374 115.05C158.707 115.75 158.374 116.758 158.374 118.075C158.374 119.392 158.699 120.408 159.349 121.125C160.015 121.825 160.849 122.175 161.849 122.175ZM184.716 111.15V125H181.191V123.25C180.741 123.85 180.149 124.325 179.416 124.675C178.699 125.008 177.916 125.175 177.066 125.175C175.983 125.175 175.024 124.95 174.191 124.5C173.358 124.033 172.699 123.358 172.216 122.475C171.749 121.575 171.516 120.508 171.516 119.275V111.15H175.016V118.775C175.016 119.875 175.291 120.725 175.841 121.325C176.391 121.908 177.141 122.2 178.091 122.2C179.058 122.2 179.816 121.908 180.366 121.325C180.916 120.725 181.191 119.875 181.191 118.775V111.15H184.716ZM195.844 110.95C197.494 110.95 198.828 111.475 199.844 112.525C200.861 113.558 201.369 115.008 201.369 116.875V125H197.869V117.35C197.869 116.25 197.594 115.408 197.044 114.825C196.494 114.225 195.744 113.925 194.794 113.925C193.828 113.925 193.061 114.225 192.494 114.825C191.944 115.408 191.669 116.25 191.669 117.35V125H188.169V111.15H191.669V112.875C192.136 112.275 192.728 111.808 193.444 111.475C194.178 111.125 194.978 110.95 195.844 110.95ZM208.773 114.025V120.725C208.773 121.192 208.881 121.533 209.098 121.75C209.331 121.95 209.714 122.05 210.248 122.05H211.873V125H209.673C206.723 125 205.248 123.567 205.248 120.7V114.025H203.598V111.15H205.248V107.725H208.773V111.15H211.873V114.025H208.773ZM213.49 118.025C213.49 116.625 213.765 115.383 214.315 114.3C214.882 113.217 215.64 112.383 216.59 111.8C217.557 111.217 218.632 110.925 219.815 110.925C220.848 110.925 221.748 111.133 222.515 111.55C223.298 111.967 223.923 112.492 224.39 113.125V111.15H227.915V125H224.39V122.975C223.94 123.625 223.315 124.167 222.515 124.6C221.732 125.017 220.823 125.225 219.79 125.225C218.623 125.225 217.557 124.925 216.59 124.325C215.64 123.725 214.882 122.883 214.315 121.8C213.765 120.7 213.49 119.442 213.49 118.025ZM224.39 118.075C224.39 117.225 224.223 116.5 223.89 115.9C223.557 115.283 223.107 114.817 222.54 114.5C221.973 114.167 221.365 114 220.715 114C220.065 114 219.465 114.158 218.915 114.475C218.365 114.792 217.915 115.258 217.565 115.875C217.232 116.475 217.065 117.192 217.065 118.025C217.065 118.858 217.232 119.592 217.565 120.225C217.915 120.842 218.365 121.317 218.915 121.65C219.482 121.983 220.082 122.15 220.715 122.15C221.365 122.15 221.973 121.992 222.54 121.675C223.107 121.342 223.557 120.875 223.89 120.275C224.223 119.658 224.39 118.925 224.39 118.075ZM234.833 113.175C235.283 112.508 235.9 111.967 236.683 111.55C237.483 111.133 238.392 110.925 239.408 110.925C240.592 110.925 241.658 111.217 242.608 111.8C243.575 112.383 244.333 113.217 244.883 114.3C245.45 115.367 245.733 116.608 245.733 118.025C245.733 119.442 245.45 120.7 244.883 121.8C244.333 122.883 243.575 123.725 242.608 124.325C241.658 124.925 240.592 125.225 239.408 125.225C238.375 125.225 237.467 125.025 236.683 124.625C235.917 124.208 235.3 123.675 234.833 123.025V125H231.333V106.5H234.833V113.175ZM242.158 118.025C242.158 117.192 241.983 116.475 241.633 115.875C241.3 115.258 240.85 114.792 240.283 114.475C239.733 114.158 239.133 114 238.483 114C237.85 114 237.25 114.167 236.683 114.5C236.133 114.817 235.683 115.283 235.333 115.9C235 116.517 234.833 117.242 234.833 118.075C234.833 118.908 235 119.633 235.333 120.25C235.683 120.867 236.133 121.342 236.683 121.675C237.25 121.992 237.85 122.15 238.483 122.15C239.133 122.15 239.733 121.983 240.283 121.65C240.85 121.317 241.3 120.842 241.633 120.225C241.983 119.608 242.158 118.875 242.158 118.025ZM250.052 109.5C249.435 109.5 248.918 109.308 248.502 108.925C248.102 108.525 247.902 108.033 247.902 107.45C247.902 106.867 248.102 106.383 248.502 106C248.918 105.6 249.435 105.4 250.052 105.4C250.668 105.4 251.177 105.6 251.577 106C251.993 106.383 252.202 106.867 252.202 107.45C252.202 108.033 251.993 108.525 251.577 108.925C251.177 109.308 250.668 109.5 250.052 109.5ZM251.777 111.15V125H248.277V111.15H251.777ZM258.735 106.5V125H255.235V106.5H258.735ZM263.968 109.5C263.351 109.5 262.834 109.308 262.418 108.925C262.018 108.525 261.818 108.033 261.818 107.45C261.818 106.867 262.018 106.383 262.418 106C262.834 105.6 263.351 105.4 263.968 105.4C264.584 105.4 265.093 105.6 265.493 106C265.909 106.383 266.118 106.867 266.118 107.45C266.118 108.033 265.909 108.525 265.493 108.925C265.093 109.308 264.584 109.5 263.968 109.5ZM265.693 111.15V125H262.193V111.15H265.693ZM273.226 114.025V120.725C273.226 121.192 273.334 121.533 273.551 121.75C273.784 121.95 274.167 122.05 274.701 122.05H276.326V125H274.126C271.176 125 269.701 123.567 269.701 120.7V114.025H268.051V111.15H269.701V107.725H273.226V111.15H276.326V114.025H273.226ZM292.093 111.15L283.518 131.55H279.793L282.793 124.65L277.243 111.15H281.168L284.743 120.825L288.368 111.15H292.093Z" fill="white"/>
</g>
</g>
</g>
<defs>
<filter id="filter0_bd_499_97" x="-1" y="-5" width="403" height="246" filterUnits="userSpaceOnUse" color-interpolation-filters="sRGB">
<feFlood flood-opacity="0" result="BackgroundImageFix"/>
<feGaussianBlur in="BackgroundImage" stdDeviation="2.5"/>
<feComposite in2="SourceAlpha" operator="in" result="effect1_backgroundBlur_499_97"/>
<feColorMatrix in="SourceAlpha" type="matrix" values="0 0 0 0 0 0 0 0 0 0 0 0 0 0 0 0 0 0 127 0" result="hardAlpha"/>
<feOffset dy="4"/>
<feGaussianBlur stdDeviation="2"/>
<feComposite in2="hardAlpha" operator="out"/>
<feColorMatrix type="matrix" values="0 0 0 0 0 0 0 0 0 0 0 0 0 0 0 0 0 0 0.25 0"/>
<feBlend mode="normal" in2="effect1_backgroundBlur_499_97" result="effect2_dropShadow_499_97"/>
<feBlend mode="normal" in="SourceGraphic" in2="effect2_dropShadow_499_97" result="shape"/>
</filter>
<filter id="filter1_bd_499_97" x="-2" y="-6" width="403" height="246" filterUnits="userSpaceOnUse" color-interpolation-filters="sRGB">
<feFlood flood-opacity="0" result="BackgroundImageFix"/>
<feGaussianBlur in="BackgroundImage" stdDeviation="2.5"/>
<feComposite in2="SourceAlpha" operator="in" result="effect1_backgroundBlur_499_97"/>
<feColorMatrix in="SourceAlpha" type="matrix" values="0 0 0 0 0 0 0 0 0 0 0 0 0 0 0 0 0 0 127 0" result="hardAlpha"/>
<feOffset dy="4"/>
<feGaussianBlur stdDeviation="2"/>
<feComposite in2="hardAlpha" operator="out"/>
<feColorMatrix type="matrix" values="0 0 0 0 0 0 0 0 0 0 0 0 0 0 0 0 0 0 0.25 0"/>
<feBlend mode="normal" in2="effect1_backgroundBlur_499_97" result="effect2_dropShadow_499_97"/>
<feBlend mode="normal" in="SourceGraphic" in2="effect2_dropShadow_499_97" result="shape"/>
</filter>
<filter id="filter2_dd_499_97" x="87.65" y="86.3999" width="223.443" height="64.1499" filterUnits="userSpaceOnUse" color-interpolation-filters="sRGB">
<feFlood flood-opacity="0" result="BackgroundImageFix"/>
<feColorMatrix in="SourceAlpha" type="matrix" values="0 0 0 0 0 0 0 0 0 0 0 0 0 0 0 0 0 0 127 0" result="hardAlpha"/>
<feOffset dx="-4" dy="-4"/>
<feGaussianBlur stdDeviation="7.5"/>
<feComposite in2="hardAlpha" operator="out"/>
<feColorMatrix type="matrix" values="0 0 0 0 1 0 0 0 0 1 0 0 0 0 1 0 0 0 0.6 0"/>
<feBlend mode="normal" in2="BackgroundImageFix" result="effect1_dropShadow_499_97"/>
<feColorMatrix in="SourceAlpha" type="matrix" values="0 0 0 0 0 0 0 0 0 0 0 0 0 0 0 0 0 0 127 0" result="hardAlpha"/>
<feOffset dx="4" dy="4"/>
<feGaussianBlur stdDeviation="7.5"/>
<feComposite in2="hardAlpha" operator="out"/>
<feColorMatrix type="matrix" values="0 0 0 0 1 0 0 0 0 1 0 0 0 0 1 0 0 0 0.6 0"/>
<feBlend mode="normal" in2="effect1_dropShadow_499_97" result="effect2_dropShadow_499_97"/>
<feBlend mode="normal" in="SourceGraphic" in2="effect2_dropShadow_499_97" result="shape"/>
</filter>
</defs>
</svg>
