<svg width="396" height="233" viewBox="0 0 396 233" fill="none" xmlns="http://www.w3.org/2000/svg">
<mask id="mask0_499_100" style="mask-type:alpha" maskUnits="userSpaceOnUse" x="0" y="0" width="393" height="233">
<rect width="393" height="233" rx="25" fill="#F0F0F0"/>
</mask>
<g mask="url(#mask0_499_100)">
<g filter="url(#filter0_bd_499_100)">
<rect width="393" height="233" rx="25" fill="#F0F0F0"/>
<rect x="23" y="23" width="349" height="191" rx="23" stroke="#FAA955" stroke-width="4"/>
<path d="M78.7707 83.53L75.8457 94H73.3707L71.4057 86.545L69.3507 94L66.8907 94.015L64.0707 83.53H66.3207L68.1657 91.66L70.2957 83.53H72.6357L74.6457 91.615L76.5057 83.53H78.7707ZM87.8669 89.665C87.8669 89.965 87.8469 90.235 87.8069 90.475H81.7319C81.7819 91.075 81.9919 91.545 82.3619 91.885C82.7319 92.225 83.1869 92.395 83.7269 92.395C84.5069 92.395 85.0619 92.06 85.3919 91.39H87.6569C87.4169 92.19 86.9569 92.85 86.2769 93.37C85.5969 93.88 84.7619 94.135 83.7719 94.135C82.9719 94.135 82.2519 93.96 81.6119 93.61C80.9819 93.25 80.4869 92.745 80.1269 92.095C79.7769 91.445 79.6019 90.695 79.6019 89.845C79.6019 88.985 79.7769 88.23 80.1269 87.58C80.4769 86.93 80.9669 86.43 81.5969 86.08C82.2269 85.73 82.9519 85.555 83.7719 85.555C84.5619 85.555 85.2669 85.725 85.8869 86.065C86.5169 86.405 87.0019 86.89 87.3419 87.52C87.6919 88.14 87.8669 88.855 87.8669 89.665ZM85.6919 89.065C85.6819 88.525 85.4869 88.095 85.1069 87.775C84.7269 87.445 84.2619 87.28 83.7119 87.28C83.1919 87.28 82.7519 87.44 82.3919 87.76C82.0419 88.07 81.8269 88.505 81.7469 89.065H85.6919ZM104.494 85.69L102.064 94H99.799L98.284 88.195L96.769 94H94.489L92.044 85.69H94.174L95.644 92.02L97.234 85.69H99.454L101.014 92.005L102.484 85.69H104.494ZM109.32 94.135C108.52 94.135 107.8 93.96 107.16 93.61C106.52 93.25 106.015 92.745 105.645 92.095C105.285 91.445 105.105 90.695 105.105 89.845C105.105 88.995 105.29 88.245 105.66 87.595C106.04 86.945 106.555 86.445 107.205 86.095C107.855 85.735 108.58 85.555 109.38 85.555C110.18 85.555 110.905 85.735 111.555 86.095C112.205 86.445 112.715 86.945 113.085 87.595C113.465 88.245 113.655 88.995 113.655 89.845C113.655 90.695 113.46 91.445 113.07 92.095C112.69 92.745 112.17 93.25 111.51 93.61C110.86 93.96 110.13 94.135 109.32 94.135ZM109.32 92.305C109.7 92.305 110.055 92.215 110.385 92.035C110.725 91.845 110.995 91.565 111.195 91.195C111.395 90.825 111.495 90.375 111.495 89.845C111.495 89.055 111.285 88.45 110.865 88.03C110.455 87.6 109.95 87.385 109.35 87.385C108.75 87.385 108.245 87.6 107.835 88.03C107.435 88.45 107.235 89.055 107.235 89.845C107.235 90.635 107.43 91.245 107.82 91.675C108.22 92.095 108.72 92.305 109.32 92.305ZM117.296 86.98C117.566 86.54 117.916 86.195 118.346 85.945C118.786 85.695 119.286 85.57 119.846 85.57V87.775H119.291C118.631 87.775 118.131 87.93 117.791 88.24C117.461 88.55 117.296 89.09 117.296 89.86V94H115.196V85.69H117.296V86.98ZM126.18 94L123.36 90.46V94H121.26V82.9H123.36V89.215L126.15 85.69H128.88L125.22 89.86L128.91 94H126.18ZM136.039 87.415V91.435C136.039 91.715 136.104 91.92 136.234 92.05C136.374 92.17 136.604 92.23 136.924 92.23H137.899V94H136.579C134.809 94 133.924 93.14 133.924 91.42V87.415H132.934V85.69H133.924V83.635H136.039V85.69H137.899V87.415H136.039ZM141.51 86.98C141.78 86.54 142.13 86.195 142.56 85.945C143 85.695 143.5 85.57 144.06 85.57V87.775H143.505C142.845 87.775 142.345 87.93 142.005 88.24C141.675 88.55 141.51 89.09 141.51 89.86V94H139.41V85.69H141.51V86.98ZM144.934 89.815C144.934 88.975 145.099 88.23 145.429 87.58C145.769 86.93 146.224 86.43 146.794 86.08C147.374 85.73 148.019 85.555 148.729 85.555C149.349 85.555 149.889 85.68 150.349 85.93C150.819 86.18 151.194 86.495 151.474 86.875V85.69H153.589V94H151.474V92.785C151.204 93.175 150.829 93.5 150.349 93.76C149.879 94.01 149.334 94.135 148.714 94.135C148.014 94.135 147.374 93.955 146.794 93.595C146.224 93.235 145.769 92.73 145.429 92.08C145.099 91.42 144.934 90.665 144.934 89.815ZM151.474 89.845C151.474 89.335 151.374 88.9 151.174 88.54C150.974 88.17 150.704 87.89 150.364 87.7C150.024 87.5 149.659 87.4 149.269 87.4C148.879 87.4 148.519 87.495 148.189 87.685C147.859 87.875 147.589 88.155 147.379 88.525C147.179 88.885 147.079 89.315 147.079 89.815C147.079 90.315 147.179 90.755 147.379 91.135C147.589 91.505 147.859 91.79 148.189 91.99C148.529 92.19 148.889 92.29 149.269 92.29C149.659 92.29 150.024 92.195 150.364 92.005C150.704 91.805 150.974 91.525 151.174 91.165C151.374 90.795 151.474 90.355 151.474 89.845ZM160.245 85.57C161.235 85.57 162.035 85.885 162.645 86.515C163.255 87.135 163.56 88.005 163.56 89.125V94H161.46V89.41C161.46 88.75 161.295 88.245 160.965 87.895C160.635 87.535 160.185 87.355 159.615 87.355C159.035 87.355 158.575 87.535 158.235 87.895C157.905 88.245 157.74 88.75 157.74 89.41V94H155.64V85.69H157.74V86.725C158.02 86.365 158.375 86.085 158.805 85.885C159.245 85.675 159.725 85.57 160.245 85.57ZM168.737 94.135C168.057 94.135 167.447 94.015 166.907 93.775C166.367 93.525 165.937 93.19 165.617 92.77C165.307 92.35 165.137 91.885 165.107 91.375H167.222C167.262 91.695 167.417 91.96 167.687 92.17C167.967 92.38 168.312 92.485 168.722 92.485C169.122 92.485 169.432 92.405 169.652 92.245C169.882 92.085 169.997 91.88 169.997 91.63C169.997 91.36 169.857 91.16 169.577 91.03C169.307 90.89 168.872 90.74 168.272 90.58C167.652 90.43 167.142 90.275 166.742 90.115C166.352 89.955 166.012 89.71 165.722 89.38C165.442 89.05 165.302 88.605 165.302 88.045C165.302 87.585 165.432 87.165 165.692 86.785C165.962 86.405 166.342 86.105 166.832 85.885C167.332 85.665 167.917 85.555 168.587 85.555C169.577 85.555 170.367 85.805 170.957 86.305C171.547 86.795 171.872 87.46 171.932 88.3H169.922C169.892 87.97 169.752 87.71 169.502 87.52C169.262 87.32 168.937 87.22 168.527 87.22C168.147 87.22 167.852 87.29 167.642 87.43C167.442 87.57 167.342 87.765 167.342 88.015C167.342 88.295 167.482 88.51 167.762 88.66C168.042 88.8 168.477 88.945 169.067 89.095C169.667 89.245 170.162 89.4 170.552 89.56C170.942 89.72 171.277 89.97 171.557 90.31C171.847 90.64 171.997 91.08 172.007 91.63C172.007 92.11 171.872 92.54 171.602 92.92C171.342 93.3 170.962 93.6 170.462 93.82C169.972 94.03 169.397 94.135 168.737 94.135ZM175.831 86.89C176.101 86.51 176.471 86.195 176.941 85.945C177.421 85.685 177.966 85.555 178.576 85.555C179.286 85.555 179.926 85.73 180.496 86.08C181.076 86.43 181.531 86.93 181.861 87.58C182.201 88.22 182.371 88.965 182.371 89.815C182.371 90.665 182.201 91.42 181.861 92.08C181.531 92.73 181.076 93.235 180.496 93.595C179.926 93.955 179.286 94.135 178.576 94.135C177.966 94.135 177.426 94.01 176.956 93.76C176.496 93.51 176.121 93.195 175.831 92.815V97.96H173.731V85.69H175.831V86.89ZM180.226 89.815C180.226 89.315 180.121 88.885 179.911 88.525C179.711 88.155 179.441 87.875 179.101 87.685C178.771 87.495 178.411 87.4 178.021 87.4C177.641 87.4 177.281 87.5 176.941 87.7C176.611 87.89 176.341 88.17 176.131 88.54C175.931 88.91 175.831 89.345 175.831 89.845C175.831 90.345 175.931 90.78 176.131 91.15C176.341 91.52 176.611 91.805 176.941 92.005C177.281 92.195 177.641 92.29 178.021 92.29C178.411 92.29 178.771 92.19 179.101 91.99C179.441 91.79 179.711 91.505 179.911 91.135C180.121 90.765 180.226 90.325 180.226 89.815ZM183.357 89.815C183.357 88.975 183.522 88.23 183.852 87.58C184.192 86.93 184.647 86.43 185.217 86.08C185.797 85.73 186.442 85.555 187.152 85.555C187.772 85.555 188.312 85.68 188.772 85.93C189.242 86.18 189.617 86.495 189.897 86.875V85.69H192.012V94H189.897V92.785C189.627 93.175 189.252 93.5 188.772 93.76C188.302 94.01 187.757 94.135 187.137 94.135C186.437 94.135 185.797 93.955 185.217 93.595C184.647 93.235 184.192 92.73 183.852 92.08C183.522 91.42 183.357 90.665 183.357 89.815ZM189.897 89.845C189.897 89.335 189.797 88.9 189.597 88.54C189.397 88.17 189.127 87.89 188.787 87.7C188.447 87.5 188.082 87.4 187.692 87.4C187.302 87.4 186.942 87.495 186.612 87.685C186.282 87.875 186.012 88.155 185.802 88.525C185.602 88.885 185.502 89.315 185.502 89.815C185.502 90.315 185.602 90.755 185.802 91.135C186.012 91.505 186.282 91.79 186.612 91.99C186.952 92.19 187.312 92.29 187.692 92.29C188.082 92.29 188.447 92.195 188.787 92.005C189.127 91.805 189.397 91.525 189.597 91.165C189.797 90.795 189.897 90.355 189.897 89.845ZM196.163 86.98C196.433 86.54 196.783 86.195 197.213 85.945C197.653 85.695 198.153 85.57 198.713 85.57V87.775H198.158C197.498 87.775 196.998 87.93 196.658 88.24C196.328 88.55 196.163 89.09 196.163 89.86V94H194.063V85.69H196.163V86.98ZM207.852 89.665C207.852 89.965 207.832 90.235 207.792 90.475H201.717C201.767 91.075 201.977 91.545 202.347 91.885C202.717 92.225 203.172 92.395 203.712 92.395C204.492 92.395 205.047 92.06 205.377 91.39H207.642C207.402 92.19 206.942 92.85 206.262 93.37C205.582 93.88 204.747 94.135 203.757 94.135C202.957 94.135 202.237 93.96 201.597 93.61C200.967 93.25 200.472 92.745 200.112 92.095C199.762 91.445 199.587 90.695 199.587 89.845C199.587 88.985 199.762 88.23 200.112 87.58C200.462 86.93 200.952 86.43 201.582 86.08C202.212 85.73 202.937 85.555 203.757 85.555C204.547 85.555 205.252 85.725 205.872 86.065C206.502 86.405 206.987 86.89 207.327 87.52C207.677 88.14 207.852 88.855 207.852 89.665ZM205.677 89.065C205.667 88.525 205.472 88.095 205.092 87.775C204.712 87.445 204.247 87.28 203.697 87.28C203.177 87.28 202.737 87.44 202.377 87.76C202.027 88.07 201.812 88.505 201.732 89.065H205.677ZM213.99 85.57C214.98 85.57 215.78 85.885 216.39 86.515C217 87.135 217.305 88.005 217.305 89.125V94H215.205V89.41C215.205 88.75 215.04 88.245 214.71 87.895C214.38 87.535 213.93 87.355 213.36 87.355C212.78 87.355 212.32 87.535 211.98 87.895C211.65 88.245 211.485 88.75 211.485 89.41V94H209.385V85.69H211.485V86.725C211.765 86.365 212.12 86.085 212.55 85.885C212.99 85.675 213.47 85.57 213.99 85.57ZM221.747 87.415V91.435C221.747 91.715 221.812 91.92 221.942 92.05C222.082 92.17 222.312 92.23 222.632 92.23H223.607V94H222.287C220.517 94 219.632 93.14 219.632 91.42V87.415H218.642V85.69H219.632V83.635H221.747V85.69H223.607V87.415H221.747ZM227.218 82.9V94H225.118V82.9H227.218ZM237.242 85.69L232.097 97.93H229.862L231.662 93.79L228.332 85.69H230.687L232.832 91.495L235.007 85.69H237.242ZM244.394 87.415V91.435C244.394 91.715 244.459 91.92 244.589 92.05C244.729 92.17 244.959 92.23 245.279 92.23H246.254V94H244.934C243.164 94 242.279 93.14 242.279 91.42V87.415H241.289V85.69H242.279V83.635H244.394V85.69H246.254V87.415H244.394ZM251.454 94.135C250.654 94.135 249.934 93.96 249.294 93.61C248.654 93.25 248.149 92.745 247.779 92.095C247.419 91.445 247.239 90.695 247.239 89.845C247.239 88.995 247.424 88.245 247.794 87.595C248.174 86.945 248.689 86.445 249.339 86.095C249.989 85.735 250.714 85.555 251.514 85.555C252.314 85.555 253.039 85.735 253.689 86.095C254.339 86.445 254.849 86.945 255.219 87.595C255.599 88.245 255.789 88.995 255.789 89.845C255.789 90.695 255.594 91.445 255.204 92.095C254.824 92.745 254.304 93.25 253.644 93.61C252.994 93.96 252.264 94.135 251.454 94.135ZM251.454 92.305C251.834 92.305 252.189 92.215 252.519 92.035C252.859 91.845 253.129 91.565 253.329 91.195C253.529 90.825 253.629 90.375 253.629 89.845C253.629 89.055 253.419 88.45 252.999 88.03C252.589 87.6 252.084 87.385 251.484 87.385C250.884 87.385 250.379 87.6 249.969 88.03C249.569 88.45 249.369 89.055 249.369 89.845C249.369 90.635 249.564 91.245 249.954 91.675C250.354 92.095 250.854 92.305 251.454 92.305ZM260.364 89.815C260.364 88.975 260.529 88.23 260.859 87.58C261.199 86.93 261.654 86.43 262.224 86.08C262.804 85.73 263.449 85.555 264.159 85.555C264.779 85.555 265.319 85.68 265.779 85.93C266.249 86.18 266.624 86.495 266.904 86.875V85.69H269.019V94H266.904V92.785C266.634 93.175 266.259 93.5 265.779 93.76C265.309 94.01 264.764 94.135 264.144 94.135C263.444 94.135 262.804 93.955 262.224 93.595C261.654 93.235 261.199 92.73 260.859 92.08C260.529 91.42 260.364 90.665 260.364 89.815ZM266.904 89.845C266.904 89.335 266.804 88.9 266.604 88.54C266.404 88.17 266.134 87.89 265.794 87.7C265.454 87.5 265.089 87.4 264.699 87.4C264.309 87.4 263.949 87.495 263.619 87.685C263.289 87.875 263.019 88.155 262.809 88.525C262.609 88.885 262.509 89.315 262.509 89.815C262.509 90.315 262.609 90.755 262.809 91.135C263.019 91.505 263.289 91.79 263.619 91.99C263.959 92.19 264.319 92.29 264.699 92.29C265.089 92.29 265.454 92.195 265.794 92.005C266.134 91.805 266.404 91.525 266.604 91.165C266.804 90.795 266.904 90.355 266.904 89.845ZM273.17 82.9V94H271.07V82.9H273.17ZM277.344 82.9V94H275.244V82.9H277.344ZM286.683 94.135C285.883 94.135 285.163 93.96 284.523 93.61C283.883 93.25 283.378 92.745 283.008 92.095C282.648 91.445 282.468 90.695 282.468 89.845C282.468 88.995 282.653 88.245 283.023 87.595C283.403 86.945 283.918 86.445 284.568 86.095C285.218 85.735 285.943 85.555 286.743 85.555C287.543 85.555 288.268 85.735 288.918 86.095C289.568 86.445 290.078 86.945 290.448 87.595C290.828 88.245 291.018 88.995 291.018 89.845C291.018 90.695 290.823 91.445 290.433 92.095C290.053 92.745 289.533 93.25 288.873 93.61C288.223 93.96 287.493 94.135 286.683 94.135ZM286.683 92.305C287.063 92.305 287.418 92.215 287.748 92.035C288.088 91.845 288.358 91.565 288.558 91.195C288.758 90.825 288.858 90.375 288.858 89.845C288.858 89.055 288.648 88.45 288.228 88.03C287.818 87.6 287.313 87.385 286.713 87.385C286.113 87.385 285.608 87.6 285.198 88.03C284.798 88.45 284.598 89.055 284.598 89.845C284.598 90.635 284.793 91.245 285.183 91.675C285.583 92.095 286.083 92.305 286.683 92.305ZM296.369 87.415H294.914V94H292.784V87.415H291.839V85.69H292.784V85.27C292.784 84.25 293.074 83.5 293.654 83.02C294.234 82.54 295.109 82.315 296.279 82.345V84.115C295.769 84.105 295.414 84.19 295.214 84.37C295.014 84.55 294.914 84.875 294.914 85.345V85.69H296.369V87.415ZM303.749 87.415V91.435C303.749 91.715 303.814 91.92 303.944 92.05C304.084 92.17 304.314 92.23 304.634 92.23H305.609V94H304.289C302.519 94 301.634 93.14 301.634 91.42V87.415H300.644V85.69H301.634V83.635H303.749V85.69H305.609V87.415H303.749ZM311.799 85.57C312.429 85.57 312.989 85.71 313.479 85.99C313.969 86.26 314.349 86.665 314.619 87.205C314.899 87.735 315.039 88.375 315.039 89.125V94H312.939V89.41C312.939 88.75 312.774 88.245 312.444 87.895C312.114 87.535 311.664 87.355 311.094 87.355C310.514 87.355 310.054 87.535 309.714 87.895C309.384 88.245 309.219 88.75 309.219 89.41V94H307.119V82.9H309.219V86.725C309.489 86.365 309.849 86.085 310.299 85.885C310.749 85.675 311.249 85.57 311.799 85.57ZM324.761 89.665C324.761 89.965 324.741 90.235 324.701 90.475H318.626C318.676 91.075 318.886 91.545 319.256 91.885C319.626 92.225 320.081 92.395 320.621 92.395C321.401 92.395 321.956 92.06 322.286 91.39H324.551C324.311 92.19 323.851 92.85 323.171 93.37C322.491 93.88 321.656 94.135 320.666 94.135C319.866 94.135 319.146 93.96 318.506 93.61C317.876 93.25 317.381 92.745 317.021 92.095C316.671 91.445 316.496 90.695 316.496 89.845C316.496 88.985 316.671 88.23 317.021 87.58C317.371 86.93 317.861 86.43 318.491 86.08C319.121 85.73 319.846 85.555 320.666 85.555C321.456 85.555 322.161 85.725 322.781 86.065C323.411 86.405 323.896 86.89 324.236 87.52C324.586 88.14 324.761 88.855 324.761 89.665ZM322.586 89.065C322.576 88.525 322.381 88.095 322.001 87.775C321.621 87.445 321.156 87.28 320.606 87.28C320.086 87.28 319.646 87.44 319.286 87.76C318.936 88.07 318.721 88.505 318.641 89.065H322.586ZM64.1415 107.7C63.7715 107.7 63.4615 107.585 63.2115 107.355C62.9715 107.115 62.8515 106.82 62.8515 106.47C62.8515 106.12 62.9715 105.83 63.2115 105.6C63.4615 105.36 63.7715 105.24 64.1415 105.24C64.5115 105.24 64.8165 105.36 65.0565 105.6C65.3065 105.83 65.4315 106.12 65.4315 106.47C65.4315 106.82 65.3065 107.115 65.0565 107.355C64.8165 107.585 64.5115 107.7 64.1415 107.7ZM65.1765 108.69V117H63.0765V108.69H65.1765ZM71.8563 108.57C72.8463 108.57 73.6463 108.885 74.2563 109.515C74.8663 110.135 75.1713 111.005 75.1713 112.125V117H73.0713V112.41C73.0713 111.75 72.9063 111.245 72.5763 110.895C72.2463 110.535 71.7963 110.355 71.2263 110.355C70.6463 110.355 70.1863 110.535 69.8463 110.895C69.5163 111.245 69.3513 111.75 69.3513 112.41V117H67.2513V108.69H69.3513V109.725C69.6313 109.365 69.9863 109.085 70.4163 108.885C70.8563 108.675 71.3363 108.57 71.8563 108.57ZM80.6333 115.065L82.7333 108.69H84.9683L81.8933 117H79.3433L76.2833 108.69H78.5333L80.6333 115.065ZM89.8378 117.135C89.0378 117.135 88.3178 116.96 87.6778 116.61C87.0378 116.25 86.5328 115.745 86.1628 115.095C85.8028 114.445 85.6228 113.695 85.6228 112.845C85.6228 111.995 85.8078 111.245 86.1778 110.595C86.5578 109.945 87.0728 109.445 87.7228 109.095C88.3728 108.735 89.0978 108.555 89.8978 108.555C90.6978 108.555 91.4228 108.735 92.0728 109.095C92.7228 109.445 93.2328 109.945 93.6028 110.595C93.9828 111.245 94.1728 111.995 94.1728 112.845C94.1728 113.695 93.9778 114.445 93.5878 115.095C93.2078 115.745 92.6878 116.25 92.0278 116.61C91.3778 116.96 90.6478 117.135 89.8378 117.135ZM89.8378 115.305C90.2178 115.305 90.5728 115.215 90.9028 115.035C91.2428 114.845 91.5128 114.565 91.7128 114.195C91.9128 113.825 92.0128 113.375 92.0128 112.845C92.0128 112.055 91.8028 111.45 91.3828 111.03C90.9728 110.6 90.4678 110.385 89.8678 110.385C89.2678 110.385 88.7628 110.6 88.3528 111.03C87.9528 111.45 87.7528 112.055 87.7528 112.845C87.7528 113.635 87.9478 114.245 88.3378 114.675C88.7378 115.095 89.2378 115.305 89.8378 115.305ZM97.8132 105.9V117H95.7132V105.9H97.8132ZM103.353 115.065L105.453 108.69H107.688L104.613 117H102.063L99.003 108.69H101.253L103.353 115.065ZM116.593 112.665C116.593 112.965 116.573 113.235 116.533 113.475H110.458C110.508 114.075 110.718 114.545 111.088 114.885C111.458 115.225 111.913 115.395 112.453 115.395C113.233 115.395 113.788 115.06 114.118 114.39H116.383C116.143 115.19 115.683 115.85 115.003 116.37C114.323 116.88 113.488 117.135 112.498 117.135C111.698 117.135 110.978 116.96 110.338 116.61C109.708 116.25 109.213 115.745 108.853 115.095C108.503 114.445 108.328 113.695 108.328 112.845C108.328 111.985 108.503 111.23 108.853 110.58C109.203 109.93 109.693 109.43 110.323 109.08C110.953 108.73 111.678 108.555 112.498 108.555C113.288 108.555 113.993 108.725 114.613 109.065C115.243 109.405 115.728 109.89 116.068 110.52C116.418 111.14 116.593 111.855 116.593 112.665ZM114.418 112.065C114.408 111.525 114.213 111.095 113.833 110.775C113.453 110.445 112.988 110.28 112.438 110.28C111.918 110.28 111.478 110.44 111.118 110.76C110.768 111.07 110.553 111.505 110.473 112.065H114.418ZM117.585 112.815C117.585 111.975 117.75 111.23 118.08 110.58C118.42 109.93 118.88 109.43 119.46 109.08C120.04 108.73 120.685 108.555 121.395 108.555C121.935 108.555 122.45 108.675 122.94 108.915C123.43 109.145 123.82 109.455 124.11 109.845V105.9H126.24V117H124.11V115.77C123.85 116.18 123.485 116.51 123.015 116.76C122.545 117.01 122 117.135 121.38 117.135C120.68 117.135 120.04 116.955 119.46 116.595C118.88 116.235 118.42 115.73 118.08 115.08C117.75 114.42 117.585 113.665 117.585 112.815ZM124.125 112.845C124.125 112.335 124.025 111.9 123.825 111.54C123.625 111.17 123.355 110.89 123.015 110.7C122.675 110.5 122.31 110.4 121.92 110.4C121.53 110.4 121.17 110.495 120.84 110.685C120.51 110.875 120.24 111.155 120.03 111.525C119.83 111.885 119.73 112.315 119.73 112.815C119.73 113.315 119.83 113.755 120.03 114.135C120.24 114.505 120.51 114.79 120.84 114.99C121.18 115.19 121.54 115.29 121.92 115.29C122.31 115.29 122.675 115.195 123.015 115.005C123.355 114.805 123.625 114.525 123.825 114.165C124.025 113.795 124.125 113.355 124.125 112.845ZM133.966 109.89C134.236 109.51 134.606 109.195 135.076 108.945C135.556 108.685 136.101 108.555 136.711 108.555C137.421 108.555 138.061 108.73 138.631 109.08C139.211 109.43 139.666 109.93 139.996 110.58C140.336 111.22 140.506 111.965 140.506 112.815C140.506 113.665 140.336 114.42 139.996 115.08C139.666 115.73 139.211 116.235 138.631 116.595C138.061 116.955 137.421 117.135 136.711 117.135C136.101 117.135 135.561 117.01 135.091 116.76C134.631 116.51 134.256 116.195 133.966 115.815V120.96H131.866V108.69H133.966V109.89ZM138.361 112.815C138.361 112.315 138.256 111.885 138.046 111.525C137.846 111.155 137.576 110.875 137.236 110.685C136.906 110.495 136.546 110.4 136.156 110.4C135.776 110.4 135.416 110.5 135.076 110.7C134.746 110.89 134.476 111.17 134.266 111.54C134.066 111.91 133.966 112.345 133.966 112.845C133.966 113.345 134.066 113.78 134.266 114.15C134.476 114.52 134.746 114.805 135.076 115.005C135.416 115.195 135.776 115.29 136.156 115.29C136.546 115.29 136.906 115.19 137.236 114.99C137.576 114.79 137.846 114.505 138.046 114.135C138.256 113.765 138.361 113.325 138.361 112.815ZM141.492 112.815C141.492 111.975 141.657 111.23 141.987 110.58C142.327 109.93 142.782 109.43 143.352 109.08C143.932 108.73 144.577 108.555 145.287 108.555C145.907 108.555 146.447 108.68 146.907 108.93C147.377 109.18 147.752 109.495 148.032 109.875V108.69H150.147V117H148.032V115.785C147.762 116.175 147.387 116.5 146.907 116.76C146.437 117.01 145.892 117.135 145.272 117.135C144.572 117.135 143.932 116.955 143.352 116.595C142.782 116.235 142.327 115.73 141.987 115.08C141.657 114.42 141.492 113.665 141.492 112.815ZM148.032 112.845C148.032 112.335 147.932 111.9 147.732 111.54C147.532 111.17 147.262 110.89 146.922 110.7C146.582 110.5 146.217 110.4 145.827 110.4C145.437 110.4 145.077 110.495 144.747 110.685C144.417 110.875 144.147 111.155 143.937 111.525C143.737 111.885 143.637 112.315 143.637 112.815C143.637 113.315 143.737 113.755 143.937 114.135C144.147 114.505 144.417 114.79 144.747 114.99C145.087 115.19 145.447 115.29 145.827 115.29C146.217 115.29 146.582 115.195 146.922 115.005C147.262 114.805 147.532 114.525 147.732 114.165C147.932 113.795 148.032 113.355 148.032 112.845ZM154.298 109.98C154.568 109.54 154.918 109.195 155.348 108.945C155.788 108.695 156.288 108.57 156.848 108.57V110.775H156.293C155.633 110.775 155.133 110.93 154.793 111.24C154.463 111.55 154.298 112.09 154.298 112.86V117H152.198V108.69H154.298V109.98ZM160.707 110.415V114.435C160.707 114.715 160.772 114.92 160.902 115.05C161.042 115.17 161.272 115.23 161.592 115.23H162.567V117H161.247C159.477 117 158.592 116.14 158.592 114.42V110.415H157.602V108.69H158.592V106.635H160.707V108.69H162.567V110.415H160.707ZM165.142 107.7C164.772 107.7 164.462 107.585 164.212 107.355C163.972 107.115 163.852 106.82 163.852 106.47C163.852 106.12 163.972 105.83 164.212 105.6C164.462 105.36 164.772 105.24 165.142 105.24C165.512 105.24 165.817 105.36 166.057 105.6C166.307 105.83 166.432 106.12 166.432 106.47C166.432 106.82 166.307 107.115 166.057 107.355C165.817 107.585 165.512 107.7 165.142 107.7ZM166.177 108.69V117H164.077V108.69H166.177ZM175.977 112.665C175.977 112.965 175.957 113.235 175.917 113.475H169.842C169.892 114.075 170.102 114.545 170.472 114.885C170.842 115.225 171.297 115.395 171.837 115.395C172.617 115.395 173.172 115.06 173.502 114.39H175.767C175.527 115.19 175.067 115.85 174.387 116.37C173.707 116.88 172.872 117.135 171.882 117.135C171.082 117.135 170.362 116.96 169.722 116.61C169.092 116.25 168.597 115.745 168.237 115.095C167.887 114.445 167.712 113.695 167.712 112.845C167.712 111.985 167.887 111.23 168.237 110.58C168.587 109.93 169.077 109.43 169.707 109.08C170.337 108.73 171.062 108.555 171.882 108.555C172.672 108.555 173.377 108.725 173.997 109.065C174.627 109.405 175.112 109.89 175.452 110.52C175.802 111.14 175.977 111.855 175.977 112.665ZM173.802 112.065C173.792 111.525 173.597 111.095 173.217 110.775C172.837 110.445 172.372 110.28 171.822 110.28C171.302 110.28 170.862 110.44 170.502 110.76C170.152 111.07 169.937 111.505 169.857 112.065H173.802ZM180.69 117.135C180.01 117.135 179.4 117.015 178.86 116.775C178.32 116.525 177.89 116.19 177.57 115.77C177.26 115.35 177.09 114.885 177.06 114.375H179.175C179.215 114.695 179.37 114.96 179.64 115.17C179.92 115.38 180.265 115.485 180.675 115.485C181.075 115.485 181.385 115.405 181.605 115.245C181.835 115.085 181.95 114.88 181.95 114.63C181.95 114.36 181.81 114.16 181.53 114.03C181.26 113.89 180.825 113.74 180.225 113.58C179.605 113.43 179.095 113.275 178.695 113.115C178.305 112.955 177.965 112.71 177.675 112.38C177.395 112.05 177.255 111.605 177.255 111.045C177.255 110.585 177.385 110.165 177.645 109.785C177.915 109.405 178.295 109.105 178.785 108.885C179.285 108.665 179.87 108.555 180.54 108.555C181.53 108.555 182.32 108.805 182.91 109.305C183.5 109.795 183.825 110.46 183.885 111.3H181.875C181.845 110.97 181.705 110.71 181.455 110.52C181.215 110.32 180.89 110.22 180.48 110.22C180.1 110.22 179.805 110.29 179.595 110.43C179.395 110.57 179.295 110.765 179.295 111.015C179.295 111.295 179.435 111.51 179.715 111.66C179.995 111.8 180.43 111.945 181.02 112.095C181.62 112.245 182.115 112.4 182.505 112.56C182.895 112.72 183.23 112.97 183.51 113.31C183.8 113.64 183.95 114.08 183.96 114.63C183.96 115.11 183.825 115.54 183.555 115.92C183.295 116.3 182.915 116.6 182.415 116.82C181.925 117.03 181.35 117.135 180.69 117.135ZM188.718 112.815C188.718 111.975 188.883 111.23 189.213 110.58C189.553 109.93 190.008 109.43 190.578 109.08C191.158 108.73 191.803 108.555 192.513 108.555C193.133 108.555 193.673 108.68 194.133 108.93C194.603 109.18 194.978 109.495 195.258 109.875V108.69H197.373V117H195.258V115.785C194.988 116.175 194.613 116.5 194.133 116.76C193.663 117.01 193.118 117.135 192.498 117.135C191.798 117.135 191.158 116.955 190.578 116.595C190.008 116.235 189.553 115.73 189.213 115.08C188.883 114.42 188.718 113.665 188.718 112.815ZM195.258 112.845C195.258 112.335 195.158 111.9 194.958 111.54C194.758 111.17 194.488 110.89 194.148 110.7C193.808 110.5 193.443 110.4 193.053 110.4C192.663 110.4 192.303 110.495 191.973 110.685C191.643 110.875 191.373 111.155 191.163 111.525C190.963 111.885 190.863 112.315 190.863 112.815C190.863 113.315 190.963 113.755 191.163 114.135C191.373 114.505 191.643 114.79 191.973 114.99C192.313 115.19 192.673 115.29 193.053 115.29C193.443 115.29 193.808 115.195 194.148 115.005C194.488 114.805 194.758 114.525 194.958 114.165C195.158 113.795 195.258 113.355 195.258 112.845ZM204.029 108.57C205.019 108.57 205.819 108.885 206.429 109.515C207.039 110.135 207.344 111.005 207.344 112.125V117H205.244V112.41C205.244 111.75 205.079 111.245 204.749 110.895C204.419 110.535 203.969 110.355 203.399 110.355C202.819 110.355 202.359 110.535 202.019 110.895C201.689 111.245 201.524 111.75 201.524 112.41V117H199.424V108.69H201.524V109.725C201.804 109.365 202.159 109.085 202.589 108.885C203.029 108.675 203.509 108.57 204.029 108.57ZM208.801 112.815C208.801 111.975 208.966 111.23 209.296 110.58C209.636 109.93 210.096 109.43 210.676 109.08C211.256 108.73 211.901 108.555 212.611 108.555C213.151 108.555 213.666 108.675 214.156 108.915C214.646 109.145 215.036 109.455 215.326 109.845V105.9H217.456V117H215.326V115.77C215.066 116.18 214.701 116.51 214.231 116.76C213.761 117.01 213.216 117.135 212.596 117.135C211.896 117.135 211.256 116.955 210.676 116.595C210.096 116.235 209.636 115.73 209.296 115.08C208.966 114.42 208.801 113.665 208.801 112.815ZM215.341 112.845C215.341 112.335 215.241 111.9 215.041 111.54C214.841 111.17 214.571 110.89 214.231 110.7C213.891 110.5 213.526 110.4 213.136 110.4C212.746 110.4 212.386 110.495 212.056 110.685C211.726 110.875 211.456 111.155 211.246 111.525C211.046 111.885 210.946 112.315 210.946 112.815C210.946 113.315 211.046 113.755 211.246 114.135C211.456 114.505 211.726 114.79 212.056 114.99C212.396 115.19 212.756 115.29 213.136 115.29C213.526 115.29 213.891 115.195 214.231 115.005C214.571 114.805 214.841 114.525 215.041 114.165C215.241 113.795 215.341 113.355 215.341 112.845ZM227.761 108.57C228.391 108.57 228.951 108.71 229.441 108.99C229.931 109.26 230.311 109.665 230.581 110.205C230.861 110.735 231.001 111.375 231.001 112.125V117H228.901V112.41C228.901 111.75 228.736 111.245 228.406 110.895C228.076 110.535 227.626 110.355 227.056 110.355C226.476 110.355 226.016 110.535 225.676 110.895C225.346 111.245 225.181 111.75 225.181 112.41V117H223.081V105.9H225.181V109.725C225.451 109.365 225.811 109.085 226.261 108.885C226.711 108.675 227.211 108.57 227.761 108.57ZM234.063 107.7C233.693 107.7 233.383 107.585 233.133 107.355C232.893 107.115 232.773 106.82 232.773 106.47C232.773 106.12 232.893 105.83 233.133 105.6C233.383 105.36 233.693 105.24 234.063 105.24C234.433 105.24 234.738 105.36 234.978 105.6C235.228 105.83 235.353 106.12 235.353 106.47C235.353 106.82 235.228 107.115 234.978 107.355C234.738 107.585 234.433 107.7 234.063 107.7ZM235.098 108.69V117H232.998V108.69H235.098ZM240.428 108.555C241.048 108.555 241.593 108.68 242.063 108.93C242.533 109.17 242.903 109.485 243.173 109.875V108.69H245.288V117.06C245.288 117.83 245.133 118.515 244.823 119.115C244.513 119.725 244.048 120.205 243.428 120.555C242.808 120.915 242.058 121.095 241.178 121.095C239.998 121.095 239.028 120.82 238.268 120.27C237.518 119.72 237.093 118.97 236.993 118.02H239.078C239.188 118.4 239.423 118.7 239.783 118.92C240.153 119.15 240.598 119.265 241.118 119.265C241.728 119.265 242.223 119.08 242.603 118.71C242.983 118.35 243.173 117.8 243.173 117.06V115.77C242.903 116.16 242.528 116.485 242.048 116.745C241.578 117.005 241.038 117.135 240.428 117.135C239.728 117.135 239.088 116.955 238.508 116.595C237.928 116.235 237.468 115.73 237.128 115.08C236.798 114.42 236.633 113.665 236.633 112.815C236.633 111.975 236.798 111.23 237.128 110.58C237.468 109.93 237.923 109.43 238.493 109.08C239.073 108.73 239.718 108.555 240.428 108.555ZM243.173 112.845C243.173 112.335 243.073 111.9 242.873 111.54C242.673 111.17 242.403 110.89 242.063 110.7C241.723 110.5 241.358 110.4 240.968 110.4C240.578 110.4 240.218 110.495 239.888 110.685C239.558 110.875 239.288 111.155 239.078 111.525C238.878 111.885 238.778 112.315 238.778 112.815C238.778 113.315 238.878 113.755 239.078 114.135C239.288 114.505 239.558 114.79 239.888 114.99C240.228 115.19 240.588 115.29 240.968 115.29C241.358 115.29 241.723 115.195 242.063 115.005C242.403 114.805 242.673 114.525 242.873 114.165C243.073 113.795 243.173 113.355 243.173 112.845ZM252.019 108.57C252.649 108.57 253.209 108.71 253.699 108.99C254.189 109.26 254.569 109.665 254.839 110.205C255.119 110.735 255.259 111.375 255.259 112.125V117H253.159V112.41C253.159 111.75 252.994 111.245 252.664 110.895C252.334 110.535 251.884 110.355 251.314 110.355C250.734 110.355 250.274 110.535 249.934 110.895C249.604 111.245 249.439 111.75 249.439 112.41V117H247.339V105.9H249.439V109.725C249.709 109.365 250.069 109.085 250.519 108.885C250.969 108.675 251.469 108.57 252.019 108.57ZM259.356 105.9V117H257.256V105.9H259.356ZM269.381 108.69L264.236 120.93H262.001L263.801 116.79L260.471 108.69H262.826L264.971 114.495L267.146 108.69H269.381ZM281.932 108.69V117H279.817V115.95C279.547 116.31 279.192 116.595 278.752 116.805C278.322 117.005 277.852 117.105 277.342 117.105C276.692 117.105 276.117 116.97 275.617 116.7C275.117 116.42 274.722 116.015 274.432 115.485C274.152 114.945 274.012 114.305 274.012 113.565V108.69H276.112V113.265C276.112 113.925 276.277 114.435 276.607 114.795C276.937 115.145 277.387 115.32 277.957 115.32C278.537 115.32 278.992 115.145 279.322 114.795C279.652 114.435 279.817 113.925 279.817 113.265V108.69H281.932ZM286.104 109.89C286.374 109.51 286.744 109.195 287.214 108.945C287.694 108.685 288.239 108.555 288.849 108.555C289.559 108.555 290.199 108.73 290.769 109.08C291.349 109.43 291.804 109.93 292.134 110.58C292.474 111.22 292.644 111.965 292.644 112.815C292.644 113.665 292.474 114.42 292.134 115.08C291.804 115.73 291.349 116.235 290.769 116.595C290.199 116.955 289.559 117.135 288.849 117.135C288.239 117.135 287.699 117.01 287.229 116.76C286.769 116.51 286.394 116.195 286.104 115.815V120.96H284.004V108.69H286.104V109.89ZM290.499 112.815C290.499 112.315 290.394 111.885 290.184 111.525C289.984 111.155 289.714 110.875 289.374 110.685C289.044 110.495 288.684 110.4 288.294 110.4C287.914 110.4 287.554 110.5 287.214 110.7C286.884 110.89 286.614 111.17 286.404 111.54C286.204 111.91 286.104 112.345 286.104 112.845C286.104 113.345 286.204 113.78 286.404 114.15C286.614 114.52 286.884 114.805 287.214 115.005C287.554 115.195 287.914 115.29 288.294 115.29C288.684 115.29 289.044 115.19 289.374 114.99C289.714 114.79 289.984 114.505 290.184 114.135C290.394 113.765 290.499 113.325 290.499 112.815ZM298.85 108.57C299.48 108.57 300.04 108.71 300.53 108.99C301.02 109.26 301.4 109.665 301.67 110.205C301.95 110.735 302.09 111.375 302.09 112.125V117H299.99V112.41C299.99 111.75 299.825 111.245 299.495 110.895C299.165 110.535 298.715 110.355 298.145 110.355C297.565 110.355 297.105 110.535 296.765 110.895C296.435 111.245 296.27 111.75 296.27 112.41V117H294.17V105.9H296.27V109.725C296.54 109.365 296.9 109.085 297.35 108.885C297.8 108.675 298.3 108.57 298.85 108.57ZM307.777 117.135C306.977 117.135 306.257 116.96 305.617 116.61C304.977 116.25 304.472 115.745 304.102 115.095C303.742 114.445 303.562 113.695 303.562 112.845C303.562 111.995 303.747 111.245 304.117 110.595C304.497 109.945 305.012 109.445 305.662 109.095C306.312 108.735 307.037 108.555 307.837 108.555C308.637 108.555 309.362 108.735 310.012 109.095C310.662 109.445 311.172 109.945 311.542 110.595C311.922 111.245 312.112 111.995 312.112 112.845C312.112 113.695 311.917 114.445 311.527 115.095C311.147 115.745 310.627 116.25 309.967 116.61C309.317 116.96 308.587 117.135 307.777 117.135ZM307.777 115.305C308.157 115.305 308.512 115.215 308.842 115.035C309.182 114.845 309.452 114.565 309.652 114.195C309.852 113.825 309.952 113.375 309.952 112.845C309.952 112.055 309.742 111.45 309.322 111.03C308.912 110.6 308.407 110.385 307.807 110.385C307.207 110.385 306.702 110.6 306.292 111.03C305.892 111.45 305.692 112.055 305.692 112.845C305.692 113.635 305.887 114.245 306.277 114.675C306.677 115.095 307.177 115.305 307.777 115.305ZM315.753 105.9V117H313.653V105.9H315.753ZM317.287 112.815C317.287 111.975 317.452 111.23 317.782 110.58C318.122 109.93 318.582 109.43 319.162 109.08C319.742 108.73 320.387 108.555 321.097 108.555C321.637 108.555 322.152 108.675 322.642 108.915C323.132 109.145 323.522 109.455 323.812 109.845V105.9H325.942V117H323.812V115.77C323.552 116.18 323.187 116.51 322.717 116.76C322.247 117.01 321.702 117.135 321.082 117.135C320.382 117.135 319.742 116.955 319.162 116.595C318.582 116.235 318.122 115.73 317.782 115.08C317.452 114.42 317.287 113.665 317.287 112.815ZM323.827 112.845C323.827 112.335 323.727 111.9 323.527 111.54C323.327 111.17 323.057 110.89 322.717 110.7C322.377 110.5 322.012 110.4 321.622 110.4C321.232 110.4 320.872 110.495 320.542 110.685C320.212 110.875 319.942 111.155 319.732 111.525C319.532 111.885 319.432 112.315 319.432 112.815C319.432 113.315 319.532 113.755 319.732 114.135C319.942 114.505 320.212 114.79 320.542 114.99C320.882 115.19 321.242 115.29 321.622 115.29C322.012 115.29 322.377 115.195 322.717 115.005C323.057 114.805 323.327 114.525 323.527 114.165C323.727 113.795 323.827 113.355 323.827 112.845ZM102.399 133.415V137.435C102.399 137.715 102.464 137.92 102.594 138.05C102.734 138.17 102.964 138.23 103.284 138.23H104.259V140H102.939C101.169 140 100.284 139.14 100.284 137.42V133.415H99.2939V131.69H100.284V129.635H102.399V131.69H104.259V133.415H102.399ZM110.449 131.57C111.079 131.57 111.639 131.71 112.129 131.99C112.619 132.26 112.999 132.665 113.269 133.205C113.549 133.735 113.689 134.375 113.689 135.125V140H111.589V135.41C111.589 134.75 111.424 134.245 111.094 133.895C110.764 133.535 110.314 133.355 109.744 133.355C109.164 133.355 108.704 133.535 108.364 133.895C108.034 134.245 107.869 134.75 107.869 135.41V140H105.769V128.9H107.869V132.725C108.139 132.365 108.499 132.085 108.949 131.885C109.399 131.675 109.899 131.57 110.449 131.57ZM123.411 135.665C123.411 135.965 123.391 136.235 123.351 136.475H117.276C117.326 137.075 117.536 137.545 117.906 137.885C118.276 138.225 118.731 138.395 119.271 138.395C120.051 138.395 120.606 138.06 120.936 137.39H123.201C122.961 138.19 122.501 138.85 121.821 139.37C121.141 139.88 120.306 140.135 119.316 140.135C118.516 140.135 117.796 139.96 117.156 139.61C116.526 139.25 116.031 138.745 115.671 138.095C115.321 137.445 115.146 136.695 115.146 135.845C115.146 134.985 115.321 134.23 115.671 133.58C116.021 132.93 116.511 132.43 117.141 132.08C117.771 131.73 118.496 131.555 119.316 131.555C120.106 131.555 120.811 131.725 121.431 132.065C122.061 132.405 122.546 132.89 122.886 133.52C123.236 134.14 123.411 134.855 123.411 135.665ZM121.236 135.065C121.226 134.525 121.031 134.095 120.651 133.775C120.271 133.445 119.806 133.28 119.256 133.28C118.736 133.28 118.296 133.44 117.936 133.76C117.586 134.07 117.371 134.505 117.291 135.065H121.236ZM127.978 135.845C127.978 134.985 128.153 134.235 128.503 133.595C128.853 132.945 129.338 132.445 129.958 132.095C130.578 131.735 131.288 131.555 132.088 131.555C133.118 131.555 133.968 131.815 134.638 132.335C135.318 132.845 135.773 133.565 136.003 134.495H133.738C133.618 134.135 133.413 133.855 133.123 133.655C132.843 133.445 132.493 133.34 132.073 133.34C131.473 133.34 130.998 133.56 130.648 134C130.298 134.43 130.123 135.045 130.123 135.845C130.123 136.635 130.298 137.25 130.648 137.69C130.998 138.12 131.473 138.335 132.073 138.335C132.923 138.335 133.478 137.955 133.738 137.195H136.003C135.773 138.095 135.318 138.81 134.638 139.34C133.958 139.87 133.108 140.135 132.088 140.135C131.288 140.135 130.578 139.96 129.958 139.61C129.338 139.25 128.853 138.75 128.503 138.11C128.153 137.46 127.978 136.705 127.978 135.845ZM142.222 131.57C142.852 131.57 143.412 131.71 143.902 131.99C144.392 132.26 144.772 132.665 145.042 133.205C145.322 133.735 145.462 134.375 145.462 135.125V140H143.362V135.41C143.362 134.75 143.197 134.245 142.867 133.895C142.537 133.535 142.087 133.355 141.517 133.355C140.937 133.355 140.477 133.535 140.137 133.895C139.807 134.245 139.642 134.75 139.642 135.41V140H137.542V128.9H139.642V132.725C139.912 132.365 140.272 132.085 140.722 131.885C141.172 131.675 141.672 131.57 142.222 131.57ZM155.184 135.665C155.184 135.965 155.164 136.235 155.124 136.475H149.049C149.099 137.075 149.309 137.545 149.679 137.885C150.049 138.225 150.504 138.395 151.044 138.395C151.824 138.395 152.379 138.06 152.709 137.39H154.974C154.734 138.19 154.274 138.85 153.594 139.37C152.914 139.88 152.079 140.135 151.089 140.135C150.289 140.135 149.569 139.96 148.929 139.61C148.299 139.25 147.804 138.745 147.444 138.095C147.094 137.445 146.919 136.695 146.919 135.845C146.919 134.985 147.094 134.23 147.444 133.58C147.794 132.93 148.284 132.43 148.914 132.08C149.544 131.73 150.269 131.555 151.089 131.555C151.879 131.555 152.584 131.725 153.204 132.065C153.834 132.405 154.319 132.89 154.659 133.52C155.009 134.14 155.184 134.855 155.184 135.665ZM153.009 135.065C152.999 134.525 152.804 134.095 152.424 133.775C152.044 133.445 151.579 133.28 151.029 133.28C150.509 133.28 150.069 133.44 149.709 133.76C149.359 134.07 149.144 134.505 149.064 135.065H153.009ZM156.177 135.845C156.177 134.985 156.352 134.235 156.702 133.595C157.052 132.945 157.537 132.445 158.157 132.095C158.777 131.735 159.487 131.555 160.287 131.555C161.317 131.555 162.167 131.815 162.837 132.335C163.517 132.845 163.972 133.565 164.202 134.495H161.937C161.817 134.135 161.612 133.855 161.322 133.655C161.042 133.445 160.692 133.34 160.272 133.34C159.672 133.34 159.197 133.56 158.847 134C158.497 134.43 158.322 135.045 158.322 135.845C158.322 136.635 158.497 137.25 158.847 137.69C159.197 138.12 159.672 138.335 160.272 138.335C161.122 138.335 161.677 137.955 161.937 137.195H164.202C163.972 138.095 163.517 138.81 162.837 139.34C162.157 139.87 161.307 140.135 160.287 140.135C159.487 140.135 158.777 139.96 158.157 139.61C157.537 139.25 157.052 138.75 156.702 138.11C156.352 137.46 156.177 136.705 156.177 135.845ZM170.66 140L167.84 136.46V140H165.74V128.9H167.84V135.215L170.63 131.69H173.36L169.7 135.86L173.39 140H170.66ZM177.68 140.135C177 140.135 176.39 140.015 175.85 139.775C175.31 139.525 174.88 139.19 174.56 138.77C174.25 138.35 174.08 137.885 174.05 137.375H176.165C176.205 137.695 176.36 137.96 176.63 138.17C176.91 138.38 177.255 138.485 177.665 138.485C178.065 138.485 178.375 138.405 178.595 138.245C178.825 138.085 178.94 137.88 178.94 137.63C178.94 137.36 178.8 137.16 178.52 137.03C178.25 136.89 177.815 136.74 177.215 136.58C176.595 136.43 176.085 136.275 175.685 136.115C175.295 135.955 174.955 135.71 174.665 135.38C174.385 135.05 174.245 134.605 174.245 134.045C174.245 133.585 174.375 133.165 174.635 132.785C174.905 132.405 175.285 132.105 175.775 131.885C176.275 131.665 176.86 131.555 177.53 131.555C178.52 131.555 179.31 131.805 179.9 132.305C180.49 132.795 180.815 133.46 180.875 134.3H178.865C178.835 133.97 178.695 133.71 178.445 133.52C178.205 133.32 177.88 133.22 177.47 133.22C177.09 133.22 176.795 133.29 176.585 133.43C176.385 133.57 176.285 133.765 176.285 134.015C176.285 134.295 176.425 134.51 176.705 134.66C176.985 134.8 177.42 134.945 178.01 135.095C178.61 135.245 179.105 135.4 179.495 135.56C179.885 135.72 180.22 135.97 180.5 136.31C180.79 136.64 180.94 137.08 180.95 137.63C180.95 138.11 180.815 138.54 180.545 138.92C180.285 139.3 179.905 139.6 179.405 139.82C178.915 140.03 178.34 140.135 177.68 140.135ZM185.708 135.815C185.708 134.975 185.873 134.23 186.203 133.58C186.543 132.93 186.998 132.43 187.568 132.08C188.148 131.73 188.793 131.555 189.503 131.555C190.123 131.555 190.663 131.68 191.123 131.93C191.593 132.18 191.968 132.495 192.248 132.875V131.69H194.363V140H192.248V138.785C191.978 139.175 191.603 139.5 191.123 139.76C190.653 140.01 190.108 140.135 189.488 140.135C188.788 140.135 188.148 139.955 187.568 139.595C186.998 139.235 186.543 138.73 186.203 138.08C185.873 137.42 185.708 136.665 185.708 135.815ZM192.248 135.845C192.248 135.335 192.148 134.9 191.948 134.54C191.748 134.17 191.478 133.89 191.138 133.7C190.798 133.5 190.433 133.4 190.043 133.4C189.653 133.4 189.293 133.495 188.963 133.685C188.633 133.875 188.363 134.155 188.153 134.525C187.953 134.885 187.853 135.315 187.853 135.815C187.853 136.315 187.953 136.755 188.153 137.135C188.363 137.505 188.633 137.79 188.963 137.99C189.303 138.19 189.663 138.29 190.043 138.29C190.433 138.29 190.798 138.195 191.138 138.005C191.478 137.805 191.748 137.525 191.948 137.165C192.148 136.795 192.248 136.355 192.248 135.845ZM201.019 131.57C202.009 131.57 202.809 131.885 203.419 132.515C204.029 133.135 204.334 134.005 204.334 135.125V140H202.234V135.41C202.234 134.75 202.069 134.245 201.739 133.895C201.409 133.535 200.959 133.355 200.389 133.355C199.809 133.355 199.349 133.535 199.009 133.895C198.679 134.245 198.514 134.75 198.514 135.41V140H196.414V131.69H198.514V132.725C198.794 132.365 199.149 132.085 199.579 131.885C200.019 131.675 200.499 131.57 201.019 131.57ZM205.791 135.815C205.791 134.975 205.956 134.23 206.286 133.58C206.626 132.93 207.086 132.43 207.666 132.08C208.246 131.73 208.891 131.555 209.601 131.555C210.141 131.555 210.656 131.675 211.146 131.915C211.636 132.145 212.026 132.455 212.316 132.845V128.9H214.446V140H212.316V138.77C212.056 139.18 211.691 139.51 211.221 139.76C210.751 140.01 210.206 140.135 209.586 140.135C208.886 140.135 208.246 139.955 207.666 139.595C207.086 139.235 206.626 138.73 206.286 138.08C205.956 137.42 205.791 136.665 205.791 135.815ZM212.331 135.845C212.331 135.335 212.231 134.9 212.031 134.54C211.831 134.17 211.561 133.89 211.221 133.7C210.881 133.5 210.516 133.4 210.126 133.4C209.736 133.4 209.376 133.495 209.046 133.685C208.716 133.875 208.446 134.155 208.236 134.525C208.036 134.885 207.936 135.315 207.936 135.815C207.936 136.315 208.036 136.755 208.236 137.135C208.446 137.505 208.716 137.79 209.046 137.99C209.386 138.19 209.746 138.29 210.126 138.29C210.516 138.29 210.881 138.195 211.221 138.005C211.561 137.805 211.831 137.525 212.031 137.165C212.231 136.795 212.331 136.355 212.331 135.845ZM222.171 132.905C222.441 132.505 222.811 132.18 223.281 131.93C223.761 131.68 224.306 131.555 224.916 131.555C225.626 131.555 226.266 131.73 226.836 132.08C227.416 132.43 227.871 132.93 228.201 133.58C228.541 134.22 228.711 134.965 228.711 135.815C228.711 136.665 228.541 137.42 228.201 138.08C227.871 138.73 227.416 139.235 226.836 139.595C226.266 139.955 225.626 140.135 224.916 140.135C224.296 140.135 223.751 140.015 223.281 139.775C222.821 139.525 222.451 139.205 222.171 138.815V140H220.071V128.9H222.171V132.905ZM226.566 135.815C226.566 135.315 226.461 134.885 226.251 134.525C226.051 134.155 225.781 133.875 225.441 133.685C225.111 133.495 224.751 133.4 224.361 133.4C223.981 133.4 223.621 133.5 223.281 133.7C222.951 133.89 222.681 134.17 222.471 134.54C222.271 134.91 222.171 135.345 222.171 135.845C222.171 136.345 222.271 136.78 222.471 137.15C222.681 137.52 222.951 137.805 223.281 138.005C223.621 138.195 223.981 138.29 224.361 138.29C224.751 138.29 225.111 138.19 225.441 137.99C225.781 137.79 226.051 137.505 226.251 137.135C226.461 136.765 226.566 136.325 226.566 135.815ZM229.697 135.815C229.697 134.975 229.862 134.23 230.192 133.58C230.532 132.93 230.987 132.43 231.557 132.08C232.137 131.73 232.782 131.555 233.492 131.555C234.112 131.555 234.652 131.68 235.112 131.93C235.582 132.18 235.957 132.495 236.237 132.875V131.69H238.352V140H236.237V138.785C235.967 139.175 235.592 139.5 235.112 139.76C234.642 140.01 234.097 140.135 233.477 140.135C232.777 140.135 232.137 139.955 231.557 139.595C230.987 139.235 230.532 138.73 230.192 138.08C229.862 137.42 229.697 136.665 229.697 135.815ZM236.237 135.845C236.237 135.335 236.137 134.9 235.937 134.54C235.737 134.17 235.467 133.89 235.127 133.7C234.787 133.5 234.422 133.4 234.032 133.4C233.642 133.4 233.282 133.495 232.952 133.685C232.622 133.875 232.352 134.155 232.142 134.525C231.942 134.885 231.842 135.315 231.842 135.815C231.842 136.315 231.942 136.755 232.142 137.135C232.352 137.505 232.622 137.79 232.952 137.99C233.292 138.19 233.652 138.29 234.032 138.29C234.422 138.29 234.787 138.195 235.127 138.005C235.467 137.805 235.737 137.525 235.937 137.165C236.137 136.795 236.237 136.355 236.237 135.845ZM242.503 128.9V140H240.403V128.9H242.503ZM244.038 135.815C244.038 134.975 244.203 134.23 244.533 133.58C244.873 132.93 245.328 132.43 245.898 132.08C246.478 131.73 247.123 131.555 247.833 131.555C248.453 131.555 248.993 131.68 249.453 131.93C249.923 132.18 250.298 132.495 250.578 132.875V131.69H252.693V140H250.578V138.785C250.308 139.175 249.933 139.5 249.453 139.76C248.983 140.01 248.438 140.135 247.818 140.135C247.118 140.135 246.478 139.955 245.898 139.595C245.328 139.235 244.873 138.73 244.533 138.08C244.203 137.42 244.038 136.665 244.038 135.815ZM250.578 135.845C250.578 135.335 250.478 134.9 250.278 134.54C250.078 134.17 249.808 133.89 249.468 133.7C249.128 133.5 248.763 133.4 248.373 133.4C247.983 133.4 247.623 133.495 247.293 133.685C246.963 133.875 246.693 134.155 246.483 134.525C246.283 134.885 246.183 135.315 246.183 135.815C246.183 136.315 246.283 136.755 246.483 137.135C246.693 137.505 246.963 137.79 247.293 137.99C247.633 138.19 247.993 138.29 248.373 138.29C248.763 138.29 249.128 138.195 249.468 138.005C249.808 137.805 250.078 137.525 250.278 137.165C250.478 136.795 250.578 136.355 250.578 135.845ZM259.349 131.57C260.339 131.57 261.139 131.885 261.749 132.515C262.359 133.135 262.664 134.005 262.664 135.125V140H260.564V135.41C260.564 134.75 260.399 134.245 260.069 133.895C259.739 133.535 259.289 133.355 258.719 133.355C258.139 133.355 257.679 133.535 257.339 133.895C257.009 134.245 256.844 134.75 256.844 135.41V140H254.744V131.69H256.844V132.725C257.124 132.365 257.479 132.085 257.909 131.885C258.349 131.675 258.829 131.57 259.349 131.57ZM264.121 135.845C264.121 134.985 264.296 134.235 264.646 133.595C264.996 132.945 265.481 132.445 266.101 132.095C266.721 131.735 267.431 131.555 268.231 131.555C269.261 131.555 270.111 131.815 270.781 132.335C271.461 132.845 271.916 133.565 272.146 134.495H269.881C269.761 134.135 269.556 133.855 269.266 133.655C268.986 133.445 268.636 133.34 268.216 133.34C267.616 133.34 267.141 133.56 266.791 134C266.441 134.43 266.266 135.045 266.266 135.845C266.266 136.635 266.441 137.25 266.791 137.69C267.141 138.12 267.616 138.335 268.216 138.335C269.066 138.335 269.621 137.955 269.881 137.195H272.146C271.916 138.095 271.461 138.81 270.781 139.34C270.101 139.87 269.251 140.135 268.231 140.135C267.431 140.135 266.721 139.96 266.101 139.61C265.481 139.25 264.996 138.75 264.646 138.11C264.296 137.46 264.121 136.705 264.121 135.845ZM281.409 135.665C281.409 135.965 281.389 136.235 281.349 136.475H275.274C275.324 137.075 275.534 137.545 275.904 137.885C276.274 138.225 276.729 138.395 277.269 138.395C278.049 138.395 278.604 138.06 278.934 137.39H281.199C280.959 138.19 280.499 138.85 279.819 139.37C279.139 139.88 278.304 140.135 277.314 140.135C276.514 140.135 275.794 139.96 275.154 139.61C274.524 139.25 274.029 138.745 273.669 138.095C273.319 137.445 273.144 136.695 273.144 135.845C273.144 134.985 273.319 134.23 273.669 133.58C274.019 132.93 274.509 132.43 275.139 132.08C275.769 131.73 276.494 131.555 277.314 131.555C278.104 131.555 278.809 131.725 279.429 132.065C280.059 132.405 280.544 132.89 280.884 133.52C281.234 134.14 281.409 134.855 281.409 135.665ZM279.234 135.065C279.224 134.525 279.029 134.095 278.649 133.775C278.269 133.445 277.804 133.28 277.254 133.28C276.734 133.28 276.294 133.44 275.934 133.76C275.584 134.07 275.369 134.505 275.289 135.065H279.234ZM286.122 140.135C285.442 140.135 284.832 140.015 284.292 139.775C283.752 139.525 283.322 139.19 283.002 138.77C282.692 138.35 282.522 137.885 282.492 137.375H284.607C284.647 137.695 284.802 137.96 285.072 138.17C285.352 138.38 285.697 138.485 286.107 138.485C286.507 138.485 286.817 138.405 287.037 138.245C287.267 138.085 287.382 137.88 287.382 137.63C287.382 137.36 287.242 137.16 286.962 137.03C286.692 136.89 286.257 136.74 285.657 136.58C285.037 136.43 284.527 136.275 284.127 136.115C283.737 135.955 283.397 135.71 283.107 135.38C282.827 135.05 282.687 134.605 282.687 134.045C282.687 133.585 282.817 133.165 283.077 132.785C283.347 132.405 283.727 132.105 284.217 131.885C284.717 131.665 285.302 131.555 285.972 131.555C286.962 131.555 287.752 131.805 288.342 132.305C288.932 132.795 289.257 133.46 289.317 134.3H287.307C287.277 133.97 287.137 133.71 286.887 133.52C286.647 133.32 286.322 133.22 285.912 133.22C285.532 133.22 285.237 133.29 285.027 133.43C284.827 133.57 284.727 133.765 284.727 134.015C284.727 134.295 284.867 134.51 285.147 134.66C285.427 134.8 285.862 134.945 286.452 135.095C287.052 135.245 287.547 135.4 287.937 135.56C288.327 135.72 288.662 135.97 288.942 136.31C289.232 136.64 289.382 137.08 289.392 137.63C289.392 138.11 289.257 138.54 288.987 138.92C288.727 139.3 288.347 139.6 287.847 139.82C287.357 140.03 286.782 140.135 286.122 140.135Z" fill="#DE964B"/>
</g>
</g>
<mask id="mask1_499_100" style="mask-type:alpha" maskUnits="userSpaceOnUse" x="393" y="0" width="393" height="233">
<rect x="393" width="393" height="233" rx="25" fill="#F0F0F0"/>
</mask>
<g mask="url(#mask1_499_100)">
<g filter="url(#filter1_bd_499_100)">
</g>
</g>
<defs>
<filter id="filter0_bd_499_100" x="-5" y="-5" width="403" height="246" filterUnits="userSpaceOnUse" color-interpolation-filters="sRGB">
<feFlood flood-opacity="0" result="BackgroundImageFix"/>
<feGaussianBlur in="BackgroundImage" stdDeviation="2.5"/>
<feComposite in2="SourceAlpha" operator="in" result="effect1_backgroundBlur_499_100"/>
<feColorMatrix in="SourceAlpha" type="matrix" values="0 0 0 0 0 0 0 0 0 0 0 0 0 0 0 0 0 0 127 0" result="hardAlpha"/>
<feOffset dy="4"/>
<feGaussianBlur stdDeviation="2"/>
<feComposite in2="hardAlpha" operator="out"/>
<feColorMatrix type="matrix" values="0 0 0 0 0 0 0 0 0 0 0 0 0 0 0 0 0 0 0.25 0"/>
<feBlend mode="normal" in2="effect1_backgroundBlur_499_100" result="effect2_dropShadow_499_100"/>
<feBlend mode="normal" in="SourceGraphic" in2="effect2_dropShadow_499_100" result="shape"/>
</filter>
<filter id="filter1_bd_499_100" x="-6" y="-6" width="403" height="246" filterUnits="userSpaceOnUse" color-interpolation-filters="sRGB">
<feFlood flood-opacity="0" result="BackgroundImageFix"/>
<feGaussianBlur in="BackgroundImage" stdDeviation="2.5"/>
<feComposite in2="SourceAlpha" operator="in" result="effect1_backgroundBlur_499_100"/>
<feColorMatrix in="SourceAlpha" type="matrix" values="0 0 0 0 0 0 0 0 0 0 0 0 0 0 0 0 0 0 127 0" result="hardAlpha"/>
<feOffset dy="4"/>
<feGaussianBlur stdDeviation="2"/>
<feComposite in2="hardAlpha" operator="out"/>
<feColorMatrix type="matrix" values="0 0 0 0 0 0 0 0 0 0 0 0 0 0 0 0 0 0 0.25 0"/>
<feBlend mode="normal" in2="effect1_backgroundBlur_499_100" result="effect2_dropShadow_499_100"/>
<feBlend mode="normal" in="SourceGraphic" in2="effect2_dropShadow_499_100" result="shape"/>
</filter>
</defs>
</svg>
