<svg width="228" height="164" viewBox="0 0 228 164" fill="none" xmlns="http://www.w3.org/2000/svg">
<mask id="mask0_512_385" style="mask-type:alpha" maskUnits="userSpaceOnUse" x="0" y="0" width="220" height="164">
<rect width="220" height="164" rx="25" fill="#AB9F9F"/>
</mask>
<g mask="url(#mask0_512_385)">
<g filter="url(#filter0_bd_512_385)">
<rect width="220" height="164" rx="25" fill="#F0F0F0"/>
<rect x="14" y="14" width="192" height="133" rx="23" stroke="#FAA955" stroke-width="4"/>
<g filter="url(#filter1_dd_512_385)">
<path d="M51.0627 31.53L48.1377 42H45.6627L43.6977 34.545L41.6427 42L39.1827 42.015L36.3627 31.53H38.6127L40.4577 39.66L42.5877 31.53H44.9277L46.9377 39.615L48.7977 31.53H51.0627ZM60.1589 37.665C60.1589 37.965 60.1389 38.235 60.0989 38.475H54.0239C54.0739 39.075 54.2839 39.545 54.6539 39.885C55.0239 40.225 55.4789 40.395 56.0189 40.395C56.7989 40.395 57.3539 40.06 57.6839 39.39H59.9489C59.7089 40.19 59.2489 40.85 58.5689 41.37C57.8889 41.88 57.0539 42.135 56.0639 42.135C55.2639 42.135 54.5439 41.96 53.9039 41.61C53.2739 41.25 52.7789 40.745 52.4189 40.095C52.0689 39.445 51.8939 38.695 51.8939 37.845C51.8939 36.985 52.0689 36.23 52.4189 35.58C52.7689 34.93 53.2589 34.43 53.8889 34.08C54.5189 33.73 55.2439 33.555 56.0639 33.555C56.8539 33.555 57.5589 33.725 58.1789 34.065C58.8089 34.405 59.2939 34.89 59.6339 35.52C59.9839 36.14 60.1589 36.855 60.1589 37.665ZM57.9839 37.065C57.9739 36.525 57.7789 36.095 57.3989 35.775C57.0189 35.445 56.5539 35.28 56.0039 35.28C55.4839 35.28 55.0439 35.44 54.6839 35.76C54.3339 36.07 54.1189 36.505 54.0389 37.065H57.9839ZM64.726 37.815C64.726 36.975 64.891 36.23 65.221 35.58C65.561 34.93 66.016 34.43 66.586 34.08C67.166 33.73 67.811 33.555 68.521 33.555C69.141 33.555 69.681 33.68 70.141 33.93C70.611 34.18 70.986 34.495 71.266 34.875V33.69H73.381V42H71.266V40.785C70.996 41.175 70.621 41.5 70.141 41.76C69.671 42.01 69.126 42.135 68.506 42.135C67.806 42.135 67.166 41.955 66.586 41.595C66.016 41.235 65.561 40.73 65.221 40.08C64.891 39.42 64.726 38.665 64.726 37.815ZM71.266 37.845C71.266 37.335 71.166 36.9 70.966 36.54C70.766 36.17 70.496 35.89 70.156 35.7C69.816 35.5 69.451 35.4 69.061 35.4C68.671 35.4 68.311 35.495 67.981 35.685C67.651 35.875 67.381 36.155 67.171 36.525C66.971 36.885 66.871 37.315 66.871 37.815C66.871 38.315 66.971 38.755 67.171 39.135C67.381 39.505 67.651 39.79 67.981 39.99C68.321 40.19 68.681 40.29 69.061 40.29C69.451 40.29 69.816 40.195 70.156 40.005C70.496 39.805 70.766 39.525 70.966 39.165C71.166 38.795 71.266 38.355 71.266 37.845ZM74.892 37.845C74.892 36.985 75.067 36.235 75.417 35.595C75.767 34.945 76.252 34.445 76.872 34.095C77.492 33.735 78.202 33.555 79.002 33.555C80.032 33.555 80.882 33.815 81.552 34.335C82.232 34.845 82.687 35.565 82.917 36.495H80.652C80.532 36.135 80.327 35.855 80.037 35.655C79.757 35.445 79.407 35.34 78.987 35.34C78.387 35.34 77.912 35.56 77.562 36C77.212 36.43 77.037 37.045 77.037 37.845C77.037 38.635 77.212 39.25 77.562 39.69C77.912 40.12 78.387 40.335 78.987 40.335C79.837 40.335 80.392 39.955 80.652 39.195H82.917C82.687 40.095 82.232 40.81 81.552 41.34C80.872 41.87 80.022 42.135 79.002 42.135C78.202 42.135 77.492 41.96 76.872 41.61C76.252 41.25 75.767 40.75 75.417 40.11C75.067 39.46 74.892 38.705 74.892 37.845ZM86.9004 35.415V39.435C86.9004 39.715 86.9654 39.92 87.0954 40.05C87.2354 40.17 87.4654 40.23 87.7854 40.23H88.7604V42H87.4404C85.6704 42 84.7854 41.14 84.7854 39.42V35.415H83.7954V33.69H84.7854V31.635H86.9004V33.69H88.7604V35.415H86.9004ZM91.3358 32.7C90.9658 32.7 90.6558 32.585 90.4058 32.355C90.1658 32.115 90.0458 31.82 90.0458 31.47C90.0458 31.12 90.1658 30.83 90.4058 30.6C90.6558 30.36 90.9658 30.24 91.3358 30.24C91.7058 30.24 92.0108 30.36 92.2508 30.6C92.5008 30.83 92.6258 31.12 92.6258 31.47C92.6258 31.82 92.5008 32.115 92.2508 32.355C92.0108 32.585 91.7058 32.7 91.3358 32.7ZM92.3708 33.69V42H90.2708V33.69H92.3708ZM97.9106 40.065L100.011 33.69H102.246L99.1706 42H96.6206L93.5606 33.69H95.8106L97.9106 40.065ZM111.15 37.665C111.15 37.965 111.13 38.235 111.09 38.475H105.015C105.065 39.075 105.275 39.545 105.645 39.885C106.015 40.225 106.47 40.395 107.01 40.395C107.79 40.395 108.345 40.06 108.675 39.39H110.94C110.7 40.19 110.24 40.85 109.56 41.37C108.88 41.88 108.045 42.135 107.055 42.135C106.255 42.135 105.535 41.96 104.895 41.61C104.265 41.25 103.77 40.745 103.41 40.095C103.06 39.445 102.885 38.695 102.885 37.845C102.885 36.985 103.06 36.23 103.41 35.58C103.76 34.93 104.25 34.43 104.88 34.08C105.51 33.73 106.235 33.555 107.055 33.555C107.845 33.555 108.55 33.725 109.17 34.065C109.8 34.405 110.285 34.89 110.625 35.52C110.975 36.14 111.15 36.855 111.15 37.665ZM108.975 37.065C108.965 36.525 108.77 36.095 108.39 35.775C108.01 35.445 107.545 35.28 106.995 35.28C106.475 35.28 106.035 35.44 105.675 35.76C105.325 36.07 105.11 36.505 105.03 37.065H108.975ZM114.783 30.9V42H112.683V30.9H114.783ZM124.808 33.69L119.663 45.93H117.428L119.228 41.79L115.898 33.69H118.253L120.398 39.495L122.573 33.69H124.808ZM137.359 33.69V42H135.244V40.95C134.974 41.31 134.619 41.595 134.179 41.805C133.749 42.005 133.279 42.105 132.769 42.105C132.119 42.105 131.544 41.97 131.044 41.7C130.544 41.42 130.149 41.015 129.859 40.485C129.579 39.945 129.439 39.305 129.439 38.565V33.69H131.539V38.265C131.539 38.925 131.704 39.435 132.034 39.795C132.364 40.145 132.814 40.32 133.384 40.32C133.964 40.32 134.419 40.145 134.749 39.795C135.079 39.435 135.244 38.925 135.244 38.265V33.69H137.359ZM141.531 34.89C141.801 34.51 142.171 34.195 142.641 33.945C143.121 33.685 143.666 33.555 144.276 33.555C144.986 33.555 145.626 33.73 146.196 34.08C146.776 34.43 147.231 34.93 147.561 35.58C147.901 36.22 148.071 36.965 148.071 37.815C148.071 38.665 147.901 39.42 147.561 40.08C147.231 40.73 146.776 41.235 146.196 41.595C145.626 41.955 144.986 42.135 144.276 42.135C143.666 42.135 143.126 42.01 142.656 41.76C142.196 41.51 141.821 41.195 141.531 40.815V45.96H139.431V33.69H141.531V34.89ZM145.926 37.815C145.926 37.315 145.821 36.885 145.611 36.525C145.411 36.155 145.141 35.875 144.801 35.685C144.471 35.495 144.111 35.4 143.721 35.4C143.341 35.4 142.981 35.5 142.641 35.7C142.311 35.89 142.041 36.17 141.831 36.54C141.631 36.91 141.531 37.345 141.531 37.845C141.531 38.345 141.631 38.78 141.831 39.15C142.041 39.52 142.311 39.805 142.641 40.005C142.981 40.195 143.341 40.29 143.721 40.29C144.111 40.29 144.471 40.19 144.801 39.99C145.141 39.79 145.411 39.505 145.611 39.135C145.821 38.765 145.926 38.325 145.926 37.815ZM149.057 37.815C149.057 36.975 149.222 36.23 149.552 35.58C149.892 34.93 150.352 34.43 150.932 34.08C151.512 33.73 152.157 33.555 152.867 33.555C153.407 33.555 153.922 33.675 154.412 33.915C154.902 34.145 155.292 34.455 155.582 34.845V30.9H157.712V42H155.582V40.77C155.322 41.18 154.957 41.51 154.487 41.76C154.017 42.01 153.472 42.135 152.852 42.135C152.152 42.135 151.512 41.955 150.932 41.595C150.352 41.235 149.892 40.73 149.552 40.08C149.222 39.42 149.057 38.665 149.057 37.815ZM155.597 37.845C155.597 37.335 155.497 36.9 155.297 36.54C155.097 36.17 154.827 35.89 154.487 35.7C154.147 35.5 153.782 35.4 153.392 35.4C153.002 35.4 152.642 35.495 152.312 35.685C151.982 35.875 151.712 36.155 151.502 36.525C151.302 36.885 151.202 37.315 151.202 37.815C151.202 38.315 151.302 38.755 151.502 39.135C151.712 39.505 151.982 39.79 152.312 39.99C152.652 40.19 153.012 40.29 153.392 40.29C153.782 40.29 154.147 40.195 154.487 40.005C154.827 39.805 155.097 39.525 155.297 39.165C155.497 38.795 155.597 38.355 155.597 37.845ZM159.223 37.815C159.223 36.975 159.388 36.23 159.718 35.58C160.058 34.93 160.513 34.43 161.083 34.08C161.663 33.73 162.308 33.555 163.018 33.555C163.638 33.555 164.178 33.68 164.638 33.93C165.108 34.18 165.483 34.495 165.763 34.875V33.69H167.878V42H165.763V40.785C165.493 41.175 165.118 41.5 164.638 41.76C164.168 42.01 163.623 42.135 163.003 42.135C162.303 42.135 161.663 41.955 161.083 41.595C160.513 41.235 160.058 40.73 159.718 40.08C159.388 39.42 159.223 38.665 159.223 37.815ZM165.763 37.845C165.763 37.335 165.663 36.9 165.463 36.54C165.263 36.17 164.993 35.89 164.653 35.7C164.313 35.5 163.948 35.4 163.558 35.4C163.168 35.4 162.808 35.495 162.478 35.685C162.148 35.875 161.878 36.155 161.668 36.525C161.468 36.885 161.368 37.315 161.368 37.815C161.368 38.315 161.468 38.755 161.668 39.135C161.878 39.505 162.148 39.79 162.478 39.99C162.818 40.19 163.178 40.29 163.558 40.29C163.948 40.29 164.313 40.195 164.653 40.005C164.993 39.805 165.263 39.525 165.463 39.165C165.663 38.795 165.763 38.355 165.763 37.845ZM172.374 35.415V39.435C172.374 39.715 172.439 39.92 172.569 40.05C172.709 40.17 172.939 40.23 173.259 40.23H174.234V42H172.914C171.144 42 170.259 41.14 170.259 39.42V35.415H169.269V33.69H170.259V31.635H172.374V33.69H174.234V35.415H172.374ZM183.469 37.665C183.469 37.965 183.449 38.235 183.409 38.475H177.334C177.384 39.075 177.594 39.545 177.964 39.885C178.334 40.225 178.789 40.395 179.329 40.395C180.109 40.395 180.664 40.06 180.994 39.39H183.259C183.019 40.19 182.559 40.85 181.879 41.37C181.199 41.88 180.364 42.135 179.374 42.135C178.574 42.135 177.854 41.96 177.214 41.61C176.584 41.25 176.089 40.745 175.729 40.095C175.379 39.445 175.204 38.695 175.204 37.845C175.204 36.985 175.379 36.23 175.729 35.58C176.079 34.93 176.569 34.43 177.199 34.08C177.829 33.73 178.554 33.555 179.374 33.555C180.164 33.555 180.869 33.725 181.489 34.065C182.119 34.405 182.604 34.89 182.944 35.52C183.294 36.14 183.469 36.855 183.469 37.665ZM181.294 37.065C181.284 36.525 181.089 36.095 180.709 35.775C180.329 35.445 179.864 35.28 179.314 35.28C178.794 35.28 178.354 35.44 177.994 35.76C177.644 36.07 177.429 36.505 177.349 37.065H181.294ZM51.9564 65.135C51.1564 65.135 50.4364 64.96 49.7964 64.61C49.1564 64.25 48.6514 63.745 48.2814 63.095C47.9214 62.445 47.7414 61.695 47.7414 60.845C47.7414 59.995 47.9264 59.245 48.2964 58.595C48.6764 57.945 49.1914 57.445 49.8414 57.095C50.4914 56.735 51.2164 56.555 52.0164 56.555C52.8164 56.555 53.5414 56.735 54.1914 57.095C54.8414 57.445 55.3514 57.945 55.7214 58.595C56.1014 59.245 56.2914 59.995 56.2914 60.845C56.2914 61.695 56.0964 62.445 55.7064 63.095C55.3264 63.745 54.8064 64.25 54.1464 64.61C53.4964 64.96 52.7664 65.135 51.9564 65.135ZM51.9564 63.305C52.3364 63.305 52.6914 63.215 53.0214 63.035C53.3614 62.845 53.6314 62.565 53.8314 62.195C54.0314 61.825 54.1314 61.375 54.1314 60.845C54.1314 60.055 53.9214 59.45 53.5014 59.03C53.0914 58.6 52.5864 58.385 51.9864 58.385C51.3864 58.385 50.8814 58.6 50.4714 59.03C50.0714 59.45 49.8714 60.055 49.8714 60.845C49.8714 61.635 50.0664 62.245 50.4564 62.675C50.8564 63.095 51.3564 63.305 51.9564 63.305ZM65.6769 56.69V65H63.5619V63.95C63.2919 64.31 62.9369 64.595 62.4969 64.805C62.0669 65.005 61.5969 65.105 61.0869 65.105C60.4369 65.105 59.8619 64.97 59.3619 64.7C58.8619 64.42 58.4669 64.015 58.1769 63.485C57.8969 62.945 57.7569 62.305 57.7569 61.565V56.69H59.8569V61.265C59.8569 61.925 60.0219 62.435 60.3519 62.795C60.6819 63.145 61.1319 63.32 61.7019 63.32C62.2819 63.32 62.7369 63.145 63.0669 62.795C63.3969 62.435 63.5619 61.925 63.5619 61.265V56.69H65.6769ZM69.8489 57.98C70.1189 57.54 70.4689 57.195 70.8989 56.945C71.3389 56.695 71.8389 56.57 72.3989 56.57V58.775H71.8439C71.1839 58.775 70.6839 58.93 70.3439 59.24C70.0139 59.55 69.8489 60.09 69.8489 60.86V65H67.7489V56.69H69.8489V57.98ZM82.0675 56.57C82.6975 56.57 83.2575 56.71 83.7475 56.99C84.2375 57.26 84.6175 57.665 84.8875 58.205C85.1675 58.735 85.3075 59.375 85.3075 60.125V65H83.2075V60.41C83.2075 59.75 83.0425 59.245 82.7125 58.895C82.3825 58.535 81.9325 58.355 81.3625 58.355C80.7825 58.355 80.3225 58.535 79.9825 58.895C79.6525 59.245 79.4875 59.75 79.4875 60.41V65H77.3875V53.9H79.4875V57.725C79.7575 57.365 80.1175 57.085 80.5675 56.885C81.0175 56.675 81.5175 56.57 82.0675 56.57ZM88.3695 55.7C87.9995 55.7 87.6895 55.585 87.4395 55.355C87.1995 55.115 87.0795 54.82 87.0795 54.47C87.0795 54.12 87.1995 53.83 87.4395 53.6C87.6895 53.36 87.9995 53.24 88.3695 53.24C88.7395 53.24 89.0445 53.36 89.2845 53.6C89.5345 53.83 89.6595 54.12 89.6595 54.47C89.6595 54.82 89.5345 55.115 89.2845 55.355C89.0445 55.585 88.7395 55.7 88.3695 55.7ZM89.4045 56.69V65H87.3045V56.69H89.4045ZM94.7343 56.555C95.3543 56.555 95.8993 56.68 96.3693 56.93C96.8393 57.17 97.2093 57.485 97.4793 57.875V56.69H99.5943V65.06C99.5943 65.83 99.4393 66.515 99.1293 67.115C98.8193 67.725 98.3543 68.205 97.7343 68.555C97.1143 68.915 96.3643 69.095 95.4843 69.095C94.3043 69.095 93.3343 68.82 92.5743 68.27C91.8243 67.72 91.3993 66.97 91.2993 66.02H93.3843C93.4943 66.4 93.7293 66.7 94.0893 66.92C94.4593 67.15 94.9043 67.265 95.4243 67.265C96.0343 67.265 96.5293 67.08 96.9093 66.71C97.2893 66.35 97.4793 65.8 97.4793 65.06V63.77C97.2093 64.16 96.8343 64.485 96.3543 64.745C95.8843 65.005 95.3443 65.135 94.7343 65.135C94.0343 65.135 93.3943 64.955 92.8143 64.595C92.2343 64.235 91.7743 63.73 91.4343 63.08C91.1043 62.42 90.9393 61.665 90.9393 60.815C90.9393 59.975 91.1043 59.23 91.4343 58.58C91.7743 57.93 92.2293 57.43 92.7993 57.08C93.3793 56.73 94.0243 56.555 94.7343 56.555ZM97.4793 60.845C97.4793 60.335 97.3793 59.9 97.1793 59.54C96.9793 59.17 96.7093 58.89 96.3693 58.7C96.0293 58.5 95.6643 58.4 95.2743 58.4C94.8843 58.4 94.5243 58.495 94.1943 58.685C93.8643 58.875 93.5943 59.155 93.3843 59.525C93.1843 59.885 93.0843 60.315 93.0843 60.815C93.0843 61.315 93.1843 61.755 93.3843 62.135C93.5943 62.505 93.8643 62.79 94.1943 62.99C94.5343 63.19 94.8943 63.29 95.2743 63.29C95.6643 63.29 96.0293 63.195 96.3693 63.005C96.7093 62.805 96.9793 62.525 97.1793 62.165C97.3793 61.795 97.4793 61.355 97.4793 60.845ZM106.325 56.57C106.955 56.57 107.515 56.71 108.005 56.99C108.495 57.26 108.875 57.665 109.145 58.205C109.425 58.735 109.565 59.375 109.565 60.125V65H107.465V60.41C107.465 59.75 107.3 59.245 106.97 58.895C106.64 58.535 106.19 58.355 105.62 58.355C105.04 58.355 104.58 58.535 104.24 58.895C103.91 59.245 103.745 59.75 103.745 60.41V65H101.645V53.9H103.745V57.725C104.015 57.365 104.375 57.085 104.825 56.885C105.275 56.675 105.775 56.57 106.325 56.57ZM117.952 58.76V60.53H111.592V58.76H117.952ZM119.767 60.83C119.767 60 119.937 59.265 120.277 58.625C120.627 57.975 121.097 57.47 121.687 57.11C122.277 56.75 122.927 56.57 123.637 56.57C124.227 56.57 124.747 56.685 125.197 56.915C125.657 57.135 126.027 57.42 126.307 57.77V56.69H128.422V68.96H126.307V63.86C126.027 64.22 125.652 64.52 125.182 64.76C124.712 65 124.182 65.12 123.592 65.12C122.892 65.12 122.247 64.94 121.657 64.58C121.077 64.21 120.617 63.7 120.277 63.05C119.937 62.4 119.767 61.66 119.767 60.83ZM126.307 60.845C126.307 60.335 126.202 59.895 125.992 59.525C125.782 59.155 125.507 58.875 125.167 58.685C124.837 58.495 124.482 58.4 124.102 58.4C123.732 58.4 123.377 58.495 123.037 58.685C122.707 58.875 122.437 59.155 122.227 59.525C122.017 59.885 121.912 60.32 121.912 60.83C121.912 61.34 122.017 61.785 122.227 62.165C122.437 62.535 122.707 62.815 123.037 63.005C123.377 63.195 123.732 63.29 124.102 63.29C124.482 63.29 124.837 63.195 125.167 63.005C125.507 62.815 125.782 62.535 125.992 62.165C126.202 61.795 126.307 61.355 126.307 60.845ZM138.318 56.69V65H136.203V63.95C135.933 64.31 135.578 64.595 135.138 64.805C134.708 65.005 134.238 65.105 133.728 65.105C133.078 65.105 132.503 64.97 132.003 64.7C131.503 64.42 131.108 64.015 130.818 63.485C130.538 62.945 130.398 62.305 130.398 61.565V56.69H132.498V61.265C132.498 61.925 132.663 62.435 132.993 62.795C133.323 63.145 133.773 63.32 134.343 63.32C134.923 63.32 135.378 63.145 135.708 62.795C136.038 62.435 136.203 61.925 136.203 61.265V56.69H138.318ZM139.85 60.815C139.85 59.975 140.015 59.23 140.345 58.58C140.685 57.93 141.14 57.43 141.71 57.08C142.29 56.73 142.935 56.555 143.645 56.555C144.265 56.555 144.805 56.68 145.265 56.93C145.735 57.18 146.11 57.495 146.39 57.875V56.69H148.505V65H146.39V63.785C146.12 64.175 145.745 64.5 145.265 64.76C144.795 65.01 144.25 65.135 143.63 65.135C142.93 65.135 142.29 64.955 141.71 64.595C141.14 64.235 140.685 63.73 140.345 63.08C140.015 62.42 139.85 61.665 139.85 60.815ZM146.39 60.845C146.39 60.335 146.29 59.9 146.09 59.54C145.89 59.17 145.62 58.89 145.28 58.7C144.94 58.5 144.575 58.4 144.185 58.4C143.795 58.4 143.435 58.495 143.105 58.685C142.775 58.875 142.505 59.155 142.295 59.525C142.095 59.885 141.995 60.315 141.995 60.815C141.995 61.315 142.095 61.755 142.295 62.135C142.505 62.505 142.775 62.79 143.105 62.99C143.445 63.19 143.805 63.29 144.185 63.29C144.575 63.29 144.94 63.195 145.28 63.005C145.62 62.805 145.89 62.525 146.09 62.165C146.29 61.795 146.39 61.355 146.39 60.845ZM152.656 53.9V65H150.556V53.9H152.656ZM155.796 55.7C155.426 55.7 155.116 55.585 154.866 55.355C154.626 55.115 154.506 54.82 154.506 54.47C154.506 54.12 154.626 53.83 154.866 53.6C155.116 53.36 155.426 53.24 155.796 53.24C156.166 53.24 156.471 53.36 156.711 53.6C156.961 53.83 157.086 54.12 157.086 54.47C157.086 54.82 156.961 55.115 156.711 55.355C156.471 55.585 156.166 55.7 155.796 55.7ZM156.831 56.69V65H154.731V56.69H156.831ZM161.351 58.415V62.435C161.351 62.715 161.416 62.92 161.546 63.05C161.686 63.17 161.916 63.23 162.236 63.23H163.211V65H161.891C160.121 65 159.236 64.14 159.236 62.42V58.415H158.246V56.69H159.236V54.635H161.351V56.69H163.211V58.415H161.351ZM172.672 56.69L167.527 68.93H165.292L167.092 64.79L163.762 56.69H166.117L168.262 62.495L170.437 56.69H172.672ZM52.1203 88.135C51.4403 88.135 50.8303 88.015 50.2903 87.775C49.7503 87.525 49.3203 87.19 49.0003 86.77C48.6903 86.35 48.5203 85.885 48.4903 85.375H50.6053C50.6453 85.695 50.8003 85.96 51.0703 86.17C51.3503 86.38 51.6953 86.485 52.1053 86.485C52.5053 86.485 52.8153 86.405 53.0353 86.245C53.2653 86.085 53.3803 85.88 53.3803 85.63C53.3803 85.36 53.2403 85.16 52.9603 85.03C52.6903 84.89 52.2553 84.74 51.6553 84.58C51.0353 84.43 50.5253 84.275 50.1253 84.115C49.7353 83.955 49.3953 83.71 49.1053 83.38C48.8253 83.05 48.6853 82.605 48.6853 82.045C48.6853 81.585 48.8153 81.165 49.0753 80.785C49.3453 80.405 49.7253 80.105 50.2153 79.885C50.7153 79.665 51.3003 79.555 51.9703 79.555C52.9603 79.555 53.7503 79.805 54.3403 80.305C54.9303 80.795 55.2553 81.46 55.3153 82.3H53.3053C53.2753 81.97 53.1353 81.71 52.8853 81.52C52.6453 81.32 52.3203 81.22 51.9103 81.22C51.5303 81.22 51.2353 81.29 51.0253 81.43C50.8253 81.57 50.7253 81.765 50.7253 82.015C50.7253 82.295 50.8653 82.51 51.1453 82.66C51.4253 82.8 51.8603 82.945 52.4503 83.095C53.0503 83.245 53.5453 83.4 53.9353 83.56C54.3253 83.72 54.6603 83.97 54.9403 84.31C55.2303 84.64 55.3803 85.08 55.3903 85.63C55.3903 86.11 55.2553 86.54 54.9853 86.92C54.7253 87.3 54.3453 87.6 53.8453 87.82C53.3553 88.03 52.7803 88.135 52.1203 88.135ZM64.8391 83.665C64.8391 83.965 64.8191 84.235 64.7791 84.475H58.7041C58.7541 85.075 58.9641 85.545 59.3341 85.885C59.7041 86.225 60.1591 86.395 60.6991 86.395C61.4791 86.395 62.0341 86.06 62.3641 85.39H64.6291C64.3891 86.19 63.9291 86.85 63.2491 87.37C62.5691 87.88 61.7341 88.135 60.7441 88.135C59.9441 88.135 59.2241 87.96 58.5841 87.61C57.9541 87.25 57.4591 86.745 57.0991 86.095C56.7491 85.445 56.5741 84.695 56.5741 83.845C56.5741 82.985 56.7491 82.23 57.0991 81.58C57.4491 80.93 57.9391 80.43 58.5691 80.08C59.1991 79.73 59.9241 79.555 60.7441 79.555C61.5341 79.555 62.2391 79.725 62.8591 80.065C63.4891 80.405 63.9741 80.89 64.3141 81.52C64.6641 82.14 64.8391 82.855 64.8391 83.665ZM62.6641 83.065C62.6541 82.525 62.4591 82.095 62.0791 81.775C61.6991 81.445 61.2341 81.28 60.6841 81.28C60.1641 81.28 59.7241 81.44 59.3641 81.76C59.0141 82.07 58.7991 82.505 58.7191 83.065H62.6641ZM68.4719 80.98C68.7419 80.54 69.0919 80.195 69.5219 79.945C69.9619 79.695 70.4619 79.57 71.0219 79.57V81.775H70.4669C69.8069 81.775 69.3069 81.93 68.9669 82.24C68.6369 82.55 68.4719 83.09 68.4719 83.86V88H66.3719V79.69H68.4719V80.98ZM75.9014 86.065L78.0014 79.69H80.2364L77.1614 88H74.6114L71.5514 79.69H73.8014L75.9014 86.065ZM82.4809 78.7C82.1109 78.7 81.8009 78.585 81.5509 78.355C81.3109 78.115 81.1909 77.82 81.1909 77.47C81.1909 77.12 81.3109 76.83 81.5509 76.6C81.8009 76.36 82.1109 76.24 82.4809 76.24C82.8509 76.24 83.1559 76.36 83.3959 76.6C83.6459 76.83 83.7709 77.12 83.7709 77.47C83.7709 77.82 83.6459 78.115 83.3959 78.355C83.1559 78.585 82.8509 78.7 82.4809 78.7ZM83.5159 79.69V88H81.4159V79.69H83.5159ZM85.0507 83.845C85.0507 82.985 85.2257 82.235 85.5757 81.595C85.9257 80.945 86.4107 80.445 87.0307 80.095C87.6507 79.735 88.3607 79.555 89.1607 79.555C90.1907 79.555 91.0407 79.815 91.7107 80.335C92.3907 80.845 92.8457 81.565 93.0757 82.495H90.8107C90.6907 82.135 90.4857 81.855 90.1957 81.655C89.9157 81.445 89.5657 81.34 89.1457 81.34C88.5457 81.34 88.0707 81.56 87.7207 82C87.3707 82.43 87.1957 83.045 87.1957 83.845C87.1957 84.635 87.3707 85.25 87.7207 85.69C88.0707 86.12 88.5457 86.335 89.1457 86.335C89.9957 86.335 90.5507 85.955 90.8107 85.195H93.0757C92.8457 86.095 92.3907 86.81 91.7107 87.34C91.0307 87.87 90.1807 88.135 89.1607 88.135C88.3607 88.135 87.6507 87.96 87.0307 87.61C86.4107 87.25 85.9257 86.75 85.5757 86.11C85.2257 85.46 85.0507 84.705 85.0507 83.845ZM102.339 83.665C102.339 83.965 102.319 84.235 102.279 84.475H96.2041C96.2541 85.075 96.4641 85.545 96.8341 85.885C97.2041 86.225 97.6591 86.395 98.1991 86.395C98.9791 86.395 99.5341 86.06 99.8641 85.39H102.129C101.889 86.19 101.429 86.85 100.749 87.37C100.069 87.88 99.2341 88.135 98.2441 88.135C97.4441 88.135 96.7241 87.96 96.0841 87.61C95.4541 87.25 94.9591 86.745 94.5991 86.095C94.2491 85.445 94.0741 84.695 94.0741 83.845C94.0741 82.985 94.2491 82.23 94.5991 81.58C94.9491 80.93 95.4391 80.43 96.0691 80.08C96.6991 79.73 97.4241 79.555 98.2441 79.555C99.0341 79.555 99.7391 79.725 100.359 80.065C100.989 80.405 101.474 80.89 101.814 81.52C102.164 82.14 102.339 82.855 102.339 83.665ZM100.164 83.065C100.154 82.525 99.9591 82.095 99.5791 81.775C99.1991 81.445 98.7341 81.28 98.1841 81.28C97.6641 81.28 97.2241 81.44 96.8641 81.76C96.5141 82.07 96.2991 82.505 96.2191 83.065H100.164ZM107.052 88.135C106.372 88.135 105.762 88.015 105.222 87.775C104.682 87.525 104.252 87.19 103.932 86.77C103.622 86.35 103.452 85.885 103.422 85.375H105.537C105.577 85.695 105.732 85.96 106.002 86.17C106.282 86.38 106.627 86.485 107.037 86.485C107.437 86.485 107.747 86.405 107.967 86.245C108.197 86.085 108.312 85.88 108.312 85.63C108.312 85.36 108.172 85.16 107.892 85.03C107.622 84.89 107.187 84.74 106.587 84.58C105.967 84.43 105.457 84.275 105.057 84.115C104.667 83.955 104.327 83.71 104.037 83.38C103.757 83.05 103.617 82.605 103.617 82.045C103.617 81.585 103.747 81.165 104.007 80.785C104.277 80.405 104.657 80.105 105.147 79.885C105.647 79.665 106.232 79.555 106.902 79.555C107.892 79.555 108.682 79.805 109.272 80.305C109.862 80.795 110.187 81.46 110.247 82.3H108.237C108.207 81.97 108.067 81.71 107.817 81.52C107.577 81.32 107.252 81.22 106.842 81.22C106.462 81.22 106.167 81.29 105.957 81.43C105.757 81.57 105.657 81.765 105.657 82.015C105.657 82.295 105.797 82.51 106.077 82.66C106.357 82.8 106.792 82.945 107.382 83.095C107.982 83.245 108.477 83.4 108.867 83.56C109.257 83.72 109.592 83.97 109.872 84.31C110.162 84.64 110.312 85.08 110.322 85.63C110.322 86.11 110.187 86.54 109.917 86.92C109.657 87.3 109.277 87.6 108.777 87.82C108.287 88.03 107.712 88.135 107.052 88.135ZM118.065 81.415V85.435C118.065 85.715 118.13 85.92 118.26 86.05C118.4 86.17 118.63 86.23 118.95 86.23H119.925V88H118.605C116.835 88 115.95 87.14 115.95 85.42V81.415H114.96V79.69H115.95V77.635H118.065V79.69H119.925V81.415H118.065ZM125.125 88.135C124.325 88.135 123.605 87.96 122.965 87.61C122.325 87.25 121.82 86.745 121.45 86.095C121.09 85.445 120.91 84.695 120.91 83.845C120.91 82.995 121.095 82.245 121.465 81.595C121.845 80.945 122.36 80.445 123.01 80.095C123.66 79.735 124.385 79.555 125.185 79.555C125.985 79.555 126.71 79.735 127.36 80.095C128.01 80.445 128.52 80.945 128.89 81.595C129.27 82.245 129.46 82.995 129.46 83.845C129.46 84.695 129.265 85.445 128.875 86.095C128.495 86.745 127.975 87.25 127.315 87.61C126.665 87.96 125.935 88.135 125.125 88.135ZM125.125 86.305C125.505 86.305 125.86 86.215 126.19 86.035C126.53 85.845 126.8 85.565 127 85.195C127.2 84.825 127.3 84.375 127.3 83.845C127.3 83.055 127.09 82.45 126.67 82.03C126.26 81.6 125.755 81.385 125.155 81.385C124.555 81.385 124.05 81.6 123.64 82.03C123.24 82.45 123.04 83.055 123.04 83.845C123.04 84.635 123.235 85.245 123.625 85.675C124.025 86.095 124.525 86.305 125.125 86.305ZM146.095 79.69L143.665 88H141.4L139.885 82.195L138.37 88H136.09L133.645 79.69H135.775L137.245 86.02L138.835 79.69H141.055L142.615 86.005L144.085 79.69H146.095ZM151.911 79.57C152.541 79.57 153.101 79.71 153.591 79.99C154.081 80.26 154.461 80.665 154.731 81.205C155.011 81.735 155.151 82.375 155.151 83.125V88H153.051V83.41C153.051 82.75 152.886 82.245 152.556 81.895C152.226 81.535 151.776 81.355 151.206 81.355C150.626 81.355 150.166 81.535 149.826 81.895C149.496 82.245 149.331 82.75 149.331 83.41V88H147.231V76.9H149.331V80.725C149.601 80.365 149.961 80.085 150.411 79.885C150.861 79.675 151.361 79.57 151.911 79.57ZM156.608 83.815C156.608 82.975 156.773 82.23 157.103 81.58C157.443 80.93 157.898 80.43 158.468 80.08C159.048 79.73 159.693 79.555 160.403 79.555C161.023 79.555 161.563 79.68 162.023 79.93C162.493 80.18 162.868 80.495 163.148 80.875V79.69H165.263V88H163.148V86.785C162.878 87.175 162.503 87.5 162.023 87.76C161.553 88.01 161.008 88.135 160.388 88.135C159.688 88.135 159.048 87.955 158.468 87.595C157.898 87.235 157.443 86.73 157.103 86.08C156.773 85.42 156.608 84.665 156.608 83.815ZM163.148 83.845C163.148 83.335 163.048 82.9 162.848 82.54C162.648 82.17 162.378 81.89 162.038 81.7C161.698 81.5 161.333 81.4 160.943 81.4C160.553 81.4 160.193 81.495 159.863 81.685C159.533 81.875 159.263 82.155 159.053 82.525C158.853 82.885 158.753 83.315 158.753 83.815C158.753 84.315 158.853 84.755 159.053 85.135C159.263 85.505 159.533 85.79 159.863 85.99C160.203 86.19 160.563 86.29 160.943 86.29C161.333 86.29 161.698 86.195 162.038 86.005C162.378 85.805 162.648 85.525 162.848 85.165C163.048 84.795 163.148 84.355 163.148 83.845ZM169.759 81.415V85.435C169.759 85.715 169.824 85.92 169.954 86.05C170.094 86.17 170.324 86.23 170.644 86.23H171.619V88H170.299C168.529 88 167.644 87.14 167.644 85.42V81.415H166.654V79.69H167.644V77.635H169.759V79.69H171.619V81.415H169.759ZM33.1952 106.845C33.1952 105.985 33.3702 105.235 33.7202 104.595C34.0702 103.945 34.5552 103.445 35.1752 103.095C35.7952 102.735 36.5052 102.555 37.3052 102.555C38.3352 102.555 39.1852 102.815 39.8552 103.335C40.5352 103.845 40.9902 104.565 41.2202 105.495H38.9552C38.8352 105.135 38.6302 104.855 38.3402 104.655C38.0602 104.445 37.7102 104.34 37.2902 104.34C36.6902 104.34 36.2152 104.56 35.8652 105C35.5152 105.43 35.3402 106.045 35.3402 106.845C35.3402 107.635 35.5152 108.25 35.8652 108.69C36.2152 109.12 36.6902 109.335 37.2902 109.335C38.1402 109.335 38.6952 108.955 38.9552 108.195H41.2202C40.9902 109.095 40.5352 109.81 39.8552 110.34C39.1752 110.87 38.3252 111.135 37.3052 111.135C36.5052 111.135 35.7952 110.96 35.1752 110.61C34.5552 110.25 34.0702 109.75 33.7202 109.11C33.3702 108.46 33.1952 107.705 33.1952 106.845ZM50.6036 102.69V111H48.4886V109.95C48.2186 110.31 47.8636 110.595 47.4236 110.805C46.9936 111.005 46.5236 111.105 46.0136 111.105C45.3636 111.105 44.7886 110.97 44.2886 110.7C43.7886 110.42 43.3936 110.015 43.1036 109.485C42.8236 108.945 42.6836 108.305 42.6836 107.565V102.69H44.7836V107.265C44.7836 107.925 44.9486 108.435 45.2786 108.795C45.6086 109.145 46.0586 109.32 46.6286 109.32C47.2086 109.32 47.6636 109.145 47.9936 108.795C48.3236 108.435 48.4886 107.925 48.4886 107.265V102.69H50.6036ZM54.7756 103.98C55.0456 103.54 55.3956 103.195 55.8256 102.945C56.2656 102.695 56.7656 102.57 57.3256 102.57V104.775H56.7706C56.1106 104.775 55.6106 104.93 55.2706 105.24C54.9406 105.55 54.7756 106.09 54.7756 106.86V111H52.6756V102.69H54.7756V103.98ZM60.8401 103.98C61.1101 103.54 61.4601 103.195 61.8901 102.945C62.3301 102.695 62.8301 102.57 63.3901 102.57V104.775H62.8351C62.1751 104.775 61.6751 104.93 61.3351 105.24C61.0051 105.55 60.8401 106.09 60.8401 106.86V111H58.7401V102.69H60.8401V103.98ZM72.5295 106.665C72.5295 106.965 72.5095 107.235 72.4695 107.475H66.3945C66.4445 108.075 66.6545 108.545 67.0245 108.885C67.3945 109.225 67.8495 109.395 68.3895 109.395C69.1695 109.395 69.7245 109.06 70.0545 108.39H72.3195C72.0795 109.19 71.6195 109.85 70.9395 110.37C70.2595 110.88 69.4245 111.135 68.4345 111.135C67.6345 111.135 66.9145 110.96 66.2745 110.61C65.6445 110.25 65.1495 109.745 64.7895 109.095C64.4395 108.445 64.2645 107.695 64.2645 106.845C64.2645 105.985 64.4395 105.23 64.7895 104.58C65.1395 103.93 65.6295 103.43 66.2595 103.08C66.8895 102.73 67.6145 102.555 68.4345 102.555C69.2245 102.555 69.9295 102.725 70.5495 103.065C71.1795 103.405 71.6645 103.89 72.0045 104.52C72.3545 105.14 72.5295 105.855 72.5295 106.665ZM70.3545 106.065C70.3445 105.525 70.1495 105.095 69.7695 104.775C69.3895 104.445 68.9245 104.28 68.3745 104.28C67.8545 104.28 67.4145 104.44 67.0545 104.76C66.7045 105.07 66.4895 105.505 66.4095 106.065H70.3545ZM78.6673 102.57C79.6573 102.57 80.4573 102.885 81.0673 103.515C81.6773 104.135 81.9823 105.005 81.9823 106.125V111H79.8823V106.41C79.8823 105.75 79.7173 105.245 79.3873 104.895C79.0573 104.535 78.6073 104.355 78.0373 104.355C77.4573 104.355 76.9973 104.535 76.6573 104.895C76.3273 105.245 76.1623 105.75 76.1623 106.41V111H74.0623V102.69H76.1623V103.725C76.4423 103.365 76.7973 103.085 77.2273 102.885C77.6673 102.675 78.1473 102.57 78.6673 102.57ZM86.4243 104.415V108.435C86.4243 108.715 86.4893 108.92 86.6193 109.05C86.7593 109.17 86.9893 109.23 87.3093 109.23H88.2843V111H86.9643C85.1943 111 84.3093 110.14 84.3093 108.42V104.415H83.3193V102.69H84.3093V100.635H86.4243V102.69H88.2843V104.415H86.4243ZM91.8948 99.9V111H89.7948V99.9H91.8948ZM101.92 102.69L96.7746 114.93H94.5396L96.3396 110.79L93.0096 102.69H95.3646L97.5096 108.495L99.6846 102.69H101.92ZM106.086 106.845C106.086 105.985 106.261 105.235 106.611 104.595C106.961 103.945 107.446 103.445 108.066 103.095C108.686 102.735 109.396 102.555 110.196 102.555C111.226 102.555 112.076 102.815 112.746 103.335C113.426 103.845 113.881 104.565 114.111 105.495H111.846C111.726 105.135 111.521 104.855 111.231 104.655C110.951 104.445 110.601 104.34 110.181 104.34C109.581 104.34 109.106 104.56 108.756 105C108.406 105.43 108.231 106.045 108.231 106.845C108.231 107.635 108.406 108.25 108.756 108.69C109.106 109.12 109.581 109.335 110.181 109.335C111.031 109.335 111.586 108.955 111.846 108.195H114.111C113.881 109.095 113.426 109.81 112.746 110.34C112.066 110.87 111.216 111.135 110.196 111.135C109.396 111.135 108.686 110.96 108.066 110.61C107.446 110.25 106.961 109.75 106.611 109.11C106.261 108.46 106.086 107.705 106.086 106.845ZM123.494 102.69V111H121.379V109.95C121.109 110.31 120.754 110.595 120.314 110.805C119.884 111.005 119.414 111.105 118.904 111.105C118.254 111.105 117.679 110.97 117.179 110.7C116.679 110.42 116.284 110.015 115.994 109.485C115.714 108.945 115.574 108.305 115.574 107.565V102.69H117.674V107.265C117.674 107.925 117.839 108.435 118.169 108.795C118.499 109.145 118.949 109.32 119.519 109.32C120.099 109.32 120.554 109.145 120.884 108.795C121.214 108.435 121.379 107.925 121.379 107.265V102.69H123.494ZM128.746 111.135C128.066 111.135 127.456 111.015 126.916 110.775C126.376 110.525 125.946 110.19 125.626 109.77C125.316 109.35 125.146 108.885 125.116 108.375H127.231C127.271 108.695 127.426 108.96 127.696 109.17C127.976 109.38 128.321 109.485 128.731 109.485C129.131 109.485 129.441 109.405 129.661 109.245C129.891 109.085 130.006 108.88 130.006 108.63C130.006 108.36 129.866 108.16 129.586 108.03C129.316 107.89 128.881 107.74 128.281 107.58C127.661 107.43 127.151 107.275 126.751 107.115C126.361 106.955 126.021 106.71 125.731 106.38C125.451 106.05 125.311 105.605 125.311 105.045C125.311 104.585 125.441 104.165 125.701 103.785C125.971 103.405 126.351 103.105 126.841 102.885C127.341 102.665 127.926 102.555 128.596 102.555C129.586 102.555 130.376 102.805 130.966 103.305C131.556 103.795 131.881 104.46 131.941 105.3H129.931C129.901 104.97 129.761 104.71 129.511 104.52C129.271 104.32 128.946 104.22 128.536 104.22C128.156 104.22 127.861 104.29 127.651 104.43C127.451 104.57 127.351 104.765 127.351 105.015C127.351 105.295 127.491 105.51 127.771 105.66C128.051 105.8 128.486 105.945 129.076 106.095C129.676 106.245 130.171 106.4 130.561 106.56C130.951 106.72 131.286 106.97 131.566 107.31C131.856 107.64 132.006 108.08 132.016 108.63C132.016 109.11 131.881 109.54 131.611 109.92C131.351 110.3 130.971 110.6 130.471 110.82C129.981 111.03 129.406 111.135 128.746 111.135ZM136.185 104.415V108.435C136.185 108.715 136.25 108.92 136.38 109.05C136.52 109.17 136.75 109.23 137.07 109.23H138.045V111H136.725C134.955 111 134.07 110.14 134.07 108.42V104.415H133.08V102.69H134.07V100.635H136.185V102.69H138.045V104.415H136.185ZM143.246 111.135C142.446 111.135 141.726 110.96 141.086 110.61C140.446 110.25 139.941 109.745 139.571 109.095C139.211 108.445 139.031 107.695 139.031 106.845C139.031 105.995 139.216 105.245 139.586 104.595C139.966 103.945 140.481 103.445 141.131 103.095C141.781 102.735 142.506 102.555 143.306 102.555C144.106 102.555 144.831 102.735 145.481 103.095C146.131 103.445 146.641 103.945 147.011 104.595C147.391 105.245 147.581 105.995 147.581 106.845C147.581 107.695 147.386 108.445 146.996 109.095C146.616 109.745 146.096 110.25 145.436 110.61C144.786 110.96 144.056 111.135 143.246 111.135ZM143.246 109.305C143.626 109.305 143.981 109.215 144.311 109.035C144.651 108.845 144.921 108.565 145.121 108.195C145.321 107.825 145.421 107.375 145.421 106.845C145.421 106.055 145.211 105.45 144.791 105.03C144.381 104.6 143.876 104.385 143.276 104.385C142.676 104.385 142.171 104.6 141.761 105.03C141.361 105.45 141.161 106.055 141.161 106.845C141.161 107.635 141.356 108.245 141.746 108.675C142.146 109.095 142.646 109.305 143.246 109.305ZM159.441 102.57C160.461 102.57 161.281 102.885 161.901 103.515C162.531 104.135 162.846 105.005 162.846 106.125V111H160.746V106.41C160.746 105.76 160.581 105.265 160.251 104.925C159.921 104.575 159.471 104.4 158.901 104.4C158.331 104.4 157.876 104.575 157.536 104.925C157.206 105.265 157.041 105.76 157.041 106.41V111H154.941V106.41C154.941 105.76 154.776 105.265 154.446 104.925C154.116 104.575 153.666 104.4 153.096 104.4C152.516 104.4 152.056 104.575 151.716 104.925C151.386 105.265 151.221 105.76 151.221 106.41V111H149.121V102.69H151.221V103.695C151.491 103.345 151.836 103.07 152.256 102.87C152.686 102.67 153.156 102.57 153.666 102.57C154.316 102.57 154.896 102.71 155.406 102.99C155.916 103.26 156.311 103.65 156.591 104.16C156.861 103.68 157.251 103.295 157.761 103.005C158.281 102.715 158.841 102.57 159.441 102.57ZM172.564 106.665C172.564 106.965 172.544 107.235 172.504 107.475H166.429C166.479 108.075 166.689 108.545 167.059 108.885C167.429 109.225 167.884 109.395 168.424 109.395C169.204 109.395 169.759 109.06 170.089 108.39H172.354C172.114 109.19 171.654 109.85 170.974 110.37C170.294 110.88 169.459 111.135 168.469 111.135C167.669 111.135 166.949 110.96 166.309 110.61C165.679 110.25 165.184 109.745 164.824 109.095C164.474 108.445 164.299 107.695 164.299 106.845C164.299 105.985 164.474 105.23 164.824 104.58C165.174 103.93 165.664 103.43 166.294 103.08C166.924 102.73 167.649 102.555 168.469 102.555C169.259 102.555 169.964 102.725 170.584 103.065C171.214 103.405 171.699 103.89 172.039 104.52C172.389 105.14 172.564 105.855 172.564 106.665ZM170.389 106.065C170.379 105.525 170.184 105.095 169.804 104.775C169.424 104.445 168.959 104.28 168.409 104.28C167.889 104.28 167.449 104.44 167.089 104.76C166.739 105.07 166.524 105.505 166.444 106.065H170.389ZM176.197 103.98C176.467 103.54 176.817 103.195 177.247 102.945C177.687 102.695 178.187 102.57 178.747 102.57V104.775H178.192C177.532 104.775 177.032 104.93 176.692 105.24C176.362 105.55 176.197 106.09 176.197 106.86V111H174.097V102.69H176.197V103.98ZM183.341 111.135C182.661 111.135 182.051 111.015 181.511 110.775C180.971 110.525 180.541 110.19 180.221 109.77C179.911 109.35 179.741 108.885 179.711 108.375H181.826C181.866 108.695 182.021 108.96 182.291 109.17C182.571 109.38 182.916 109.485 183.326 109.485C183.726 109.485 184.036 109.405 184.256 109.245C184.486 109.085 184.601 108.88 184.601 108.63C184.601 108.36 184.461 108.16 184.181 108.03C183.911 107.89 183.476 107.74 182.876 107.58C182.256 107.43 181.746 107.275 181.346 107.115C180.956 106.955 180.616 106.71 180.326 106.38C180.046 106.05 179.906 105.605 179.906 105.045C179.906 104.585 180.036 104.165 180.296 103.785C180.566 103.405 180.946 103.105 181.436 102.885C181.936 102.665 182.521 102.555 183.191 102.555C184.181 102.555 184.971 102.805 185.561 103.305C186.151 103.795 186.476 104.46 186.536 105.3H184.526C184.496 104.97 184.356 104.71 184.106 104.52C183.866 104.32 183.541 104.22 183.131 104.22C182.751 104.22 182.456 104.29 182.246 104.43C182.046 104.57 181.946 104.765 181.946 105.015C181.946 105.295 182.086 105.51 182.366 105.66C182.646 105.8 183.081 105.945 183.671 106.095C184.271 106.245 184.766 106.4 185.156 106.56C185.546 106.72 185.881 106.97 186.161 107.31C186.451 107.64 186.601 108.08 186.611 108.63C186.611 109.11 186.476 109.54 186.206 109.92C185.946 110.3 185.566 110.6 185.066 110.82C184.576 111.03 184.001 111.135 183.341 111.135ZM96.3407 125.57C97.3307 125.57 98.1307 125.885 98.7407 126.515C99.3507 127.135 99.6557 128.005 99.6557 129.125V134H97.5557V129.41C97.5557 128.75 97.3907 128.245 97.0607 127.895C96.7307 127.535 96.2807 127.355 95.7107 127.355C95.1307 127.355 94.6707 127.535 94.3307 127.895C94.0007 128.245 93.8357 128.75 93.8357 129.41V134H91.7357V125.69H93.8357V126.725C94.1157 126.365 94.4707 126.085 94.9007 125.885C95.3407 125.675 95.8207 125.57 96.3407 125.57ZM109.378 129.665C109.378 129.965 109.358 130.235 109.318 130.475H103.243C103.293 131.075 103.503 131.545 103.873 131.885C104.243 132.225 104.698 132.395 105.238 132.395C106.018 132.395 106.573 132.06 106.903 131.39H109.168C108.928 132.19 108.468 132.85 107.788 133.37C107.108 133.88 106.273 134.135 105.283 134.135C104.483 134.135 103.763 133.96 103.123 133.61C102.493 133.25 101.998 132.745 101.638 132.095C101.288 131.445 101.113 130.695 101.113 129.845C101.113 128.985 101.288 128.23 101.638 127.58C101.988 126.93 102.478 126.43 103.108 126.08C103.738 125.73 104.463 125.555 105.283 125.555C106.073 125.555 106.778 125.725 107.398 126.065C108.028 126.405 108.513 126.89 108.853 127.52C109.203 128.14 109.378 128.855 109.378 129.665ZM107.203 129.065C107.193 128.525 106.998 128.095 106.618 127.775C106.238 127.445 105.773 127.28 105.223 127.28C104.703 127.28 104.263 127.44 103.903 127.76C103.553 128.07 103.338 128.505 103.258 129.065H107.203ZM118.635 129.665C118.635 129.965 118.615 130.235 118.575 130.475H112.5C112.55 131.075 112.76 131.545 113.13 131.885C113.5 132.225 113.955 132.395 114.495 132.395C115.275 132.395 115.83 132.06 116.16 131.39H118.425C118.185 132.19 117.725 132.85 117.045 133.37C116.365 133.88 115.53 134.135 114.54 134.135C113.74 134.135 113.02 133.96 112.38 133.61C111.75 133.25 111.255 132.745 110.895 132.095C110.545 131.445 110.37 130.695 110.37 129.845C110.37 128.985 110.545 128.23 110.895 127.58C111.245 126.93 111.735 126.43 112.365 126.08C112.995 125.73 113.72 125.555 114.54 125.555C115.33 125.555 116.035 125.725 116.655 126.065C117.285 126.405 117.77 126.89 118.11 127.52C118.46 128.14 118.635 128.855 118.635 129.665ZM116.46 129.065C116.45 128.525 116.255 128.095 115.875 127.775C115.495 127.445 115.03 127.28 114.48 127.28C113.96 127.28 113.52 127.44 113.16 127.76C112.81 128.07 112.595 128.505 112.515 129.065H116.46ZM119.628 129.815C119.628 128.975 119.793 128.23 120.123 127.58C120.463 126.93 120.923 126.43 121.503 126.08C122.083 125.73 122.728 125.555 123.438 125.555C123.978 125.555 124.493 125.675 124.983 125.915C125.473 126.145 125.863 126.455 126.153 126.845V122.9H128.283V134H126.153V132.77C125.893 133.18 125.528 133.51 125.058 133.76C124.588 134.01 124.043 134.135 123.423 134.135C122.723 134.135 122.083 133.955 121.503 133.595C120.923 133.235 120.463 132.73 120.123 132.08C119.793 131.42 119.628 130.665 119.628 129.815ZM126.168 129.845C126.168 129.335 126.068 128.9 125.868 128.54C125.668 128.17 125.398 127.89 125.058 127.7C124.718 127.5 124.353 127.4 123.963 127.4C123.573 127.4 123.213 127.495 122.883 127.685C122.553 127.875 122.283 128.155 122.073 128.525C121.873 128.885 121.773 129.315 121.773 129.815C121.773 130.315 121.873 130.755 122.073 131.135C122.283 131.505 122.553 131.79 122.883 131.99C123.223 132.19 123.583 132.29 123.963 132.29C124.353 132.29 124.718 132.195 125.058 132.005C125.398 131.805 125.668 131.525 125.868 131.165C126.068 130.795 126.168 130.355 126.168 129.845Z" fill="#DE964B"/>
</g>
</g>
</g>
<mask id="mask1_512_385" style="mask-type:alpha" maskUnits="userSpaceOnUse" x="227" y="0" width="220" height="164">
<rect x="227" width="220" height="164" rx="25" fill="#AB9F9F"/>
</mask>
<g mask="url(#mask1_512_385)">
<g filter="url(#filter2_d_512_385)">
</g>
</g>
<defs>
<filter id="filter0_bd_512_385" x="-5" y="-5" width="233" height="177" filterUnits="userSpaceOnUse" color-interpolation-filters="sRGB">
<feFlood flood-opacity="0" result="BackgroundImageFix"/>
<feGaussianBlur in="BackgroundImage" stdDeviation="2.5"/>
<feComposite in2="SourceAlpha" operator="in" result="effect1_backgroundBlur_512_385"/>
<feColorMatrix in="SourceAlpha" type="matrix" values="0 0 0 0 0 0 0 0 0 0 0 0 0 0 0 0 0 0 127 0" result="hardAlpha"/>
<feOffset dx="4" dy="4"/>
<feGaussianBlur stdDeviation="2"/>
<feComposite in2="hardAlpha" operator="out"/>
<feColorMatrix type="matrix" values="0 0 0 0 0 0 0 0 0 0 0 0 0 0 0 0 0 0 0.25 0"/>
<feBlend mode="normal" in2="effect1_backgroundBlur_512_385" result="effect2_dropShadow_512_385"/>
<feBlend mode="normal" in="SourceGraphic" in2="effect2_dropShadow_512_385" result="shape"/>
</filter>
<filter id="filter1_dd_512_385" x="14.1953" y="11.2402" width="191.416" height="141.895" filterUnits="userSpaceOnUse" color-interpolation-filters="sRGB">
<feFlood flood-opacity="0" result="BackgroundImageFix"/>
<feColorMatrix in="SourceAlpha" type="matrix" values="0 0 0 0 0 0 0 0 0 0 0 0 0 0 0 0 0 0 127 0" result="hardAlpha"/>
<feOffset dx="-4" dy="-4"/>
<feGaussianBlur stdDeviation="7.5"/>
<feComposite in2="hardAlpha" operator="out"/>
<feColorMatrix type="matrix" values="0 0 0 0 1 0 0 0 0 1 0 0 0 0 1 0 0 0 0.6 0"/>
<feBlend mode="normal" in2="BackgroundImageFix" result="effect1_dropShadow_512_385"/>
<feColorMatrix in="SourceAlpha" type="matrix" values="0 0 0 0 0 0 0 0 0 0 0 0 0 0 0 0 0 0 127 0" result="hardAlpha"/>
<feOffset dx="4" dy="4"/>
<feGaussianBlur stdDeviation="7.5"/>
<feComposite in2="hardAlpha" operator="out"/>
<feColorMatrix type="matrix" values="0 0 0 0 1 0 0 0 0 1 0 0 0 0 1 0 0 0 0.6 0"/>
<feBlend mode="normal" in2="effect1_dropShadow_512_385" result="effect2_dropShadow_512_385"/>
<feBlend mode="normal" in="SourceGraphic" in2="effect2_dropShadow_512_385" result="shape"/>
</filter>
<filter id="filter2_d_512_385" x="0" y="0" width="228" height="172" filterUnits="userSpaceOnUse" color-interpolation-filters="sRGB">
<feFlood flood-opacity="0" result="BackgroundImageFix"/>
<feColorMatrix in="SourceAlpha" type="matrix" values="0 0 0 0 0 0 0 0 0 0 0 0 0 0 0 0 0 0 127 0" result="hardAlpha"/>
<feOffset dx="4" dy="4"/>
<feGaussianBlur stdDeviation="2"/>
<feComposite in2="hardAlpha" operator="out"/>
<feColorMatrix type="matrix" values="0 0 0 0 0 0 0 0 0 0 0 0 0 0 0 0 0 0 0.25 0"/>
<feBlend mode="normal" in2="BackgroundImageFix" result="effect1_dropShadow_512_385"/>
<feBlend mode="normal" in="SourceGraphic" in2="effect1_dropShadow_512_385" result="shape"/>
</filter>
</defs>
</svg>
