<svg width="220" height="164" viewBox="0 0 220 164" fill="none" xmlns="http://www.w3.org/2000/svg">
<mask id="mask0_512_373" style="mask-type:alpha" maskUnits="userSpaceOnUse" x="0" y="0" width="220" height="164">
<rect width="220" height="164" rx="25" fill="#AB9F9F"/>
</mask>
<g mask="url(#mask0_512_373)">
<g filter="url(#filter0_bd_512_373)">
<rect width="220" height="164" rx="25" fill="#FAA955" fill-opacity="0.6"/>
<g filter="url(#filter1_dd_512_373)">
<path d="M32.875 82.25C32.875 80.5333 33.2583 79 34.025 77.65C34.8083 76.2833 35.8667 75.225 37.2 74.475C38.55 73.7083 40.0583 73.325 41.725 73.325C43.675 73.325 45.3833 73.825 46.85 74.825C48.3167 75.825 49.3417 77.2083 49.925 78.975H45.9C45.5 78.1417 44.9333 77.5167 44.2 77.1C43.4833 76.6833 42.65 76.475 41.7 76.475C40.6833 76.475 39.775 76.7167 38.975 77.2C38.1917 77.6667 37.575 78.3333 37.125 79.2C36.6917 80.0667 36.475 81.0833 36.475 82.25C36.475 83.4 36.6917 84.4167 37.125 85.3C37.575 86.1667 38.1917 86.8417 38.975 87.325C39.775 87.7917 40.6833 88.025 41.7 88.025C42.65 88.025 43.4833 87.8167 44.2 87.4C44.9333 86.9667 45.5 86.3333 45.9 85.5H49.925C49.3417 87.2833 48.3167 88.675 46.85 89.675C45.4 90.6583 43.6917 91.15 41.725 91.15C40.0583 91.15 38.55 90.775 37.2 90.025C35.8667 89.2583 34.8083 88.2 34.025 86.85C33.2583 85.5 32.875 83.9667 32.875 82.25ZM59.0645 91.225C57.7311 91.225 56.5311 90.9333 55.4645 90.35C54.3978 89.75 53.5561 88.9083 52.9395 87.825C52.3395 86.7417 52.0395 85.4917 52.0395 84.075C52.0395 82.6583 52.3478 81.4083 52.9645 80.325C53.5978 79.2417 54.4561 78.4083 55.5395 77.825C56.6228 77.225 57.8311 76.925 59.1645 76.925C60.4978 76.925 61.7061 77.225 62.7895 77.825C63.8728 78.4083 64.7228 79.2417 65.3395 80.325C65.9728 81.4083 66.2895 82.6583 66.2895 84.075C66.2895 85.4917 65.9645 86.7417 65.3145 87.825C64.6811 88.9083 63.8145 89.75 62.7145 90.35C61.6311 90.9333 60.4145 91.225 59.0645 91.225ZM59.0645 88.175C59.6978 88.175 60.2895 88.025 60.8395 87.725C61.4061 87.4083 61.8561 86.9417 62.1895 86.325C62.5228 85.7083 62.6895 84.9583 62.6895 84.075C62.6895 82.7583 62.3395 81.75 61.6395 81.05C60.9561 80.3333 60.1145 79.975 59.1145 79.975C58.1145 79.975 57.2728 80.3333 56.5895 81.05C55.9228 81.75 55.5895 82.7583 55.5895 84.075C55.5895 85.3917 55.9145 86.4083 56.5645 87.125C57.2311 87.825 58.0645 88.175 59.0645 88.175ZM76.5318 76.95C78.1818 76.95 79.5152 77.475 80.5318 78.525C81.5485 79.5583 82.0568 81.0083 82.0568 82.875V91H78.5568V83.35C78.5568 82.25 78.2818 81.4083 77.7318 80.825C77.1818 80.225 76.4318 79.925 75.4818 79.925C74.5152 79.925 73.7485 80.225 73.1818 80.825C72.6318 81.4083 72.3568 82.25 72.3568 83.35V91H68.8568V77.15H72.3568V78.875C72.8235 78.275 73.4152 77.8083 74.1318 77.475C74.8652 77.125 75.6652 76.95 76.5318 76.95ZM90.6852 91.225C89.5518 91.225 88.5352 91.025 87.6352 90.625C86.7352 90.2083 86.0185 89.65 85.4852 88.95C84.9685 88.25 84.6852 87.475 84.6352 86.625H88.1602C88.2268 87.1583 88.4852 87.6 88.9352 87.95C89.4018 88.3 89.9768 88.475 90.6602 88.475C91.3268 88.475 91.8435 88.3417 92.2102 88.075C92.5935 87.8083 92.7852 87.4667 92.7852 87.05C92.7852 86.6 92.5518 86.2667 92.0852 86.05C91.6352 85.8167 90.9102 85.5667 89.9102 85.3C88.8768 85.05 88.0268 84.7917 87.3602 84.525C86.7102 84.2583 86.1435 83.85 85.6602 83.3C85.1935 82.75 84.9602 82.0083 84.9602 81.075C84.9602 80.3083 85.1768 79.6083 85.6102 78.975C86.0602 78.3417 86.6935 77.8417 87.5102 77.475C88.3435 77.1083 89.3185 76.925 90.4352 76.925C92.0852 76.925 93.4018 77.3417 94.3852 78.175C95.3685 78.9917 95.9102 80.1 96.0102 81.5H92.6602C92.6102 80.95 92.3768 80.5167 91.9602 80.2C91.5602 79.8667 91.0185 79.7 90.3352 79.7C89.7018 79.7 89.2102 79.8167 88.8602 80.05C88.5268 80.2833 88.3602 80.6083 88.3602 81.025C88.3602 81.4917 88.5935 81.85 89.0602 82.1C89.5268 82.3333 90.2518 82.575 91.2352 82.825C92.2352 83.075 93.0602 83.3333 93.7102 83.6C94.3602 83.8667 94.9185 84.2833 95.3852 84.85C95.8685 85.4 96.1185 86.1333 96.1352 87.05C96.1352 87.85 95.9102 88.5667 95.4602 89.2C95.0268 89.8333 94.3935 90.3333 93.5602 90.7C92.7435 91.05 91.7852 91.225 90.6852 91.225ZM100.783 75.5C100.167 75.5 99.6499 75.3083 99.2332 74.925C98.8332 74.525 98.6332 74.0333 98.6332 73.45C98.6332 72.8667 98.8332 72.3833 99.2332 72C99.6499 71.6 100.167 71.4 100.783 71.4C101.4 71.4 101.908 71.6 102.308 72C102.725 72.3833 102.933 72.8667 102.933 73.45C102.933 74.0333 102.725 74.525 102.308 74.925C101.908 75.3083 101.4 75.5 100.783 75.5ZM102.508 77.15V91H99.0082V77.15H102.508ZM105.066 84.025C105.066 82.625 105.341 81.3833 105.891 80.3C106.458 79.2167 107.225 78.3833 108.191 77.8C109.158 77.2167 110.233 76.925 111.416 76.925C112.316 76.925 113.175 77.125 113.991 77.525C114.808 77.9083 115.458 78.425 115.941 79.075V72.5H119.491V91H115.941V88.95C115.508 89.6333 114.9 90.1833 114.116 90.6C113.333 91.0167 112.425 91.225 111.391 91.225C110.225 91.225 109.158 90.925 108.191 90.325C107.225 89.725 106.458 88.8833 105.891 87.8C105.341 86.7 105.066 85.4417 105.066 84.025ZM115.966 84.075C115.966 83.225 115.8 82.5 115.466 81.9C115.133 81.2833 114.683 80.8167 114.116 80.5C113.55 80.1667 112.941 80 112.291 80C111.641 80 111.041 80.1583 110.491 80.475C109.941 80.7917 109.491 81.2583 109.141 81.875C108.808 82.475 108.641 83.1917 108.641 84.025C108.641 84.8583 108.808 85.5917 109.141 86.225C109.491 86.8417 109.941 87.3167 110.491 87.65C111.058 87.9833 111.658 88.15 112.291 88.15C112.941 88.15 113.55 87.9917 114.116 87.675C114.683 87.3417 115.133 86.875 115.466 86.275C115.8 85.6583 115.966 84.925 115.966 84.075ZM135.785 83.775C135.785 84.275 135.751 84.725 135.685 85.125H125.56C125.643 86.125 125.993 86.9083 126.61 87.475C127.226 88.0417 127.985 88.325 128.885 88.325C130.185 88.325 131.11 87.7667 131.66 86.65H135.435C135.035 87.9833 134.268 89.0833 133.135 89.95C132.001 90.8 130.61 91.225 128.96 91.225C127.626 91.225 126.426 90.9333 125.36 90.35C124.31 89.75 123.485 88.9083 122.885 87.825C122.301 86.7417 122.01 85.4917 122.01 84.075C122.01 82.6417 122.301 81.3833 122.885 80.3C123.468 79.2167 124.285 78.3833 125.335 77.8C126.385 77.2167 127.593 76.925 128.96 76.925C130.276 76.925 131.451 77.2083 132.485 77.775C133.535 78.3417 134.343 79.15 134.91 80.2C135.493 81.2333 135.785 82.425 135.785 83.775ZM132.16 82.775C132.143 81.875 131.818 81.1583 131.185 80.625C130.551 80.075 129.776 79.8 128.86 79.8C127.993 79.8 127.26 80.0667 126.66 80.6C126.076 81.1167 125.718 81.8417 125.585 82.775H132.16ZM141.839 79.3C142.289 78.5667 142.873 77.9917 143.589 77.575C144.323 77.1583 145.156 76.95 146.089 76.95V80.625H145.164C144.064 80.625 143.231 80.8833 142.664 81.4C142.114 81.9167 141.839 82.8167 141.839 84.1V91H138.339V77.15H141.839V79.3ZM147.547 84.025C147.547 82.625 147.822 81.3833 148.372 80.3C148.938 79.2167 149.697 78.3833 150.647 77.8C151.613 77.2167 152.688 76.925 153.872 76.925C154.905 76.925 155.805 77.1333 156.572 77.55C157.355 77.9667 157.98 78.4917 158.447 79.125V77.15H161.972V91H158.447V88.975C157.997 89.625 157.372 90.1667 156.572 90.6C155.788 91.0167 154.88 91.225 153.847 91.225C152.68 91.225 151.613 90.925 150.647 90.325C149.697 89.725 148.938 88.8833 148.372 87.8C147.822 86.7 147.547 85.4417 147.547 84.025ZM158.447 84.075C158.447 83.225 158.28 82.5 157.947 81.9C157.613 81.2833 157.163 80.8167 156.597 80.5C156.03 80.1667 155.422 80 154.772 80C154.122 80 153.522 80.1583 152.972 80.475C152.422 80.7917 151.972 81.2583 151.622 81.875C151.288 82.475 151.122 83.1917 151.122 84.025C151.122 84.8583 151.288 85.5917 151.622 86.225C151.972 86.8417 152.422 87.3167 152.972 87.65C153.538 87.9833 154.138 88.15 154.772 88.15C155.422 88.15 156.03 87.9917 156.597 87.675C157.163 87.3417 157.613 86.875 157.947 86.275C158.28 85.6583 158.447 84.925 158.447 84.075ZM169.465 80.025V86.725C169.465 87.1917 169.573 87.5333 169.79 87.75C170.023 87.95 170.407 88.05 170.94 88.05H172.565V91H170.365C167.415 91 165.94 89.5667 165.94 86.7V80.025H164.29V77.15H165.94V73.725H169.465V77.15H172.565V80.025H169.465ZM187.957 83.775C187.957 84.275 187.924 84.725 187.857 85.125H177.732C177.816 86.125 178.166 86.9083 178.782 87.475C179.399 88.0417 180.157 88.325 181.057 88.325C182.357 88.325 183.282 87.7667 183.832 86.65H187.607C187.207 87.9833 186.441 89.0833 185.307 89.95C184.174 90.8 182.782 91.225 181.132 91.225C179.799 91.225 178.599 90.9333 177.532 90.35C176.482 89.75 175.657 88.9083 175.057 87.825C174.474 86.7417 174.182 85.4917 174.182 84.075C174.182 82.6417 174.474 81.3833 175.057 80.3C175.641 79.2167 176.457 78.3833 177.507 77.8C178.557 77.2167 179.766 76.925 181.132 76.925C182.449 76.925 183.624 77.2083 184.657 77.775C185.707 78.3417 186.516 79.15 187.082 80.2C187.666 81.2333 187.957 82.425 187.957 83.775ZM184.332 82.775C184.316 81.875 183.991 81.1583 183.357 80.625C182.724 80.075 181.949 79.8 181.032 79.8C180.166 79.8 179.432 80.0667 178.832 80.6C178.249 81.1167 177.891 81.8417 177.757 82.775H184.332Z" fill="white"/>
</g>
</g>
</g>
<defs>
<filter id="filter0_bd_512_373" x="-5" y="-5" width="233" height="177" filterUnits="userSpaceOnUse" color-interpolation-filters="sRGB">
<feFlood flood-opacity="0" result="BackgroundImageFix"/>
<feGaussianBlur in="BackgroundImage" stdDeviation="2.5"/>
<feComposite in2="SourceAlpha" operator="in" result="effect1_backgroundBlur_512_373"/>
<feColorMatrix in="SourceAlpha" type="matrix" values="0 0 0 0 0 0 0 0 0 0 0 0 0 0 0 0 0 0 127 0" result="hardAlpha"/>
<feOffset dx="4" dy="4"/>
<feGaussianBlur stdDeviation="2"/>
<feComposite in2="hardAlpha" operator="out"/>
<feColorMatrix type="matrix" values="0 0 0 0 0 0 0 0 0 0 0 0 0 0 0 0 0 0 0.25 0"/>
<feBlend mode="normal" in2="effect1_backgroundBlur_512_373" result="effect2_dropShadow_512_373"/>
<feBlend mode="normal" in="SourceGraphic" in2="effect2_dropShadow_512_373" result="shape"/>
</filter>
<filter id="filter1_dd_512_373" x="13.875" y="52.3999" width="193.083" height="57.8252" filterUnits="userSpaceOnUse" color-interpolation-filters="sRGB">
<feFlood flood-opacity="0" result="BackgroundImageFix"/>
<feColorMatrix in="SourceAlpha" type="matrix" values="0 0 0 0 0 0 0 0 0 0 0 0 0 0 0 0 0 0 127 0" result="hardAlpha"/>
<feOffset dx="-4" dy="-4"/>
<feGaussianBlur stdDeviation="7.5"/>
<feComposite in2="hardAlpha" operator="out"/>
<feColorMatrix type="matrix" values="0 0 0 0 1 0 0 0 0 1 0 0 0 0 1 0 0 0 0.6 0"/>
<feBlend mode="normal" in2="BackgroundImageFix" result="effect1_dropShadow_512_373"/>
<feColorMatrix in="SourceAlpha" type="matrix" values="0 0 0 0 0 0 0 0 0 0 0 0 0 0 0 0 0 0 127 0" result="hardAlpha"/>
<feOffset dx="4" dy="4"/>
<feGaussianBlur stdDeviation="7.5"/>
<feComposite in2="hardAlpha" operator="out"/>
<feColorMatrix type="matrix" values="0 0 0 0 1 0 0 0 0 1 0 0 0 0 1 0 0 0 0.6 0"/>
<feBlend mode="normal" in2="effect1_dropShadow_512_373" result="effect2_dropShadow_512_373"/>
<feBlend mode="normal" in="SourceGraphic" in2="effect2_dropShadow_512_373" result="shape"/>
</filter>
</defs>
</svg>
