<svg width="397" height="233" viewBox="0 0 397 233" fill="none" xmlns="http://www.w3.org/2000/svg">
<mask id="mask0_499_183" style="mask-type:alpha" maskUnits="userSpaceOnUse" x="0" y="0" width="393" height="233">
<rect width="393" height="233" rx="25" fill="#AB9F9F"/>
</mask>
<g mask="url(#mask0_499_183)">
<g filter="url(#filter0_bd_499_183)">
<rect width="393" height="233" rx="25" fill="#F0F0F0"/>
<rect x="21" y="20" width="351" height="192" rx="23" stroke="#BF9D46" stroke-width="4"/>
<g filter="url(#filter1_dd_499_183)">
<path d="M95.5071 88.53L92.5821 99H90.1071L88.1421 91.545L86.0871 99L83.6271 99.015L80.8071 88.53H83.0571L84.9021 96.66L87.0321 88.53H89.3721L91.3821 96.615L93.2421 88.53H95.5071ZM104.603 94.665C104.603 94.965 104.583 95.235 104.543 95.475H98.4683C98.5183 96.075 98.7283 96.545 99.0983 96.885C99.4683 97.225 99.9233 97.395 100.463 97.395C101.243 97.395 101.798 97.06 102.128 96.39H104.393C104.153 97.19 103.693 97.85 103.013 98.37C102.333 98.88 101.498 99.135 100.508 99.135C99.7083 99.135 98.9883 98.96 98.3483 98.61C97.7183 98.25 97.2233 97.745 96.8633 97.095C96.5133 96.445 96.3383 95.695 96.3383 94.845C96.3383 93.985 96.5133 93.23 96.8633 92.58C97.2133 91.93 97.7033 91.43 98.3333 91.08C98.9633 90.73 99.6883 90.555 100.508 90.555C101.298 90.555 102.003 90.725 102.623 91.065C103.253 91.405 103.738 91.89 104.078 92.52C104.428 93.14 104.603 93.855 104.603 94.665ZM102.428 94.065C102.418 93.525 102.223 93.095 101.843 92.775C101.463 92.445 100.998 92.28 100.448 92.28C99.9283 92.28 99.4883 92.44 99.1283 92.76C98.7783 93.07 98.5633 93.505 98.4833 94.065H102.428ZM117.555 90.69V99H115.44V97.95C115.17 98.31 114.815 98.595 114.375 98.805C113.945 99.005 113.475 99.105 112.965 99.105C112.315 99.105 111.74 98.97 111.24 98.7C110.74 98.42 110.345 98.015 110.055 97.485C109.775 96.945 109.635 96.305 109.635 95.565V90.69H111.735V95.265C111.735 95.925 111.9 96.435 112.23 96.795C112.56 97.145 113.01 97.32 113.58 97.32C114.16 97.32 114.615 97.145 114.945 96.795C115.275 96.435 115.44 95.925 115.44 95.265V90.69H117.555ZM122.072 92.415V96.435C122.072 96.715 122.137 96.92 122.267 97.05C122.407 97.17 122.637 97.23 122.957 97.23H123.932V99H122.612C120.842 99 119.957 98.14 119.957 96.42V92.415H118.967V90.69H119.957V88.635H122.072V90.69H123.932V92.415H122.072ZM126.508 89.7C126.138 89.7 125.828 89.585 125.578 89.355C125.338 89.115 125.218 88.82 125.218 88.47C125.218 88.12 125.338 87.83 125.578 87.6C125.828 87.36 126.138 87.24 126.508 87.24C126.878 87.24 127.183 87.36 127.423 87.6C127.673 87.83 127.798 88.12 127.798 88.47C127.798 88.82 127.673 89.115 127.423 89.355C127.183 89.585 126.878 89.7 126.508 89.7ZM127.543 90.69V99H125.443V90.69H127.543ZM131.718 87.9V99H129.618V87.9H131.718ZM134.857 89.7C134.487 89.7 134.177 89.585 133.927 89.355C133.687 89.115 133.567 88.82 133.567 88.47C133.567 88.12 133.687 87.83 133.927 87.6C134.177 87.36 134.487 87.24 134.857 87.24C135.227 87.24 135.532 87.36 135.772 87.6C136.022 87.83 136.147 88.12 136.147 88.47C136.147 88.82 136.022 89.115 135.772 89.355C135.532 89.585 135.227 89.7 134.857 89.7ZM135.892 90.69V99H133.792V90.69H135.892ZM139.887 97.275H143.592V99H137.502V97.305L141.132 92.415H137.517V90.69H143.547V92.385L139.887 97.275ZM152.943 94.665C152.943 94.965 152.923 95.235 152.883 95.475H146.808C146.858 96.075 147.068 96.545 147.438 96.885C147.808 97.225 148.263 97.395 148.803 97.395C149.583 97.395 150.138 97.06 150.468 96.39H152.733C152.493 97.19 152.033 97.85 151.353 98.37C150.673 98.88 149.838 99.135 148.848 99.135C148.048 99.135 147.328 98.96 146.688 98.61C146.058 98.25 145.563 97.745 145.203 97.095C144.853 96.445 144.678 95.695 144.678 94.845C144.678 93.985 144.853 93.23 145.203 92.58C145.553 91.93 146.043 91.43 146.673 91.08C147.303 90.73 148.028 90.555 148.848 90.555C149.638 90.555 150.343 90.725 150.963 91.065C151.593 91.405 152.078 91.89 152.418 92.52C152.768 93.14 152.943 93.855 152.943 94.665ZM150.768 94.065C150.758 93.525 150.563 93.095 150.183 92.775C149.803 92.445 149.338 92.28 148.788 92.28C148.268 92.28 147.828 92.44 147.468 92.76C147.118 93.07 146.903 93.505 146.823 94.065H150.768ZM157.51 94.815C157.51 93.975 157.675 93.23 158.005 92.58C158.345 91.93 158.8 91.43 159.37 91.08C159.95 90.73 160.595 90.555 161.305 90.555C161.925 90.555 162.465 90.68 162.925 90.93C163.395 91.18 163.77 91.495 164.05 91.875V90.69H166.165V99H164.05V97.785C163.78 98.175 163.405 98.5 162.925 98.76C162.455 99.01 161.91 99.135 161.29 99.135C160.59 99.135 159.95 98.955 159.37 98.595C158.8 98.235 158.345 97.73 158.005 97.08C157.675 96.42 157.51 95.665 157.51 94.815ZM164.05 94.845C164.05 94.335 163.95 93.9 163.75 93.54C163.55 93.17 163.28 92.89 162.94 92.7C162.6 92.5 162.235 92.4 161.845 92.4C161.455 92.4 161.095 92.495 160.765 92.685C160.435 92.875 160.165 93.155 159.955 93.525C159.755 93.885 159.655 94.315 159.655 94.815C159.655 95.315 159.755 95.755 159.955 96.135C160.165 96.505 160.435 96.79 160.765 96.99C161.105 97.19 161.465 97.29 161.845 97.29C162.235 97.29 162.6 97.195 162.94 97.005C163.28 96.805 163.55 96.525 163.75 96.165C163.95 95.795 164.05 95.355 164.05 94.845ZM172.821 90.57C173.811 90.57 174.611 90.885 175.221 91.515C175.831 92.135 176.136 93.005 176.136 94.125V99H174.036V94.41C174.036 93.75 173.871 93.245 173.541 92.895C173.211 92.535 172.761 92.355 172.191 92.355C171.611 92.355 171.151 92.535 170.811 92.895C170.481 93.245 170.316 93.75 170.316 94.41V99H168.216V90.69H170.316V91.725C170.596 91.365 170.951 91.085 171.381 90.885C171.821 90.675 172.301 90.57 172.821 90.57ZM186.083 90.69L180.938 102.93H178.703L180.503 98.79L177.173 90.69H179.528L181.673 96.495L183.848 90.69H186.083ZM190.249 94.845C190.249 93.985 190.424 93.235 190.774 92.595C191.124 91.945 191.609 91.445 192.229 91.095C192.849 90.735 193.559 90.555 194.359 90.555C195.389 90.555 196.239 90.815 196.909 91.335C197.589 91.845 198.044 92.565 198.274 93.495H196.009C195.889 93.135 195.684 92.855 195.394 92.655C195.114 92.445 194.764 92.34 194.344 92.34C193.744 92.34 193.269 92.56 192.919 93C192.569 93.43 192.394 94.045 192.394 94.845C192.394 95.635 192.569 96.25 192.919 96.69C193.269 97.12 193.744 97.335 194.344 97.335C195.194 97.335 195.749 96.955 196.009 96.195H198.274C198.044 97.095 197.589 97.81 196.909 98.34C196.229 98.87 195.379 99.135 194.359 99.135C193.559 99.135 192.849 98.96 192.229 98.61C191.609 98.25 191.124 97.75 190.774 97.11C190.424 96.46 190.249 95.705 190.249 94.845ZM203.503 99.135C202.703 99.135 201.983 98.96 201.343 98.61C200.703 98.25 200.198 97.745 199.828 97.095C199.468 96.445 199.288 95.695 199.288 94.845C199.288 93.995 199.473 93.245 199.843 92.595C200.223 91.945 200.738 91.445 201.388 91.095C202.038 90.735 202.763 90.555 203.563 90.555C204.363 90.555 205.088 90.735 205.738 91.095C206.388 91.445 206.898 91.945 207.268 92.595C207.648 93.245 207.838 93.995 207.838 94.845C207.838 95.695 207.643 96.445 207.253 97.095C206.873 97.745 206.353 98.25 205.693 98.61C205.043 98.96 204.313 99.135 203.503 99.135ZM203.503 97.305C203.883 97.305 204.238 97.215 204.568 97.035C204.908 96.845 205.178 96.565 205.378 96.195C205.578 95.825 205.678 95.375 205.678 94.845C205.678 94.055 205.468 93.45 205.048 93.03C204.638 92.6 204.133 92.385 203.533 92.385C202.933 92.385 202.428 92.6 202.018 93.03C201.618 93.45 201.418 94.055 201.418 94.845C201.418 95.635 201.613 96.245 202.003 96.675C202.403 97.095 202.903 97.305 203.503 97.305ZM219.698 90.57C220.718 90.57 221.538 90.885 222.158 91.515C222.788 92.135 223.103 93.005 223.103 94.125V99H221.003V94.41C221.003 93.76 220.838 93.265 220.508 92.925C220.178 92.575 219.728 92.4 219.158 92.4C218.588 92.4 218.133 92.575 217.793 92.925C217.463 93.265 217.298 93.76 217.298 94.41V99H215.198V94.41C215.198 93.76 215.033 93.265 214.703 92.925C214.373 92.575 213.923 92.4 213.353 92.4C212.773 92.4 212.313 92.575 211.973 92.925C211.643 93.265 211.478 93.76 211.478 94.41V99H209.378V90.69H211.478V91.695C211.748 91.345 212.093 91.07 212.513 90.87C212.943 90.67 213.413 90.57 213.923 90.57C214.573 90.57 215.153 90.71 215.663 90.99C216.173 91.26 216.568 91.65 216.848 92.16C217.118 91.68 217.508 91.295 218.018 91.005C218.538 90.715 219.098 90.57 219.698 90.57ZM227.196 91.89C227.466 91.51 227.836 91.195 228.306 90.945C228.786 90.685 229.331 90.555 229.941 90.555C230.651 90.555 231.291 90.73 231.861 91.08C232.441 91.43 232.896 91.93 233.226 92.58C233.566 93.22 233.736 93.965 233.736 94.815C233.736 95.665 233.566 96.42 233.226 97.08C232.896 97.73 232.441 98.235 231.861 98.595C231.291 98.955 230.651 99.135 229.941 99.135C229.331 99.135 228.791 99.01 228.321 98.76C227.861 98.51 227.486 98.195 227.196 97.815V102.96H225.096V90.69H227.196V91.89ZM231.591 94.815C231.591 94.315 231.486 93.885 231.276 93.525C231.076 93.155 230.806 92.875 230.466 92.685C230.136 92.495 229.776 92.4 229.386 92.4C229.006 92.4 228.646 92.5 228.306 92.7C227.976 92.89 227.706 93.17 227.496 93.54C227.296 93.91 227.196 94.345 227.196 94.845C227.196 95.345 227.296 95.78 227.496 96.15C227.706 96.52 227.976 96.805 228.306 97.005C228.646 97.195 229.006 97.29 229.386 97.29C229.776 97.29 230.136 97.19 230.466 96.99C230.806 96.79 231.076 96.505 231.276 96.135C231.486 95.765 231.591 95.325 231.591 94.815ZM238.952 99.135C238.152 99.135 237.432 98.96 236.792 98.61C236.152 98.25 235.647 97.745 235.277 97.095C234.917 96.445 234.737 95.695 234.737 94.845C234.737 93.995 234.922 93.245 235.292 92.595C235.672 91.945 236.187 91.445 236.837 91.095C237.487 90.735 238.212 90.555 239.012 90.555C239.812 90.555 240.537 90.735 241.187 91.095C241.837 91.445 242.347 91.945 242.717 92.595C243.097 93.245 243.287 93.995 243.287 94.845C243.287 95.695 243.092 96.445 242.702 97.095C242.322 97.745 241.802 98.25 241.142 98.61C240.492 98.96 239.762 99.135 238.952 99.135ZM238.952 97.305C239.332 97.305 239.687 97.215 240.017 97.035C240.357 96.845 240.627 96.565 240.827 96.195C241.027 95.825 241.127 95.375 241.127 94.845C241.127 94.055 240.917 93.45 240.497 93.03C240.087 92.6 239.582 92.385 238.982 92.385C238.382 92.385 237.877 92.6 237.467 93.03C237.067 93.45 236.867 94.055 236.867 94.845C236.867 95.635 237.062 96.245 237.452 96.675C237.852 97.095 238.352 97.305 238.952 97.305ZM249.432 90.57C250.422 90.57 251.222 90.885 251.832 91.515C252.442 92.135 252.747 93.005 252.747 94.125V99H250.647V94.41C250.647 93.75 250.482 93.245 250.152 92.895C249.822 92.535 249.372 92.355 248.802 92.355C248.222 92.355 247.762 92.535 247.422 92.895C247.092 93.245 246.927 93.75 246.927 94.41V99H244.827V90.69H246.927V91.725C247.207 91.365 247.562 91.085 247.992 90.885C248.432 90.675 248.912 90.57 249.432 90.57ZM262.469 94.665C262.469 94.965 262.449 95.235 262.409 95.475H256.334C256.384 96.075 256.594 96.545 256.964 96.885C257.334 97.225 257.789 97.395 258.329 97.395C259.109 97.395 259.664 97.06 259.994 96.39H262.259C262.019 97.19 261.559 97.85 260.879 98.37C260.199 98.88 259.364 99.135 258.374 99.135C257.574 99.135 256.854 98.96 256.214 98.61C255.584 98.25 255.089 97.745 254.729 97.095C254.379 96.445 254.204 95.695 254.204 94.845C254.204 93.985 254.379 93.23 254.729 92.58C255.079 91.93 255.569 91.43 256.199 91.08C256.829 90.73 257.554 90.555 258.374 90.555C259.164 90.555 259.869 90.725 260.489 91.065C261.119 91.405 261.604 91.89 261.944 92.52C262.294 93.14 262.469 93.855 262.469 94.665ZM260.294 94.065C260.284 93.525 260.089 93.095 259.709 92.775C259.329 92.445 258.864 92.28 258.314 92.28C257.794 92.28 257.354 92.44 256.994 92.76C256.644 93.07 256.429 93.505 256.349 94.065H260.294ZM268.607 90.57C269.597 90.57 270.397 90.885 271.007 91.515C271.617 92.135 271.922 93.005 271.922 94.125V99H269.822V94.41C269.822 93.75 269.657 93.245 269.327 92.895C268.997 92.535 268.547 92.355 267.977 92.355C267.397 92.355 266.937 92.535 266.597 92.895C266.267 93.245 266.102 93.75 266.102 94.41V99H264.002V90.69H266.102V91.725C266.382 91.365 266.737 91.085 267.167 90.885C267.607 90.675 268.087 90.57 268.607 90.57ZM276.364 92.415V96.435C276.364 96.715 276.429 96.92 276.559 97.05C276.699 97.17 276.929 97.23 277.249 97.23H278.224V99H276.904C275.134 99 274.249 98.14 274.249 96.42V92.415H273.259V90.69H274.249V88.635H276.364V90.69H278.224V92.415H276.364ZM282.769 94.815C282.769 93.975 282.934 93.23 283.264 92.58C283.604 91.93 284.059 91.43 284.629 91.08C285.209 90.73 285.854 90.555 286.564 90.555C287.184 90.555 287.724 90.68 288.184 90.93C288.654 91.18 289.029 91.495 289.309 91.875V90.69H291.424V99H289.309V97.785C289.039 98.175 288.664 98.5 288.184 98.76C287.714 99.01 287.169 99.135 286.549 99.135C285.849 99.135 285.209 98.955 284.629 98.595C284.059 98.235 283.604 97.73 283.264 97.08C282.934 96.42 282.769 95.665 282.769 94.815ZM289.309 94.845C289.309 94.335 289.209 93.9 289.009 93.54C288.809 93.17 288.539 92.89 288.199 92.7C287.859 92.5 287.494 92.4 287.104 92.4C286.714 92.4 286.354 92.495 286.024 92.685C285.694 92.875 285.424 93.155 285.214 93.525C285.014 93.885 284.914 94.315 284.914 94.815C284.914 95.315 285.014 95.755 285.214 96.135C285.424 96.505 285.694 96.79 286.024 96.99C286.364 97.19 286.724 97.29 287.104 97.29C287.494 97.29 287.859 97.195 288.199 97.005C288.539 96.805 288.809 96.525 289.009 96.165C289.209 95.795 289.309 95.355 289.309 94.845ZM298.08 90.57C299.07 90.57 299.87 90.885 300.48 91.515C301.09 92.135 301.395 93.005 301.395 94.125V99H299.295V94.41C299.295 93.75 299.13 93.245 298.8 92.895C298.47 92.535 298.02 92.355 297.45 92.355C296.87 92.355 296.41 92.535 296.07 92.895C295.74 93.245 295.575 93.75 295.575 94.41V99H293.475V90.69H295.575V91.725C295.855 91.365 296.21 91.085 296.64 90.885C297.08 90.675 297.56 90.57 298.08 90.57ZM302.852 94.815C302.852 93.975 303.017 93.23 303.347 92.58C303.687 91.93 304.147 91.43 304.727 91.08C305.307 90.73 305.952 90.555 306.662 90.555C307.202 90.555 307.717 90.675 308.207 90.915C308.697 91.145 309.087 91.455 309.377 91.845V87.9H311.507V99H309.377V97.77C309.117 98.18 308.752 98.51 308.282 98.76C307.812 99.01 307.267 99.135 306.647 99.135C305.947 99.135 305.307 98.955 304.727 98.595C304.147 98.235 303.687 97.73 303.347 97.08C303.017 96.42 302.852 95.665 302.852 94.815ZM309.392 94.845C309.392 94.335 309.292 93.9 309.092 93.54C308.892 93.17 308.622 92.89 308.282 92.7C307.942 92.5 307.577 92.4 307.187 92.4C306.797 92.4 306.437 92.495 306.107 92.685C305.777 92.875 305.507 93.155 305.297 93.525C305.097 93.885 304.997 94.315 304.997 94.815C304.997 95.315 305.097 95.755 305.297 96.135C305.507 96.505 305.777 96.79 306.107 96.99C306.447 97.19 306.807 97.29 307.187 97.29C307.577 97.29 307.942 97.195 308.282 97.005C308.622 96.805 308.892 96.525 309.092 96.165C309.292 95.795 309.392 95.355 309.392 94.845ZM97.8723 117.665C97.8723 117.965 97.8523 118.235 97.8123 118.475H91.7373C91.7873 119.075 91.9973 119.545 92.3673 119.885C92.7373 120.225 93.1923 120.395 93.7323 120.395C94.5123 120.395 95.0673 120.06 95.3973 119.39H97.6623C97.4223 120.19 96.9623 120.85 96.2823 121.37C95.6023 121.88 94.7673 122.135 93.7773 122.135C92.9773 122.135 92.2573 121.96 91.6173 121.61C90.9873 121.25 90.4923 120.745 90.1323 120.095C89.7823 119.445 89.6073 118.695 89.6073 117.845C89.6073 116.985 89.7823 116.23 90.1323 115.58C90.4823 114.93 90.9723 114.43 91.6023 114.08C92.2323 113.73 92.9573 113.555 93.7773 113.555C94.5673 113.555 95.2723 113.725 95.8923 114.065C96.5223 114.405 97.0073 114.89 97.3473 115.52C97.6973 116.14 97.8723 116.855 97.8723 117.665ZM95.6973 117.065C95.6873 116.525 95.4923 116.095 95.1123 115.775C94.7323 115.445 94.2673 115.28 93.7173 115.28C93.1973 115.28 92.7573 115.44 92.3973 115.76C92.0473 116.07 91.8323 116.505 91.7523 117.065H95.6973ZM102.585 122.135C101.905 122.135 101.295 122.015 100.755 121.775C100.215 121.525 99.7851 121.19 99.4651 120.77C99.1551 120.35 98.9851 119.885 98.9551 119.375H101.07C101.11 119.695 101.265 119.96 101.535 120.17C101.815 120.38 102.16 120.485 102.57 120.485C102.97 120.485 103.28 120.405 103.5 120.245C103.73 120.085 103.845 119.88 103.845 119.63C103.845 119.36 103.705 119.16 103.425 119.03C103.155 118.89 102.72 118.74 102.12 118.58C101.5 118.43 100.99 118.275 100.59 118.115C100.2 117.955 99.8601 117.71 99.5701 117.38C99.2901 117.05 99.1501 116.605 99.1501 116.045C99.1501 115.585 99.2801 115.165 99.5401 114.785C99.8101 114.405 100.19 114.105 100.68 113.885C101.18 113.665 101.765 113.555 102.435 113.555C103.425 113.555 104.215 113.805 104.805 114.305C105.395 114.795 105.72 115.46 105.78 116.3H103.77C103.74 115.97 103.6 115.71 103.35 115.52C103.11 115.32 102.785 115.22 102.375 115.22C101.995 115.22 101.7 115.29 101.49 115.43C101.29 115.57 101.19 115.765 101.19 116.015C101.19 116.295 101.33 116.51 101.61 116.66C101.89 116.8 102.325 116.945 102.915 117.095C103.515 117.245 104.01 117.4 104.4 117.56C104.79 117.72 105.125 117.97 105.405 118.31C105.695 118.64 105.845 119.08 105.855 119.63C105.855 120.11 105.72 120.54 105.45 120.92C105.19 121.3 104.81 121.6 104.31 121.82C103.82 122.03 103.245 122.135 102.585 122.135ZM110.024 115.415V119.435C110.024 119.715 110.089 119.92 110.219 120.05C110.359 120.17 110.589 120.23 110.909 120.23H111.884V122H110.564C108.794 122 107.909 121.14 107.909 119.42V115.415H106.919V113.69H107.909V111.635H110.024V113.69H111.884V115.415H110.024ZM112.854 117.815C112.854 116.975 113.019 116.23 113.349 115.58C113.689 114.93 114.144 114.43 114.714 114.08C115.294 113.73 115.939 113.555 116.649 113.555C117.269 113.555 117.809 113.68 118.269 113.93C118.739 114.18 119.114 114.495 119.394 114.875V113.69H121.509V122H119.394V120.785C119.124 121.175 118.749 121.5 118.269 121.76C117.799 122.01 117.254 122.135 116.634 122.135C115.934 122.135 115.294 121.955 114.714 121.595C114.144 121.235 113.689 120.73 113.349 120.08C113.019 119.42 112.854 118.665 112.854 117.815ZM119.394 117.845C119.394 117.335 119.294 116.9 119.094 116.54C118.894 116.17 118.624 115.89 118.284 115.7C117.944 115.5 117.579 115.4 117.189 115.4C116.799 115.4 116.439 115.495 116.109 115.685C115.779 115.875 115.509 116.155 115.299 116.525C115.099 116.885 114.999 117.315 114.999 117.815C114.999 118.315 115.099 118.755 115.299 119.135C115.509 119.505 115.779 119.79 116.109 119.99C116.449 120.19 116.809 120.29 117.189 120.29C117.579 120.29 117.944 120.195 118.284 120.005C118.624 119.805 118.894 119.525 119.094 119.165C119.294 118.795 119.394 118.355 119.394 117.845ZM125.66 114.905C125.93 114.505 126.3 114.18 126.77 113.93C127.25 113.68 127.795 113.555 128.405 113.555C129.115 113.555 129.755 113.73 130.325 114.08C130.905 114.43 131.36 114.93 131.69 115.58C132.03 116.22 132.2 116.965 132.2 117.815C132.2 118.665 132.03 119.42 131.69 120.08C131.36 120.73 130.905 121.235 130.325 121.595C129.755 121.955 129.115 122.135 128.405 122.135C127.785 122.135 127.24 122.015 126.77 121.775C126.31 121.525 125.94 121.205 125.66 120.815V122H123.56V110.9H125.66V114.905ZM130.055 117.815C130.055 117.315 129.95 116.885 129.74 116.525C129.54 116.155 129.27 115.875 128.93 115.685C128.6 115.495 128.24 115.4 127.85 115.4C127.47 115.4 127.11 115.5 126.77 115.7C126.44 115.89 126.17 116.17 125.96 116.54C125.76 116.91 125.66 117.345 125.66 117.845C125.66 118.345 125.76 118.78 125.96 119.15C126.17 119.52 126.44 119.805 126.77 120.005C127.11 120.195 127.47 120.29 127.85 120.29C128.24 120.29 128.6 120.19 128.93 119.99C129.27 119.79 129.54 119.505 129.74 119.135C129.95 118.765 130.055 118.325 130.055 117.815ZM135.826 110.9V122H133.726V110.9H135.826ZM138.966 112.7C138.596 112.7 138.286 112.585 138.036 112.355C137.796 112.115 137.676 111.82 137.676 111.47C137.676 111.12 137.796 110.83 138.036 110.6C138.286 110.36 138.596 110.24 138.966 110.24C139.336 110.24 139.641 110.36 139.881 110.6C140.131 110.83 140.256 111.12 140.256 111.47C140.256 111.82 140.131 112.115 139.881 112.355C139.641 112.585 139.336 112.7 138.966 112.7ZM140.001 113.69V122H137.901V113.69H140.001ZM145.256 122.135C144.576 122.135 143.966 122.015 143.426 121.775C142.886 121.525 142.456 121.19 142.136 120.77C141.826 120.35 141.656 119.885 141.626 119.375H143.741C143.781 119.695 143.936 119.96 144.206 120.17C144.486 120.38 144.831 120.485 145.241 120.485C145.641 120.485 145.951 120.405 146.171 120.245C146.401 120.085 146.516 119.88 146.516 119.63C146.516 119.36 146.376 119.16 146.096 119.03C145.826 118.89 145.391 118.74 144.791 118.58C144.171 118.43 143.661 118.275 143.261 118.115C142.871 117.955 142.531 117.71 142.241 117.38C141.961 117.05 141.821 116.605 141.821 116.045C141.821 115.585 141.951 115.165 142.211 114.785C142.481 114.405 142.861 114.105 143.351 113.885C143.851 113.665 144.436 113.555 145.106 113.555C146.096 113.555 146.886 113.805 147.476 114.305C148.066 114.795 148.391 115.46 148.451 116.3H146.441C146.411 115.97 146.271 115.71 146.021 115.52C145.781 115.32 145.456 115.22 145.046 115.22C144.666 115.22 144.371 115.29 144.161 115.43C143.961 115.57 143.861 115.765 143.861 116.015C143.861 116.295 144.001 116.51 144.281 116.66C144.561 116.8 144.996 116.945 145.586 117.095C146.186 117.245 146.681 117.4 147.071 117.56C147.461 117.72 147.796 117.97 148.076 118.31C148.366 118.64 148.516 119.08 148.526 119.63C148.526 120.11 148.391 120.54 148.121 120.92C147.861 121.3 147.481 121.6 146.981 121.82C146.491 122.03 145.916 122.135 145.256 122.135ZM154.93 113.57C155.56 113.57 156.12 113.71 156.61 113.99C157.1 114.26 157.48 114.665 157.75 115.205C158.03 115.735 158.17 116.375 158.17 117.125V122H156.07V117.41C156.07 116.75 155.905 116.245 155.575 115.895C155.245 115.535 154.795 115.355 154.225 115.355C153.645 115.355 153.185 115.535 152.845 115.895C152.515 116.245 152.35 116.75 152.35 117.41V122H150.25V110.9H152.35V114.725C152.62 114.365 152.98 114.085 153.43 113.885C153.88 113.675 154.38 113.57 154.93 113.57ZM163.201 117.815C163.201 116.975 163.366 116.23 163.696 115.58C164.036 114.93 164.491 114.43 165.061 114.08C165.641 113.73 166.286 113.555 166.996 113.555C167.616 113.555 168.156 113.68 168.616 113.93C169.086 114.18 169.461 114.495 169.741 114.875V113.69H171.856V122H169.741V120.785C169.471 121.175 169.096 121.5 168.616 121.76C168.146 122.01 167.601 122.135 166.981 122.135C166.281 122.135 165.641 121.955 165.061 121.595C164.491 121.235 164.036 120.73 163.696 120.08C163.366 119.42 163.201 118.665 163.201 117.815ZM169.741 117.845C169.741 117.335 169.641 116.9 169.441 116.54C169.241 116.17 168.971 115.89 168.631 115.7C168.291 115.5 167.926 115.4 167.536 115.4C167.146 115.4 166.786 115.495 166.456 115.685C166.126 115.875 165.856 116.155 165.646 116.525C165.446 116.885 165.346 117.315 165.346 117.815C165.346 118.315 165.446 118.755 165.646 119.135C165.856 119.505 166.126 119.79 166.456 119.99C166.796 120.19 167.156 120.29 167.536 120.29C167.926 120.29 168.291 120.195 168.631 120.005C168.971 119.805 169.241 119.525 169.441 119.165C169.641 118.795 169.741 118.355 169.741 117.845ZM178.512 113.57C179.502 113.57 180.302 113.885 180.912 114.515C181.522 115.135 181.827 116.005 181.827 117.125V122H179.727V117.41C179.727 116.75 179.562 116.245 179.232 115.895C178.902 115.535 178.452 115.355 177.882 115.355C177.302 115.355 176.842 115.535 176.502 115.895C176.172 116.245 176.007 116.75 176.007 117.41V122H173.907V113.69H176.007V114.725C176.287 114.365 176.642 114.085 177.072 113.885C177.512 113.675 177.992 113.57 178.512 113.57ZM191.774 113.69L186.629 125.93H184.394L186.194 121.79L182.864 113.69H185.219L187.364 119.495L189.539 113.69H191.774ZM195.94 117.815C195.94 116.975 196.105 116.23 196.435 115.58C196.775 114.93 197.23 114.43 197.8 114.08C198.38 113.73 199.025 113.555 199.735 113.555C200.355 113.555 200.895 113.68 201.355 113.93C201.825 114.18 202.2 114.495 202.48 114.875V113.69H204.595V122H202.48V120.785C202.21 121.175 201.835 121.5 201.355 121.76C200.885 122.01 200.34 122.135 199.72 122.135C199.02 122.135 198.38 121.955 197.8 121.595C197.23 121.235 196.775 120.73 196.435 120.08C196.105 119.42 195.94 118.665 195.94 117.815ZM202.48 117.845C202.48 117.335 202.38 116.9 202.18 116.54C201.98 116.17 201.71 115.89 201.37 115.7C201.03 115.5 200.665 115.4 200.275 115.4C199.885 115.4 199.525 115.495 199.195 115.685C198.865 115.875 198.595 116.155 198.385 116.525C198.185 116.885 198.085 117.315 198.085 117.815C198.085 118.315 198.185 118.755 198.385 119.135C198.595 119.505 198.865 119.79 199.195 119.99C199.535 120.19 199.895 120.29 200.275 120.29C200.665 120.29 201.03 120.195 201.37 120.005C201.71 119.805 201.98 119.525 202.18 119.165C202.38 118.795 202.48 118.355 202.48 117.845ZM206.106 117.845C206.106 116.985 206.281 116.235 206.631 115.595C206.981 114.945 207.466 114.445 208.086 114.095C208.706 113.735 209.416 113.555 210.216 113.555C211.246 113.555 212.096 113.815 212.766 114.335C213.446 114.845 213.901 115.565 214.131 116.495H211.866C211.746 116.135 211.541 115.855 211.251 115.655C210.971 115.445 210.621 115.34 210.201 115.34C209.601 115.34 209.126 115.56 208.776 116C208.426 116.43 208.251 117.045 208.251 117.845C208.251 118.635 208.426 119.25 208.776 119.69C209.126 120.12 209.601 120.335 210.201 120.335C211.051 120.335 211.606 119.955 211.866 119.195H214.131C213.901 120.095 213.446 120.81 212.766 121.34C212.086 121.87 211.236 122.135 210.216 122.135C209.416 122.135 208.706 121.96 208.086 121.61C207.466 121.25 206.981 120.75 206.631 120.11C206.281 119.46 206.106 118.705 206.106 117.845ZM218.115 115.415V119.435C218.115 119.715 218.18 119.92 218.31 120.05C218.45 120.17 218.68 120.23 219 120.23H219.975V122H218.655C216.885 122 216 121.14 216 119.42V115.415H215.01V113.69H216V111.635H218.115V113.69H219.975V115.415H218.115ZM222.55 112.7C222.18 112.7 221.87 112.585 221.62 112.355C221.38 112.115 221.26 111.82 221.26 111.47C221.26 111.12 221.38 110.83 221.62 110.6C221.87 110.36 222.18 110.24 222.55 110.24C222.92 110.24 223.225 110.36 223.465 110.6C223.715 110.83 223.84 111.12 223.84 111.47C223.84 111.82 223.715 112.115 223.465 112.355C223.225 112.585 222.92 112.7 222.55 112.7ZM223.585 113.69V122H221.485V113.69H223.585ZM229.125 120.065L231.225 113.69H233.46L230.385 122H227.835L224.775 113.69H227.025L229.125 120.065ZM235.704 112.7C235.334 112.7 235.024 112.585 234.774 112.355C234.534 112.115 234.414 111.82 234.414 111.47C234.414 111.12 234.534 110.83 234.774 110.6C235.024 110.36 235.334 110.24 235.704 110.24C236.074 110.24 236.379 110.36 236.619 110.6C236.869 110.83 236.994 111.12 236.994 111.47C236.994 111.82 236.869 112.115 236.619 112.355C236.379 112.585 236.074 112.7 235.704 112.7ZM236.739 113.69V122H234.639V113.69H236.739ZM241.259 115.415V119.435C241.259 119.715 241.324 119.92 241.454 120.05C241.594 120.17 241.824 120.23 242.144 120.23H243.119V122H241.799C240.029 122 239.144 121.14 239.144 119.42V115.415H238.154V113.69H239.144V111.635H241.259V113.69H243.119V115.415H241.259ZM252.58 113.69L247.435 125.93H245.2L247 121.79L243.67 113.69H246.025L248.17 119.495L250.345 113.69H252.58ZM259.731 115.415V119.435C259.731 119.715 259.796 119.92 259.926 120.05C260.066 120.17 260.296 120.23 260.616 120.23H261.591V122H260.271C258.501 122 257.616 121.14 257.616 119.42V115.415H256.626V113.69H257.616V111.635H259.731V113.69H261.591V115.415H259.731ZM267.781 113.57C268.411 113.57 268.971 113.71 269.461 113.99C269.951 114.26 270.331 114.665 270.601 115.205C270.881 115.735 271.021 116.375 271.021 117.125V122H268.921V117.41C268.921 116.75 268.756 116.245 268.426 115.895C268.096 115.535 267.646 115.355 267.076 115.355C266.496 115.355 266.036 115.535 265.696 115.895C265.366 116.245 265.201 116.75 265.201 117.41V122H263.101V110.9H265.201V114.725C265.471 114.365 265.831 114.085 266.281 113.885C266.731 113.675 267.231 113.57 267.781 113.57ZM272.478 117.815C272.478 116.975 272.643 116.23 272.973 115.58C273.313 114.93 273.768 114.43 274.338 114.08C274.918 113.73 275.563 113.555 276.273 113.555C276.893 113.555 277.433 113.68 277.893 113.93C278.363 114.18 278.738 114.495 279.018 114.875V113.69H281.133V122H279.018V120.785C278.748 121.175 278.373 121.5 277.893 121.76C277.423 122.01 276.878 122.135 276.258 122.135C275.558 122.135 274.918 121.955 274.338 121.595C273.768 121.235 273.313 120.73 272.973 120.08C272.643 119.42 272.478 118.665 272.478 117.815ZM279.018 117.845C279.018 117.335 278.918 116.9 278.718 116.54C278.518 116.17 278.248 115.89 277.908 115.7C277.568 115.5 277.203 115.4 276.813 115.4C276.423 115.4 276.063 115.495 275.733 115.685C275.403 115.875 275.133 116.155 274.923 116.525C274.723 116.885 274.623 117.315 274.623 117.815C274.623 118.315 274.723 118.755 274.923 119.135C275.133 119.505 275.403 119.79 275.733 119.99C276.073 120.19 276.433 120.29 276.813 120.29C277.203 120.29 277.568 120.195 277.908 120.005C278.248 119.805 278.518 119.525 278.718 119.165C278.918 118.795 279.018 118.355 279.018 117.845ZM285.629 115.415V119.435C285.629 119.715 285.694 119.92 285.824 120.05C285.964 120.17 286.194 120.23 286.514 120.23H287.489V122H286.169C284.399 122 283.514 121.14 283.514 119.42V115.415H282.524V113.69H283.514V111.635H285.629V113.69H287.489V115.415H285.629ZM293.639 112.7C293.269 112.7 292.959 112.585 292.709 112.355C292.469 112.115 292.349 111.82 292.349 111.47C292.349 111.12 292.469 110.83 292.709 110.6C292.959 110.36 293.269 110.24 293.639 110.24C294.009 110.24 294.314 110.36 294.554 110.6C294.804 110.83 294.929 111.12 294.929 111.47C294.929 111.82 294.804 112.115 294.554 112.355C294.314 112.585 294.009 112.7 293.639 112.7ZM294.674 113.69V122H292.574V113.69H294.674ZM299.929 122.135C299.249 122.135 298.639 122.015 298.099 121.775C297.559 121.525 297.129 121.19 296.809 120.77C296.499 120.35 296.329 119.885 296.299 119.375H298.414C298.454 119.695 298.609 119.96 298.879 120.17C299.159 120.38 299.504 120.485 299.914 120.485C300.314 120.485 300.624 120.405 300.844 120.245C301.074 120.085 301.189 119.88 301.189 119.63C301.189 119.36 301.049 119.16 300.769 119.03C300.499 118.89 300.064 118.74 299.464 118.58C298.844 118.43 298.334 118.275 297.934 118.115C297.544 117.955 297.204 117.71 296.914 117.38C296.634 117.05 296.494 116.605 296.494 116.045C296.494 115.585 296.624 115.165 296.884 114.785C297.154 114.405 297.534 114.105 298.024 113.885C298.524 113.665 299.109 113.555 299.779 113.555C300.769 113.555 301.559 113.805 302.149 114.305C302.739 114.795 303.064 115.46 303.124 116.3H301.114C301.084 115.97 300.944 115.71 300.694 115.52C300.454 115.32 300.129 115.22 299.719 115.22C299.339 115.22 299.044 115.29 298.834 115.43C298.634 115.57 298.534 115.765 298.534 116.015C298.534 116.295 298.674 116.51 298.954 116.66C299.234 116.8 299.669 116.945 300.259 117.095C300.859 117.245 301.354 117.4 301.744 117.56C302.134 117.72 302.469 117.97 302.749 118.31C303.039 118.64 303.189 119.08 303.199 119.63C303.199 120.11 303.064 120.54 302.794 120.92C302.534 121.3 302.154 121.6 301.654 121.82C301.164 122.03 300.589 122.135 299.929 122.135ZM112.452 140.815C112.452 139.975 112.617 139.23 112.947 138.58C113.287 137.93 113.747 137.43 114.327 137.08C114.907 136.73 115.552 136.555 116.262 136.555C116.802 136.555 117.317 136.675 117.807 136.915C118.297 137.145 118.687 137.455 118.977 137.845V133.9H121.107V145H118.977V143.77C118.717 144.18 118.352 144.51 117.882 144.76C117.412 145.01 116.867 145.135 116.247 145.135C115.547 145.135 114.907 144.955 114.327 144.595C113.747 144.235 113.287 143.73 112.947 143.08C112.617 142.42 112.452 141.665 112.452 140.815ZM118.992 140.845C118.992 140.335 118.892 139.9 118.692 139.54C118.492 139.17 118.222 138.89 117.882 138.7C117.542 138.5 117.177 138.4 116.787 138.4C116.397 138.4 116.037 138.495 115.707 138.685C115.377 138.875 115.107 139.155 114.897 139.525C114.697 139.885 114.597 140.315 114.597 140.815C114.597 141.315 114.697 141.755 114.897 142.135C115.107 142.505 115.377 142.79 115.707 142.99C116.047 143.19 116.407 143.29 116.787 143.29C117.177 143.29 117.542 143.195 117.882 143.005C118.222 142.805 118.492 142.525 118.692 142.165C118.892 141.795 118.992 141.355 118.992 140.845ZM122.618 140.815C122.618 139.975 122.783 139.23 123.113 138.58C123.453 137.93 123.908 137.43 124.478 137.08C125.058 136.73 125.703 136.555 126.413 136.555C127.033 136.555 127.573 136.68 128.033 136.93C128.503 137.18 128.878 137.495 129.158 137.875V136.69H131.273V145H129.158V143.785C128.888 144.175 128.513 144.5 128.033 144.76C127.563 145.01 127.018 145.135 126.398 145.135C125.698 145.135 125.058 144.955 124.478 144.595C123.908 144.235 123.453 143.73 123.113 143.08C122.783 142.42 122.618 141.665 122.618 140.815ZM129.158 140.845C129.158 140.335 129.058 139.9 128.858 139.54C128.658 139.17 128.388 138.89 128.048 138.7C127.708 138.5 127.343 138.4 126.953 138.4C126.563 138.4 126.203 138.495 125.873 138.685C125.543 138.875 125.273 139.155 125.063 139.525C124.863 139.885 124.763 140.315 124.763 140.815C124.763 141.315 124.863 141.755 125.063 142.135C125.273 142.505 125.543 142.79 125.873 142.99C126.213 143.19 126.573 143.29 126.953 143.29C127.343 143.29 127.708 143.195 128.048 143.005C128.388 142.805 128.658 142.525 128.858 142.165C129.058 141.795 129.158 141.355 129.158 140.845ZM143.644 136.57C144.664 136.57 145.484 136.885 146.104 137.515C146.734 138.135 147.049 139.005 147.049 140.125V145H144.949V140.41C144.949 139.76 144.784 139.265 144.454 138.925C144.124 138.575 143.674 138.4 143.104 138.4C142.534 138.4 142.079 138.575 141.739 138.925C141.409 139.265 141.244 139.76 141.244 140.41V145H139.144V140.41C139.144 139.76 138.979 139.265 138.649 138.925C138.319 138.575 137.869 138.4 137.299 138.4C136.719 138.4 136.259 138.575 135.919 138.925C135.589 139.265 135.424 139.76 135.424 140.41V145H133.324V136.69H135.424V137.695C135.694 137.345 136.039 137.07 136.459 136.87C136.889 136.67 137.359 136.57 137.869 136.57C138.519 136.57 139.099 136.71 139.609 136.99C140.119 137.26 140.514 137.65 140.794 138.16C141.064 137.68 141.454 137.295 141.964 137.005C142.484 136.715 143.044 136.57 143.644 136.57ZM148.501 140.815C148.501 139.975 148.666 139.23 148.996 138.58C149.336 137.93 149.791 137.43 150.361 137.08C150.941 136.73 151.586 136.555 152.296 136.555C152.916 136.555 153.456 136.68 153.916 136.93C154.386 137.18 154.761 137.495 155.041 137.875V136.69H157.156V145H155.041V143.785C154.771 144.175 154.396 144.5 153.916 144.76C153.446 145.01 152.901 145.135 152.281 145.135C151.581 145.135 150.941 144.955 150.361 144.595C149.791 144.235 149.336 143.73 148.996 143.08C148.666 142.42 148.501 141.665 148.501 140.815ZM155.041 140.845C155.041 140.335 154.941 139.9 154.741 139.54C154.541 139.17 154.271 138.89 153.931 138.7C153.591 138.5 153.226 138.4 152.836 138.4C152.446 138.4 152.086 138.495 151.756 138.685C151.426 138.875 151.156 139.155 150.946 139.525C150.746 139.885 150.646 140.315 150.646 140.815C150.646 141.315 150.746 141.755 150.946 142.135C151.156 142.505 151.426 142.79 151.756 142.99C152.096 143.19 152.456 143.29 152.836 143.29C153.226 143.29 153.591 143.195 153.931 143.005C154.271 142.805 154.541 142.525 154.741 142.165C154.941 141.795 155.041 141.355 155.041 140.845ZM162.462 136.555C163.082 136.555 163.627 136.68 164.097 136.93C164.567 137.17 164.937 137.485 165.207 137.875V136.69H167.322V145.06C167.322 145.83 167.167 146.515 166.857 147.115C166.547 147.725 166.082 148.205 165.462 148.555C164.842 148.915 164.092 149.095 163.212 149.095C162.032 149.095 161.062 148.82 160.302 148.27C159.552 147.72 159.127 146.97 159.027 146.02H161.112C161.222 146.4 161.457 146.7 161.817 146.92C162.187 147.15 162.632 147.265 163.152 147.265C163.762 147.265 164.257 147.08 164.637 146.71C165.017 146.35 165.207 145.8 165.207 145.06V143.77C164.937 144.16 164.562 144.485 164.082 144.745C163.612 145.005 163.072 145.135 162.462 145.135C161.762 145.135 161.122 144.955 160.542 144.595C159.962 144.235 159.502 143.73 159.162 143.08C158.832 142.42 158.667 141.665 158.667 140.815C158.667 139.975 158.832 139.23 159.162 138.58C159.502 137.93 159.957 137.43 160.527 137.08C161.107 136.73 161.752 136.555 162.462 136.555ZM165.207 140.845C165.207 140.335 165.107 139.9 164.907 139.54C164.707 139.17 164.437 138.89 164.097 138.7C163.757 138.5 163.392 138.4 163.002 138.4C162.612 138.4 162.252 138.495 161.922 138.685C161.592 138.875 161.322 139.155 161.112 139.525C160.912 139.885 160.812 140.315 160.812 140.815C160.812 141.315 160.912 141.755 161.112 142.135C161.322 142.505 161.592 142.79 161.922 142.99C162.262 143.19 162.622 143.29 163.002 143.29C163.392 143.29 163.757 143.195 164.097 143.005C164.437 142.805 164.707 142.525 164.907 142.165C165.107 141.795 165.207 141.355 165.207 140.845ZM177.098 140.665C177.098 140.965 177.078 141.235 177.038 141.475H170.963C171.013 142.075 171.223 142.545 171.593 142.885C171.963 143.225 172.418 143.395 172.958 143.395C173.738 143.395 174.293 143.06 174.623 142.39H176.888C176.648 143.19 176.188 143.85 175.508 144.37C174.828 144.88 173.993 145.135 173.003 145.135C172.203 145.135 171.483 144.96 170.843 144.61C170.213 144.25 169.718 143.745 169.358 143.095C169.008 142.445 168.833 141.695 168.833 140.845C168.833 139.985 169.008 139.23 169.358 138.58C169.708 137.93 170.198 137.43 170.828 137.08C171.458 136.73 172.183 136.555 173.003 136.555C173.793 136.555 174.498 136.725 175.118 137.065C175.748 137.405 176.233 137.89 176.573 138.52C176.923 139.14 177.098 139.855 177.098 140.665ZM174.923 140.065C174.913 139.525 174.718 139.095 174.338 138.775C173.958 138.445 173.493 138.28 172.943 138.28C172.423 138.28 171.983 138.44 171.623 138.76C171.273 139.07 171.058 139.505 170.978 140.065H174.923ZM180.731 133.9V145H178.631V133.9H180.731ZM190.531 140.665C190.531 140.965 190.511 141.235 190.471 141.475H184.396C184.446 142.075 184.656 142.545 185.026 142.885C185.396 143.225 185.851 143.395 186.391 143.395C187.171 143.395 187.726 143.06 188.056 142.39H190.321C190.081 143.19 189.621 143.85 188.941 144.37C188.261 144.88 187.426 145.135 186.436 145.135C185.636 145.135 184.916 144.96 184.276 144.61C183.646 144.25 183.151 143.745 182.791 143.095C182.441 142.445 182.266 141.695 182.266 140.845C182.266 139.985 182.441 139.23 182.791 138.58C183.141 137.93 183.631 137.43 184.261 137.08C184.891 136.73 185.616 136.555 186.436 136.555C187.226 136.555 187.931 136.725 188.551 137.065C189.181 137.405 189.666 137.89 190.006 138.52C190.356 139.14 190.531 139.855 190.531 140.665ZM188.356 140.065C188.346 139.525 188.151 139.095 187.771 138.775C187.391 138.445 186.926 138.28 186.376 138.28C185.856 138.28 185.416 138.44 185.056 138.76C184.706 139.07 184.491 139.505 184.411 140.065H188.356ZM195.244 145.135C194.564 145.135 193.954 145.015 193.414 144.775C192.874 144.525 192.444 144.19 192.124 143.77C191.814 143.35 191.644 142.885 191.614 142.375H193.729C193.769 142.695 193.924 142.96 194.194 143.17C194.474 143.38 194.819 143.485 195.229 143.485C195.629 143.485 195.939 143.405 196.159 143.245C196.389 143.085 196.504 142.88 196.504 142.63C196.504 142.36 196.364 142.16 196.084 142.03C195.814 141.89 195.379 141.74 194.779 141.58C194.159 141.43 193.649 141.275 193.249 141.115C192.859 140.955 192.519 140.71 192.229 140.38C191.949 140.05 191.809 139.605 191.809 139.045C191.809 138.585 191.939 138.165 192.199 137.785C192.469 137.405 192.849 137.105 193.339 136.885C193.839 136.665 194.424 136.555 195.094 136.555C196.084 136.555 196.874 136.805 197.464 137.305C198.054 137.795 198.379 138.46 198.439 139.3H196.429C196.399 138.97 196.259 138.71 196.009 138.52C195.769 138.32 195.444 138.22 195.034 138.22C194.654 138.22 194.359 138.29 194.149 138.43C193.949 138.57 193.849 138.765 193.849 139.015C193.849 139.295 193.989 139.51 194.269 139.66C194.549 139.8 194.984 139.945 195.574 140.095C196.174 140.245 196.669 140.4 197.059 140.56C197.449 140.72 197.784 140.97 198.064 141.31C198.354 141.64 198.504 142.08 198.514 142.63C198.514 143.11 198.379 143.54 198.109 143.92C197.849 144.3 197.469 144.6 196.969 144.82C196.479 145.03 195.904 145.135 195.244 145.135ZM203.418 145.135C202.738 145.135 202.128 145.015 201.588 144.775C201.048 144.525 200.618 144.19 200.298 143.77C199.988 143.35 199.818 142.885 199.788 142.375H201.903C201.943 142.695 202.098 142.96 202.368 143.17C202.648 143.38 202.993 143.485 203.403 143.485C203.803 143.485 204.113 143.405 204.333 143.245C204.563 143.085 204.678 142.88 204.678 142.63C204.678 142.36 204.538 142.16 204.258 142.03C203.988 141.89 203.553 141.74 202.953 141.58C202.333 141.43 201.823 141.275 201.423 141.115C201.033 140.955 200.693 140.71 200.403 140.38C200.123 140.05 199.983 139.605 199.983 139.045C199.983 138.585 200.113 138.165 200.373 137.785C200.643 137.405 201.023 137.105 201.513 136.885C202.013 136.665 202.598 136.555 203.268 136.555C204.258 136.555 205.048 136.805 205.638 137.305C206.228 137.795 206.553 138.46 206.613 139.3H204.603C204.573 138.97 204.433 138.71 204.183 138.52C203.943 138.32 203.618 138.22 203.208 138.22C202.828 138.22 202.533 138.29 202.323 138.43C202.123 138.57 202.023 138.765 202.023 139.015C202.023 139.295 202.163 139.51 202.443 139.66C202.723 139.8 203.158 139.945 203.748 140.095C204.348 140.245 204.843 140.4 205.233 140.56C205.623 140.72 205.958 140.97 206.238 141.31C206.528 141.64 206.678 142.08 206.688 142.63C206.688 143.11 206.553 143.54 206.283 143.92C206.023 144.3 205.643 144.6 205.143 144.82C204.653 145.03 204.078 145.135 203.418 145.135ZM214.431 138.415V142.435C214.431 142.715 214.496 142.92 214.626 143.05C214.766 143.17 214.996 143.23 215.316 143.23H216.291V145H214.971C213.201 145 212.316 144.14 212.316 142.42V138.415H211.326V136.69H212.316V134.635H214.431V136.69H216.291V138.415H214.431ZM221.491 145.135C220.691 145.135 219.971 144.96 219.331 144.61C218.691 144.25 218.186 143.745 217.816 143.095C217.456 142.445 217.276 141.695 217.276 140.845C217.276 139.995 217.461 139.245 217.831 138.595C218.211 137.945 218.726 137.445 219.376 137.095C220.026 136.735 220.751 136.555 221.551 136.555C222.351 136.555 223.076 136.735 223.726 137.095C224.376 137.445 224.886 137.945 225.256 138.595C225.636 139.245 225.826 139.995 225.826 140.845C225.826 141.695 225.631 142.445 225.241 143.095C224.861 143.745 224.341 144.25 223.681 144.61C223.031 144.96 222.301 145.135 221.491 145.135ZM221.491 143.305C221.871 143.305 222.226 143.215 222.556 143.035C222.896 142.845 223.166 142.565 223.366 142.195C223.566 141.825 223.666 141.375 223.666 140.845C223.666 140.055 223.456 139.45 223.036 139.03C222.626 138.6 222.121 138.385 221.521 138.385C220.921 138.385 220.416 138.6 220.006 139.03C219.606 139.45 219.406 140.055 219.406 140.845C219.406 141.635 219.601 142.245 219.991 142.675C220.391 143.095 220.891 143.305 221.491 143.305ZM235.546 136.57C236.536 136.57 237.336 136.885 237.946 137.515C238.556 138.135 238.861 139.005 238.861 140.125V145H236.761V140.41C236.761 139.75 236.596 139.245 236.266 138.895C235.936 138.535 235.486 138.355 234.916 138.355C234.336 138.355 233.876 138.535 233.536 138.895C233.206 139.245 233.041 139.75 233.041 140.41V145H230.941V136.69H233.041V137.725C233.321 137.365 233.676 137.085 234.106 136.885C234.546 136.675 235.026 136.57 235.546 136.57ZM240.318 140.815C240.318 139.975 240.483 139.23 240.813 138.58C241.153 137.93 241.608 137.43 242.178 137.08C242.758 136.73 243.403 136.555 244.113 136.555C244.733 136.555 245.273 136.68 245.733 136.93C246.203 137.18 246.578 137.495 246.858 137.875V136.69H248.973V145H246.858V143.785C246.588 144.175 246.213 144.5 245.733 144.76C245.263 145.01 244.718 145.135 244.098 145.135C243.398 145.135 242.758 144.955 242.178 144.595C241.608 144.235 241.153 143.73 240.813 143.08C240.483 142.42 240.318 141.665 240.318 140.815ZM246.858 140.845C246.858 140.335 246.758 139.9 246.558 139.54C246.358 139.17 246.088 138.89 245.748 138.7C245.408 138.5 245.043 138.4 244.653 138.4C244.263 138.4 243.903 138.495 243.573 138.685C243.243 138.875 242.973 139.155 242.763 139.525C242.563 139.885 242.463 140.315 242.463 140.815C242.463 141.315 242.563 141.755 242.763 142.135C242.973 142.505 243.243 142.79 243.573 142.99C243.913 143.19 244.273 143.29 244.653 143.29C245.043 143.29 245.408 143.195 245.748 143.005C246.088 142.805 246.358 142.525 246.558 142.165C246.758 141.795 246.858 141.355 246.858 140.845ZM253.469 138.415V142.435C253.469 142.715 253.534 142.92 253.664 143.05C253.804 143.17 254.034 143.23 254.354 143.23H255.329V145H254.009C252.239 145 251.354 144.14 251.354 142.42V138.415H250.364V136.69H251.354V134.635H253.469V136.69H255.329V138.415H253.469ZM264.684 136.69V145H262.569V143.95C262.299 144.31 261.944 144.595 261.504 144.805C261.074 145.005 260.604 145.105 260.094 145.105C259.444 145.105 258.869 144.97 258.369 144.7C257.869 144.42 257.474 144.015 257.184 143.485C256.904 142.945 256.764 142.305 256.764 141.565V136.69H258.864V141.265C258.864 141.925 259.029 142.435 259.359 142.795C259.689 143.145 260.139 143.32 260.709 143.32C261.289 143.32 261.744 143.145 262.074 142.795C262.404 142.435 262.569 141.925 262.569 141.265V136.69H264.684ZM268.856 137.98C269.126 137.54 269.476 137.195 269.906 136.945C270.346 136.695 270.846 136.57 271.406 136.57V138.775H270.851C270.191 138.775 269.691 138.93 269.351 139.24C269.021 139.55 268.856 140.09 268.856 140.86V145H266.756V136.69H268.856V137.98ZM280.546 140.665C280.546 140.965 280.526 141.235 280.486 141.475H274.411C274.461 142.075 274.671 142.545 275.041 142.885C275.411 143.225 275.866 143.395 276.406 143.395C277.186 143.395 277.741 143.06 278.071 142.39H280.336C280.096 143.19 279.636 143.85 278.956 144.37C278.276 144.88 277.441 145.135 276.451 145.135C275.651 145.135 274.931 144.96 274.291 144.61C273.661 144.25 273.166 143.745 272.806 143.095C272.456 142.445 272.281 141.695 272.281 140.845C272.281 139.985 272.456 139.23 272.806 138.58C273.156 137.93 273.646 137.43 274.276 137.08C274.906 136.73 275.631 136.555 276.451 136.555C277.241 136.555 277.946 136.725 278.566 137.065C279.196 137.405 279.681 137.89 280.021 138.52C280.371 139.14 280.546 139.855 280.546 140.665ZM278.371 140.065C278.361 139.525 278.166 139.095 277.786 138.775C277.406 138.445 276.941 138.28 276.391 138.28C275.871 138.28 275.431 138.44 275.071 138.76C274.721 139.07 274.506 139.505 274.426 140.065H278.371Z" fill="#BF9D46"/>
</g>
</g>
</g>
<mask id="mask1_499_183" style="mask-type:alpha" maskUnits="userSpaceOnUse" x="393" y="0" width="393" height="233">
<rect x="393" width="393" height="233" rx="25" fill="#AB9F9F"/>
</mask>
<g mask="url(#mask1_499_183)">
<g filter="url(#filter2_bd_499_183)">
</g>
</g>
<defs>
<filter id="filter0_bd_499_183" x="-5" y="-5" width="403" height="246" filterUnits="userSpaceOnUse" color-interpolation-filters="sRGB">
<feFlood flood-opacity="0" result="BackgroundImageFix"/>
<feGaussianBlur in="BackgroundImage" stdDeviation="2.5"/>
<feComposite in2="SourceAlpha" operator="in" result="effect1_backgroundBlur_499_183"/>
<feColorMatrix in="SourceAlpha" type="matrix" values="0 0 0 0 0 0 0 0 0 0 0 0 0 0 0 0 0 0 127 0" result="hardAlpha"/>
<feOffset dy="4"/>
<feGaussianBlur stdDeviation="2"/>
<feComposite in2="hardAlpha" operator="out"/>
<feColorMatrix type="matrix" values="0 0 0 0 0 0 0 0 0 0 0 0 0 0 0 0 0 0 0.25 0"/>
<feBlend mode="normal" in2="effect1_backgroundBlur_499_183" result="effect2_dropShadow_499_183"/>
<feBlend mode="normal" in="SourceGraphic" in2="effect2_dropShadow_499_183" result="shape"/>
</filter>
<filter id="filter1_dd_499_183" x="61.807" y="68.2402" width="268.7" height="99.855" filterUnits="userSpaceOnUse" color-interpolation-filters="sRGB">
<feFlood flood-opacity="0" result="BackgroundImageFix"/>
<feColorMatrix in="SourceAlpha" type="matrix" values="0 0 0 0 0 0 0 0 0 0 0 0 0 0 0 0 0 0 127 0" result="hardAlpha"/>
<feOffset dx="-4" dy="-4"/>
<feGaussianBlur stdDeviation="7.5"/>
<feComposite in2="hardAlpha" operator="out"/>
<feColorMatrix type="matrix" values="0 0 0 0 1 0 0 0 0 1 0 0 0 0 1 0 0 0 0.6 0"/>
<feBlend mode="normal" in2="BackgroundImageFix" result="effect1_dropShadow_499_183"/>
<feColorMatrix in="SourceAlpha" type="matrix" values="0 0 0 0 0 0 0 0 0 0 0 0 0 0 0 0 0 0 127 0" result="hardAlpha"/>
<feOffset dx="4" dy="4"/>
<feGaussianBlur stdDeviation="7.5"/>
<feComposite in2="hardAlpha" operator="out"/>
<feColorMatrix type="matrix" values="0 0 0 0 1 0 0 0 0 1 0 0 0 0 1 0 0 0 0.6 0"/>
<feBlend mode="normal" in2="effect1_dropShadow_499_183" result="effect2_dropShadow_499_183"/>
<feBlend mode="normal" in="SourceGraphic" in2="effect2_dropShadow_499_183" result="shape"/>
</filter>
<filter id="filter2_bd_499_183" x="-5" y="-5" width="403" height="246" filterUnits="userSpaceOnUse" color-interpolation-filters="sRGB">
<feFlood flood-opacity="0" result="BackgroundImageFix"/>
<feGaussianBlur in="BackgroundImage" stdDeviation="2.5"/>
<feComposite in2="SourceAlpha" operator="in" result="effect1_backgroundBlur_499_183"/>
<feColorMatrix in="SourceAlpha" type="matrix" values="0 0 0 0 0 0 0 0 0 0 0 0 0 0 0 0 0 0 127 0" result="hardAlpha"/>
<feOffset dy="4"/>
<feGaussianBlur stdDeviation="2"/>
<feComposite in2="hardAlpha" operator="out"/>
<feColorMatrix type="matrix" values="0 0 0 0 0 0 0 0 0 0 0 0 0 0 0 0 0 0 0.25 0"/>
<feBlend mode="normal" in2="effect1_backgroundBlur_499_183" result="effect2_dropShadow_499_183"/>
<feBlend mode="normal" in="SourceGraphic" in2="effect2_dropShadow_499_183" result="shape"/>
</filter>
</defs>
</svg>
