<svg width="393" height="233" viewBox="0 0 393 233" fill="none" xmlns="http://www.w3.org/2000/svg">
<mask id="mask0_499_178" style="mask-type:alpha" maskUnits="userSpaceOnUse" x="0" y="0" width="393" height="233">
<rect width="393" height="233" rx="25" fill="#AB9F9F"/>
</mask>
<g mask="url(#mask0_499_178)">
<g filter="url(#filter0_bd_499_178)">
<rect width="393" height="233" rx="25" fill="#BF9D46" fill-opacity="0.6"/>
<g filter="url(#filter1_dd_499_178)">
<path d="M124.225 111.375V115.75H130.1V118.525H124.225V123.15H130.85V126H120.725V108.525H130.85V111.375H124.225ZM133.131 119.075C133.131 117.642 133.422 116.392 134.006 115.325C134.589 114.242 135.397 113.408 136.431 112.825C137.464 112.225 138.647 111.925 139.981 111.925C141.697 111.925 143.114 112.358 144.231 113.225C145.364 114.075 146.122 115.275 146.506 116.825H142.731C142.531 116.225 142.189 115.758 141.706 115.425C141.239 115.075 140.656 114.9 139.956 114.9C138.956 114.9 138.164 115.267 137.581 116C136.997 116.717 136.706 117.742 136.706 119.075C136.706 120.392 136.997 121.417 137.581 122.15C138.164 122.867 138.956 123.225 139.956 123.225C141.372 123.225 142.297 122.592 142.731 121.325H146.506C146.122 122.825 145.364 124.017 144.231 124.9C143.097 125.783 141.681 126.225 139.981 126.225C138.647 126.225 137.464 125.933 136.431 125.35C135.397 124.75 134.589 123.917 134.006 122.85C133.422 121.767 133.131 120.508 133.131 119.075ZM155.22 126.225C153.886 126.225 152.686 125.933 151.62 125.35C150.553 124.75 149.711 123.908 149.095 122.825C148.495 121.742 148.195 120.492 148.195 119.075C148.195 117.658 148.503 116.408 149.12 115.325C149.753 114.242 150.611 113.408 151.695 112.825C152.778 112.225 153.986 111.925 155.32 111.925C156.653 111.925 157.861 112.225 158.945 112.825C160.028 113.408 160.878 114.242 161.495 115.325C162.128 116.408 162.445 117.658 162.445 119.075C162.445 120.492 162.12 121.742 161.47 122.825C160.836 123.908 159.97 124.75 158.87 125.35C157.786 125.933 156.57 126.225 155.22 126.225ZM155.22 123.175C155.853 123.175 156.445 123.025 156.995 122.725C157.561 122.408 158.011 121.942 158.345 121.325C158.678 120.708 158.845 119.958 158.845 119.075C158.845 117.758 158.495 116.75 157.795 116.05C157.111 115.333 156.27 114.975 155.27 114.975C154.27 114.975 153.428 115.333 152.745 116.05C152.078 116.75 151.745 117.758 151.745 119.075C151.745 120.392 152.07 121.408 152.72 122.125C153.386 122.825 154.22 123.175 155.22 123.175ZM175.662 115.6V118.55H165.062V115.6H175.662ZM185.937 115.025H183.512V126H179.962V115.025H178.387V112.15H179.962V111.45C179.962 109.75 180.446 108.5 181.412 107.7C182.379 106.9 183.837 106.525 185.787 106.575V109.525C184.937 109.508 184.346 109.65 184.012 109.95C183.679 110.25 183.512 110.792 183.512 111.575V112.15H185.937V115.025ZM191.705 114.3C192.155 113.567 192.739 112.992 193.455 112.575C194.189 112.158 195.022 111.95 195.955 111.95V115.625H195.03C193.93 115.625 193.097 115.883 192.53 116.4C191.98 116.917 191.705 117.817 191.705 119.1V126H188.205V112.15H191.705V114.3ZM200.088 110.5C199.471 110.5 198.955 110.308 198.538 109.925C198.138 109.525 197.938 109.033 197.938 108.45C197.938 107.867 198.138 107.383 198.538 107C198.955 106.6 199.471 106.4 200.088 106.4C200.705 106.4 201.213 106.6 201.613 107C202.03 107.383 202.238 107.867 202.238 108.45C202.238 109.033 202.03 109.525 201.613 109.925C201.213 110.308 200.705 110.5 200.088 110.5ZM201.813 112.15V126H198.313V112.15H201.813ZM218.146 118.775C218.146 119.275 218.113 119.725 218.046 120.125H207.921C208.004 121.125 208.354 121.908 208.971 122.475C209.588 123.042 210.346 123.325 211.246 123.325C212.546 123.325 213.471 122.767 214.021 121.65H217.796C217.396 122.983 216.629 124.083 215.496 124.95C214.363 125.8 212.971 126.225 211.321 126.225C209.988 126.225 208.788 125.933 207.721 125.35C206.671 124.75 205.846 123.908 205.246 122.825C204.663 121.742 204.371 120.492 204.371 119.075C204.371 117.642 204.663 116.383 205.246 115.3C205.829 114.217 206.646 113.383 207.696 112.8C208.746 112.217 209.954 111.925 211.321 111.925C212.638 111.925 213.813 112.208 214.846 112.775C215.896 113.342 216.704 114.15 217.271 115.2C217.854 116.233 218.146 117.425 218.146 118.775ZM214.521 117.775C214.504 116.875 214.179 116.158 213.546 115.625C212.913 115.075 212.138 114.8 211.221 114.8C210.354 114.8 209.621 115.067 209.021 115.6C208.438 116.117 208.079 116.842 207.946 117.775H214.521ZM228.376 111.95C230.026 111.95 231.359 112.475 232.376 113.525C233.392 114.558 233.901 116.008 233.901 117.875V126H230.401V118.35C230.401 117.25 230.126 116.408 229.576 115.825C229.026 115.225 228.276 114.925 227.326 114.925C226.359 114.925 225.592 115.225 225.026 115.825C224.476 116.408 224.201 117.25 224.201 118.35V126H220.701V112.15H224.201V113.875C224.667 113.275 225.259 112.808 225.976 112.475C226.709 112.125 227.509 111.95 228.376 111.95ZM236.329 119.025C236.329 117.625 236.604 116.383 237.154 115.3C237.721 114.217 238.487 113.383 239.454 112.8C240.421 112.217 241.496 111.925 242.679 111.925C243.579 111.925 244.437 112.125 245.254 112.525C246.071 112.908 246.721 113.425 247.204 114.075V107.5H250.754V126H247.204V123.95C246.771 124.633 246.162 125.183 245.379 125.6C244.596 126.017 243.687 126.225 242.654 126.225C241.487 126.225 240.421 125.925 239.454 125.325C238.487 124.725 237.721 123.883 237.154 122.8C236.604 121.7 236.329 120.442 236.329 119.025ZM247.229 119.075C247.229 118.225 247.062 117.5 246.729 116.9C246.396 116.283 245.946 115.817 245.379 115.5C244.812 115.167 244.204 115 243.554 115C242.904 115 242.304 115.158 241.754 115.475C241.204 115.792 240.754 116.258 240.404 116.875C240.071 117.475 239.904 118.192 239.904 119.025C239.904 119.858 240.071 120.592 240.404 121.225C240.754 121.842 241.204 122.317 241.754 122.65C242.321 122.983 242.921 123.15 243.554 123.15C244.204 123.15 244.812 122.992 245.379 122.675C245.946 122.342 246.396 121.875 246.729 121.275C247.062 120.658 247.229 119.925 247.229 119.075ZM257.672 107.5V126H254.172V107.5H257.672ZM274.38 112.15L265.805 132.55H262.08L265.08 125.65L259.53 112.15H263.455L267.03 121.825L270.655 112.15H274.38Z" fill="white"/>
</g>
</g>
</g>
<defs>
<filter id="filter0_bd_499_178" x="-5" y="-5" width="403" height="246" filterUnits="userSpaceOnUse" color-interpolation-filters="sRGB">
<feFlood flood-opacity="0" result="BackgroundImageFix"/>
<feGaussianBlur in="BackgroundImage" stdDeviation="2.5"/>
<feComposite in2="SourceAlpha" operator="in" result="effect1_backgroundBlur_499_178"/>
<feColorMatrix in="SourceAlpha" type="matrix" values="0 0 0 0 0 0 0 0 0 0 0 0 0 0 0 0 0 0 127 0" result="hardAlpha"/>
<feOffset dy="4"/>
<feGaussianBlur stdDeviation="2"/>
<feComposite in2="hardAlpha" operator="out"/>
<feColorMatrix type="matrix" values="0 0 0 0 0 0 0 0 0 0 0 0 0 0 0 0 0 0 0.25 0"/>
<feBlend mode="normal" in2="effect1_backgroundBlur_499_178" result="effect2_dropShadow_499_178"/>
<feBlend mode="normal" in="SourceGraphic" in2="effect2_dropShadow_499_178" result="shape"/>
</filter>
<filter id="filter1_dd_499_178" x="101.725" y="87.3999" width="191.655" height="64.1499" filterUnits="userSpaceOnUse" color-interpolation-filters="sRGB">
<feFlood flood-opacity="0" result="BackgroundImageFix"/>
<feColorMatrix in="SourceAlpha" type="matrix" values="0 0 0 0 0 0 0 0 0 0 0 0 0 0 0 0 0 0 127 0" result="hardAlpha"/>
<feOffset dx="-4" dy="-4"/>
<feGaussianBlur stdDeviation="7.5"/>
<feComposite in2="hardAlpha" operator="out"/>
<feColorMatrix type="matrix" values="0 0 0 0 1 0 0 0 0 1 0 0 0 0 1 0 0 0 0.6 0"/>
<feBlend mode="normal" in2="BackgroundImageFix" result="effect1_dropShadow_499_178"/>
<feColorMatrix in="SourceAlpha" type="matrix" values="0 0 0 0 0 0 0 0 0 0 0 0 0 0 0 0 0 0 127 0" result="hardAlpha"/>
<feOffset dx="4" dy="4"/>
<feGaussianBlur stdDeviation="7.5"/>
<feComposite in2="hardAlpha" operator="out"/>
<feColorMatrix type="matrix" values="0 0 0 0 1 0 0 0 0 1 0 0 0 0 1 0 0 0 0.6 0"/>
<feBlend mode="normal" in2="effect1_dropShadow_499_178" result="effect2_dropShadow_499_178"/>
<feBlend mode="normal" in="SourceGraphic" in2="effect2_dropShadow_499_178" result="shape"/>
</filter>
</defs>
</svg>
