<svg width="228" height="164" viewBox="0 0 228 164" fill="none" xmlns="http://www.w3.org/2000/svg">
<mask id="mask0_499_141" style="mask-type:alpha" maskUnits="userSpaceOnUse" x="0" y="0" width="220" height="164">
<rect width="220" height="164" rx="25" fill="#AB9F9F"/>
</mask>
<g mask="url(#mask0_499_141)">
<g filter="url(#filter0_bd_499_141)">
<rect width="220" height="164" rx="25" fill="#F0F0F0"/>
<rect x="14" y="14" width="192" height="133" rx="23" stroke="#B67B3E" stroke-width="4"/>
<g filter="url(#filter1_dd_499_141)">
<path d="M46.8586 54.53L43.9336 65H41.4586L39.4936 57.545L37.4386 65L34.9786 65.015L32.1586 54.53H34.4086L36.2536 62.66L38.3836 54.53H40.7236L42.7336 62.615L44.5936 54.53H46.8586ZM55.9548 60.665C55.9548 60.965 55.9348 61.235 55.8948 61.475H49.8198C49.8698 62.075 50.0798 62.545 50.4498 62.885C50.8198 63.225 51.2748 63.395 51.8148 63.395C52.5948 63.395 53.1498 63.06 53.4798 62.39H55.7448C55.5048 63.19 55.0448 63.85 54.3648 64.37C53.6848 64.88 52.8498 65.135 51.8598 65.135C51.0598 65.135 50.3398 64.96 49.6998 64.61C49.0698 64.25 48.5748 63.745 48.2148 63.095C47.8648 62.445 47.6898 61.695 47.6898 60.845C47.6898 59.985 47.8648 59.23 48.2148 58.58C48.5648 57.93 49.0548 57.43 49.6848 57.08C50.3148 56.73 51.0398 56.555 51.8598 56.555C52.6498 56.555 53.3548 56.725 53.9748 57.065C54.6048 57.405 55.0898 57.89 55.4298 58.52C55.7798 59.14 55.9548 59.855 55.9548 60.665ZM53.7798 60.065C53.7698 59.525 53.5748 59.095 53.1948 58.775C52.8148 58.445 52.3498 58.28 51.7998 58.28C51.2798 58.28 50.8398 58.44 50.4798 58.76C50.1298 59.07 49.9148 59.505 49.8348 60.065H53.7798ZM71.3819 56.57C72.4019 56.57 73.2219 56.885 73.8419 57.515C74.4719 58.135 74.7869 59.005 74.7869 60.125V65H72.6869V60.41C72.6869 59.76 72.5219 59.265 72.1919 58.925C71.8619 58.575 71.4119 58.4 70.8419 58.4C70.2719 58.4 69.8169 58.575 69.4769 58.925C69.1469 59.265 68.9819 59.76 68.9819 60.41V65H66.8819V60.41C66.8819 59.76 66.7169 59.265 66.3869 58.925C66.0569 58.575 65.6069 58.4 65.0369 58.4C64.4569 58.4 63.9969 58.575 63.6569 58.925C63.3269 59.265 63.1619 59.76 63.1619 60.41V65H61.0619V56.69H63.1619V57.695C63.4319 57.345 63.7769 57.07 64.1969 56.87C64.6269 56.67 65.0969 56.57 65.6069 56.57C66.2569 56.57 66.8369 56.71 67.3469 56.99C67.8569 57.26 68.2519 57.65 68.5319 58.16C68.8019 57.68 69.1919 57.295 69.7019 57.005C70.2219 56.715 70.7819 56.57 71.3819 56.57ZM80.4696 65.135C79.6696 65.135 78.9496 64.96 78.3096 64.61C77.6696 64.25 77.1646 63.745 76.7946 63.095C76.4346 62.445 76.2546 61.695 76.2546 60.845C76.2546 59.995 76.4396 59.245 76.8096 58.595C77.1896 57.945 77.7046 57.445 78.3546 57.095C79.0046 56.735 79.7296 56.555 80.5296 56.555C81.3296 56.555 82.0546 56.735 82.7046 57.095C83.3546 57.445 83.8646 57.945 84.2346 58.595C84.6146 59.245 84.8046 59.995 84.8046 60.845C84.8046 61.695 84.6096 62.445 84.2196 63.095C83.8396 63.745 83.3196 64.25 82.6596 64.61C82.0096 64.96 81.2796 65.135 80.4696 65.135ZM80.4696 63.305C80.8496 63.305 81.2046 63.215 81.5346 63.035C81.8746 62.845 82.1446 62.565 82.3446 62.195C82.5446 61.825 82.6446 61.375 82.6446 60.845C82.6446 60.055 82.4346 59.45 82.0146 59.03C81.6046 58.6 81.0996 58.385 80.4996 58.385C79.8996 58.385 79.3946 58.6 78.9846 59.03C78.5846 59.45 78.3846 60.055 78.3846 60.845C78.3846 61.635 78.5796 62.245 78.9696 62.675C79.3696 63.095 79.8696 63.305 80.4696 63.305ZM89.8101 63.065L91.9101 56.69H94.1451L91.0701 65H88.5201L85.4601 56.69H87.7101L89.8101 63.065ZM103.05 60.665C103.05 60.965 103.03 61.235 102.99 61.475H96.9146C96.9646 62.075 97.1746 62.545 97.5446 62.885C97.9146 63.225 98.3696 63.395 98.9096 63.395C99.6896 63.395 100.245 63.06 100.575 62.39H102.84C102.6 63.19 102.14 63.85 101.46 64.37C100.78 64.88 99.9446 65.135 98.9546 65.135C98.1546 65.135 97.4346 64.96 96.7946 64.61C96.1646 64.25 95.6696 63.745 95.3096 63.095C94.9596 62.445 94.7846 61.695 94.7846 60.845C94.7846 59.985 94.9596 59.23 95.3096 58.58C95.6596 57.93 96.1496 57.43 96.7796 57.08C97.4096 56.73 98.1346 56.555 98.9546 56.555C99.7446 56.555 100.45 56.725 101.07 57.065C101.7 57.405 102.185 57.89 102.525 58.52C102.875 59.14 103.05 59.855 103.05 60.665ZM100.875 60.065C100.865 59.525 100.67 59.095 100.29 58.775C99.9096 58.445 99.4446 58.28 98.8946 58.28C98.3746 58.28 97.9346 58.44 97.5746 58.76C97.2246 59.07 97.0096 59.505 96.9296 60.065H100.875ZM109.222 55.7C108.852 55.7 108.542 55.585 108.292 55.355C108.052 55.115 107.932 54.82 107.932 54.47C107.932 54.12 108.052 53.83 108.292 53.6C108.542 53.36 108.852 53.24 109.222 53.24C109.592 53.24 109.897 53.36 110.137 53.6C110.387 53.83 110.512 54.12 110.512 54.47C110.512 54.82 110.387 55.115 110.137 55.355C109.897 55.585 109.592 55.7 109.222 55.7ZM110.257 56.69V65H108.157V56.69H110.257ZM116.936 56.57C117.926 56.57 118.726 56.885 119.336 57.515C119.946 58.135 120.251 59.005 120.251 60.125V65H118.151V60.41C118.151 59.75 117.986 59.245 117.656 58.895C117.326 58.535 116.876 58.355 116.306 58.355C115.726 58.355 115.266 58.535 114.926 58.895C114.596 59.245 114.431 59.75 114.431 60.41V65H112.331V56.69H114.431V57.725C114.711 57.365 115.066 57.085 115.496 56.885C115.936 56.675 116.416 56.57 116.936 56.57ZM121.708 60.845C121.708 59.985 121.883 59.235 122.233 58.595C122.583 57.945 123.068 57.445 123.688 57.095C124.308 56.735 125.018 56.555 125.818 56.555C126.848 56.555 127.698 56.815 128.368 57.335C129.048 57.845 129.503 58.565 129.733 59.495H127.468C127.348 59.135 127.143 58.855 126.853 58.655C126.573 58.445 126.223 58.34 125.803 58.34C125.203 58.34 124.728 58.56 124.378 59C124.028 59.43 123.853 60.045 123.853 60.845C123.853 61.635 124.028 62.25 124.378 62.69C124.728 63.12 125.203 63.335 125.803 63.335C126.653 63.335 127.208 62.955 127.468 62.195H129.733C129.503 63.095 129.048 63.81 128.368 64.34C127.688 64.87 126.838 65.135 125.818 65.135C125.018 65.135 124.308 64.96 123.688 64.61C123.068 64.25 122.583 63.75 122.233 63.11C121.883 62.46 121.708 61.705 121.708 60.845ZM133.372 53.9V65H131.272V53.9H133.372ZM143.292 56.69V65H141.177V63.95C140.907 64.31 140.552 64.595 140.112 64.805C139.682 65.005 139.212 65.105 138.702 65.105C138.052 65.105 137.477 64.97 136.977 64.7C136.477 64.42 136.082 64.015 135.792 63.485C135.512 62.945 135.372 62.305 135.372 61.565V56.69H137.472V61.265C137.472 61.925 137.637 62.435 137.967 62.795C138.297 63.145 138.747 63.32 139.317 63.32C139.897 63.32 140.352 63.145 140.682 62.795C141.012 62.435 141.177 61.925 141.177 61.265V56.69H143.292ZM148.544 65.135C147.864 65.135 147.254 65.015 146.714 64.775C146.174 64.525 145.744 64.19 145.424 63.77C145.114 63.35 144.944 62.885 144.914 62.375H147.029C147.069 62.695 147.224 62.96 147.494 63.17C147.774 63.38 148.119 63.485 148.529 63.485C148.929 63.485 149.239 63.405 149.459 63.245C149.689 63.085 149.804 62.88 149.804 62.63C149.804 62.36 149.664 62.16 149.384 62.03C149.114 61.89 148.679 61.74 148.079 61.58C147.459 61.43 146.949 61.275 146.549 61.115C146.159 60.955 145.819 60.71 145.529 60.38C145.249 60.05 145.109 59.605 145.109 59.045C145.109 58.585 145.239 58.165 145.499 57.785C145.769 57.405 146.149 57.105 146.639 56.885C147.139 56.665 147.724 56.555 148.394 56.555C149.384 56.555 150.174 56.805 150.764 57.305C151.354 57.795 151.679 58.46 151.739 59.3H149.729C149.699 58.97 149.559 58.71 149.309 58.52C149.069 58.32 148.744 58.22 148.334 58.22C147.954 58.22 147.659 58.29 147.449 58.43C147.249 58.57 147.149 58.765 147.149 59.015C147.149 59.295 147.289 59.51 147.569 59.66C147.849 59.8 148.284 59.945 148.874 60.095C149.474 60.245 149.969 60.4 150.359 60.56C150.749 60.72 151.084 60.97 151.364 61.31C151.654 61.64 151.804 62.08 151.814 62.63C151.814 63.11 151.679 63.54 151.409 63.92C151.149 64.3 150.769 64.6 150.269 64.82C149.779 65.03 149.204 65.135 148.544 65.135ZM154.602 55.7C154.232 55.7 153.922 55.585 153.672 55.355C153.432 55.115 153.312 54.82 153.312 54.47C153.312 54.12 153.432 53.83 153.672 53.6C153.922 53.36 154.232 53.24 154.602 53.24C154.972 53.24 155.277 53.36 155.517 53.6C155.767 53.83 155.892 54.12 155.892 54.47C155.892 54.82 155.767 55.115 155.517 55.355C155.277 55.585 154.972 55.7 154.602 55.7ZM155.637 56.69V65H153.537V56.69H155.637ZM161.177 63.065L163.277 56.69H165.512L162.437 65H159.887L156.827 56.69H159.077L161.177 63.065ZM174.417 60.665C174.417 60.965 174.397 61.235 174.357 61.475H168.282C168.332 62.075 168.542 62.545 168.912 62.885C169.282 63.225 169.737 63.395 170.277 63.395C171.057 63.395 171.612 63.06 171.942 62.39H174.207C173.967 63.19 173.507 63.85 172.827 64.37C172.147 64.88 171.312 65.135 170.322 65.135C169.522 65.135 168.802 64.96 168.162 64.61C167.532 64.25 167.037 63.745 166.677 63.095C166.327 62.445 166.152 61.695 166.152 60.845C166.152 59.985 166.327 59.23 166.677 58.58C167.027 57.93 167.517 57.43 168.147 57.08C168.777 56.73 169.502 56.555 170.322 56.555C171.112 56.555 171.817 56.725 172.437 57.065C173.067 57.405 173.552 57.89 173.892 58.52C174.242 59.14 174.417 59.855 174.417 60.665ZM172.242 60.065C172.232 59.525 172.037 59.095 171.657 58.775C171.277 58.445 170.812 58.28 170.262 58.28C169.742 58.28 169.302 58.44 168.942 58.76C168.592 59.07 168.377 59.505 168.297 60.065H172.242ZM178.05 53.9V65H175.95V53.9H178.05ZM188.074 56.69L182.929 68.93H180.694L182.494 64.79L179.164 56.69H181.519L183.664 62.495L185.839 56.69H188.074ZM32.6645 88.135C31.8645 88.135 31.1445 87.96 30.5045 87.61C29.8645 87.25 29.3595 86.745 28.9895 86.095C28.6295 85.445 28.4495 84.695 28.4495 83.845C28.4495 82.995 28.6345 82.245 29.0045 81.595C29.3845 80.945 29.8995 80.445 30.5495 80.095C31.1995 79.735 31.9245 79.555 32.7245 79.555C33.5245 79.555 34.2495 79.735 34.8995 80.095C35.5495 80.445 36.0595 80.945 36.4295 81.595C36.8095 82.245 36.9995 82.995 36.9995 83.845C36.9995 84.695 36.8045 85.445 36.4145 86.095C36.0345 86.745 35.5145 87.25 34.8545 87.61C34.2045 87.96 33.4745 88.135 32.6645 88.135ZM32.6645 86.305C33.0445 86.305 33.3995 86.215 33.7295 86.035C34.0695 85.845 34.3395 85.565 34.5395 85.195C34.7395 84.825 34.8395 84.375 34.8395 83.845C34.8395 83.055 34.6295 82.45 34.2095 82.03C33.7995 81.6 33.2945 81.385 32.6945 81.385C32.0945 81.385 31.5895 81.6 31.1795 82.03C30.7795 82.45 30.5795 83.055 30.5795 83.845C30.5795 84.635 30.7745 85.245 31.1645 85.675C31.5645 86.095 32.0645 86.305 32.6645 86.305ZM46.3849 79.69V88H44.2699V86.95C43.9999 87.31 43.6449 87.595 43.2049 87.805C42.7749 88.005 42.3049 88.105 41.7949 88.105C41.1449 88.105 40.5699 87.97 40.0699 87.7C39.5699 87.42 39.1749 87.015 38.8849 86.485C38.6049 85.945 38.4649 85.305 38.4649 84.565V79.69H40.5649V84.265C40.5649 84.925 40.7299 85.435 41.0599 85.795C41.3899 86.145 41.8399 86.32 42.4099 86.32C42.9899 86.32 43.4449 86.145 43.7749 85.795C44.1049 85.435 44.2699 84.925 44.2699 84.265V79.69H46.3849ZM50.9019 81.415V85.435C50.9019 85.715 50.9669 85.92 51.0969 86.05C51.2369 86.17 51.4669 86.23 51.7869 86.23H52.7619V88H51.4419C49.6719 88 48.7869 87.14 48.7869 85.42V81.415H47.7969V79.69H48.7869V77.635H50.9019V79.69H52.7619V81.415H50.9019ZM57.4523 88.135C56.7723 88.135 56.1623 88.015 55.6223 87.775C55.0823 87.525 54.6523 87.19 54.3323 86.77C54.0223 86.35 53.8523 85.885 53.8223 85.375H55.9373C55.9773 85.695 56.1323 85.96 56.4023 86.17C56.6823 86.38 57.0273 86.485 57.4373 86.485C57.8373 86.485 58.1473 86.405 58.3673 86.245C58.5973 86.085 58.7123 85.88 58.7123 85.63C58.7123 85.36 58.5723 85.16 58.2923 85.03C58.0223 84.89 57.5873 84.74 56.9873 84.58C56.3673 84.43 55.8573 84.275 55.4573 84.115C55.0673 83.955 54.7273 83.71 54.4373 83.38C54.1573 83.05 54.0173 82.605 54.0173 82.045C54.0173 81.585 54.1473 81.165 54.4073 80.785C54.6773 80.405 55.0573 80.105 55.5473 79.885C56.0473 79.665 56.6323 79.555 57.3023 79.555C58.2923 79.555 59.0823 79.805 59.6723 80.305C60.2623 80.795 60.5873 81.46 60.6473 82.3H58.6373C58.6073 81.97 58.4673 81.71 58.2173 81.52C57.9773 81.32 57.6523 81.22 57.2423 81.22C56.8623 81.22 56.5673 81.29 56.3573 81.43C56.1573 81.57 56.0573 81.765 56.0573 82.015C56.0573 82.295 56.1973 82.51 56.4773 82.66C56.7573 82.8 57.1923 82.945 57.7823 83.095C58.3823 83.245 58.8773 83.4 59.2673 83.56C59.6573 83.72 59.9923 83.97 60.2723 84.31C60.5623 84.64 60.7123 85.08 60.7223 85.63C60.7223 86.11 60.5873 86.54 60.3173 86.92C60.0573 87.3 59.6773 87.6 59.1773 87.82C58.6873 88.03 58.1123 88.135 57.4523 88.135ZM63.5111 78.7C63.1411 78.7 62.8311 78.585 62.5811 78.355C62.3411 78.115 62.2211 77.82 62.2211 77.47C62.2211 77.12 62.3411 76.83 62.5811 76.6C62.8311 76.36 63.1411 76.24 63.5111 76.24C63.8811 76.24 64.1861 76.36 64.4261 76.6C64.6761 76.83 64.8011 77.12 64.8011 77.47C64.8011 77.82 64.6761 78.115 64.4261 78.355C64.1861 78.585 63.8811 78.7 63.5111 78.7ZM64.5461 79.69V88H62.4461V79.69H64.5461ZM66.0809 83.815C66.0809 82.975 66.2459 82.23 66.5759 81.58C66.9159 80.93 67.3759 80.43 67.9559 80.08C68.5359 79.73 69.1809 79.555 69.8909 79.555C70.4309 79.555 70.9459 79.675 71.4359 79.915C71.9259 80.145 72.3159 80.455 72.6059 80.845V76.9H74.7359V88H72.6059V86.77C72.3459 87.18 71.9809 87.51 71.5109 87.76C71.0409 88.01 70.4959 88.135 69.8759 88.135C69.1759 88.135 68.5359 87.955 67.9559 87.595C67.3759 87.235 66.9159 86.73 66.5759 86.08C66.2459 85.42 66.0809 84.665 66.0809 83.815ZM72.6209 83.845C72.6209 83.335 72.5209 82.9 72.3209 82.54C72.1209 82.17 71.8509 81.89 71.5109 81.7C71.1709 81.5 70.8059 81.4 70.4159 81.4C70.0259 81.4 69.6659 81.495 69.3359 81.685C69.0059 81.875 68.7359 82.155 68.5259 82.525C68.3259 82.885 68.2259 83.315 68.2259 83.815C68.2259 84.315 68.3259 84.755 68.5259 85.135C68.7359 85.505 69.0059 85.79 69.3359 85.99C69.6759 86.19 70.0359 86.29 70.4159 86.29C70.8059 86.29 71.1709 86.195 71.5109 86.005C71.8509 85.805 72.1209 85.525 72.3209 85.165C72.5209 84.795 72.6209 84.355 72.6209 83.845ZM84.512 83.665C84.512 83.965 84.492 84.235 84.452 84.475H78.377C78.427 85.075 78.637 85.545 79.007 85.885C79.377 86.225 79.832 86.395 80.372 86.395C81.152 86.395 81.707 86.06 82.037 85.39H84.302C84.062 86.19 83.602 86.85 82.922 87.37C82.242 87.88 81.407 88.135 80.417 88.135C79.617 88.135 78.897 87.96 78.257 87.61C77.627 87.25 77.132 86.745 76.772 86.095C76.422 85.445 76.247 84.695 76.247 83.845C76.247 82.985 76.422 82.23 76.772 81.58C77.122 80.93 77.612 80.43 78.242 80.08C78.872 79.73 79.597 79.555 80.417 79.555C81.207 79.555 81.912 79.725 82.532 80.065C83.162 80.405 83.647 80.89 83.987 81.52C84.337 82.14 84.512 82.855 84.512 83.665ZM82.337 83.065C82.327 82.525 82.132 82.095 81.752 81.775C81.372 81.445 80.907 81.28 80.357 81.28C79.837 81.28 79.397 81.44 79.037 81.76C78.687 82.07 78.472 82.505 78.392 83.065H82.337ZM89.079 83.815C89.079 82.975 89.244 82.23 89.574 81.58C89.914 80.93 90.369 80.43 90.939 80.08C91.519 79.73 92.164 79.555 92.874 79.555C93.494 79.555 94.034 79.68 94.494 79.93C94.964 80.18 95.339 80.495 95.619 80.875V79.69H97.734V88H95.619V86.785C95.349 87.175 94.974 87.5 94.494 87.76C94.024 88.01 93.479 88.135 92.859 88.135C92.159 88.135 91.519 87.955 90.939 87.595C90.369 87.235 89.914 86.73 89.574 86.08C89.244 85.42 89.079 84.665 89.079 83.815ZM95.619 83.845C95.619 83.335 95.519 82.9 95.319 82.54C95.119 82.17 94.849 81.89 94.509 81.7C94.169 81.5 93.804 81.4 93.414 81.4C93.024 81.4 92.664 81.495 92.334 81.685C92.004 81.875 91.734 82.155 91.524 82.525C91.324 82.885 91.224 83.315 91.224 83.815C91.224 84.315 91.324 84.755 91.524 85.135C91.734 85.505 92.004 85.79 92.334 85.99C92.674 86.19 93.034 86.29 93.414 86.29C93.804 86.29 94.169 86.195 94.509 86.005C94.849 85.805 95.119 85.525 95.319 85.165C95.519 84.795 95.619 84.355 95.619 83.845ZM104.39 79.57C105.38 79.57 106.18 79.885 106.79 80.515C107.4 81.135 107.705 82.005 107.705 83.125V88H105.605V83.41C105.605 82.75 105.44 82.245 105.11 81.895C104.78 81.535 104.33 81.355 103.76 81.355C103.18 81.355 102.72 81.535 102.38 81.895C102.05 82.245 101.885 82.75 101.885 83.41V88H99.785V79.69H101.885V80.725C102.165 80.365 102.52 80.085 102.95 79.885C103.39 79.675 103.87 79.57 104.39 79.57ZM109.162 83.815C109.162 82.975 109.327 82.23 109.657 81.58C109.997 80.93 110.457 80.43 111.037 80.08C111.617 79.73 112.262 79.555 112.972 79.555C113.512 79.555 114.027 79.675 114.517 79.915C115.007 80.145 115.397 80.455 115.687 80.845V76.9H117.817V88H115.687V86.77C115.427 87.18 115.062 87.51 114.592 87.76C114.122 88.01 113.577 88.135 112.957 88.135C112.257 88.135 111.617 87.955 111.037 87.595C110.457 87.235 109.997 86.73 109.657 86.08C109.327 85.42 109.162 84.665 109.162 83.815ZM115.702 83.845C115.702 83.335 115.602 82.9 115.402 82.54C115.202 82.17 114.932 81.89 114.592 81.7C114.252 81.5 113.887 81.4 113.497 81.4C113.107 81.4 112.747 81.495 112.417 81.685C112.087 81.875 111.817 82.155 111.607 82.525C111.407 82.885 111.307 83.315 111.307 83.815C111.307 84.315 111.407 84.755 111.607 85.135C111.817 85.505 112.087 85.79 112.417 85.99C112.757 86.19 113.117 86.29 113.497 86.29C113.887 86.29 114.252 86.195 114.592 86.005C114.932 85.805 115.202 85.525 115.402 85.165C115.602 84.795 115.702 84.355 115.702 83.845ZM131.167 83.665C131.167 83.965 131.147 84.235 131.107 84.475H125.032C125.082 85.075 125.292 85.545 125.662 85.885C126.032 86.225 126.487 86.395 127.027 86.395C127.807 86.395 128.362 86.06 128.692 85.39H130.957C130.717 86.19 130.257 86.85 129.577 87.37C128.897 87.88 128.062 88.135 127.072 88.135C126.272 88.135 125.552 87.96 124.912 87.61C124.282 87.25 123.787 86.745 123.427 86.095C123.077 85.445 122.902 84.695 122.902 83.845C122.902 82.985 123.077 82.23 123.427 81.58C123.777 80.93 124.267 80.43 124.897 80.08C125.527 79.73 126.252 79.555 127.072 79.555C127.862 79.555 128.567 79.725 129.187 80.065C129.817 80.405 130.302 80.89 130.642 81.52C130.992 82.14 131.167 82.855 131.167 83.665ZM128.992 83.065C128.982 82.525 128.787 82.095 128.407 81.775C128.027 81.445 127.562 81.28 127.012 81.28C126.492 81.28 126.052 81.44 125.692 81.76C125.342 82.07 125.127 82.505 125.047 83.065H128.992ZM143.02 79.57C144.04 79.57 144.86 79.885 145.48 80.515C146.11 81.135 146.425 82.005 146.425 83.125V88H144.325V83.41C144.325 82.76 144.16 82.265 143.83 81.925C143.5 81.575 143.05 81.4 142.48 81.4C141.91 81.4 141.455 81.575 141.115 81.925C140.785 82.265 140.62 82.76 140.62 83.41V88H138.52V83.41C138.52 82.76 138.355 82.265 138.025 81.925C137.695 81.575 137.245 81.4 136.675 81.4C136.095 81.4 135.635 81.575 135.295 81.925C134.965 82.265 134.8 82.76 134.8 83.41V88H132.7V79.69H134.8V80.695C135.07 80.345 135.415 80.07 135.835 79.87C136.265 79.67 136.735 79.57 137.245 79.57C137.895 79.57 138.475 79.71 138.985 79.99C139.495 80.26 139.89 80.65 140.17 81.16C140.44 80.68 140.83 80.295 141.34 80.005C141.86 79.715 142.42 79.57 143.02 79.57ZM150.518 80.905C150.788 80.505 151.158 80.18 151.628 79.93C152.108 79.68 152.653 79.555 153.263 79.555C153.973 79.555 154.613 79.73 155.183 80.08C155.763 80.43 156.218 80.93 156.548 81.58C156.888 82.22 157.058 82.965 157.058 83.815C157.058 84.665 156.888 85.42 156.548 86.08C156.218 86.73 155.763 87.235 155.183 87.595C154.613 87.955 153.973 88.135 153.263 88.135C152.643 88.135 152.098 88.015 151.628 87.775C151.168 87.525 150.798 87.205 150.518 86.815V88H148.418V76.9H150.518V80.905ZM154.913 83.815C154.913 83.315 154.808 82.885 154.598 82.525C154.398 82.155 154.128 81.875 153.788 81.685C153.458 81.495 153.098 81.4 152.708 81.4C152.328 81.4 151.968 81.5 151.628 81.7C151.298 81.89 151.028 82.17 150.818 82.54C150.618 82.91 150.518 83.345 150.518 83.845C150.518 84.345 150.618 84.78 150.818 85.15C151.028 85.52 151.298 85.805 151.628 86.005C151.968 86.195 152.328 86.29 152.708 86.29C153.098 86.29 153.458 86.19 153.788 85.99C154.128 85.79 154.398 85.505 154.598 85.135C154.808 84.765 154.913 84.325 154.913 83.815ZM160.684 80.98C160.954 80.54 161.304 80.195 161.734 79.945C162.174 79.695 162.674 79.57 163.234 79.57V81.775H162.679C162.019 81.775 161.519 81.93 161.179 82.24C160.849 82.55 160.684 83.09 160.684 83.86V88H158.584V79.69H160.684V80.98ZM164.108 83.815C164.108 82.975 164.273 82.23 164.603 81.58C164.943 80.93 165.398 80.43 165.968 80.08C166.548 79.73 167.193 79.555 167.903 79.555C168.523 79.555 169.063 79.68 169.523 79.93C169.993 80.18 170.368 80.495 170.648 80.875V79.69H172.763V88H170.648V86.785C170.378 87.175 170.003 87.5 169.523 87.76C169.053 88.01 168.508 88.135 167.888 88.135C167.188 88.135 166.548 87.955 165.968 87.595C165.398 87.235 164.943 86.73 164.603 86.08C164.273 85.42 164.108 84.665 164.108 83.815ZM170.648 83.845C170.648 83.335 170.548 82.9 170.348 82.54C170.148 82.17 169.878 81.89 169.538 81.7C169.198 81.5 168.833 81.4 168.443 81.4C168.053 81.4 167.693 81.495 167.363 81.685C167.033 81.875 166.763 82.155 166.553 82.525C166.353 82.885 166.253 83.315 166.253 83.815C166.253 84.315 166.353 84.755 166.553 85.135C166.763 85.505 167.033 85.79 167.363 85.99C167.703 86.19 168.063 86.29 168.443 86.29C168.833 86.29 169.198 86.195 169.538 86.005C169.878 85.805 170.148 85.525 170.348 85.165C170.548 84.795 170.648 84.355 170.648 83.845ZM174.274 83.845C174.274 82.985 174.449 82.235 174.799 81.595C175.149 80.945 175.634 80.445 176.254 80.095C176.874 79.735 177.584 79.555 178.384 79.555C179.414 79.555 180.264 79.815 180.934 80.335C181.614 80.845 182.069 81.565 182.299 82.495H180.034C179.914 82.135 179.709 81.855 179.419 81.655C179.139 81.445 178.789 81.34 178.369 81.34C177.769 81.34 177.294 81.56 176.944 82C176.594 82.43 176.419 83.045 176.419 83.845C176.419 84.635 176.594 85.25 176.944 85.69C177.294 86.12 177.769 86.335 178.369 86.335C179.219 86.335 179.774 85.955 180.034 85.195H182.299C182.069 86.095 181.614 86.81 180.934 87.34C180.254 87.87 179.404 88.135 178.384 88.135C177.584 88.135 176.874 87.96 176.254 87.61C175.634 87.25 175.149 86.75 174.799 86.11C174.449 85.46 174.274 84.705 174.274 83.845ZM191.563 83.665C191.563 83.965 191.543 84.235 191.503 84.475H185.428C185.478 85.075 185.688 85.545 186.058 85.885C186.428 86.225 186.883 86.395 187.423 86.395C188.203 86.395 188.758 86.06 189.088 85.39H191.353C191.113 86.19 190.653 86.85 189.973 87.37C189.293 87.88 188.458 88.135 187.468 88.135C186.668 88.135 185.948 87.96 185.308 87.61C184.678 87.25 184.183 86.745 183.823 86.095C183.473 85.445 183.298 84.695 183.298 83.845C183.298 82.985 183.473 82.23 183.823 81.58C184.173 80.93 184.663 80.43 185.293 80.08C185.923 79.73 186.648 79.555 187.468 79.555C188.258 79.555 188.963 79.725 189.583 80.065C190.213 80.405 190.698 80.89 191.038 81.52C191.388 82.14 191.563 82.855 191.563 83.665ZM189.388 83.065C189.378 82.525 189.183 82.095 188.803 81.775C188.423 81.445 187.958 81.28 187.408 81.28C186.888 81.28 186.448 81.44 186.088 81.76C185.738 82.07 185.523 82.505 185.443 83.065H189.388ZM51.308 106.815C51.308 105.975 51.473 105.23 51.803 104.58C52.143 103.93 52.598 103.43 53.168 103.08C53.748 102.73 54.393 102.555 55.103 102.555C55.723 102.555 56.263 102.68 56.723 102.93C57.193 103.18 57.568 103.495 57.848 103.875V102.69H59.963V111H57.848V109.785C57.578 110.175 57.203 110.5 56.723 110.76C56.253 111.01 55.708 111.135 55.088 111.135C54.388 111.135 53.748 110.955 53.168 110.595C52.598 110.235 52.143 109.73 51.803 109.08C51.473 108.42 51.308 107.665 51.308 106.815ZM57.848 106.845C57.848 106.335 57.748 105.9 57.548 105.54C57.348 105.17 57.078 104.89 56.738 104.7C56.398 104.5 56.033 104.4 55.643 104.4C55.253 104.4 54.893 104.495 54.563 104.685C54.233 104.875 53.963 105.155 53.753 105.525C53.553 105.885 53.453 106.315 53.453 106.815C53.453 107.315 53.553 107.755 53.753 108.135C53.963 108.505 54.233 108.79 54.563 108.99C54.903 109.19 55.263 109.29 55.643 109.29C56.033 109.29 56.398 109.195 56.738 109.005C57.078 108.805 57.348 108.525 57.548 108.165C57.748 107.795 57.848 107.355 57.848 106.845ZM66.619 102.57C67.609 102.57 68.409 102.885 69.019 103.515C69.629 104.135 69.934 105.005 69.934 106.125V111H67.834V106.41C67.834 105.75 67.669 105.245 67.339 104.895C67.009 104.535 66.559 104.355 65.989 104.355C65.409 104.355 64.949 104.535 64.609 104.895C64.279 105.245 64.114 105.75 64.114 106.41V111H62.014V102.69H64.114V103.725C64.394 103.365 64.749 103.085 65.179 102.885C65.619 102.675 66.099 102.57 66.619 102.57ZM79.881 102.69L74.736 114.93H72.501L74.301 110.79L70.971 102.69H73.326L75.471 108.495L77.646 102.69H79.881ZM84.0472 106.815C84.0472 105.975 84.2122 105.23 84.5422 104.58C84.8822 103.93 85.3422 103.43 85.9222 103.08C86.5022 102.73 87.1472 102.555 87.8572 102.555C88.3972 102.555 88.9122 102.675 89.4022 102.915C89.8922 103.145 90.2822 103.455 90.5722 103.845V99.9H92.7022V111H90.5722V109.77C90.3122 110.18 89.9472 110.51 89.4772 110.76C89.0072 111.01 88.4622 111.135 87.8422 111.135C87.1422 111.135 86.5022 110.955 85.9222 110.595C85.3422 110.235 84.8822 109.73 84.5422 109.08C84.2122 108.42 84.0472 107.665 84.0472 106.815ZM90.5872 106.845C90.5872 106.335 90.4872 105.9 90.2872 105.54C90.0872 105.17 89.8172 104.89 89.4772 104.7C89.1372 104.5 88.7722 104.4 88.3822 104.4C87.9922 104.4 87.6322 104.495 87.3022 104.685C86.9722 104.875 86.7022 105.155 86.4922 105.525C86.2922 105.885 86.1922 106.315 86.1922 106.815C86.1922 107.315 86.2922 107.755 86.4922 108.135C86.7022 108.505 86.9722 108.79 87.3022 108.99C87.6422 109.19 88.0022 109.29 88.3822 109.29C88.7722 109.29 89.1372 109.195 89.4772 109.005C89.8172 108.805 90.0872 108.525 90.2872 108.165C90.4872 107.795 90.5872 107.355 90.5872 106.845ZM95.8183 101.7C95.4483 101.7 95.1383 101.585 94.8883 101.355C94.6483 101.115 94.5283 100.82 94.5283 100.47C94.5283 100.12 94.6483 99.83 94.8883 99.6C95.1383 99.36 95.4483 99.24 95.8183 99.24C96.1883 99.24 96.4933 99.36 96.7333 99.6C96.9833 99.83 97.1083 100.12 97.1083 100.47C97.1083 100.82 96.9833 101.115 96.7333 101.355C96.4933 101.585 96.1883 101.7 95.8183 101.7ZM96.8533 102.69V111H94.7533V102.69H96.8533ZM102.738 104.415H101.283V111H99.1531V104.415H98.2081V102.69H99.1531V102.27C99.1531 101.25 99.4431 100.5 100.023 100.02C100.603 99.54 101.478 99.315 102.648 99.345V101.115C102.138 101.105 101.783 101.19 101.583 101.37C101.383 101.55 101.283 101.875 101.283 102.345V102.69H102.738V104.415ZM107.909 104.415H106.454V111H104.324V104.415H103.379V102.69H104.324V102.27C104.324 101.25 104.614 100.5 105.194 100.02C105.774 99.54 106.649 99.315 107.819 99.345V101.115C107.309 101.105 106.954 101.19 106.754 101.37C106.554 101.55 106.454 101.875 106.454 102.345V102.69H107.909V104.415ZM116.995 106.665C116.995 106.965 116.975 107.235 116.935 107.475H110.86C110.91 108.075 111.12 108.545 111.49 108.885C111.86 109.225 112.315 109.395 112.855 109.395C113.635 109.395 114.19 109.06 114.52 108.39H116.785C116.545 109.19 116.085 109.85 115.405 110.37C114.725 110.88 113.89 111.135 112.9 111.135C112.1 111.135 111.38 110.96 110.74 110.61C110.11 110.25 109.615 109.745 109.255 109.095C108.905 108.445 108.73 107.695 108.73 106.845C108.73 105.985 108.905 105.23 109.255 104.58C109.605 103.93 110.095 103.43 110.725 103.08C111.355 102.73 112.08 102.555 112.9 102.555C113.69 102.555 114.395 102.725 115.015 103.065C115.645 103.405 116.13 103.89 116.47 104.52C116.82 105.14 116.995 105.855 116.995 106.665ZM114.82 106.065C114.81 105.525 114.615 105.095 114.235 104.775C113.855 104.445 113.39 104.28 112.84 104.28C112.32 104.28 111.88 104.44 111.52 104.76C111.17 105.07 110.955 105.505 110.875 106.065H114.82ZM120.628 103.98C120.898 103.54 121.248 103.195 121.678 102.945C122.118 102.695 122.618 102.57 123.178 102.57V104.775H122.623C121.963 104.775 121.463 104.93 121.123 105.24C120.793 105.55 120.628 106.09 120.628 106.86V111H118.528V102.69H120.628V103.98ZM132.317 106.665C132.317 106.965 132.297 107.235 132.257 107.475H126.182C126.232 108.075 126.442 108.545 126.812 108.885C127.182 109.225 127.637 109.395 128.177 109.395C128.957 109.395 129.512 109.06 129.842 108.39H132.107C131.867 109.19 131.407 109.85 130.727 110.37C130.047 110.88 129.212 111.135 128.222 111.135C127.422 111.135 126.702 110.96 126.062 110.61C125.432 110.25 124.937 109.745 124.577 109.095C124.227 108.445 124.052 107.695 124.052 106.845C124.052 105.985 124.227 105.23 124.577 104.58C124.927 103.93 125.417 103.43 126.047 103.08C126.677 102.73 127.402 102.555 128.222 102.555C129.012 102.555 129.717 102.725 130.337 103.065C130.967 103.405 131.452 103.89 131.792 104.52C132.142 105.14 132.317 105.855 132.317 106.665ZM130.142 106.065C130.132 105.525 129.937 105.095 129.557 104.775C129.177 104.445 128.712 104.28 128.162 104.28C127.642 104.28 127.202 104.44 126.842 104.76C126.492 105.07 126.277 105.505 126.197 106.065H130.142ZM138.455 102.57C139.445 102.57 140.245 102.885 140.855 103.515C141.465 104.135 141.77 105.005 141.77 106.125V111H139.67V106.41C139.67 105.75 139.505 105.245 139.175 104.895C138.845 104.535 138.395 104.355 137.825 104.355C137.245 104.355 136.785 104.535 136.445 104.895C136.115 105.245 135.95 105.75 135.95 106.41V111H133.85V102.69H135.95V103.725C136.23 103.365 136.585 103.085 137.015 102.885C137.455 102.675 137.935 102.57 138.455 102.57ZM143.227 106.845C143.227 105.985 143.402 105.235 143.752 104.595C144.102 103.945 144.587 103.445 145.207 103.095C145.827 102.735 146.537 102.555 147.337 102.555C148.367 102.555 149.217 102.815 149.887 103.335C150.567 103.845 151.022 104.565 151.252 105.495H148.987C148.867 105.135 148.662 104.855 148.372 104.655C148.092 104.445 147.742 104.34 147.322 104.34C146.722 104.34 146.247 104.56 145.897 105C145.547 105.43 145.372 106.045 145.372 106.845C145.372 107.635 145.547 108.25 145.897 108.69C146.247 109.12 146.722 109.335 147.322 109.335C148.172 109.335 148.727 108.955 148.987 108.195H151.252C151.022 109.095 150.567 109.81 149.887 110.34C149.207 110.87 148.357 111.135 147.337 111.135C146.537 111.135 145.827 110.96 145.207 110.61C144.587 110.25 144.102 109.75 143.752 109.11C143.402 108.46 143.227 107.705 143.227 106.845ZM160.515 106.665C160.515 106.965 160.495 107.235 160.455 107.475H154.38C154.43 108.075 154.64 108.545 155.01 108.885C155.38 109.225 155.835 109.395 156.375 109.395C157.155 109.395 157.71 109.06 158.04 108.39H160.305C160.065 109.19 159.605 109.85 158.925 110.37C158.245 110.88 157.41 111.135 156.42 111.135C155.62 111.135 154.9 110.96 154.26 110.61C153.63 110.25 153.135 109.745 152.775 109.095C152.425 108.445 152.25 107.695 152.25 106.845C152.25 105.985 152.425 105.23 152.775 104.58C153.125 103.93 153.615 103.43 154.245 103.08C154.875 102.73 155.6 102.555 156.42 102.555C157.21 102.555 157.915 102.725 158.535 103.065C159.165 103.405 159.65 103.89 159.99 104.52C160.34 105.14 160.515 105.855 160.515 106.665ZM158.34 106.065C158.33 105.525 158.135 105.095 157.755 104.775C157.375 104.445 156.91 104.28 156.36 104.28C155.84 104.28 155.4 104.44 155.04 104.76C154.69 105.07 154.475 105.505 154.395 106.065H158.34ZM165.228 111.135C164.548 111.135 163.938 111.015 163.398 110.775C162.858 110.525 162.428 110.19 162.108 109.77C161.798 109.35 161.628 108.885 161.598 108.375H163.713C163.753 108.695 163.908 108.96 164.178 109.17C164.458 109.38 164.803 109.485 165.213 109.485C165.613 109.485 165.923 109.405 166.143 109.245C166.373 109.085 166.488 108.88 166.488 108.63C166.488 108.36 166.348 108.16 166.068 108.03C165.798 107.89 165.363 107.74 164.763 107.58C164.143 107.43 163.633 107.275 163.233 107.115C162.843 106.955 162.503 106.71 162.213 106.38C161.933 106.05 161.793 105.605 161.793 105.045C161.793 104.585 161.923 104.165 162.183 103.785C162.453 103.405 162.833 103.105 163.323 102.885C163.823 102.665 164.408 102.555 165.078 102.555C166.068 102.555 166.858 102.805 167.448 103.305C168.038 103.795 168.363 104.46 168.423 105.3H166.413C166.383 104.97 166.243 104.71 165.993 104.52C165.753 104.32 165.428 104.22 165.018 104.22C164.638 104.22 164.343 104.29 164.133 104.43C163.933 104.57 163.833 104.765 163.833 105.015C163.833 105.295 163.973 105.51 164.253 105.66C164.533 105.8 164.968 105.945 165.558 106.095C166.158 106.245 166.653 106.4 167.043 106.56C167.433 106.72 167.768 106.97 168.048 107.31C168.338 107.64 168.488 108.08 168.498 108.63C168.498 109.11 168.363 109.54 168.093 109.92C167.833 110.3 167.453 110.6 166.953 110.82C166.463 111.03 165.888 111.135 165.228 111.135Z" fill="#B67B3E"/>
</g>
</g>
</g>
<mask id="mask1_499_141" style="mask-type:alpha" maskUnits="userSpaceOnUse" x="227" y="0" width="220" height="164">
<rect x="227" width="220" height="164" rx="25" fill="#AB9F9F"/>
</mask>
<g mask="url(#mask1_499_141)">
<g filter="url(#filter2_d_499_141)">
</g>
</g>
<defs>
<filter id="filter0_bd_499_141" x="-5" y="-5" width="233" height="177" filterUnits="userSpaceOnUse" color-interpolation-filters="sRGB">
<feFlood flood-opacity="0" result="BackgroundImageFix"/>
<feGaussianBlur in="BackgroundImage" stdDeviation="2.5"/>
<feComposite in2="SourceAlpha" operator="in" result="effect1_backgroundBlur_499_141"/>
<feColorMatrix in="SourceAlpha" type="matrix" values="0 0 0 0 0 0 0 0 0 0 0 0 0 0 0 0 0 0 127 0" result="hardAlpha"/>
<feOffset dx="4" dy="4"/>
<feGaussianBlur stdDeviation="2"/>
<feComposite in2="hardAlpha" operator="out"/>
<feColorMatrix type="matrix" values="0 0 0 0 0 0 0 0 0 0 0 0 0 0 0 0 0 0 0.25 0"/>
<feBlend mode="normal" in2="effect1_backgroundBlur_499_141" result="effect2_dropShadow_499_141"/>
<feBlend mode="normal" in="SourceGraphic" in2="effect2_dropShadow_499_141" result="shape"/>
</filter>
<filter id="filter1_dd_499_141" x="9.44946" y="34.2402" width="201.113" height="99.6899" filterUnits="userSpaceOnUse" color-interpolation-filters="sRGB">
<feFlood flood-opacity="0" result="BackgroundImageFix"/>
<feColorMatrix in="SourceAlpha" type="matrix" values="0 0 0 0 0 0 0 0 0 0 0 0 0 0 0 0 0 0 127 0" result="hardAlpha"/>
<feOffset dx="-4" dy="-4"/>
<feGaussianBlur stdDeviation="7.5"/>
<feComposite in2="hardAlpha" operator="out"/>
<feColorMatrix type="matrix" values="0 0 0 0 1 0 0 0 0 1 0 0 0 0 1 0 0 0 0.6 0"/>
<feBlend mode="normal" in2="BackgroundImageFix" result="effect1_dropShadow_499_141"/>
<feColorMatrix in="SourceAlpha" type="matrix" values="0 0 0 0 0 0 0 0 0 0 0 0 0 0 0 0 0 0 127 0" result="hardAlpha"/>
<feOffset dx="4" dy="4"/>
<feGaussianBlur stdDeviation="7.5"/>
<feComposite in2="hardAlpha" operator="out"/>
<feColorMatrix type="matrix" values="0 0 0 0 1 0 0 0 0 1 0 0 0 0 1 0 0 0 0.6 0"/>
<feBlend mode="normal" in2="effect1_dropShadow_499_141" result="effect2_dropShadow_499_141"/>
<feBlend mode="normal" in="SourceGraphic" in2="effect2_dropShadow_499_141" result="shape"/>
</filter>
<filter id="filter2_d_499_141" x="0" y="0" width="228" height="172" filterUnits="userSpaceOnUse" color-interpolation-filters="sRGB">
<feFlood flood-opacity="0" result="BackgroundImageFix"/>
<feColorMatrix in="SourceAlpha" type="matrix" values="0 0 0 0 0 0 0 0 0 0 0 0 0 0 0 0 0 0 127 0" result="hardAlpha"/>
<feOffset dx="4" dy="4"/>
<feGaussianBlur stdDeviation="2"/>
<feComposite in2="hardAlpha" operator="out"/>
<feColorMatrix type="matrix" values="0 0 0 0 0 0 0 0 0 0 0 0 0 0 0 0 0 0 0.25 0"/>
<feBlend mode="normal" in2="BackgroundImageFix" result="effect1_dropShadow_499_141"/>
<feBlend mode="normal" in="SourceGraphic" in2="effect1_dropShadow_499_141" result="shape"/>
</filter>
</defs>
</svg>
