<svg width="220" height="164" viewBox="0 0 220 164" fill="none" xmlns="http://www.w3.org/2000/svg">
<mask id="mask0_499_139" style="mask-type:alpha" maskUnits="userSpaceOnUse" x="0" y="0" width="220" height="164">
<rect width="220" height="164" rx="25" fill="#AB9F9F"/>
</mask>
<g mask="url(#mask0_499_139)">
<g filter="url(#filter0_bd_499_139)">
<rect width="220" height="164" rx="25" fill="#B67B3E" fill-opacity="0.6"/>
<g filter="url(#filter1_dd_499_139)">
<path d="M55.825 91.175C54.1917 91.175 52.6917 90.7917 51.325 90.025C49.9583 89.2583 48.875 88.2 48.075 86.85C47.275 85.4833 46.875 83.9417 46.875 82.225C46.875 80.525 47.275 79 48.075 77.65C48.875 76.2833 49.9583 75.2167 51.325 74.45C52.6917 73.6833 54.1917 73.3 55.825 73.3C57.475 73.3 58.975 73.6833 60.325 74.45C61.6917 75.2167 62.7667 76.2833 63.55 77.65C64.35 79 64.75 80.525 64.75 82.225C64.75 83.9417 64.35 85.4833 63.55 86.85C62.7667 88.2 61.6917 89.2583 60.325 90.025C58.9583 90.7917 57.4583 91.175 55.825 91.175ZM55.825 88.05C56.875 88.05 57.8 87.8167 58.6 87.35C59.4 86.8667 60.025 86.1833 60.475 85.3C60.925 84.4167 61.15 83.3917 61.15 82.225C61.15 81.0583 60.925 80.0417 60.475 79.175C60.025 78.2917 59.4 77.6167 58.6 77.15C57.8 76.6833 56.875 76.45 55.825 76.45C54.775 76.45 53.8417 76.6833 53.025 77.15C52.225 77.6167 51.6 78.2917 51.15 79.175C50.7 80.0417 50.475 81.0583 50.475 82.225C50.475 83.3917 50.7 84.4167 51.15 85.3C51.6 86.1833 52.225 86.8667 53.025 87.35C53.8417 87.8167 54.775 88.05 55.825 88.05ZM70.8539 79.15C71.3039 78.5167 71.9206 77.9917 72.7039 77.575C73.5039 77.1417 74.4122 76.925 75.4289 76.925C76.6122 76.925 77.6789 77.2167 78.6289 77.8C79.5956 78.3833 80.3539 79.2167 80.9039 80.3C81.4706 81.3667 81.7539 82.6083 81.7539 84.025C81.7539 85.4417 81.4706 86.7 80.9039 87.8C80.3539 88.8833 79.5956 89.725 78.6289 90.325C77.6789 90.925 76.6122 91.225 75.4289 91.225C74.4122 91.225 73.5122 91.0167 72.7289 90.6C71.9622 90.1833 71.3372 89.6583 70.8539 89.025V97.6H67.3539V77.15H70.8539V79.15ZM78.1789 84.025C78.1789 83.1917 78.0039 82.475 77.6539 81.875C77.3206 81.2583 76.8706 80.7917 76.3039 80.475C75.7539 80.1583 75.1539 80 74.5039 80C73.8706 80 73.2706 80.1667 72.7039 80.5C72.1539 80.8167 71.7039 81.2833 71.3539 81.9C71.0206 82.5167 70.8539 83.2417 70.8539 84.075C70.8539 84.9083 71.0206 85.6333 71.3539 86.25C71.7039 86.8667 72.1539 87.3417 72.7039 87.675C73.2706 87.9917 73.8706 88.15 74.5039 88.15C75.1539 88.15 75.7539 87.9833 76.3039 87.65C76.8706 87.3167 77.3206 86.8417 77.6539 86.225C78.0039 85.6083 78.1789 84.875 78.1789 84.025ZM97.1723 83.775C97.1723 84.275 97.1389 84.725 97.0723 85.125H86.9473C87.0306 86.125 87.3806 86.9083 87.9973 87.475C88.6139 88.0417 89.3723 88.325 90.2723 88.325C91.5723 88.325 92.4973 87.7667 93.0473 86.65H96.8223C96.4223 87.9833 95.6556 89.0833 94.5223 89.95C93.3889 90.8 91.9973 91.225 90.3473 91.225C89.0139 91.225 87.8139 90.9333 86.7473 90.35C85.6973 89.75 84.8723 88.9083 84.2723 87.825C83.6889 86.7417 83.3973 85.4917 83.3973 84.075C83.3973 82.6417 83.6889 81.3833 84.2723 80.3C84.8556 79.2167 85.6723 78.3833 86.7223 77.8C87.7723 77.2167 88.9806 76.925 90.3473 76.925C91.6639 76.925 92.8389 77.2083 93.8723 77.775C94.9223 78.3417 95.7306 79.15 96.2973 80.2C96.8806 81.2333 97.1723 82.425 97.1723 83.775ZM93.5473 82.775C93.5306 81.875 93.2056 81.1583 92.5723 80.625C91.9389 80.075 91.1639 79.8 90.2473 79.8C89.3806 79.8 88.6473 80.0667 88.0473 80.6C87.4639 81.1167 87.1056 81.8417 86.9723 82.775H93.5473ZM107.402 76.95C109.052 76.95 110.385 77.475 111.402 78.525C112.419 79.5583 112.927 81.0083 112.927 82.875V91H109.427V83.35C109.427 82.25 109.152 81.4083 108.602 80.825C108.052 80.225 107.302 79.925 106.352 79.925C105.385 79.925 104.619 80.225 104.052 80.825C103.502 81.4083 103.227 82.25 103.227 83.35V91H99.727V77.15H103.227V78.875C103.694 78.275 104.285 77.8083 105.002 77.475C105.735 77.125 106.535 76.95 107.402 76.95ZM123.93 76.95C125.58 76.95 126.914 77.475 127.93 78.525C128.947 79.5583 129.455 81.0083 129.455 82.875V91H125.955V83.35C125.955 82.25 125.68 81.4083 125.13 80.825C124.58 80.225 123.83 79.925 122.88 79.925C121.914 79.925 121.147 80.225 120.58 80.825C120.03 81.4083 119.755 82.25 119.755 83.35V91H116.255V77.15H119.755V78.875C120.222 78.275 120.814 77.8083 121.53 77.475C122.264 77.125 123.064 76.95 123.93 76.95ZM145.659 83.775C145.659 84.275 145.625 84.725 145.559 85.125H135.434C135.517 86.125 135.867 86.9083 136.484 87.475C137.1 88.0417 137.859 88.325 138.759 88.325C140.059 88.325 140.984 87.7667 141.534 86.65H145.309C144.909 87.9833 144.142 89.0833 143.009 89.95C141.875 90.8 140.484 91.225 138.834 91.225C137.5 91.225 136.3 90.9333 135.234 90.35C134.184 89.75 133.359 88.9083 132.759 87.825C132.175 86.7417 131.884 85.4917 131.884 84.075C131.884 82.6417 132.175 81.3833 132.759 80.3C133.342 79.2167 134.159 78.3833 135.209 77.8C136.259 77.2167 137.467 76.925 138.834 76.925C140.15 76.925 141.325 77.2083 142.359 77.775C143.409 78.3417 144.217 79.15 144.784 80.2C145.367 81.2333 145.659 82.425 145.659 83.775ZM142.034 82.775C142.017 81.875 141.692 81.1583 141.059 80.625C140.425 80.075 139.65 79.8 138.734 79.8C137.867 79.8 137.134 80.0667 136.534 80.6C135.95 81.1167 135.592 81.8417 135.459 82.775H142.034ZM153.513 91.225C152.38 91.225 151.363 91.025 150.463 90.625C149.563 90.2083 148.847 89.65 148.313 88.95C147.797 88.25 147.513 87.475 147.463 86.625H150.988C151.055 87.1583 151.313 87.6 151.763 87.95C152.23 88.3 152.805 88.475 153.488 88.475C154.155 88.475 154.672 88.3417 155.038 88.075C155.422 87.8083 155.613 87.4667 155.613 87.05C155.613 86.6 155.38 86.2667 154.913 86.05C154.463 85.8167 153.738 85.5667 152.738 85.3C151.705 85.05 150.855 84.7917 150.188 84.525C149.538 84.2583 148.972 83.85 148.488 83.3C148.022 82.75 147.788 82.0083 147.788 81.075C147.788 80.3083 148.005 79.6083 148.438 78.975C148.888 78.3417 149.522 77.8417 150.338 77.475C151.172 77.1083 152.147 76.925 153.263 76.925C154.913 76.925 156.23 77.3417 157.213 78.175C158.197 78.9917 158.738 80.1 158.838 81.5H155.488C155.438 80.95 155.205 80.5167 154.788 80.2C154.388 79.8667 153.847 79.7 153.163 79.7C152.53 79.7 152.038 79.8167 151.688 80.05C151.355 80.2833 151.188 80.6083 151.188 81.025C151.188 81.4917 151.422 81.85 151.888 82.1C152.355 82.3333 153.08 82.575 154.063 82.825C155.063 83.075 155.888 83.3333 156.538 83.6C157.188 83.8667 157.747 84.2833 158.213 84.85C158.697 85.4 158.947 86.1333 158.963 87.05C158.963 87.85 158.738 88.5667 158.288 89.2C157.855 89.8333 157.222 90.3333 156.388 90.7C155.572 91.05 154.613 91.225 153.513 91.225ZM167.136 91.225C166.003 91.225 164.986 91.025 164.086 90.625C163.186 90.2083 162.47 89.65 161.936 88.95C161.42 88.25 161.136 87.475 161.086 86.625H164.611C164.678 87.1583 164.936 87.6 165.386 87.95C165.853 88.3 166.428 88.475 167.111 88.475C167.778 88.475 168.295 88.3417 168.661 88.075C169.045 87.8083 169.236 87.4667 169.236 87.05C169.236 86.6 169.003 86.2667 168.536 86.05C168.086 85.8167 167.361 85.5667 166.361 85.3C165.328 85.05 164.478 84.7917 163.811 84.525C163.161 84.2583 162.595 83.85 162.111 83.3C161.645 82.75 161.411 82.0083 161.411 81.075C161.411 80.3083 161.628 79.6083 162.061 78.975C162.511 78.3417 163.145 77.8417 163.961 77.475C164.795 77.1083 165.77 76.925 166.886 76.925C168.536 76.925 169.853 77.3417 170.836 78.175C171.82 78.9917 172.361 80.1 172.461 81.5H169.111C169.061 80.95 168.828 80.5167 168.411 80.2C168.011 79.8667 167.47 79.7 166.786 79.7C166.153 79.7 165.661 79.8167 165.311 80.05C164.978 80.2833 164.811 80.6083 164.811 81.025C164.811 81.4917 165.045 81.85 165.511 82.1C165.978 82.3333 166.703 82.575 167.686 82.825C168.686 83.075 169.511 83.3333 170.161 83.6C170.811 83.8667 171.37 84.2833 171.836 84.85C172.32 85.4 172.57 86.1333 172.586 87.05C172.586 87.85 172.361 88.5667 171.911 89.2C171.478 89.8333 170.845 90.3333 170.011 90.7C169.195 91.05 168.236 91.225 167.136 91.225Z" fill="white"/>
</g>
</g>
</g>
<defs>
<filter id="filter0_bd_499_139" x="-5" y="-5" width="233" height="177" filterUnits="userSpaceOnUse" color-interpolation-filters="sRGB">
<feFlood flood-opacity="0" result="BackgroundImageFix"/>
<feGaussianBlur in="BackgroundImage" stdDeviation="2.5"/>
<feComposite in2="SourceAlpha" operator="in" result="effect1_backgroundBlur_499_139"/>
<feColorMatrix in="SourceAlpha" type="matrix" values="0 0 0 0 0 0 0 0 0 0 0 0 0 0 0 0 0 0 127 0" result="hardAlpha"/>
<feOffset dx="4" dy="4"/>
<feGaussianBlur stdDeviation="2"/>
<feComposite in2="hardAlpha" operator="out"/>
<feColorMatrix type="matrix" values="0 0 0 0 0 0 0 0 0 0 0 0 0 0 0 0 0 0 0.25 0"/>
<feBlend mode="normal" in2="effect1_backgroundBlur_499_139" result="effect2_dropShadow_499_139"/>
<feBlend mode="normal" in="SourceGraphic" in2="effect2_dropShadow_499_139" result="shape"/>
</filter>
<filter id="filter1_dd_499_139" x="27.875" y="54.2998" width="163.711" height="62.3003" filterUnits="userSpaceOnUse" color-interpolation-filters="sRGB">
<feFlood flood-opacity="0" result="BackgroundImageFix"/>
<feColorMatrix in="SourceAlpha" type="matrix" values="0 0 0 0 0 0 0 0 0 0 0 0 0 0 0 0 0 0 127 0" result="hardAlpha"/>
<feOffset dx="-4" dy="-4"/>
<feGaussianBlur stdDeviation="7.5"/>
<feComposite in2="hardAlpha" operator="out"/>
<feColorMatrix type="matrix" values="0 0 0 0 1 0 0 0 0 1 0 0 0 0 1 0 0 0 0.6 0"/>
<feBlend mode="normal" in2="BackgroundImageFix" result="effect1_dropShadow_499_139"/>
<feColorMatrix in="SourceAlpha" type="matrix" values="0 0 0 0 0 0 0 0 0 0 0 0 0 0 0 0 0 0 127 0" result="hardAlpha"/>
<feOffset dx="4" dy="4"/>
<feGaussianBlur stdDeviation="7.5"/>
<feComposite in2="hardAlpha" operator="out"/>
<feColorMatrix type="matrix" values="0 0 0 0 1 0 0 0 0 1 0 0 0 0 1 0 0 0 0.6 0"/>
<feBlend mode="normal" in2="effect1_dropShadow_499_139" result="effect2_dropShadow_499_139"/>
<feBlend mode="normal" in="SourceGraphic" in2="effect2_dropShadow_499_139" result="shape"/>
</filter>
</defs>
</svg>
