<svg width="147" height="316" viewBox="0 0 147 316" fill="none" xmlns="http://www.w3.org/2000/svg">
<mask id="mask0_507_172" style="mask-type:alpha" maskUnits="userSpaceOnUse" x="0" y="0" width="143" height="316">
<rect width="143" height="316" rx="25" fill="#AB9F9F"/>
</mask>
<g mask="url(#mask0_507_172)">
<g filter="url(#filter0_bd_507_172)">
<rect width="143" height="316" rx="25" fill="#F0F0F0"/>
<rect x="15" y="20" width="114" height="276" rx="23" stroke="#FAA955" stroke-width="4"/>
<g filter="url(#filter1_dd_507_172)">
<path d="M48.8415 95.53L45.9165 106H43.4415L41.4765 98.545L39.4215 106L36.9615 106.015L34.1415 95.53H36.3915L38.2365 103.66L40.3665 95.53H42.7065L44.7165 103.615L46.5765 95.53H48.8415ZM57.9377 101.665C57.9377 101.965 57.9177 102.235 57.8777 102.475H51.8027C51.8527 103.075 52.0627 103.545 52.4327 103.885C52.8027 104.225 53.2577 104.395 53.7977 104.395C54.5777 104.395 55.1327 104.06 55.4627 103.39H57.7277C57.4877 104.19 57.0277 104.85 56.3477 105.37C55.6677 105.88 54.8327 106.135 53.8427 106.135C53.0427 106.135 52.3227 105.96 51.6827 105.61C51.0527 105.25 50.5577 104.745 50.1977 104.095C49.8477 103.445 49.6727 102.695 49.6727 101.845C49.6727 100.985 49.8477 100.23 50.1977 99.58C50.5477 98.93 51.0377 98.43 51.6677 98.08C52.2977 97.73 53.0227 97.555 53.8427 97.555C54.6327 97.555 55.3377 97.725 55.9577 98.065C56.5877 98.405 57.0727 98.89 57.4127 99.52C57.7627 100.14 57.9377 100.855 57.9377 101.665ZM55.7627 101.065C55.7527 100.525 55.5577 100.095 55.1777 99.775C54.7977 99.445 54.3327 99.28 53.7827 99.28C53.2627 99.28 52.8227 99.44 52.4627 99.76C52.1127 100.07 51.8977 100.505 51.8177 101.065H55.7627ZM74.5648 97.69L72.1348 106H69.8698L68.3548 100.195L66.8398 106H64.5598L62.1148 97.69H64.2448L65.7148 104.02L67.3048 97.69H69.5248L71.0848 104.005L72.5548 97.69H74.5648ZM76.766 96.7C76.396 96.7 76.086 96.585 75.836 96.355C75.596 96.115 75.476 95.82 75.476 95.47C75.476 95.12 75.596 94.83 75.836 94.6C76.086 94.36 76.396 94.24 76.766 94.24C77.136 94.24 77.441 94.36 77.681 94.6C77.931 94.83 78.056 95.12 78.056 95.47C78.056 95.82 77.931 96.115 77.681 96.355C77.441 96.585 77.136 96.7 76.766 96.7ZM77.801 97.69V106H75.701V97.69H77.801ZM81.9758 94.9V106H79.8758V94.9H81.9758ZM86.1506 94.9V106H84.0506V94.9H86.1506ZM93.8996 98.905C94.1696 98.505 94.5396 98.18 95.0096 97.93C95.4896 97.68 96.0346 97.555 96.6446 97.555C97.3546 97.555 97.9946 97.73 98.5646 98.08C99.1446 98.43 99.5996 98.93 99.9296 99.58C100.27 100.22 100.44 100.965 100.44 101.815C100.44 102.665 100.27 103.42 99.9296 104.08C99.5996 104.73 99.1446 105.235 98.5646 105.595C97.9946 105.955 97.3546 106.135 96.6446 106.135C96.0246 106.135 95.4796 106.015 95.0096 105.775C94.5496 105.525 94.1796 105.205 93.8996 104.815V106H91.7996V94.9H93.8996V98.905ZM98.2946 101.815C98.2946 101.315 98.1896 100.885 97.9796 100.525C97.7796 100.155 97.5096 99.875 97.1696 99.685C96.8396 99.495 96.4796 99.4 96.0896 99.4C95.7096 99.4 95.3496 99.5 95.0096 99.7C94.6796 99.89 94.4096 100.17 94.1996 100.54C93.9996 100.91 93.8996 101.345 93.8996 101.845C93.8996 102.345 93.9996 102.78 94.1996 103.15C94.4096 103.52 94.6796 103.805 95.0096 104.005C95.3496 104.195 95.7096 104.29 96.0896 104.29C96.4796 104.29 96.8396 104.19 97.1696 103.99C97.5096 103.79 97.7796 103.505 97.9796 103.135C98.1896 102.765 98.2946 102.325 98.2946 101.815ZM109.691 101.665C109.691 101.965 109.671 102.235 109.631 102.475H103.556C103.606 103.075 103.816 103.545 104.186 103.885C104.556 104.225 105.011 104.395 105.551 104.395C106.331 104.395 106.886 104.06 107.216 103.39H109.481C109.241 104.19 108.781 104.85 108.101 105.37C107.421 105.88 106.586 106.135 105.596 106.135C104.796 106.135 104.076 105.96 103.436 105.61C102.806 105.25 102.311 104.745 101.951 104.095C101.601 103.445 101.426 102.695 101.426 101.845C101.426 100.985 101.601 100.23 101.951 99.58C102.301 98.93 102.791 98.43 103.421 98.08C104.051 97.73 104.776 97.555 105.596 97.555C106.386 97.555 107.091 97.725 107.711 98.065C108.341 98.405 108.826 98.89 109.166 99.52C109.516 100.14 109.691 100.855 109.691 101.665ZM107.516 101.065C107.506 100.525 107.311 100.095 106.931 99.775C106.551 99.445 106.086 99.28 105.536 99.28C105.016 99.28 104.576 99.44 104.216 99.76C103.866 100.07 103.651 100.505 103.571 101.065H107.516ZM30.5891 121.98C30.8591 121.54 31.2091 121.195 31.6391 120.945C32.0791 120.695 32.5791 120.57 33.1391 120.57V122.775H32.5841C31.9241 122.775 31.4241 122.93 31.0841 123.24C30.7541 123.55 30.5891 124.09 30.5891 124.86V129H28.4891V120.69H30.5891V121.98ZM42.2786 124.665C42.2786 124.965 42.2586 125.235 42.2186 125.475H36.1436C36.1936 126.075 36.4036 126.545 36.7736 126.885C37.1436 127.225 37.5986 127.395 38.1386 127.395C38.9186 127.395 39.4736 127.06 39.8036 126.39H42.0686C41.8286 127.19 41.3686 127.85 40.6886 128.37C40.0086 128.88 39.1736 129.135 38.1836 129.135C37.3836 129.135 36.6636 128.96 36.0236 128.61C35.3936 128.25 34.8986 127.745 34.5386 127.095C34.1886 126.445 34.0136 125.695 34.0136 124.845C34.0136 123.985 34.1886 123.23 34.5386 122.58C34.8886 121.93 35.3786 121.43 36.0086 121.08C36.6386 120.73 37.3636 120.555 38.1836 120.555C38.9736 120.555 39.6786 120.725 40.2986 121.065C40.9286 121.405 41.4136 121.89 41.7536 122.52C42.1036 123.14 42.2786 123.855 42.2786 124.665ZM40.1036 124.065C40.0936 123.525 39.8986 123.095 39.5186 122.775C39.1386 122.445 38.6736 122.28 38.1236 122.28C37.6036 122.28 37.1636 122.44 36.8036 122.76C36.4536 123.07 36.2386 123.505 36.1586 124.065H40.1036ZM46.9914 129.135C46.3114 129.135 45.7014 129.015 45.1614 128.775C44.6214 128.525 44.1914 128.19 43.8714 127.77C43.5614 127.35 43.3914 126.885 43.3614 126.375H45.4764C45.5164 126.695 45.6714 126.96 45.9414 127.17C46.2214 127.38 46.5664 127.485 46.9764 127.485C47.3764 127.485 47.6864 127.405 47.9064 127.245C48.1364 127.085 48.2514 126.88 48.2514 126.63C48.2514 126.36 48.1114 126.16 47.8314 126.03C47.5614 125.89 47.1264 125.74 46.5264 125.58C45.9064 125.43 45.3964 125.275 44.9964 125.115C44.6064 124.955 44.2664 124.71 43.9764 124.38C43.6964 124.05 43.5564 123.605 43.5564 123.045C43.5564 122.585 43.6864 122.165 43.9464 121.785C44.2164 121.405 44.5964 121.105 45.0864 120.885C45.5864 120.665 46.1714 120.555 46.8414 120.555C47.8314 120.555 48.6214 120.805 49.2114 121.305C49.8014 121.795 50.1264 122.46 50.1864 123.3H48.1764C48.1464 122.97 48.0064 122.71 47.7564 122.52C47.5164 122.32 47.1914 122.22 46.7814 122.22C46.4014 122.22 46.1064 122.29 45.8964 122.43C45.6964 122.57 45.5964 122.765 45.5964 123.015C45.5964 123.295 45.7364 123.51 46.0164 123.66C46.2964 123.8 46.7314 123.945 47.3214 124.095C47.9214 124.245 48.4164 124.4 48.8064 124.56C49.1964 124.72 49.5314 124.97 49.8114 125.31C50.1014 125.64 50.2514 126.08 50.2614 126.63C50.2614 127.11 50.1264 127.54 49.8564 127.92C49.5964 128.3 49.2164 128.6 48.7164 128.82C48.2264 129.03 47.6514 129.135 46.9914 129.135ZM54.0852 121.89C54.3552 121.51 54.7252 121.195 55.1952 120.945C55.6752 120.685 56.2202 120.555 56.8302 120.555C57.5402 120.555 58.1802 120.73 58.7502 121.08C59.3302 121.43 59.7852 121.93 60.1152 122.58C60.4552 123.22 60.6252 123.965 60.6252 124.815C60.6252 125.665 60.4552 126.42 60.1152 127.08C59.7852 127.73 59.3302 128.235 58.7502 128.595C58.1802 128.955 57.5402 129.135 56.8302 129.135C56.2202 129.135 55.6802 129.01 55.2102 128.76C54.7502 128.51 54.3752 128.195 54.0852 127.815V132.96H51.9852V120.69H54.0852V121.89ZM58.4802 124.815C58.4802 124.315 58.3752 123.885 58.1652 123.525C57.9652 123.155 57.6952 122.875 57.3552 122.685C57.0252 122.495 56.6652 122.4 56.2752 122.4C55.8952 122.4 55.5352 122.5 55.1952 122.7C54.8652 122.89 54.5952 123.17 54.3852 123.54C54.1852 123.91 54.0852 124.345 54.0852 124.845C54.0852 125.345 54.1852 125.78 54.3852 126.15C54.5952 126.52 54.8652 126.805 55.1952 127.005C55.5352 127.195 55.8952 127.29 56.2752 127.29C56.6652 127.29 57.0252 127.19 57.3552 126.99C57.6952 126.79 57.9652 126.505 58.1652 126.135C58.3752 125.765 58.4802 125.325 58.4802 124.815ZM65.8412 129.135C65.0412 129.135 64.3212 128.96 63.6812 128.61C63.0412 128.25 62.5362 127.745 62.1662 127.095C61.8062 126.445 61.6262 125.695 61.6262 124.845C61.6262 123.995 61.8112 123.245 62.1812 122.595C62.5612 121.945 63.0762 121.445 63.7262 121.095C64.3762 120.735 65.1012 120.555 65.9012 120.555C66.7012 120.555 67.4262 120.735 68.0762 121.095C68.7262 121.445 69.2362 121.945 69.6062 122.595C69.9862 123.245 70.1762 123.995 70.1762 124.845C70.1762 125.695 69.9812 126.445 69.5912 127.095C69.2112 127.745 68.6912 128.25 68.0312 128.61C67.3812 128.96 66.6512 129.135 65.8412 129.135ZM65.8412 127.305C66.2212 127.305 66.5762 127.215 66.9062 127.035C67.2462 126.845 67.5162 126.565 67.7162 126.195C67.9162 125.825 68.0162 125.375 68.0162 124.845C68.0162 124.055 67.8062 123.45 67.3862 123.03C66.9762 122.6 66.4712 122.385 65.8712 122.385C65.2712 122.385 64.7662 122.6 64.3562 123.03C63.9562 123.45 63.7562 124.055 63.7562 124.845C63.7562 125.635 63.9512 126.245 64.3412 126.675C64.7412 127.095 65.2412 127.305 65.8412 127.305ZM76.3216 120.57C77.3116 120.57 78.1116 120.885 78.7216 121.515C79.3316 122.135 79.6366 123.005 79.6366 124.125V129H77.5366V124.41C77.5366 123.75 77.3716 123.245 77.0416 122.895C76.7116 122.535 76.2616 122.355 75.6916 122.355C75.1116 122.355 74.6516 122.535 74.3116 122.895C73.9816 123.245 73.8166 123.75 73.8166 124.41V129H71.7166V120.69H73.8166V121.725C74.0966 121.365 74.4516 121.085 74.8816 120.885C75.3216 120.675 75.8016 120.57 76.3216 120.57ZM84.8136 129.135C84.1336 129.135 83.5236 129.015 82.9836 128.775C82.4436 128.525 82.0136 128.19 81.6936 127.77C81.3836 127.35 81.2136 126.885 81.1836 126.375H83.2986C83.3386 126.695 83.4936 126.96 83.7636 127.17C84.0436 127.38 84.3886 127.485 84.7986 127.485C85.1986 127.485 85.5086 127.405 85.7286 127.245C85.9586 127.085 86.0736 126.88 86.0736 126.63C86.0736 126.36 85.9336 126.16 85.6536 126.03C85.3836 125.89 84.9486 125.74 84.3486 125.58C83.7286 125.43 83.2186 125.275 82.8186 125.115C82.4286 124.955 82.0886 124.71 81.7986 124.38C81.5186 124.05 81.3786 123.605 81.3786 123.045C81.3786 122.585 81.5086 122.165 81.7686 121.785C82.0386 121.405 82.4186 121.105 82.9086 120.885C83.4086 120.665 83.9936 120.555 84.6636 120.555C85.6536 120.555 86.4436 120.805 87.0336 121.305C87.6236 121.795 87.9486 122.46 88.0086 123.3H85.9986C85.9686 122.97 85.8286 122.71 85.5786 122.52C85.3386 122.32 85.0136 122.22 84.6036 122.22C84.2236 122.22 83.9286 122.29 83.7186 122.43C83.5186 122.57 83.4186 122.765 83.4186 123.015C83.4186 123.295 83.5586 123.51 83.8386 123.66C84.1186 123.8 84.5536 123.945 85.1436 124.095C85.7436 124.245 86.2386 124.4 86.6286 124.56C87.0186 124.72 87.3536 124.97 87.6336 125.31C87.9236 125.64 88.0736 126.08 88.0836 126.63C88.0836 127.11 87.9486 127.54 87.6786 127.92C87.4186 128.3 87.0386 128.6 86.5386 128.82C86.0486 129.03 85.4736 129.135 84.8136 129.135ZM90.8725 119.7C90.5025 119.7 90.1925 119.585 89.9425 119.355C89.7025 119.115 89.5825 118.82 89.5825 118.47C89.5825 118.12 89.7025 117.83 89.9425 117.6C90.1925 117.36 90.5025 117.24 90.8725 117.24C91.2425 117.24 91.5475 117.36 91.7875 117.6C92.0375 117.83 92.1625 118.12 92.1625 118.47C92.1625 118.82 92.0375 119.115 91.7875 119.355C91.5475 119.585 91.2425 119.7 90.8725 119.7ZM91.9075 120.69V129H89.8075V120.69H91.9075ZM96.0823 121.905C96.3523 121.505 96.7223 121.18 97.1923 120.93C97.6723 120.68 98.2173 120.555 98.8273 120.555C99.5373 120.555 100.177 120.73 100.747 121.08C101.327 121.43 101.782 121.93 102.112 122.58C102.452 123.22 102.622 123.965 102.622 124.815C102.622 125.665 102.452 126.42 102.112 127.08C101.782 127.73 101.327 128.235 100.747 128.595C100.177 128.955 99.5373 129.135 98.8273 129.135C98.2073 129.135 97.6623 129.015 97.1923 128.775C96.7323 128.525 96.3623 128.205 96.0823 127.815V129H93.9823V117.9H96.0823V121.905ZM100.477 124.815C100.477 124.315 100.372 123.885 100.162 123.525C99.9623 123.155 99.6923 122.875 99.3523 122.685C99.0223 122.495 98.6623 122.4 98.2723 122.4C97.8923 122.4 97.5323 122.5 97.1923 122.7C96.8623 122.89 96.5923 123.17 96.3823 123.54C96.1823 123.91 96.0823 124.345 96.0823 124.845C96.0823 125.345 96.1823 125.78 96.3823 126.15C96.5923 126.52 96.8623 126.805 97.1923 127.005C97.5323 127.195 97.8923 127.29 98.2723 127.29C98.6623 127.29 99.0223 127.19 99.3523 126.99C99.6923 126.79 99.9623 126.505 100.162 126.135C100.372 125.765 100.477 125.325 100.477 124.815ZM106.248 117.9V129H104.148V117.9H106.248ZM116.048 124.665C116.048 124.965 116.028 125.235 115.988 125.475H109.913C109.963 126.075 110.173 126.545 110.543 126.885C110.913 127.225 111.368 127.395 111.908 127.395C112.688 127.395 113.243 127.06 113.573 126.39H115.838C115.598 127.19 115.138 127.85 114.458 128.37C113.778 128.88 112.943 129.135 111.953 129.135C111.153 129.135 110.433 128.96 109.793 128.61C109.163 128.25 108.668 127.745 108.308 127.095C107.958 126.445 107.783 125.695 107.783 124.845C107.783 123.985 107.958 123.23 108.308 122.58C108.658 121.93 109.148 121.43 109.778 121.08C110.408 120.73 111.133 120.555 111.953 120.555C112.743 120.555 113.448 120.725 114.068 121.065C114.698 121.405 115.183 121.89 115.523 122.52C115.873 123.14 116.048 123.855 116.048 124.665ZM113.873 124.065C113.863 123.525 113.668 123.095 113.288 122.775C112.908 122.445 112.443 122.28 111.893 122.28C111.373 122.28 110.933 122.44 110.573 122.76C110.223 123.07 110.008 123.505 109.928 124.065H113.873ZM50.075 145.415H48.62V152H46.49V145.415H45.545V143.69H46.49V143.27C46.49 142.25 46.78 141.5 47.36 141.02C47.94 140.54 48.815 140.315 49.985 140.345V142.115C49.475 142.105 49.12 142.19 48.92 142.37C48.72 142.55 48.62 142.875 48.62 143.345V143.69H50.075V145.415ZM55.1259 152.135C54.3259 152.135 53.6059 151.96 52.9659 151.61C52.3259 151.25 51.8209 150.745 51.4509 150.095C51.0909 149.445 50.9109 148.695 50.9109 147.845C50.9109 146.995 51.0959 146.245 51.4659 145.595C51.8459 144.945 52.3609 144.445 53.0109 144.095C53.6609 143.735 54.3859 143.555 55.1859 143.555C55.9859 143.555 56.7109 143.735 57.3609 144.095C58.0109 144.445 58.5209 144.945 58.8909 145.595C59.2709 146.245 59.4609 146.995 59.4609 147.845C59.4609 148.695 59.2659 149.445 58.8759 150.095C58.4959 150.745 57.9759 151.25 57.3159 151.61C56.6659 151.96 55.9359 152.135 55.1259 152.135ZM55.1259 150.305C55.5059 150.305 55.8609 150.215 56.1909 150.035C56.5309 149.845 56.8009 149.565 57.0009 149.195C57.2009 148.825 57.3009 148.375 57.3009 147.845C57.3009 147.055 57.0909 146.45 56.6709 146.03C56.2609 145.6 55.7559 145.385 55.1559 145.385C54.5559 145.385 54.0509 145.6 53.6409 146.03C53.2409 146.45 53.0409 147.055 53.0409 147.845C53.0409 148.635 53.2359 149.245 53.6259 149.675C54.0259 150.095 54.5259 150.305 55.1259 150.305ZM63.1013 144.98C63.3713 144.54 63.7213 144.195 64.1513 143.945C64.5913 143.695 65.0913 143.57 65.6513 143.57V145.775H65.0963C64.4363 145.775 63.9363 145.93 63.5963 146.24C63.2663 146.55 63.1013 147.09 63.1013 147.86V152H61.0013V143.69H63.1013V144.98ZM70.1 147.815C70.1 146.975 70.265 146.23 70.595 145.58C70.935 144.93 71.39 144.43 71.96 144.08C72.54 143.73 73.185 143.555 73.895 143.555C74.515 143.555 75.055 143.68 75.515 143.93C75.985 144.18 76.36 144.495 76.64 144.875V143.69H78.755V152H76.64V150.785C76.37 151.175 75.995 151.5 75.515 151.76C75.045 152.01 74.5 152.135 73.88 152.135C73.18 152.135 72.54 151.955 71.96 151.595C71.39 151.235 70.935 150.73 70.595 150.08C70.265 149.42 70.1 148.665 70.1 147.815ZM76.64 147.845C76.64 147.335 76.54 146.9 76.34 146.54C76.14 146.17 75.87 145.89 75.53 145.7C75.19 145.5 74.825 145.4 74.435 145.4C74.045 145.4 73.685 145.495 73.355 145.685C73.025 145.875 72.755 146.155 72.545 146.525C72.345 146.885 72.245 147.315 72.245 147.815C72.245 148.315 72.345 148.755 72.545 149.135C72.755 149.505 73.025 149.79 73.355 149.99C73.695 150.19 74.055 150.29 74.435 150.29C74.825 150.29 75.19 150.195 75.53 150.005C75.87 149.805 76.14 149.525 76.34 149.165C76.54 148.795 76.64 148.355 76.64 147.845ZM85.411 143.57C86.401 143.57 87.201 143.885 87.811 144.515C88.421 145.135 88.726 146.005 88.726 147.125V152H86.626V147.41C86.626 146.75 86.461 146.245 86.131 145.895C85.801 145.535 85.351 145.355 84.781 145.355C84.201 145.355 83.741 145.535 83.401 145.895C83.071 146.245 82.906 146.75 82.906 147.41V152H80.806V143.69H82.906V144.725C83.186 144.365 83.541 144.085 83.971 143.885C84.411 143.675 84.891 143.57 85.411 143.57ZM98.673 143.69L93.528 155.93H91.293L93.093 151.79L89.763 143.69H92.118L94.263 149.495L96.438 143.69H98.673ZM26.2216 165.7C25.8516 165.7 25.5416 165.585 25.2916 165.355C25.0516 165.115 24.9316 164.82 24.9316 164.47C24.9316 164.12 25.0516 163.83 25.2916 163.6C25.5416 163.36 25.8516 163.24 26.2216 163.24C26.5916 163.24 26.8966 163.36 27.1366 163.6C27.3866 163.83 27.5116 164.12 27.5116 164.47C27.5116 164.82 27.3866 165.115 27.1366 165.355C26.8966 165.585 26.5916 165.7 26.2216 165.7ZM27.2566 166.69V175H25.1566V166.69H27.2566ZM33.9364 166.57C34.9264 166.57 35.7264 166.885 36.3364 167.515C36.9464 168.135 37.2514 169.005 37.2514 170.125V175H35.1514V170.41C35.1514 169.75 34.9864 169.245 34.6564 168.895C34.3264 168.535 33.8764 168.355 33.3064 168.355C32.7264 168.355 32.2664 168.535 31.9264 168.895C31.5964 169.245 31.4314 169.75 31.4314 170.41V175H29.3314V166.69H31.4314V167.725C31.7114 167.365 32.0664 167.085 32.4964 166.885C32.9364 166.675 33.4164 166.57 33.9364 166.57ZM42.7134 173.065L44.8134 166.69H47.0484L43.9734 175H41.4234L38.3634 166.69H40.6134L42.7134 173.065ZM51.9179 175.135C51.1179 175.135 50.3979 174.96 49.7579 174.61C49.1179 174.25 48.6129 173.745 48.2429 173.095C47.8829 172.445 47.7029 171.695 47.7029 170.845C47.7029 169.995 47.8879 169.245 48.2579 168.595C48.6379 167.945 49.1529 167.445 49.8029 167.095C50.4529 166.735 51.1779 166.555 51.9779 166.555C52.7779 166.555 53.5029 166.735 54.1529 167.095C54.8029 167.445 55.3129 167.945 55.6829 168.595C56.0629 169.245 56.2529 169.995 56.2529 170.845C56.2529 171.695 56.0579 172.445 55.6679 173.095C55.2879 173.745 54.7679 174.25 54.1079 174.61C53.4579 174.96 52.7279 175.135 51.9179 175.135ZM51.9179 173.305C52.2979 173.305 52.6529 173.215 52.9829 173.035C53.3229 172.845 53.5929 172.565 53.7929 172.195C53.9929 171.825 54.0929 171.375 54.0929 170.845C54.0929 170.055 53.8829 169.45 53.4629 169.03C53.0529 168.6 52.5479 168.385 51.9479 168.385C51.3479 168.385 50.8429 168.6 50.4329 169.03C50.0329 169.45 49.8329 170.055 49.8329 170.845C49.8329 171.635 50.0279 172.245 50.4179 172.675C50.8179 173.095 51.3179 173.305 51.9179 173.305ZM59.8933 163.9V175H57.7933V163.9H59.8933ZM65.4331 173.065L67.5331 166.69H69.7681L66.6931 175H64.1431L61.0831 166.69H63.3331L65.4331 173.065ZM78.6726 170.665C78.6726 170.965 78.6526 171.235 78.6126 171.475H72.5376C72.5876 172.075 72.7976 172.545 73.1676 172.885C73.5376 173.225 73.9926 173.395 74.5326 173.395C75.3126 173.395 75.8676 173.06 76.1976 172.39H78.4626C78.2226 173.19 77.7626 173.85 77.0826 174.37C76.4026 174.88 75.5676 175.135 74.5776 175.135C73.7776 175.135 73.0576 174.96 72.4176 174.61C71.7876 174.25 71.2926 173.745 70.9326 173.095C70.5826 172.445 70.4076 171.695 70.4076 170.845C70.4076 169.985 70.5826 169.23 70.9326 168.58C71.2826 167.93 71.7726 167.43 72.4026 167.08C73.0326 166.73 73.7576 166.555 74.5776 166.555C75.3676 166.555 76.0726 166.725 76.6926 167.065C77.3226 167.405 77.8076 167.89 78.1476 168.52C78.4976 169.14 78.6726 169.855 78.6726 170.665ZM76.4976 170.065C76.4876 169.525 76.2926 169.095 75.9126 168.775C75.5326 168.445 75.0676 168.28 74.5176 168.28C73.9976 168.28 73.5576 168.44 73.1976 168.76C72.8476 169.07 72.6326 169.505 72.5526 170.065H76.4976ZM90.5254 166.57C91.5454 166.57 92.3654 166.885 92.9854 167.515C93.6154 168.135 93.9304 169.005 93.9304 170.125V175H91.8304V170.41C91.8304 169.76 91.6654 169.265 91.3354 168.925C91.0054 168.575 90.5554 168.4 89.9854 168.4C89.4154 168.4 88.9604 168.575 88.6204 168.925C88.2904 169.265 88.1254 169.76 88.1254 170.41V175H86.0254V170.41C86.0254 169.76 85.8604 169.265 85.5304 168.925C85.2004 168.575 84.7504 168.4 84.1804 168.4C83.6004 168.4 83.1404 168.575 82.8004 168.925C82.4704 169.265 82.3054 169.76 82.3054 170.41V175H80.2054V166.69H82.3054V167.695C82.5754 167.345 82.9204 167.07 83.3404 166.87C83.7704 166.67 84.2404 166.57 84.7504 166.57C85.4004 166.57 85.9804 166.71 86.4904 166.99C87.0004 167.26 87.3954 167.65 87.6754 168.16C87.9454 167.68 88.3354 167.295 88.8454 167.005C89.3654 166.715 89.9254 166.57 90.5254 166.57ZM103.648 170.665C103.648 170.965 103.628 171.235 103.588 171.475H97.5132C97.5632 172.075 97.7732 172.545 98.1432 172.885C98.5132 173.225 98.9682 173.395 99.5082 173.395C100.288 173.395 100.843 173.06 101.173 172.39H103.438C103.198 173.19 102.738 173.85 102.058 174.37C101.378 174.88 100.543 175.135 99.5532 175.135C98.7532 175.135 98.0332 174.96 97.3932 174.61C96.7632 174.25 96.2682 173.745 95.9082 173.095C95.5582 172.445 95.3832 171.695 95.3832 170.845C95.3832 169.985 95.5582 169.23 95.9082 168.58C96.2582 167.93 96.7482 167.43 97.3782 167.08C98.0082 166.73 98.7332 166.555 99.5532 166.555C100.343 166.555 101.048 166.725 101.668 167.065C102.298 167.405 102.783 167.89 103.123 168.52C103.473 169.14 103.648 169.855 103.648 170.665ZM101.473 170.065C101.463 169.525 101.268 169.095 100.888 168.775C100.508 168.445 100.043 168.28 99.4932 168.28C98.9732 168.28 98.5332 168.44 98.1732 168.76C97.8232 169.07 97.6082 169.505 97.5282 170.065H101.473ZM109.786 166.57C110.776 166.57 111.576 166.885 112.186 167.515C112.796 168.135 113.101 169.005 113.101 170.125V175H111.001V170.41C111.001 169.75 110.836 169.245 110.506 168.895C110.176 168.535 109.726 168.355 109.156 168.355C108.576 168.355 108.116 168.535 107.776 168.895C107.446 169.245 107.281 169.75 107.281 170.41V175H105.181V166.69H107.281V167.725C107.561 167.365 107.916 167.085 108.346 166.885C108.786 166.675 109.266 166.57 109.786 166.57ZM117.543 168.415V172.435C117.543 172.715 117.608 172.92 117.738 173.05C117.878 173.17 118.108 173.23 118.428 173.23H119.403V175H118.083C116.313 175 115.428 174.14 115.428 172.42V168.415H114.438V166.69H115.428V164.635H117.543V166.69H119.403V168.415H117.543ZM45.9783 189.69L43.5483 198H41.2833L39.7683 192.195L38.2533 198H35.9733L33.5283 189.69H35.6583L37.1283 196.02L38.7183 189.69H40.9383L42.4983 196.005L43.9683 189.69H45.9783ZM54.8396 193.665C54.8396 193.965 54.8196 194.235 54.7796 194.475H48.7046C48.7546 195.075 48.9646 195.545 49.3346 195.885C49.7046 196.225 50.1596 196.395 50.6996 196.395C51.4796 196.395 52.0346 196.06 52.3646 195.39H54.6296C54.3896 196.19 53.9296 196.85 53.2496 197.37C52.5696 197.88 51.7346 198.135 50.7446 198.135C49.9446 198.135 49.2246 197.96 48.5846 197.61C47.9546 197.25 47.4596 196.745 47.0996 196.095C46.7496 195.445 46.5746 194.695 46.5746 193.845C46.5746 192.985 46.7496 192.23 47.0996 191.58C47.4496 190.93 47.9396 190.43 48.5696 190.08C49.1996 189.73 49.9246 189.555 50.7446 189.555C51.5346 189.555 52.2396 189.725 52.8596 190.065C53.4896 190.405 53.9746 190.89 54.3146 191.52C54.6646 192.14 54.8396 192.855 54.8396 193.665ZM52.6646 193.065C52.6546 192.525 52.4596 192.095 52.0796 191.775C51.6996 191.445 51.2346 191.28 50.6846 191.28C50.1646 191.28 49.7246 191.44 49.3646 191.76C49.0146 192.07 48.7996 192.505 48.7196 193.065H52.6646ZM62.3916 191.415V195.435C62.3916 195.715 62.4566 195.92 62.5866 196.05C62.7266 196.17 62.9566 196.23 63.2766 196.23H64.2516V198H62.9316C61.1616 198 60.2766 197.14 60.2766 195.42V191.415H59.2866V189.69H60.2766V187.635H62.3916V189.69H64.2516V191.415H62.3916ZM65.2221 193.815C65.2221 192.975 65.3871 192.23 65.7171 191.58C66.0571 190.93 66.5121 190.43 67.0821 190.08C67.6621 189.73 68.3071 189.555 69.0171 189.555C69.6371 189.555 70.1771 189.68 70.6371 189.93C71.1071 190.18 71.4821 190.495 71.7621 190.875V189.69H73.8771V198H71.7621V196.785C71.4921 197.175 71.1171 197.5 70.6371 197.76C70.1671 198.01 69.6221 198.135 69.0021 198.135C68.3021 198.135 67.6621 197.955 67.0821 197.595C66.5121 197.235 66.0571 196.73 65.7171 196.08C65.3871 195.42 65.2221 194.665 65.2221 193.815ZM71.7621 193.845C71.7621 193.335 71.6621 192.9 71.4621 192.54C71.2621 192.17 70.9921 191.89 70.6521 191.7C70.3121 191.5 69.9471 191.4 69.5571 191.4C69.1671 191.4 68.8071 191.495 68.4771 191.685C68.1471 191.875 67.8771 192.155 67.6671 192.525C67.4671 192.885 67.3671 193.315 67.3671 193.815C67.3671 194.315 67.4671 194.755 67.6671 195.135C67.8771 195.505 68.1471 195.79 68.4771 195.99C68.8171 196.19 69.1771 196.29 69.5571 196.29C69.9471 196.29 70.3121 196.195 70.6521 196.005C70.9921 195.805 71.2621 195.525 71.4621 195.165C71.6621 194.795 71.7621 194.355 71.7621 193.845ZM80.8481 198L78.0281 194.46V198H75.9281V186.9H78.0281V193.215L80.8181 189.69H83.5481L79.8881 193.86L83.5781 198H80.8481ZM92.4128 193.665C92.4128 193.965 92.3928 194.235 92.3528 194.475H86.2778C86.3278 195.075 86.5378 195.545 86.9078 195.885C87.2778 196.225 87.7328 196.395 88.2728 196.395C89.0528 196.395 89.6078 196.06 89.9378 195.39H92.2028C91.9628 196.19 91.5028 196.85 90.8228 197.37C90.1428 197.88 89.3078 198.135 88.3178 198.135C87.5178 198.135 86.7978 197.96 86.1578 197.61C85.5278 197.25 85.0328 196.745 84.6728 196.095C84.3228 195.445 84.1478 194.695 84.1478 193.845C84.1478 192.985 84.3228 192.23 84.6728 191.58C85.0228 190.93 85.5128 190.43 86.1428 190.08C86.7728 189.73 87.4978 189.555 88.3178 189.555C89.1078 189.555 89.8128 189.725 90.4328 190.065C91.0628 190.405 91.5478 190.89 91.8878 191.52C92.2378 192.14 92.4128 192.855 92.4128 193.665ZM90.2378 193.065C90.2278 192.525 90.0328 192.095 89.6528 191.775C89.2728 191.445 88.8078 191.28 88.2578 191.28C87.7378 191.28 87.2978 191.44 86.9378 191.76C86.5878 192.07 86.3728 192.505 86.2928 193.065H90.2378ZM98.5849 188.7C98.2149 188.7 97.9049 188.585 97.6549 188.355C97.4149 188.115 97.2949 187.82 97.2949 187.47C97.2949 187.12 97.4149 186.83 97.6549 186.6C97.9049 186.36 98.2149 186.24 98.5849 186.24C98.9549 186.24 99.2599 186.36 99.4999 186.6C99.7499 186.83 99.8749 187.12 99.8749 187.47C99.8749 187.82 99.7499 188.115 99.4999 188.355C99.2599 188.585 98.9549 188.7 98.5849 188.7ZM99.6199 189.69V198H97.5199V189.69H99.6199ZM106.3 189.57C107.29 189.57 108.09 189.885 108.7 190.515C109.31 191.135 109.615 192.005 109.615 193.125V198H107.515V193.41C107.515 192.75 107.35 192.245 107.02 191.895C106.69 191.535 106.24 191.355 105.67 191.355C105.09 191.355 104.63 191.535 104.29 191.895C103.96 192.245 103.795 192.75 103.795 193.41V198H101.695V189.69H103.795V190.725C104.075 190.365 104.43 190.085 104.86 189.885C105.3 189.675 105.78 189.57 106.3 189.57ZM28.1874 221.135C27.3874 221.135 26.6674 220.96 26.0274 220.61C25.3874 220.25 24.8824 219.745 24.5124 219.095C24.1524 218.445 23.9724 217.695 23.9724 216.845C23.9724 215.995 24.1574 215.245 24.5274 214.595C24.9074 213.945 25.4224 213.445 26.0724 213.095C26.7224 212.735 27.4474 212.555 28.2474 212.555C29.0474 212.555 29.7724 212.735 30.4224 213.095C31.0724 213.445 31.5824 213.945 31.9524 214.595C32.3324 215.245 32.5224 215.995 32.5224 216.845C32.5224 217.695 32.3274 218.445 31.9374 219.095C31.5574 219.745 31.0374 220.25 30.3774 220.61C29.7274 220.96 28.9974 221.135 28.1874 221.135ZM28.1874 219.305C28.5674 219.305 28.9224 219.215 29.2524 219.035C29.5924 218.845 29.8624 218.565 30.0624 218.195C30.2624 217.825 30.3624 217.375 30.3624 216.845C30.3624 216.055 30.1524 215.45 29.7324 215.03C29.3224 214.6 28.8174 214.385 28.2174 214.385C27.6174 214.385 27.1124 214.6 26.7024 215.03C26.3024 215.45 26.1024 216.055 26.1024 216.845C26.1024 217.635 26.2974 218.245 26.6874 218.675C27.0874 219.095 27.5874 219.305 28.1874 219.305ZM41.9078 212.69V221H39.7928V219.95C39.5228 220.31 39.1678 220.595 38.7278 220.805C38.2978 221.005 37.8278 221.105 37.3178 221.105C36.6678 221.105 36.0928 220.97 35.5928 220.7C35.0928 220.42 34.6978 220.015 34.4078 219.485C34.1278 218.945 33.9878 218.305 33.9878 217.565V212.69H36.0878V217.265C36.0878 217.925 36.2528 218.435 36.5828 218.795C36.9128 219.145 37.3628 219.32 37.9328 219.32C38.5128 219.32 38.9678 219.145 39.2978 218.795C39.6278 218.435 39.7928 217.925 39.7928 217.265V212.69H41.9078ZM46.0798 213.98C46.3498 213.54 46.6998 213.195 47.1298 212.945C47.5698 212.695 48.0698 212.57 48.6298 212.57V214.775H48.0748C47.4148 214.775 46.9148 214.93 46.5748 215.24C46.2448 215.55 46.0798 216.09 46.0798 216.86V221H43.9798V212.69H46.0798V213.98ZM55.7185 213.905C55.9885 213.505 56.3585 213.18 56.8285 212.93C57.3085 212.68 57.8535 212.555 58.4635 212.555C59.1735 212.555 59.8135 212.73 60.3835 213.08C60.9635 213.43 61.4185 213.93 61.7485 214.58C62.0885 215.22 62.2585 215.965 62.2585 216.815C62.2585 217.665 62.0885 218.42 61.7485 219.08C61.4185 219.73 60.9635 220.235 60.3835 220.595C59.8135 220.955 59.1735 221.135 58.4635 221.135C57.8435 221.135 57.2985 221.015 56.8285 220.775C56.3685 220.525 55.9985 220.205 55.7185 219.815V221H53.6185V209.9H55.7185V213.905ZM60.1135 216.815C60.1135 216.315 60.0085 215.885 59.7985 215.525C59.5985 215.155 59.3285 214.875 58.9885 214.685C58.6585 214.495 58.2985 214.4 57.9085 214.4C57.5285 214.4 57.1685 214.5 56.8285 214.7C56.4985 214.89 56.2285 215.17 56.0185 215.54C55.8185 215.91 55.7185 216.345 55.7185 216.845C55.7185 217.345 55.8185 217.78 56.0185 218.15C56.2285 218.52 56.4985 218.805 56.8285 219.005C57.1685 219.195 57.5285 219.29 57.9085 219.29C58.2985 219.29 58.6585 219.19 58.9885 218.99C59.3285 218.79 59.5985 218.505 59.7985 218.135C60.0085 217.765 60.1135 217.325 60.1135 216.815ZM71.6295 212.69V221H69.5145V219.95C69.2445 220.31 68.8895 220.595 68.4495 220.805C68.0195 221.005 67.5495 221.105 67.0395 221.105C66.3895 221.105 65.8145 220.97 65.3145 220.7C64.8145 220.42 64.4195 220.015 64.1295 219.485C63.8495 218.945 63.7095 218.305 63.7095 217.565V212.69H65.8095V217.265C65.8095 217.925 65.9745 218.435 66.3045 218.795C66.6345 219.145 67.0845 219.32 67.6545 219.32C68.2345 219.32 68.6895 219.145 69.0195 218.795C69.3495 218.435 69.5145 217.925 69.5145 217.265V212.69H71.6295ZM76.8815 221.135C76.2015 221.135 75.5915 221.015 75.0515 220.775C74.5115 220.525 74.0815 220.19 73.7615 219.77C73.4515 219.35 73.2815 218.885 73.2515 218.375H75.3665C75.4065 218.695 75.5615 218.96 75.8315 219.17C76.1115 219.38 76.4565 219.485 76.8665 219.485C77.2665 219.485 77.5765 219.405 77.7965 219.245C78.0265 219.085 78.1415 218.88 78.1415 218.63C78.1415 218.36 78.0015 218.16 77.7215 218.03C77.4515 217.89 77.0165 217.74 76.4165 217.58C75.7965 217.43 75.2865 217.275 74.8865 217.115C74.4965 216.955 74.1565 216.71 73.8665 216.38C73.5865 216.05 73.4465 215.605 73.4465 215.045C73.4465 214.585 73.5765 214.165 73.8365 213.785C74.1065 213.405 74.4865 213.105 74.9765 212.885C75.4765 212.665 76.0615 212.555 76.7315 212.555C77.7215 212.555 78.5115 212.805 79.1015 213.305C79.6915 213.795 80.0165 214.46 80.0765 215.3H78.0665C78.0365 214.97 77.8965 214.71 77.6465 214.52C77.4065 214.32 77.0815 214.22 76.6715 214.22C76.2915 214.22 75.9965 214.29 75.7865 214.43C75.5865 214.57 75.4865 214.765 75.4865 215.015C75.4865 215.295 75.6265 215.51 75.9065 215.66C76.1865 215.8 76.6215 215.945 77.2115 216.095C77.8115 216.245 78.3065 216.4 78.6965 216.56C79.0865 216.72 79.4215 216.97 79.7015 217.31C79.9915 217.64 80.1415 218.08 80.1515 218.63C80.1515 219.11 80.0165 219.54 79.7465 219.92C79.4865 220.3 79.1065 220.6 78.6065 220.82C78.1165 221.03 77.5415 221.135 76.8815 221.135ZM82.9403 211.7C82.5703 211.7 82.2603 211.585 82.0103 211.355C81.7703 211.115 81.6503 210.82 81.6503 210.47C81.6503 210.12 81.7703 209.83 82.0103 209.6C82.2603 209.36 82.5703 209.24 82.9403 209.24C83.3103 209.24 83.6153 209.36 83.8553 209.6C84.1053 209.83 84.2303 210.12 84.2303 210.47C84.2303 210.82 84.1053 211.115 83.8553 211.355C83.6153 211.585 83.3103 211.7 82.9403 211.7ZM83.9753 212.69V221H81.8753V212.69H83.9753ZM90.6551 212.57C91.6451 212.57 92.4451 212.885 93.0551 213.515C93.6651 214.135 93.9701 215.005 93.9701 216.125V221H91.8701V216.41C91.8701 215.75 91.7051 215.245 91.3751 214.895C91.0451 214.535 90.5951 214.355 90.0251 214.355C89.4451 214.355 88.9851 214.535 88.6451 214.895C88.3151 215.245 88.1501 215.75 88.1501 216.41V221H86.0501V212.69H88.1501V213.725C88.4301 213.365 88.7851 213.085 89.2151 212.885C89.6551 212.675 90.1351 212.57 90.6551 212.57ZM103.692 216.665C103.692 216.965 103.672 217.235 103.632 217.475H97.5571C97.6071 218.075 97.8171 218.545 98.1871 218.885C98.5571 219.225 99.0121 219.395 99.5521 219.395C100.332 219.395 100.887 219.06 101.217 218.39H103.482C103.242 219.19 102.782 219.85 102.102 220.37C101.422 220.88 100.587 221.135 99.5971 221.135C98.7971 221.135 98.0771 220.96 97.4371 220.61C96.8071 220.25 96.3121 219.745 95.9521 219.095C95.6021 218.445 95.4271 217.695 95.4271 216.845C95.4271 215.985 95.6021 215.23 95.9521 214.58C96.3021 213.93 96.7921 213.43 97.4221 213.08C98.0521 212.73 98.7771 212.555 99.5971 212.555C100.387 212.555 101.092 212.725 101.712 213.065C102.342 213.405 102.827 213.89 103.167 214.52C103.517 215.14 103.692 215.855 103.692 216.665ZM101.517 216.065C101.507 215.525 101.312 215.095 100.932 214.775C100.552 214.445 100.087 214.28 99.5371 214.28C99.0171 214.28 98.5771 214.44 98.2171 214.76C97.8671 215.07 97.6521 215.505 97.5721 216.065H101.517ZM108.405 221.135C107.725 221.135 107.115 221.015 106.575 220.775C106.035 220.525 105.605 220.19 105.285 219.77C104.975 219.35 104.805 218.885 104.775 218.375H106.89C106.93 218.695 107.085 218.96 107.355 219.17C107.635 219.38 107.98 219.485 108.39 219.485C108.79 219.485 109.1 219.405 109.32 219.245C109.55 219.085 109.665 218.88 109.665 218.63C109.665 218.36 109.525 218.16 109.245 218.03C108.975 217.89 108.54 217.74 107.94 217.58C107.32 217.43 106.81 217.275 106.41 217.115C106.02 216.955 105.68 216.71 105.39 216.38C105.11 216.05 104.97 215.605 104.97 215.045C104.97 214.585 105.1 214.165 105.36 213.785C105.63 213.405 106.01 213.105 106.5 212.885C107 212.665 107.585 212.555 108.255 212.555C109.245 212.555 110.035 212.805 110.625 213.305C111.215 213.795 111.54 214.46 111.6 215.3H109.59C109.56 214.97 109.42 214.71 109.17 214.52C108.93 214.32 108.605 214.22 108.195 214.22C107.815 214.22 107.52 214.29 107.31 214.43C107.11 214.57 107.01 214.765 107.01 215.015C107.01 215.295 107.15 215.51 107.43 215.66C107.71 215.8 108.145 215.945 108.735 216.095C109.335 216.245 109.83 216.4 110.22 216.56C110.61 216.72 110.945 216.97 111.225 217.31C111.515 217.64 111.665 218.08 111.675 218.63C111.675 219.11 111.54 219.54 111.27 219.92C111.01 220.3 110.63 220.6 110.13 220.82C109.64 221.03 109.065 221.135 108.405 221.135ZM116.579 221.135C115.899 221.135 115.289 221.015 114.749 220.775C114.209 220.525 113.779 220.19 113.459 219.77C113.149 219.35 112.979 218.885 112.949 218.375H115.064C115.104 218.695 115.259 218.96 115.529 219.17C115.809 219.38 116.154 219.485 116.564 219.485C116.964 219.485 117.274 219.405 117.494 219.245C117.724 219.085 117.839 218.88 117.839 218.63C117.839 218.36 117.699 218.16 117.419 218.03C117.149 217.89 116.714 217.74 116.114 217.58C115.494 217.43 114.984 217.275 114.584 217.115C114.194 216.955 113.854 216.71 113.564 216.38C113.284 216.05 113.144 215.605 113.144 215.045C113.144 214.585 113.274 214.165 113.534 213.785C113.804 213.405 114.184 213.105 114.674 212.885C115.174 212.665 115.759 212.555 116.429 212.555C117.419 212.555 118.209 212.805 118.799 213.305C119.389 213.795 119.714 214.46 119.774 215.3H117.764C117.734 214.97 117.594 214.71 117.344 214.52C117.104 214.32 116.779 214.22 116.369 214.22C115.989 214.22 115.694 214.29 115.484 214.43C115.284 214.57 115.184 214.765 115.184 215.015C115.184 215.295 115.324 215.51 115.604 215.66C115.884 215.8 116.319 215.945 116.909 216.095C117.509 216.245 118.004 216.4 118.394 216.56C118.784 216.72 119.119 216.97 119.399 217.31C119.689 217.64 119.839 218.08 119.849 218.63C119.849 219.11 119.714 219.54 119.444 219.92C119.184 220.3 118.804 220.6 118.304 220.82C117.814 221.03 117.239 221.135 116.579 221.135Z" fill="#DE964B"/>
</g>
</g>
</g>
<mask id="mask1_507_172" style="mask-type:alpha" maskUnits="userSpaceOnUse" x="144" y="0" width="143" height="316">
<rect x="144" width="143" height="316" rx="25" fill="#AB9F9F"/>
</mask>
<g mask="url(#mask1_507_172)">
<g filter="url(#filter2_bd_507_172)">
</g>
</g>
<defs>
<filter id="filter0_bd_507_172" x="-5" y="-5" width="153" height="329" filterUnits="userSpaceOnUse" color-interpolation-filters="sRGB">
<feFlood flood-opacity="0" result="BackgroundImageFix"/>
<feGaussianBlur in="BackgroundImage" stdDeviation="2.5"/>
<feComposite in2="SourceAlpha" operator="in" result="effect1_backgroundBlur_507_172"/>
<feColorMatrix in="SourceAlpha" type="matrix" values="0 0 0 0 0 0 0 0 0 0 0 0 0 0 0 0 0 0 127 0" result="hardAlpha"/>
<feOffset dy="4"/>
<feGaussianBlur stdDeviation="2"/>
<feComposite in2="hardAlpha" operator="out"/>
<feColorMatrix type="matrix" values="0 0 0 0 0 0 0 0 0 0 0 0 0 0 0 0 0 0 0.25 0"/>
<feBlend mode="normal" in2="effect1_backgroundBlur_507_172" result="effect2_dropShadow_507_172"/>
<feBlend mode="normal" in="SourceGraphic" in2="effect2_dropShadow_507_172" result="shape"/>
</filter>
<filter id="filter1_dd_507_172" x="4.97241" y="75.2402" width="133.876" height="164.895" filterUnits="userSpaceOnUse" color-interpolation-filters="sRGB">
<feFlood flood-opacity="0" result="BackgroundImageFix"/>
<feColorMatrix in="SourceAlpha" type="matrix" values="0 0 0 0 0 0 0 0 0 0 0 0 0 0 0 0 0 0 127 0" result="hardAlpha"/>
<feOffset dx="-4" dy="-4"/>
<feGaussianBlur stdDeviation="7.5"/>
<feComposite in2="hardAlpha" operator="out"/>
<feColorMatrix type="matrix" values="0 0 0 0 1 0 0 0 0 1 0 0 0 0 1 0 0 0 0.6 0"/>
<feBlend mode="normal" in2="BackgroundImageFix" result="effect1_dropShadow_507_172"/>
<feColorMatrix in="SourceAlpha" type="matrix" values="0 0 0 0 0 0 0 0 0 0 0 0 0 0 0 0 0 0 127 0" result="hardAlpha"/>
<feOffset dx="4" dy="4"/>
<feGaussianBlur stdDeviation="7.5"/>
<feComposite in2="hardAlpha" operator="out"/>
<feColorMatrix type="matrix" values="0 0 0 0 1 0 0 0 0 1 0 0 0 0 1 0 0 0 0.6 0"/>
<feBlend mode="normal" in2="effect1_dropShadow_507_172" result="effect2_dropShadow_507_172"/>
<feBlend mode="normal" in="SourceGraphic" in2="effect2_dropShadow_507_172" result="shape"/>
</filter>
<filter id="filter2_bd_507_172" x="-5" y="-5" width="153" height="329" filterUnits="userSpaceOnUse" color-interpolation-filters="sRGB">
<feFlood flood-opacity="0" result="BackgroundImageFix"/>
<feGaussianBlur in="BackgroundImage" stdDeviation="2.5"/>
<feComposite in2="SourceAlpha" operator="in" result="effect1_backgroundBlur_507_172"/>
<feColorMatrix in="SourceAlpha" type="matrix" values="0 0 0 0 0 0 0 0 0 0 0 0 0 0 0 0 0 0 127 0" result="hardAlpha"/>
<feOffset dy="4"/>
<feGaussianBlur stdDeviation="2"/>
<feComposite in2="hardAlpha" operator="out"/>
<feColorMatrix type="matrix" values="0 0 0 0 0 0 0 0 0 0 0 0 0 0 0 0 0 0 0.25 0"/>
<feBlend mode="normal" in2="effect1_backgroundBlur_507_172" result="effect2_dropShadow_507_172"/>
<feBlend mode="normal" in="SourceGraphic" in2="effect2_dropShadow_507_172" result="shape"/>
</filter>
</defs>
</svg>
