<svg width="147" height="316" viewBox="0 0 147 316" fill="none" xmlns="http://www.w3.org/2000/svg">
<mask id="mask0_507_157" style="mask-type:alpha" maskUnits="userSpaceOnUse" x="-140" y="0" width="143" height="316">
<rect x="-140" width="143" height="316" rx="25" fill="#AB9F9F"/>
</mask>
<g mask="url(#mask0_507_157)">
<g filter="url(#filter0_bd_507_157)">
</g>
</g>
<mask id="mask1_507_157" style="mask-type:alpha" maskUnits="userSpaceOnUse" x="4" y="0" width="143" height="316">
<rect x="4" width="143" height="316" rx="25" fill="#AB9F9F"/>
</mask>
<g mask="url(#mask1_507_157)">
<g filter="url(#filter1_bd_507_157)">
<rect x="4" width="143" height="316" rx="25" fill="#FAA955" fill-opacity="0.6"/>
<g filter="url(#filter2_dd_507_157)">
<path d="M66.0173 79.7701L72.8111 75.9092L72.8084 74.2592L66.0085 74.2701L66.0028 70.7701L83.4528 70.742L83.4633 77.292C83.4655 78.642 83.2257 79.7924 82.7439 80.7432C82.2788 81.6939 81.6383 82.4033 80.8223 82.8713C80.0231 83.3559 79.1235 83.599 78.1235 83.6006C76.9735 83.6025 75.9313 83.2708 74.9969 82.6056C74.0792 81.9405 73.4442 80.9498 73.0921 79.6337L66.0238 83.8201L66.0173 79.7701ZM75.4334 74.2549L75.4382 77.1799C75.4397 78.1299 75.6658 78.8379 76.1166 79.3038C76.584 79.7697 77.226 80.002 78.0427 80.0007C78.8427 79.9994 79.459 79.7651 79.8916 79.2978C80.3408 78.8304 80.5647 78.1217 80.5632 77.1717L80.5584 74.2467L75.4334 74.2549ZM73.2744 99.6491C72.7744 99.6499 72.3243 99.6173 71.9242 99.5512L71.9079 89.4263C70.908 89.5112 70.1253 89.8625 69.5596 90.48C68.9939 91.0976 68.7118 91.8564 68.7133 92.7564C68.7153 94.0564 69.2752 94.9805 70.3927 95.5287L70.3988 99.3037C69.0648 98.9058 67.9636 98.141 67.0951 97.009C66.2433 95.8771 65.816 94.4861 65.8134 92.8361C65.8112 91.5027 66.101 90.3023 66.6826 89.2347C67.2809 88.1837 68.1212 87.3574 69.2036 86.7556C70.286 86.1705 71.5355 85.8768 72.9522 85.8746C74.3855 85.8723 75.6443 86.1619 76.7286 86.7435C77.8128 87.3251 78.6475 88.1404 79.2325 89.1895C79.8175 90.2385 80.1112 91.4464 80.1134 92.813C80.1155 94.1297 79.834 95.3052 79.269 96.3394C78.7041 97.3903 77.897 98.1999 76.848 98.7683C75.8156 99.3533 74.6244 99.6469 73.2744 99.6491ZM74.2685 96.0225C75.1685 96.0043 75.8846 95.6782 76.4169 95.044C76.9659 94.4098 77.2397 93.6343 77.2382 92.7177C77.2368 91.851 76.969 91.1181 76.4347 90.519C75.9171 89.9365 75.1915 89.5793 74.2579 89.4475L74.2685 96.0225ZM65.837 107.516C65.8352 106.382 66.0336 105.365 66.4321 104.465C66.8473 103.564 67.4045 102.847 68.1037 102.312C68.8028 101.794 69.5774 101.51 70.4273 101.458L70.433 104.983C69.8997 105.051 69.4585 105.31 69.1092 105.76C68.76 106.228 68.5859 106.803 68.587 107.486C68.5881 108.153 68.7222 108.669 68.9895 109.036C69.2568 109.419 69.5987 109.61 70.0154 109.609C70.4654 109.608 70.7984 109.374 71.0143 108.907C71.2469 108.457 71.4957 107.732 71.7608 106.731C72.0091 105.697 72.2661 104.847 72.5317 104.18C72.7973 103.53 73.2047 102.962 73.7539 102.478C74.3032 102.01 75.0445 101.776 75.9778 101.774C76.7445 101.773 77.4448 101.989 78.0788 102.421C78.7129 102.87 79.2139 103.503 79.5819 104.319C79.9499 105.151 80.1348 106.126 80.1366 107.243C80.1393 108.893 79.7247 110.21 78.893 111.195C78.0779 112.179 76.9704 112.723 75.5706 112.825L75.5652 109.475C76.1151 109.424 76.5481 109.19 76.8641 108.773C77.1968 108.372 77.3626 107.831 77.3615 107.147C77.3604 106.514 77.243 106.022 77.0091 105.673C76.7752 105.34 76.4499 105.174 76.0333 105.174C75.5666 105.175 75.2087 105.409 74.9594 105.876C74.7268 106.343 74.4863 107.068 74.2379 108.052C73.9895 109.053 73.7325 109.878 73.4669 110.528C73.2013 111.179 72.7855 111.738 72.2196 112.205C71.6704 112.69 70.9375 112.941 70.0208 112.959C69.2208 112.96 68.5038 112.736 67.8697 112.287C67.2357 111.855 66.7347 111.223 66.3667 110.39C66.0154 109.574 65.8388 108.616 65.837 107.516ZM77.9311 119.319C78.5651 119.768 79.0911 120.384 79.5091 121.167C79.9437 121.966 80.1618 122.874 80.1634 123.891C80.1654 125.074 79.8754 126.141 79.2936 127.092C78.7118 128.06 77.8797 128.819 76.7973 129.371C75.7315 129.94 74.4903 130.225 73.0736 130.227C71.657 130.229 70.3982 129.948 69.2973 129.383C68.2131 128.835 67.3702 128.078 66.7686 127.112C66.1671 126.163 65.8654 125.097 65.8635 123.914C65.8618 122.897 66.0687 121.997 66.4841 121.213C66.8995 120.445 67.4235 119.82 68.0561 119.335L59.4811 119.349L59.4755 115.849L79.9254 115.816L79.9311 119.316L77.9311 119.319ZM73.0679 126.652C73.9012 126.651 74.6176 126.475 75.217 126.124C75.8332 125.789 76.2991 125.339 76.6149 124.771C76.9306 124.221 77.088 123.621 77.087 122.971C77.0859 122.337 76.9183 121.738 76.5841 121.171C76.2665 120.622 75.7991 120.173 75.1819 119.824C74.5647 119.491 73.8394 119.326 73.0061 119.327C72.1727 119.329 71.448 119.496 70.8319 119.831C70.2158 120.182 69.7415 120.633 69.4091 121.183C69.0933 121.75 68.9359 122.35 68.937 122.984C68.938 123.634 69.1056 124.234 69.4399 124.783C69.7741 125.349 70.2498 125.798 70.867 126.131C71.4843 126.48 72.2179 126.654 73.0679 126.652ZM65.8877 138.932C65.8855 137.599 66.1752 136.398 66.7569 135.331C67.3551 134.263 68.1955 133.42 69.2778 132.802C70.3602 132.2 71.6097 131.898 73.0263 131.896C74.443 131.893 75.6935 132.2 76.7778 132.815C77.8622 133.446 78.6969 134.303 79.282 135.386C79.8837 136.468 80.1857 137.676 80.1878 139.009C80.19 140.342 79.8919 141.551 79.2937 142.636C78.7121 143.72 77.8801 144.571 76.7978 145.19C75.7155 145.825 74.466 146.143 73.0493 146.146C71.6326 146.148 70.3821 145.825 69.2977 145.177C68.2134 144.545 67.3703 143.68 66.7685 142.581C66.1835 141.498 65.8898 140.282 65.8877 138.932ZM68.9377 138.927C68.9387 139.561 69.0896 140.152 69.3905 140.701C69.7081 141.268 70.1755 141.717 70.7927 142.049C71.4099 142.382 72.1602 142.547 73.0435 142.546C74.3602 142.543 75.3679 142.192 76.0668 141.491C76.7824 140.806 77.1393 139.964 77.1377 138.964C77.1361 137.964 76.7764 137.123 76.0587 136.441C75.3576 135.775 74.3487 135.443 73.0321 135.446C71.7154 135.448 70.6992 135.774 69.9836 136.426C69.2847 137.093 68.936 137.927 68.9377 138.927ZM80.1908 156.376C80.1935 158.026 79.6706 159.361 78.6222 160.379C77.5906 161.397 76.1414 161.908 74.2747 161.911L66.1497 161.924L66.1441 158.424L73.7941 158.412C74.8941 158.41 75.7353 158.134 76.3177 157.583C76.9168 157.032 77.2156 156.281 77.2141 155.331C77.2126 154.365 76.9113 153.598 76.3104 153.033C75.7262 152.484 74.8841 152.21 73.7841 152.212L66.1341 152.224L66.1284 148.724L79.9784 148.702L79.9841 152.202L78.2591 152.205C78.8598 152.67 79.3274 153.261 79.6619 153.977C80.0131 154.71 80.1894 155.51 80.1908 156.376ZM65.9386 170.553C65.9368 169.419 66.1352 168.402 66.5337 167.502C66.9489 166.601 67.5061 165.884 68.2052 165.349C68.9044 164.831 69.6789 164.547 70.5289 164.495L70.5345 168.02C70.0013 168.088 69.5601 168.347 69.2108 168.798C68.8616 169.265 68.6875 169.84 68.6886 170.523C68.6897 171.19 68.8238 171.706 69.0911 172.073C69.3584 172.456 69.7003 172.647 70.117 172.646C70.567 172.645 70.9 172.411 71.1159 171.944C71.3485 171.494 71.5973 170.769 71.8624 169.768C72.1107 168.734 72.3677 167.884 72.6333 167.217C72.8989 166.567 73.3063 165.999 73.8555 165.515C74.4048 165.047 75.1461 164.813 76.0794 164.811C76.8461 164.81 77.5464 165.026 78.1804 165.458C78.8145 165.907 79.3155 166.54 79.6835 167.356C80.0515 168.188 80.2364 169.163 80.2382 170.28C80.2409 171.93 79.8263 173.247 78.9946 174.232C78.1795 175.216 77.072 175.76 75.6722 175.862L75.6668 172.512C76.2167 172.461 76.6497 172.227 76.9657 171.81C77.2984 171.409 77.4641 170.868 77.463 170.184C77.462 169.551 77.3446 169.059 77.1107 168.71C76.8768 168.377 76.5515 168.211 76.1349 168.211C75.6682 168.212 75.3102 168.446 75.061 168.913C74.8284 169.38 74.5879 170.106 74.3395 171.089C74.0911 172.09 73.8341 172.915 73.5685 173.565C73.3029 174.216 72.8871 174.775 72.3212 175.242C71.772 175.727 71.039 175.978 70.1224 175.996C69.3224 175.997 68.6054 175.773 67.9713 175.325C67.3373 174.892 66.8363 174.26 66.4683 173.427C66.1169 172.611 65.9404 171.653 65.9386 170.553ZM81.6799 180.625C81.6789 180.009 81.8697 179.492 82.2524 179.075C82.6517 178.674 83.1431 178.473 83.7264 178.472C84.3097 178.471 84.7934 178.67 85.1774 179.07C85.578 179.486 85.7789 180.002 85.7799 180.619C85.7809 181.236 85.5817 181.744 85.1823 182.145C84.7997 182.562 84.3167 182.771 83.7333 182.772C83.15 182.773 82.658 182.566 82.2573 182.15C81.8734 181.75 81.6809 181.242 81.6799 180.625ZM80.0327 182.353L66.1827 182.375L66.177 178.875L80.027 178.853L80.0327 182.353ZM78.0189 189.314C78.6863 189.763 79.2289 190.379 79.6469 191.162C80.0648 191.961 80.2746 192.869 80.2762 193.886C80.2782 195.069 79.9882 196.136 79.4064 197.087C78.8246 198.055 77.9925 198.814 76.9101 199.366C75.8443 199.935 74.6031 200.22 73.1864 200.222C71.7698 200.224 70.511 199.943 69.4101 199.378C68.3259 198.83 67.483 198.073 66.8814 197.107C66.2799 196.158 65.9782 195.092 65.9763 193.909C65.9746 192.875 66.1731 191.967 66.5719 191.183C66.9873 190.415 67.5196 189.798 68.1689 189.33L66.1939 189.333L66.1883 185.833L84.6882 185.804L84.6939 189.304L78.0189 189.314ZM73.1807 196.647C74.014 196.646 74.7304 196.47 75.3298 196.119C75.946 195.784 76.4119 195.334 76.7277 194.766C77.0434 194.216 77.2008 193.616 77.1998 192.966C77.1987 192.332 77.0311 191.733 76.6969 191.167C76.3793 190.617 75.9119 190.168 75.2947 189.819C74.6775 189.486 73.9522 189.321 73.1189 189.322C72.2855 189.324 71.5608 189.491 70.9447 189.826C70.3286 190.177 69.8543 190.628 69.5219 191.178C69.2061 191.745 69.0487 192.346 69.0498 192.979C69.0508 193.629 69.2185 194.229 69.5527 194.778C69.8869 195.344 70.3626 195.793 70.9798 196.126C71.5971 196.475 72.3307 196.649 73.1807 196.647ZM81.7184 204.527C81.7174 203.91 81.9082 203.393 82.2909 202.976C82.6903 202.575 83.1816 202.374 83.7649 202.374C84.3483 202.373 84.8319 202.572 85.2159 202.971C85.6166 203.387 85.8174 203.904 85.8184 204.52C85.8194 205.137 85.6202 205.646 85.2209 206.046C84.8382 206.463 84.3552 206.673 83.7719 206.673C83.1885 206.674 82.6965 206.467 82.2959 206.051C81.9119 205.651 81.7194 205.143 81.7184 204.527ZM80.0712 206.254L66.2212 206.277L66.2156 202.777L80.0655 202.754L80.0712 206.254ZM84.7324 213.205L66.2324 213.235L66.2268 209.735L84.7267 209.705L84.7324 213.205ZM81.7408 218.443C81.7398 217.826 81.9307 217.309 82.3133 216.892C82.7127 216.491 83.204 216.29 83.7874 216.289C84.3707 216.289 84.8543 216.488 85.2383 216.887C85.639 217.303 85.8398 217.82 85.8408 218.436C85.8418 219.053 85.6426 219.562 85.2433 219.962C84.8606 220.379 84.3776 220.589 83.7943 220.589C83.211 220.59 82.719 220.383 82.3183 219.967C81.9343 219.567 81.7418 219.059 81.7408 218.443ZM80.0936 220.17L66.2436 220.193L66.238 216.693L80.088 216.67L80.0936 220.17ZM77.2307 227.708L70.5308 227.719C70.0641 227.72 69.7226 227.829 69.5063 228.046C69.3067 228.279 69.2073 228.663 69.2081 229.196L69.2108 230.821L66.2608 230.826L66.2572 228.626C66.2525 225.676 67.6834 224.198 70.5501 224.194L77.2251 224.183L77.2224 222.533L80.0974 222.528L80.1001 224.178L83.5251 224.173L83.5307 227.698L80.1057 227.703L80.1107 230.803L77.2357 230.808L77.2307 227.708ZM80.1362 246.571L59.7224 238.029L59.7164 234.304L66.6212 237.293L80.1122 231.721L80.1185 235.646L70.4493 239.236L80.1301 242.846L80.1362 246.571Z" fill="white"/>
</g>
</g>
</g>
<defs>
<filter id="filter0_bd_507_157" x="-1" y="-5" width="153" height="329" filterUnits="userSpaceOnUse" color-interpolation-filters="sRGB">
<feFlood flood-opacity="0" result="BackgroundImageFix"/>
<feGaussianBlur in="BackgroundImage" stdDeviation="2.5"/>
<feComposite in2="SourceAlpha" operator="in" result="effect1_backgroundBlur_507_157"/>
<feColorMatrix in="SourceAlpha" type="matrix" values="0 0 0 0 0 0 0 0 0 0 0 0 0 0 0 0 0 0 127 0" result="hardAlpha"/>
<feOffset dy="4"/>
<feGaussianBlur stdDeviation="2"/>
<feComposite in2="hardAlpha" operator="out"/>
<feColorMatrix type="matrix" values="0 0 0 0 0 0 0 0 0 0 0 0 0 0 0 0 0 0 0.25 0"/>
<feBlend mode="normal" in2="effect1_backgroundBlur_507_157" result="effect2_dropShadow_507_157"/>
<feBlend mode="normal" in="SourceGraphic" in2="effect2_dropShadow_507_157" result="shape"/>
</filter>
<filter id="filter1_bd_507_157" x="-1" y="-5" width="153" height="329" filterUnits="userSpaceOnUse" color-interpolation-filters="sRGB">
<feFlood flood-opacity="0" result="BackgroundImageFix"/>
<feGaussianBlur in="BackgroundImage" stdDeviation="2.5"/>
<feComposite in2="SourceAlpha" operator="in" result="effect1_backgroundBlur_507_157"/>
<feColorMatrix in="SourceAlpha" type="matrix" values="0 0 0 0 0 0 0 0 0 0 0 0 0 0 0 0 0 0 127 0" result="hardAlpha"/>
<feOffset dy="4"/>
<feGaussianBlur stdDeviation="2"/>
<feComposite in2="hardAlpha" operator="out"/>
<feColorMatrix type="matrix" values="0 0 0 0 0 0 0 0 0 0 0 0 0 0 0 0 0 0 0.25 0"/>
<feBlend mode="normal" in2="effect1_backgroundBlur_507_157" result="effect2_dropShadow_507_157"/>
<feBlend mode="normal" in="SourceGraphic" in2="effect2_dropShadow_507_157" result="shape"/>
</filter>
<filter id="filter2_dd_507_157" x="40.4028" y="51.7388" width="64.4834" height="213.865" filterUnits="userSpaceOnUse" color-interpolation-filters="sRGB">
<feFlood flood-opacity="0" result="BackgroundImageFix"/>
<feColorMatrix in="SourceAlpha" type="matrix" values="0 0 0 0 0 0 0 0 0 0 0 0 0 0 0 0 0 0 127 0" result="hardAlpha"/>
<feOffset dx="-4" dy="-4"/>
<feGaussianBlur stdDeviation="7.5"/>
<feComposite in2="hardAlpha" operator="out"/>
<feColorMatrix type="matrix" values="0 0 0 0 1 0 0 0 0 1 0 0 0 0 1 0 0 0 0.6 0"/>
<feBlend mode="normal" in2="BackgroundImageFix" result="effect1_dropShadow_507_157"/>
<feColorMatrix in="SourceAlpha" type="matrix" values="0 0 0 0 0 0 0 0 0 0 0 0 0 0 0 0 0 0 127 0" result="hardAlpha"/>
<feOffset dx="4" dy="4"/>
<feGaussianBlur stdDeviation="7.5"/>
<feComposite in2="hardAlpha" operator="out"/>
<feColorMatrix type="matrix" values="0 0 0 0 1 0 0 0 0 1 0 0 0 0 1 0 0 0 0.6 0"/>
<feBlend mode="normal" in2="effect1_dropShadow_507_157" result="effect2_dropShadow_507_157"/>
<feBlend mode="normal" in="SourceGraphic" in2="effect2_dropShadow_507_157" result="shape"/>
</filter>
</defs>
</svg>
