<svg width="210" height="328" viewBox="0 0 210 328" fill="none" xmlns="http://www.w3.org/2000/svg">
<mask id="mask0_495_226" style="mask-type:alpha" maskUnits="userSpaceOnUse" x="0" y="0" width="210" height="328">
<rect width="210" height="328" rx="25" fill="#AB9F9F"/>
</mask>
<g mask="url(#mask0_495_226)">
<g filter="url(#filter0_bd_495_226)">
<rect width="210" height="328" rx="25" fill="#B67B3E" fill-opacity="0.6"/>
<g filter="url(#filter1_dd_495_226)">
<path d="M43.75 173.175C42.5333 173.175 41.4333 172.967 40.45 172.55C39.4833 172.133 38.7167 171.533 38.15 170.75C37.5833 169.967 37.2917 169.042 37.275 167.975H41.025C41.075 168.692 41.325 169.258 41.775 169.675C42.2417 170.092 42.875 170.3 43.675 170.3C44.4917 170.3 45.1333 170.108 45.6 169.725C46.0667 169.325 46.3 168.808 46.3 168.175C46.3 167.658 46.1417 167.233 45.825 166.9C45.5083 166.567 45.1083 166.308 44.625 166.125C44.1583 165.925 43.5083 165.708 42.675 165.475C41.5417 165.142 40.6167 164.817 39.9 164.5C39.2 164.167 38.5917 163.675 38.075 163.025C37.575 162.358 37.325 161.475 37.325 160.375C37.325 159.342 37.5833 158.442 38.1 157.675C38.6167 156.908 39.3417 156.325 40.275 155.925C41.2083 155.508 42.275 155.3 43.475 155.3C45.275 155.3 46.7333 155.742 47.85 156.625C48.9833 157.492 49.6083 158.708 49.725 160.275H45.875C45.8417 159.675 45.5833 159.183 45.1 158.8C44.6333 158.4 44.0083 158.2 43.225 158.2C42.5417 158.2 41.9917 158.375 41.575 158.725C41.175 159.075 40.975 159.583 40.975 160.25C40.975 160.717 41.125 161.108 41.425 161.425C41.7417 161.725 42.125 161.975 42.575 162.175C43.0417 162.358 43.6917 162.575 44.525 162.825C45.6583 163.158 46.5833 163.492 47.3 163.825C48.0167 164.158 48.6333 164.658 49.15 165.325C49.6667 165.992 49.925 166.867 49.925 167.95C49.925 168.883 49.6833 169.75 49.2 170.55C48.7167 171.35 48.0083 171.992 47.075 172.475C46.1417 172.942 45.0333 173.175 43.75 173.175ZM52.0594 166.025C52.0594 164.625 52.3344 163.383 52.8844 162.3C53.451 161.217 54.2094 160.383 55.1594 159.8C56.126 159.217 57.201 158.925 58.3844 158.925C59.4177 158.925 60.3177 159.133 61.0844 159.55C61.8677 159.967 62.4927 160.492 62.9594 161.125V159.15H66.4844V173H62.9594V170.975C62.5094 171.625 61.8844 172.167 61.0844 172.6C60.301 173.017 59.3927 173.225 58.3594 173.225C57.1927 173.225 56.126 172.925 55.1594 172.325C54.2094 171.725 53.451 170.883 52.8844 169.8C52.3344 168.7 52.0594 167.442 52.0594 166.025ZM62.9594 166.075C62.9594 165.225 62.7927 164.5 62.4594 163.9C62.126 163.283 61.676 162.817 61.1094 162.5C60.5427 162.167 59.9344 162 59.2844 162C58.6344 162 58.0344 162.158 57.4844 162.475C56.9344 162.792 56.4844 163.258 56.1344 163.875C55.801 164.475 55.6344 165.192 55.6344 166.025C55.6344 166.858 55.801 167.592 56.1344 168.225C56.4844 168.842 56.9344 169.317 57.4844 169.65C58.051 169.983 58.651 170.15 59.2844 170.15C59.9344 170.15 60.5427 169.992 61.1094 169.675C61.676 169.342 62.126 168.875 62.4594 168.275C62.7927 167.658 62.9594 166.925 62.9594 166.075ZM76.2527 162.025H73.8277V173H70.2777V162.025H68.7027V159.15H70.2777V158.45C70.2777 156.75 70.7611 155.5 71.7277 154.7C72.6944 153.9 74.1527 153.525 76.1027 153.575V156.525C75.2527 156.508 74.6611 156.65 74.3277 156.95C73.9944 157.25 73.8277 157.792 73.8277 158.575V159.15H76.2527V162.025ZM91.3959 165.775C91.3959 166.275 91.3626 166.725 91.2959 167.125H81.1709C81.2542 168.125 81.6042 168.908 82.2209 169.475C82.8376 170.042 83.5959 170.325 84.4959 170.325C85.7959 170.325 86.7209 169.767 87.2709 168.65H91.0459C90.6459 169.983 89.8792 171.083 88.7459 171.95C87.6126 172.8 86.2209 173.225 84.5709 173.225C83.2376 173.225 82.0376 172.933 80.9709 172.35C79.9209 171.75 79.0959 170.908 78.4959 169.825C77.9126 168.742 77.6209 167.492 77.6209 166.075C77.6209 164.642 77.9126 163.383 78.4959 162.3C79.0792 161.217 79.8959 160.383 80.9459 159.8C81.9959 159.217 83.2042 158.925 84.5709 158.925C85.8876 158.925 87.0626 159.208 88.0959 159.775C89.1459 160.342 89.9542 161.15 90.5209 162.2C91.1042 163.233 91.3959 164.425 91.3959 165.775ZM87.7709 164.775C87.7542 163.875 87.4292 163.158 86.7959 162.625C86.1626 162.075 85.3876 161.8 84.4709 161.8C83.6042 161.8 82.8709 162.067 82.2709 162.6C81.6876 163.117 81.3292 163.842 81.1959 164.775H87.7709ZM98.0256 162.025V168.725C98.0256 169.192 98.1339 169.533 98.3506 169.75C98.5839 169.95 98.9673 170.05 99.5006 170.05H101.126V173H98.9256C95.9756 173 94.5006 171.567 94.5006 168.7V162.025H92.8506V159.15H94.5006V155.725H98.0256V159.15H101.126V162.025H98.0256ZM116.893 159.15L108.318 179.55H104.593L107.593 172.65L102.043 159.15H105.968L109.543 168.825L113.168 159.15H116.893ZM129.43 162.6V165.55H118.83V162.6H129.43ZM141.03 158.95C142.68 158.95 144.013 159.475 145.03 160.525C146.047 161.558 146.555 163.008 146.555 164.875V173H143.055V165.35C143.055 164.25 142.78 163.408 142.23 162.825C141.68 162.225 140.93 161.925 139.98 161.925C139.013 161.925 138.247 162.225 137.68 162.825C137.13 163.408 136.855 164.25 136.855 165.35V173H133.355V159.15H136.855V160.875C137.322 160.275 137.913 159.808 138.63 159.475C139.363 159.125 140.163 158.95 141.03 158.95ZM162.758 165.775C162.758 166.275 162.725 166.725 162.658 167.125H152.533C152.617 168.125 152.967 168.908 153.583 169.475C154.2 170.042 154.958 170.325 155.858 170.325C157.158 170.325 158.083 169.767 158.633 168.65H162.408C162.008 169.983 161.242 171.083 160.108 171.95C158.975 172.8 157.583 173.225 155.933 173.225C154.6 173.225 153.4 172.933 152.333 172.35C151.283 171.75 150.458 170.908 149.858 169.825C149.275 168.742 148.983 167.492 148.983 166.075C148.983 164.642 149.275 163.383 149.858 162.3C150.442 161.217 151.258 160.383 152.308 159.8C153.358 159.217 154.567 158.925 155.933 158.925C157.25 158.925 158.425 159.208 159.458 159.775C160.508 160.342 161.317 161.15 161.883 162.2C162.467 163.233 162.758 164.425 162.758 165.775ZM159.133 164.775C159.117 163.875 158.792 163.158 158.158 162.625C157.525 162.075 156.75 161.8 155.833 161.8C154.967 161.8 154.233 162.067 153.633 162.6C153.05 163.117 152.692 163.842 152.558 164.775H159.133ZM169.388 162.025V168.725C169.388 169.192 169.496 169.533 169.713 169.75C169.946 169.95 170.33 170.05 170.863 170.05H172.488V173H170.288C167.338 173 165.863 171.567 165.863 168.7V162.025H164.213V159.15H165.863V155.725H169.388V159.15H172.488V162.025H169.388Z" fill="white"/>
</g>
</g>
</g>
<defs>
<filter id="filter0_bd_495_226" x="-5" y="-5" width="220" height="341" filterUnits="userSpaceOnUse" color-interpolation-filters="sRGB">
<feFlood flood-opacity="0" result="BackgroundImageFix"/>
<feGaussianBlur in="BackgroundImage" stdDeviation="2.5"/>
<feComposite in2="SourceAlpha" operator="in" result="effect1_backgroundBlur_495_226"/>
<feColorMatrix in="SourceAlpha" type="matrix" values="0 0 0 0 0 0 0 0 0 0 0 0 0 0 0 0 0 0 127 0" result="hardAlpha"/>
<feOffset dy="4"/>
<feGaussianBlur stdDeviation="2"/>
<feComposite in2="hardAlpha" operator="out"/>
<feColorMatrix type="matrix" values="0 0 0 0 0 0 0 0 0 0 0 0 0 0 0 0 0 0 0.25 0"/>
<feBlend mode="normal" in2="effect1_backgroundBlur_495_226" result="effect2_dropShadow_495_226"/>
<feBlend mode="normal" in="SourceGraphic" in2="effect2_dropShadow_495_226" result="shape"/>
</filter>
<filter id="filter1_dd_495_226" x="18.2749" y="134.5" width="173.213" height="64.0498" filterUnits="userSpaceOnUse" color-interpolation-filters="sRGB">
<feFlood flood-opacity="0" result="BackgroundImageFix"/>
<feColorMatrix in="SourceAlpha" type="matrix" values="0 0 0 0 0 0 0 0 0 0 0 0 0 0 0 0 0 0 127 0" result="hardAlpha"/>
<feOffset dx="-4" dy="-4"/>
<feGaussianBlur stdDeviation="7.5"/>
<feComposite in2="hardAlpha" operator="out"/>
<feColorMatrix type="matrix" values="0 0 0 0 1 0 0 0 0 1 0 0 0 0 1 0 0 0 0.6 0"/>
<feBlend mode="normal" in2="BackgroundImageFix" result="effect1_dropShadow_495_226"/>
<feColorMatrix in="SourceAlpha" type="matrix" values="0 0 0 0 0 0 0 0 0 0 0 0 0 0 0 0 0 0 127 0" result="hardAlpha"/>
<feOffset dx="4" dy="4"/>
<feGaussianBlur stdDeviation="7.5"/>
<feComposite in2="hardAlpha" operator="out"/>
<feColorMatrix type="matrix" values="0 0 0 0 1 0 0 0 0 1 0 0 0 0 1 0 0 0 0.6 0"/>
<feBlend mode="normal" in2="effect1_dropShadow_495_226" result="effect2_dropShadow_495_226"/>
<feBlend mode="normal" in="SourceGraphic" in2="effect2_dropShadow_495_226" result="shape"/>
</filter>
</defs>
</svg>
