<svg width="210" height="328" viewBox="0 0 210 328" fill="none" xmlns="http://www.w3.org/2000/svg">
<mask id="mask0_495_235" style="mask-type:alpha" maskUnits="userSpaceOnUse" x="0" y="0" width="210" height="328">
<rect width="210" height="328" rx="25" fill="#AB9F9F"/>
</mask>
<g mask="url(#mask0_495_235)">
<g filter="url(#filter0_bd_495_235)">
<rect width="210" height="328" rx="25" fill="#F0F0F0"/>
<rect x="12" y="15" width="185" height="297" rx="23" stroke="#B67B3E" stroke-width="4"/>
<path d="M63.738 90.53L60.813 101H58.338L56.373 93.545L54.318 101L51.858 101.015L49.038 90.53H51.288L53.133 98.66L55.263 90.53H57.603L59.613 98.615L61.473 90.53H63.738ZM72.8342 96.665C72.8342 96.965 72.8142 97.235 72.7742 97.475H66.6992C66.7492 98.075 66.9592 98.545 67.3292 98.885C67.6992 99.225 68.1542 99.395 68.6942 99.395C69.4742 99.395 70.0292 99.06 70.3592 98.39H72.6242C72.3842 99.19 71.9242 99.85 71.2442 100.37C70.5642 100.88 69.7292 101.135 68.7392 101.135C67.9392 101.135 67.2192 100.96 66.5792 100.61C65.9492 100.25 65.4542 99.745 65.0942 99.095C64.7442 98.445 64.5692 97.695 64.5692 96.845C64.5692 95.985 64.7442 95.23 65.0942 94.58C65.4442 93.93 65.9342 93.43 66.5642 93.08C67.1942 92.73 67.9192 92.555 68.7392 92.555C69.5292 92.555 70.2342 92.725 70.8542 93.065C71.4842 93.405 71.9692 93.89 72.3092 94.52C72.6592 95.14 72.8342 95.855 72.8342 96.665ZM70.6592 96.065C70.6492 95.525 70.4542 95.095 70.0742 94.775C69.6942 94.445 69.2292 94.28 68.6792 94.28C68.1592 94.28 67.7192 94.44 67.3592 94.76C67.0092 95.07 66.7942 95.505 66.7142 96.065H70.6592ZM77.4012 96.815C77.4012 95.975 77.5662 95.23 77.8962 94.58C78.2363 93.93 78.6913 93.43 79.2613 93.08C79.8413 92.73 80.4863 92.555 81.1963 92.555C81.8163 92.555 82.3563 92.68 82.8163 92.93C83.2863 93.18 83.6613 93.495 83.9413 93.875V92.69H86.0563V101H83.9413V99.785C83.6713 100.175 83.2963 100.5 82.8163 100.76C82.3463 101.01 81.8013 101.135 81.1813 101.135C80.4813 101.135 79.8413 100.955 79.2613 100.595C78.6913 100.235 78.2363 99.73 77.8962 99.08C77.5662 98.42 77.4012 97.665 77.4012 96.815ZM83.9413 96.845C83.9413 96.335 83.8413 95.9 83.6413 95.54C83.4413 95.17 83.1713 94.89 82.8313 94.7C82.4913 94.5 82.1263 94.4 81.7363 94.4C81.3463 94.4 80.9863 94.495 80.6562 94.685C80.3263 94.875 80.0563 95.155 79.8463 95.525C79.6463 95.885 79.5463 96.315 79.5463 96.815C79.5463 97.315 79.6463 97.755 79.8463 98.135C80.0563 98.505 80.3263 98.79 80.6562 98.99C80.9963 99.19 81.3563 99.29 81.7363 99.29C82.1263 99.29 82.4913 99.195 82.8313 99.005C83.1713 98.805 83.4413 98.525 83.6413 98.165C83.8413 97.795 83.9413 97.355 83.9413 96.845ZM90.2073 93.98C90.4773 93.54 90.8273 93.195 91.2573 92.945C91.6973 92.695 92.1973 92.57 92.7573 92.57V94.775H92.2023C91.5423 94.775 91.0423 94.93 90.7023 95.24C90.3723 95.55 90.2073 96.09 90.2073 96.86V101H88.1073V92.69H90.2073V93.98ZM101.897 96.665C101.897 96.965 101.877 97.235 101.837 97.475H95.7617C95.8117 98.075 96.0217 98.545 96.3917 98.885C96.7617 99.225 97.2167 99.395 97.7567 99.395C98.5367 99.395 99.0917 99.06 99.4217 98.39H101.687C101.447 99.19 100.987 99.85 100.307 100.37C99.6267 100.88 98.7917 101.135 97.8017 101.135C97.0017 101.135 96.2817 100.96 95.6417 100.61C95.0117 100.25 94.5167 99.745 94.1567 99.095C93.8067 98.445 93.6317 97.695 93.6317 96.845C93.6317 95.985 93.8067 95.23 94.1567 94.58C94.5067 93.93 94.9967 93.43 95.6267 93.08C96.2567 92.73 96.9817 92.555 97.8017 92.555C98.5917 92.555 99.2967 92.725 99.9167 93.065C100.547 93.405 101.032 93.89 101.372 94.52C101.722 95.14 101.897 95.855 101.897 96.665ZM99.7217 96.065C99.7117 95.525 99.5167 95.095 99.1367 94.775C98.7567 94.445 98.2917 94.28 97.7417 94.28C97.2217 94.28 96.7817 94.44 96.4217 94.76C96.0717 95.07 95.8567 95.505 95.7767 96.065H99.7217ZM109.104 89.9V101H107.004V89.9H109.104ZM114.869 101.135C114.069 101.135 113.349 100.96 112.709 100.61C112.069 100.25 111.564 99.745 111.194 99.095C110.834 98.445 110.654 97.695 110.654 96.845C110.654 95.995 110.839 95.245 111.209 94.595C111.589 93.945 112.104 93.445 112.754 93.095C113.404 92.735 114.129 92.555 114.929 92.555C115.729 92.555 116.454 92.735 117.104 93.095C117.754 93.445 118.264 93.945 118.634 94.595C119.014 95.245 119.204 95.995 119.204 96.845C119.204 97.695 119.009 98.445 118.619 99.095C118.239 99.745 117.719 100.25 117.059 100.61C116.409 100.96 115.679 101.135 114.869 101.135ZM114.869 99.305C115.249 99.305 115.604 99.215 115.934 99.035C116.274 98.845 116.544 98.565 116.744 98.195C116.944 97.825 117.044 97.375 117.044 96.845C117.044 96.055 116.834 95.45 116.414 95.03C116.004 94.6 115.499 94.385 114.899 94.385C114.299 94.385 113.794 94.6 113.384 95.03C112.984 95.45 112.784 96.055 112.784 96.845C112.784 97.635 112.979 98.245 113.369 98.675C113.769 99.095 114.269 99.305 114.869 99.305ZM124.434 101.135C123.634 101.135 122.914 100.96 122.274 100.61C121.634 100.25 121.129 99.745 120.759 99.095C120.399 98.445 120.219 97.695 120.219 96.845C120.219 95.995 120.404 95.245 120.774 94.595C121.154 93.945 121.669 93.445 122.319 93.095C122.969 92.735 123.694 92.555 124.494 92.555C125.294 92.555 126.019 92.735 126.669 93.095C127.319 93.445 127.829 93.945 128.199 94.595C128.579 95.245 128.769 95.995 128.769 96.845C128.769 97.695 128.574 98.445 128.184 99.095C127.804 99.745 127.284 100.25 126.624 100.61C125.974 100.96 125.244 101.135 124.434 101.135ZM124.434 99.305C124.814 99.305 125.169 99.215 125.499 99.035C125.839 98.845 126.109 98.565 126.309 98.195C126.509 97.825 126.609 97.375 126.609 96.845C126.609 96.055 126.399 95.45 125.979 95.03C125.569 94.6 125.064 94.385 124.464 94.385C123.864 94.385 123.359 94.6 122.949 95.03C122.549 95.45 122.349 96.055 122.349 96.845C122.349 97.635 122.544 98.245 122.934 98.675C123.334 99.095 123.834 99.305 124.434 99.305ZM135.229 101L132.409 97.46V101H130.309V89.9H132.409V96.215L135.199 92.69H137.929L134.269 96.86L137.959 101H135.229ZM140.134 91.7C139.764 91.7 139.454 91.585 139.204 91.355C138.964 91.115 138.844 90.82 138.844 90.47C138.844 90.12 138.964 89.83 139.204 89.6C139.454 89.36 139.764 89.24 140.134 89.24C140.504 89.24 140.809 89.36 141.049 89.6C141.299 89.83 141.424 90.12 141.424 90.47C141.424 90.82 141.299 91.115 141.049 91.355C140.809 91.585 140.504 91.7 140.134 91.7ZM141.169 92.69V101H139.069V92.69H141.169ZM147.849 92.57C148.839 92.57 149.639 92.885 150.249 93.515C150.859 94.135 151.164 95.005 151.164 96.125V101H149.064V96.41C149.064 95.75 148.899 95.245 148.569 94.895C148.239 94.535 147.789 94.355 147.219 94.355C146.639 94.355 146.179 94.535 145.839 94.895C145.509 95.245 145.344 95.75 145.344 96.41V101H143.244V92.69H145.344V93.725C145.624 93.365 145.979 93.085 146.409 92.885C146.849 92.675 147.329 92.57 147.849 92.57ZM156.416 92.555C157.036 92.555 157.581 92.68 158.051 92.93C158.521 93.17 158.891 93.485 159.161 93.875V92.69H161.276V101.06C161.276 101.83 161.121 102.515 160.811 103.115C160.501 103.725 160.036 104.205 159.416 104.555C158.796 104.915 158.046 105.095 157.166 105.095C155.986 105.095 155.016 104.82 154.256 104.27C153.506 103.72 153.081 102.97 152.981 102.02H155.066C155.176 102.4 155.411 102.7 155.771 102.92C156.141 103.15 156.586 103.265 157.106 103.265C157.716 103.265 158.211 103.08 158.591 102.71C158.971 102.35 159.161 101.8 159.161 101.06V99.77C158.891 100.16 158.516 100.485 158.036 100.745C157.566 101.005 157.026 101.135 156.416 101.135C155.716 101.135 155.076 100.955 154.496 100.595C153.916 100.235 153.456 99.73 153.116 99.08C152.786 98.42 152.621 97.665 152.621 96.815C152.621 95.975 152.786 95.23 153.116 94.58C153.456 93.93 153.911 93.43 154.481 93.08C155.061 92.73 155.706 92.555 156.416 92.555ZM159.161 96.845C159.161 96.335 159.061 95.9 158.861 95.54C158.661 95.17 158.391 94.89 158.051 94.7C157.711 94.5 157.346 94.4 156.956 94.4C156.566 94.4 156.206 94.495 155.876 94.685C155.546 94.875 155.276 95.155 155.066 95.525C154.866 95.885 154.766 96.315 154.766 96.815C154.766 97.315 154.866 97.755 155.066 98.135C155.276 98.505 155.546 98.79 155.876 98.99C156.216 99.19 156.576 99.29 156.956 99.29C157.346 99.29 157.711 99.195 158.051 99.005C158.391 98.805 158.661 98.525 158.861 98.165C159.061 97.795 159.161 97.355 159.161 96.845ZM61.1116 117.415H59.6566V124H57.5266V117.415H56.5816V115.69H57.5266V115.27C57.5266 114.25 57.8166 113.5 58.3966 113.02C58.9766 112.54 59.8516 112.315 61.0216 112.345V114.115C60.5116 114.105 60.1566 114.19 59.9566 114.37C59.7566 114.55 59.6566 114.875 59.6566 115.345V115.69H61.1116V117.415ZM66.1625 124.135C65.3625 124.135 64.6425 123.96 64.0025 123.61C63.3625 123.25 62.8575 122.745 62.4875 122.095C62.1275 121.445 61.9475 120.695 61.9475 119.845C61.9475 118.995 62.1325 118.245 62.5025 117.595C62.8825 116.945 63.3975 116.445 64.0475 116.095C64.6975 115.735 65.4225 115.555 66.2225 115.555C67.0225 115.555 67.7475 115.735 68.3975 116.095C69.0475 116.445 69.5575 116.945 69.9275 117.595C70.3075 118.245 70.4975 118.995 70.4975 119.845C70.4975 120.695 70.3025 121.445 69.9125 122.095C69.5325 122.745 69.0125 123.25 68.3525 123.61C67.7025 123.96 66.9725 124.135 66.1625 124.135ZM66.1625 122.305C66.5425 122.305 66.8975 122.215 67.2275 122.035C67.5675 121.845 67.8375 121.565 68.0375 121.195C68.2375 120.825 68.3375 120.375 68.3375 119.845C68.3375 119.055 68.1275 118.45 67.7075 118.03C67.2975 117.6 66.7925 117.385 66.1925 117.385C65.5925 117.385 65.0875 117.6 64.6775 118.03C64.2775 118.45 64.0775 119.055 64.0775 119.845C64.0775 120.635 64.2725 121.245 64.6625 121.675C65.0625 122.095 65.5625 122.305 66.1625 122.305ZM74.1379 116.98C74.4079 116.54 74.7579 116.195 75.1879 115.945C75.6279 115.695 76.1279 115.57 76.6879 115.57V117.775H76.1329C75.4729 117.775 74.9729 117.93 74.6329 118.24C74.3029 118.55 74.1379 119.09 74.1379 119.86V124H72.0379V115.69H74.1379V116.98ZM81.1366 119.815C81.1366 118.975 81.3016 118.23 81.6316 117.58C81.9716 116.93 82.4266 116.43 82.9966 116.08C83.5766 115.73 84.2216 115.555 84.9316 115.555C85.5516 115.555 86.0916 115.68 86.5516 115.93C87.0216 116.18 87.3966 116.495 87.6766 116.875V115.69H89.7916V124H87.6766V122.785C87.4066 123.175 87.0316 123.5 86.5516 123.76C86.0816 124.01 85.5366 124.135 84.9166 124.135C84.2166 124.135 83.5766 123.955 82.9966 123.595C82.4266 123.235 81.9716 122.73 81.6316 122.08C81.3016 121.42 81.1366 120.665 81.1366 119.815ZM87.6766 119.845C87.6766 119.335 87.5766 118.9 87.3766 118.54C87.1766 118.17 86.9066 117.89 86.5666 117.7C86.2266 117.5 85.8616 117.4 85.4716 117.4C85.0816 117.4 84.7216 117.495 84.3916 117.685C84.0616 117.875 83.7916 118.155 83.5816 118.525C83.3816 118.885 83.2816 119.315 83.2816 119.815C83.2816 120.315 83.3816 120.755 83.5816 121.135C83.7916 121.505 84.0616 121.79 84.3916 121.99C84.7316 122.19 85.0916 122.29 85.4716 122.29C85.8616 122.29 86.2266 122.195 86.5666 122.005C86.9066 121.805 87.1766 121.525 87.3766 121.165C87.5766 120.795 87.6766 120.355 87.6766 119.845ZM95.0226 124.135C94.3426 124.135 93.7326 124.015 93.1926 123.775C92.6526 123.525 92.2226 123.19 91.9026 122.77C91.5926 122.35 91.4226 121.885 91.3926 121.375H93.5076C93.5476 121.695 93.7026 121.96 93.9726 122.17C94.2526 122.38 94.5976 122.485 95.0076 122.485C95.4076 122.485 95.7176 122.405 95.9376 122.245C96.1676 122.085 96.2826 121.88 96.2826 121.63C96.2826 121.36 96.1426 121.16 95.8626 121.03C95.5926 120.89 95.1576 120.74 94.5576 120.58C93.9376 120.43 93.4276 120.275 93.0276 120.115C92.6376 119.955 92.2976 119.71 92.0076 119.38C91.7276 119.05 91.5876 118.605 91.5876 118.045C91.5876 117.585 91.7176 117.165 91.9776 116.785C92.2476 116.405 92.6276 116.105 93.1176 115.885C93.6176 115.665 94.2026 115.555 94.8726 115.555C95.8626 115.555 96.6526 115.805 97.2426 116.305C97.8326 116.795 98.1576 117.46 98.2176 118.3H96.2076C96.1776 117.97 96.0376 117.71 95.7876 117.52C95.5476 117.32 95.2226 117.22 94.8126 117.22C94.4326 117.22 94.1376 117.29 93.9276 117.43C93.7276 117.57 93.6276 117.765 93.6276 118.015C93.6276 118.295 93.7676 118.51 94.0476 118.66C94.3276 118.8 94.7626 118.945 95.3526 119.095C95.9526 119.245 96.4476 119.4 96.8376 119.56C97.2276 119.72 97.5626 119.97 97.8426 120.31C98.1326 120.64 98.2826 121.08 98.2926 121.63C98.2926 122.11 98.1576 122.54 97.8876 122.92C97.6276 123.3 97.2476 123.6 96.7476 123.82C96.2576 124.03 95.6826 124.135 95.0226 124.135ZM115.111 115.69L112.681 124H110.416L108.901 118.195L107.386 124H105.106L102.661 115.69H104.791L106.261 122.02L107.851 115.69H110.071L111.631 122.005L113.101 115.69H115.111ZM123.972 119.665C123.972 119.965 123.952 120.235 123.912 120.475H117.837C117.887 121.075 118.097 121.545 118.467 121.885C118.837 122.225 119.292 122.395 119.832 122.395C120.612 122.395 121.167 122.06 121.497 121.39H123.762C123.522 122.19 123.062 122.85 122.382 123.37C121.702 123.88 120.867 124.135 119.877 124.135C119.077 124.135 118.357 123.96 117.717 123.61C117.087 123.25 116.592 122.745 116.232 122.095C115.882 121.445 115.707 120.695 115.707 119.845C115.707 118.985 115.882 118.23 116.232 117.58C116.582 116.93 117.072 116.43 117.702 116.08C118.332 115.73 119.057 115.555 119.877 115.555C120.667 115.555 121.372 115.725 121.992 116.065C122.622 116.405 123.107 116.89 123.447 117.52C123.797 118.14 123.972 118.855 123.972 119.665ZM121.797 119.065C121.787 118.525 121.592 118.095 121.212 117.775C120.832 117.445 120.367 117.28 119.817 117.28C119.297 117.28 118.857 117.44 118.497 117.76C118.147 118.07 117.932 118.505 117.852 119.065H121.797ZM127.605 112.9V124H125.505V112.9H127.605ZM131.78 112.9V124H129.68V112.9H131.78ZM136.889 119.815C136.889 118.975 137.054 118.23 137.384 117.58C137.724 116.93 138.179 116.43 138.749 116.08C139.329 115.73 139.974 115.555 140.684 115.555C141.304 115.555 141.844 115.68 142.304 115.93C142.774 116.18 143.149 116.495 143.429 116.875V115.69H145.544V124H143.429V122.785C143.159 123.175 142.784 123.5 142.304 123.76C141.834 124.01 141.289 124.135 140.669 124.135C139.969 124.135 139.329 123.955 138.749 123.595C138.179 123.235 137.724 122.73 137.384 122.08C137.054 121.42 136.889 120.665 136.889 119.815ZM143.429 119.845C143.429 119.335 143.329 118.9 143.129 118.54C142.929 118.17 142.659 117.89 142.319 117.7C141.979 117.5 141.614 117.4 141.224 117.4C140.834 117.4 140.474 117.495 140.144 117.685C139.814 117.875 139.544 118.155 139.334 118.525C139.134 118.885 139.034 119.315 139.034 119.815C139.034 120.315 139.134 120.755 139.334 121.135C139.544 121.505 139.814 121.79 140.144 121.99C140.484 122.19 140.844 122.29 141.224 122.29C141.614 122.29 141.979 122.195 142.319 122.005C142.659 121.805 142.929 121.525 143.129 121.165C143.329 120.795 143.429 120.355 143.429 119.845ZM150.775 124.135C150.095 124.135 149.485 124.015 148.945 123.775C148.405 123.525 147.975 123.19 147.655 122.77C147.345 122.35 147.175 121.885 147.145 121.375H149.26C149.3 121.695 149.455 121.96 149.725 122.17C150.005 122.38 150.35 122.485 150.76 122.485C151.16 122.485 151.47 122.405 151.69 122.245C151.92 122.085 152.035 121.88 152.035 121.63C152.035 121.36 151.895 121.16 151.615 121.03C151.345 120.89 150.91 120.74 150.31 120.58C149.69 120.43 149.18 120.275 148.78 120.115C148.39 119.955 148.05 119.71 147.76 119.38C147.48 119.05 147.34 118.605 147.34 118.045C147.34 117.585 147.47 117.165 147.73 116.785C148 116.405 148.38 116.105 148.87 115.885C149.37 115.665 149.955 115.555 150.625 115.555C151.615 115.555 152.405 115.805 152.995 116.305C153.585 116.795 153.91 117.46 153.97 118.3H151.96C151.93 117.97 151.79 117.71 151.54 117.52C151.3 117.32 150.975 117.22 150.565 117.22C150.185 117.22 149.89 117.29 149.68 117.43C149.48 117.57 149.38 117.765 149.38 118.015C149.38 118.295 149.52 118.51 149.8 118.66C150.08 118.8 150.515 118.945 151.105 119.095C151.705 119.245 152.2 119.4 152.59 119.56C152.98 119.72 153.315 119.97 153.595 120.31C153.885 120.64 154.035 121.08 154.045 121.63C154.045 122.11 153.91 122.54 153.64 122.92C153.38 123.3 153 123.6 152.5 123.82C152.01 124.03 151.435 124.135 150.775 124.135ZM48.661 142.845C48.661 141.985 48.836 141.235 49.186 140.595C49.536 139.945 50.021 139.445 50.641 139.095C51.261 138.735 51.971 138.555 52.771 138.555C53.801 138.555 54.651 138.815 55.321 139.335C56.001 139.845 56.456 140.565 56.686 141.495H54.421C54.301 141.135 54.096 140.855 53.806 140.655C53.526 140.445 53.176 140.34 52.756 140.34C52.156 140.34 51.681 140.56 51.331 141C50.981 141.43 50.806 142.045 50.806 142.845C50.806 143.635 50.981 144.25 51.331 144.69C51.681 145.12 52.156 145.335 52.756 145.335C53.606 145.335 54.161 144.955 54.421 144.195H56.686C56.456 145.095 56.001 145.81 55.321 146.34C54.641 146.87 53.791 147.135 52.771 147.135C51.971 147.135 51.261 146.96 50.641 146.61C50.021 146.25 49.536 145.75 49.186 145.11C48.836 144.46 48.661 143.705 48.661 142.845ZM60.3245 139.98C60.5945 139.54 60.9445 139.195 61.3745 138.945C61.8145 138.695 62.3145 138.57 62.8745 138.57V140.775H62.3195C61.6595 140.775 61.1595 140.93 60.8195 141.24C60.4895 141.55 60.3245 142.09 60.3245 142.86V147H58.2245V138.69H60.3245V139.98ZM72.0139 142.665C72.0139 142.965 71.9939 143.235 71.9539 143.475H65.8789C65.9289 144.075 66.1389 144.545 66.5089 144.885C66.8789 145.225 67.3339 145.395 67.8739 145.395C68.6539 145.395 69.2089 145.06 69.5389 144.39H71.8039C71.5639 145.19 71.1039 145.85 70.4239 146.37C69.7439 146.88 68.9089 147.135 67.9189 147.135C67.1189 147.135 66.3989 146.96 65.7589 146.61C65.1289 146.25 64.6339 145.745 64.2739 145.095C63.9239 144.445 63.7489 143.695 63.7489 142.845C63.7489 141.985 63.9239 141.23 64.2739 140.58C64.6239 139.93 65.1139 139.43 65.7439 139.08C66.3739 138.73 67.0989 138.555 67.9189 138.555C68.7089 138.555 69.4139 138.725 70.0339 139.065C70.6639 139.405 71.1489 139.89 71.4889 140.52C71.8389 141.14 72.0139 141.855 72.0139 142.665ZM69.8389 142.065C69.8289 141.525 69.6339 141.095 69.2539 140.775C68.8739 140.445 68.4089 140.28 67.8589 140.28C67.3389 140.28 66.8989 140.44 66.5389 140.76C66.1889 141.07 65.9739 141.505 65.8939 142.065H69.8389ZM73.0067 142.815C73.0067 141.975 73.1717 141.23 73.5017 140.58C73.8417 139.93 74.2967 139.43 74.8667 139.08C75.4467 138.73 76.0917 138.555 76.8017 138.555C77.4217 138.555 77.9617 138.68 78.4217 138.93C78.8917 139.18 79.2667 139.495 79.5467 139.875V138.69H81.6617V147H79.5467V145.785C79.2767 146.175 78.9017 146.5 78.4217 146.76C77.9517 147.01 77.4067 147.135 76.7867 147.135C76.0867 147.135 75.4467 146.955 74.8667 146.595C74.2967 146.235 73.8417 145.73 73.5017 145.08C73.1717 144.42 73.0067 143.665 73.0067 142.815ZM79.5467 142.845C79.5467 142.335 79.4467 141.9 79.2467 141.54C79.0467 141.17 78.7767 140.89 78.4367 140.7C78.0967 140.5 77.7317 140.4 77.3417 140.4C76.9517 140.4 76.5917 140.495 76.2617 140.685C75.9317 140.875 75.6617 141.155 75.4517 141.525C75.2517 141.885 75.1517 142.315 75.1517 142.815C75.1517 143.315 75.2517 143.755 75.4517 144.135C75.6617 144.505 75.9317 144.79 76.2617 144.99C76.6017 145.19 76.9617 145.29 77.3417 145.29C77.7317 145.29 78.0967 145.195 78.4367 145.005C78.7767 144.805 79.0467 144.525 79.2467 144.165C79.4467 143.795 79.5467 143.355 79.5467 142.845ZM86.1577 140.415V144.435C86.1577 144.715 86.2227 144.92 86.3527 145.05C86.4927 145.17 86.7227 145.23 87.0427 145.23H88.0177V147H86.6977C84.9277 147 84.0427 146.14 84.0427 144.42V140.415H83.0527V138.69H84.0427V136.635H86.1577V138.69H88.0177V140.415H86.1577ZM90.5932 137.7C90.2232 137.7 89.9132 137.585 89.6632 137.355C89.4232 137.115 89.3032 136.82 89.3032 136.47C89.3032 136.12 89.4232 135.83 89.6632 135.6C89.9132 135.36 90.2232 135.24 90.5932 135.24C90.9632 135.24 91.2682 135.36 91.5082 135.6C91.7582 135.83 91.8832 136.12 91.8832 136.47C91.8832 136.82 91.7582 137.115 91.5082 137.355C91.2682 137.585 90.9632 137.7 90.5932 137.7ZM91.6282 138.69V147H89.5282V138.69H91.6282ZM98.308 138.57C99.298 138.57 100.098 138.885 100.708 139.515C101.318 140.135 101.623 141.005 101.623 142.125V147H99.523V142.41C99.523 141.75 99.358 141.245 99.028 140.895C98.698 140.535 98.248 140.355 97.678 140.355C97.098 140.355 96.638 140.535 96.298 140.895C95.968 141.245 95.803 141.75 95.803 142.41V147H93.703V138.69H95.803V139.725C96.083 139.365 96.438 139.085 96.868 138.885C97.308 138.675 97.788 138.57 98.308 138.57ZM106.875 138.555C107.495 138.555 108.04 138.68 108.51 138.93C108.98 139.17 109.35 139.485 109.62 139.875V138.69H111.735V147.06C111.735 147.83 111.58 148.515 111.27 149.115C110.96 149.725 110.495 150.205 109.875 150.555C109.255 150.915 108.505 151.095 107.625 151.095C106.445 151.095 105.475 150.82 104.715 150.27C103.965 149.72 103.54 148.97 103.44 148.02H105.525C105.635 148.4 105.87 148.7 106.23 148.92C106.6 149.15 107.045 149.265 107.565 149.265C108.175 149.265 108.67 149.08 109.05 148.71C109.43 148.35 109.62 147.8 109.62 147.06V145.77C109.35 146.16 108.975 146.485 108.495 146.745C108.025 147.005 107.485 147.135 106.875 147.135C106.175 147.135 105.535 146.955 104.955 146.595C104.375 146.235 103.915 145.73 103.575 145.08C103.245 144.42 103.08 143.665 103.08 142.815C103.08 141.975 103.245 141.23 103.575 140.58C103.915 139.93 104.37 139.43 104.94 139.08C105.52 138.73 106.165 138.555 106.875 138.555ZM109.62 142.845C109.62 142.335 109.52 141.9 109.32 141.54C109.12 141.17 108.85 140.89 108.51 140.7C108.17 140.5 107.805 140.4 107.415 140.4C107.025 140.4 106.665 140.495 106.335 140.685C106.005 140.875 105.735 141.155 105.525 141.525C105.325 141.885 105.225 142.315 105.225 142.815C105.225 143.315 105.325 143.755 105.525 144.135C105.735 144.505 106.005 144.79 106.335 144.99C106.675 145.19 107.035 145.29 107.415 145.29C107.805 145.29 108.17 145.195 108.51 145.005C108.85 144.805 109.12 144.525 109.32 144.165C109.52 143.795 109.62 143.355 109.62 142.845ZM116.82 142.815C116.82 141.975 116.985 141.23 117.315 140.58C117.655 139.93 118.11 139.43 118.68 139.08C119.26 138.73 119.905 138.555 120.615 138.555C121.235 138.555 121.775 138.68 122.235 138.93C122.705 139.18 123.08 139.495 123.36 139.875V138.69H125.475V147H123.36V145.785C123.09 146.175 122.715 146.5 122.235 146.76C121.765 147.01 121.22 147.135 120.6 147.135C119.9 147.135 119.26 146.955 118.68 146.595C118.11 146.235 117.655 145.73 117.315 145.08C116.985 144.42 116.82 143.665 116.82 142.815ZM123.36 142.845C123.36 142.335 123.26 141.9 123.06 141.54C122.86 141.17 122.59 140.89 122.25 140.7C121.91 140.5 121.545 140.4 121.155 140.4C120.765 140.4 120.405 140.495 120.075 140.685C119.745 140.875 119.475 141.155 119.265 141.525C119.065 141.885 118.965 142.315 118.965 142.815C118.965 143.315 119.065 143.755 119.265 144.135C119.475 144.505 119.745 144.79 120.075 144.99C120.415 145.19 120.775 145.29 121.155 145.29C121.545 145.29 121.91 145.195 122.25 145.005C122.59 144.805 122.86 144.525 123.06 144.165C123.26 143.795 123.36 143.355 123.36 142.845ZM134.28 147.135C133.6 147.135 132.99 147.015 132.45 146.775C131.91 146.525 131.48 146.19 131.16 145.77C130.85 145.35 130.68 144.885 130.65 144.375H132.765C132.805 144.695 132.96 144.96 133.23 145.17C133.51 145.38 133.855 145.485 134.265 145.485C134.665 145.485 134.975 145.405 135.195 145.245C135.425 145.085 135.54 144.88 135.54 144.63C135.54 144.36 135.4 144.16 135.12 144.03C134.85 143.89 134.415 143.74 133.815 143.58C133.195 143.43 132.685 143.275 132.285 143.115C131.895 142.955 131.555 142.71 131.265 142.38C130.985 142.05 130.845 141.605 130.845 141.045C130.845 140.585 130.975 140.165 131.235 139.785C131.505 139.405 131.885 139.105 132.375 138.885C132.875 138.665 133.46 138.555 134.13 138.555C135.12 138.555 135.91 138.805 136.5 139.305C137.09 139.795 137.415 140.46 137.475 141.3H135.465C135.435 140.97 135.295 140.71 135.045 140.52C134.805 140.32 134.48 140.22 134.07 140.22C133.69 140.22 133.395 140.29 133.185 140.43C132.985 140.57 132.885 140.765 132.885 141.015C132.885 141.295 133.025 141.51 133.305 141.66C133.585 141.8 134.02 141.945 134.61 142.095C135.21 142.245 135.705 142.4 136.095 142.56C136.485 142.72 136.82 142.97 137.1 143.31C137.39 143.64 137.54 144.08 137.55 144.63C137.55 145.11 137.415 145.54 137.145 145.92C136.885 146.3 136.505 146.6 136.005 146.82C135.515 147.03 134.94 147.135 134.28 147.135ZM138.734 142.815C138.734 141.975 138.899 141.23 139.229 140.58C139.569 139.93 140.024 139.43 140.594 139.08C141.174 138.73 141.819 138.555 142.529 138.555C143.149 138.555 143.689 138.68 144.149 138.93C144.619 139.18 144.994 139.495 145.274 139.875V138.69H147.389V147H145.274V145.785C145.004 146.175 144.629 146.5 144.149 146.76C143.679 147.01 143.134 147.135 142.514 147.135C141.814 147.135 141.174 146.955 140.594 146.595C140.024 146.235 139.569 145.73 139.229 145.08C138.899 144.42 138.734 143.665 138.734 142.815ZM145.274 142.845C145.274 142.335 145.174 141.9 144.974 141.54C144.774 141.17 144.504 140.89 144.164 140.7C143.824 140.5 143.459 140.4 143.069 140.4C142.679 140.4 142.319 140.495 141.989 140.685C141.659 140.875 141.389 141.155 141.179 141.525C140.979 141.885 140.879 142.315 140.879 142.815C140.879 143.315 140.979 143.755 141.179 144.135C141.389 144.505 141.659 144.79 141.989 144.99C142.329 145.19 142.689 145.29 143.069 145.29C143.459 145.29 143.824 145.195 144.164 145.005C144.504 144.805 144.774 144.525 144.974 144.165C145.174 143.795 145.274 143.355 145.274 142.845ZM153.25 140.415H151.795V147H149.665V140.415H148.72V138.69H149.665V138.27C149.665 137.25 149.955 136.5 150.535 136.02C151.115 135.54 151.99 135.315 153.16 135.345V137.115C152.65 137.105 152.295 137.19 152.095 137.37C151.895 137.55 151.795 137.875 151.795 138.345V138.69H153.25V140.415ZM162.336 142.665C162.336 142.965 162.316 143.235 162.276 143.475H156.201C156.251 144.075 156.461 144.545 156.831 144.885C157.201 145.225 157.656 145.395 158.196 145.395C158.976 145.395 159.531 145.06 159.861 144.39H162.126C161.886 145.19 161.426 145.85 160.746 146.37C160.066 146.88 159.231 147.135 158.241 147.135C157.441 147.135 156.721 146.96 156.081 146.61C155.451 146.25 154.956 145.745 154.596 145.095C154.246 144.445 154.071 143.695 154.071 142.845C154.071 141.985 154.246 141.23 154.596 140.58C154.946 139.93 155.436 139.43 156.066 139.08C156.696 138.73 157.421 138.555 158.241 138.555C159.031 138.555 159.736 138.725 160.356 139.065C160.986 139.405 161.471 139.89 161.811 140.52C162.161 141.14 162.336 141.855 162.336 142.665ZM160.161 142.065C160.151 141.525 159.956 141.095 159.576 140.775C159.196 140.445 158.731 140.28 158.181 140.28C157.661 140.28 157.221 140.44 156.861 140.76C156.511 141.07 156.296 141.505 156.216 142.065H160.161ZM57.6073 161.57C58.5973 161.57 59.3973 161.885 60.0073 162.515C60.6173 163.135 60.9223 164.005 60.9223 165.125V170H58.8223V165.41C58.8223 164.75 58.6573 164.245 58.3273 163.895C57.9973 163.535 57.5473 163.355 56.9773 163.355C56.3973 163.355 55.9373 163.535 55.5973 163.895C55.2673 164.245 55.1023 164.75 55.1023 165.41V170H53.0023V161.69H55.1023V162.725C55.3823 162.365 55.7373 162.085 56.1673 161.885C56.6073 161.675 57.0873 161.57 57.6073 161.57ZM63.9843 160.7C63.6143 160.7 63.3043 160.585 63.0543 160.355C62.8143 160.115 62.6943 159.82 62.6943 159.47C62.6943 159.12 62.8143 158.83 63.0543 158.6C63.3043 158.36 63.6143 158.24 63.9843 158.24C64.3543 158.24 64.6593 158.36 64.8993 158.6C65.1493 158.83 65.2743 159.12 65.2743 159.47C65.2743 159.82 65.1493 160.115 64.8993 160.355C64.6593 160.585 64.3543 160.7 63.9843 160.7ZM65.0193 161.69V170H62.9193V161.69H65.0193ZM66.5541 165.845C66.5541 164.985 66.7291 164.235 67.0791 163.595C67.4291 162.945 67.9141 162.445 68.5341 162.095C69.1541 161.735 69.8641 161.555 70.6641 161.555C71.6941 161.555 72.5441 161.815 73.2141 162.335C73.8941 162.845 74.3491 163.565 74.5791 164.495H72.3141C72.1941 164.135 71.9891 163.855 71.6991 163.655C71.4191 163.445 71.0691 163.34 70.6491 163.34C70.0491 163.34 69.5741 163.56 69.2241 164C68.8741 164.43 68.6991 165.045 68.6991 165.845C68.6991 166.635 68.8741 167.25 69.2241 167.69C69.5741 168.12 70.0491 168.335 70.6491 168.335C71.4991 168.335 72.0541 167.955 72.3141 167.195H74.5791C74.3491 168.095 73.8941 168.81 73.2141 169.34C72.5341 169.87 71.6841 170.135 70.6641 170.135C69.8641 170.135 69.1541 169.96 68.5341 169.61C67.9141 169.25 67.4291 168.75 67.0791 168.11C66.7291 167.46 66.5541 166.705 66.5541 165.845ZM80.7975 161.57C81.4275 161.57 81.9875 161.71 82.4775 161.99C82.9675 162.26 83.3475 162.665 83.6175 163.205C83.8975 163.735 84.0375 164.375 84.0375 165.125V170H81.9375V165.41C81.9375 164.75 81.7725 164.245 81.4425 163.895C81.1125 163.535 80.6625 163.355 80.0925 163.355C79.5125 163.355 79.0525 163.535 78.7125 163.895C78.3825 164.245 78.2175 164.75 78.2175 165.41V170H76.1175V158.9H78.2175V162.725C78.4875 162.365 78.8475 162.085 79.2975 161.885C79.7475 161.675 80.2475 161.57 80.7975 161.57ZM93.7595 165.665C93.7595 165.965 93.7395 166.235 93.6995 166.475H87.6245C87.6745 167.075 87.8845 167.545 88.2545 167.885C88.6245 168.225 89.0795 168.395 89.6195 168.395C90.3995 168.395 90.9545 168.06 91.2845 167.39H93.5495C93.3095 168.19 92.8495 168.85 92.1695 169.37C91.4895 169.88 90.6545 170.135 89.6645 170.135C88.8645 170.135 88.1445 169.96 87.5045 169.61C86.8745 169.25 86.3795 168.745 86.0195 168.095C85.6695 167.445 85.4945 166.695 85.4945 165.845C85.4945 164.985 85.6695 164.23 86.0195 163.58C86.3695 162.93 86.8595 162.43 87.4895 162.08C88.1195 161.73 88.8445 161.555 89.6645 161.555C90.4545 161.555 91.1595 161.725 91.7795 162.065C92.4095 162.405 92.8945 162.89 93.2345 163.52C93.5845 164.14 93.7595 164.855 93.7595 165.665ZM91.5845 165.065C91.5745 164.525 91.3795 164.095 90.9995 163.775C90.6195 163.445 90.1545 163.28 89.6045 163.28C89.0845 163.28 88.6445 163.44 88.2845 163.76C87.9345 164.07 87.7195 164.505 87.6395 165.065H91.5845ZM102.677 163.415H101.222V170H99.0915V163.415H98.1465V161.69H99.0915V161.27C99.0915 160.25 99.3815 159.5 99.9615 159.02C100.542 158.54 101.417 158.315 102.587 158.345V160.115C102.077 160.105 101.722 160.19 101.522 160.37C101.322 160.55 101.222 160.875 101.222 161.345V161.69H102.677V163.415ZM107.727 170.135C106.927 170.135 106.207 169.96 105.567 169.61C104.927 169.25 104.422 168.745 104.052 168.095C103.692 167.445 103.512 166.695 103.512 165.845C103.512 164.995 103.697 164.245 104.067 163.595C104.447 162.945 104.962 162.445 105.612 162.095C106.262 161.735 106.987 161.555 107.787 161.555C108.587 161.555 109.312 161.735 109.962 162.095C110.612 162.445 111.122 162.945 111.492 163.595C111.872 164.245 112.062 164.995 112.062 165.845C112.062 166.695 111.867 167.445 111.477 168.095C111.097 168.745 110.577 169.25 109.917 169.61C109.267 169.96 108.537 170.135 107.727 170.135ZM107.727 168.305C108.107 168.305 108.462 168.215 108.792 168.035C109.132 167.845 109.402 167.565 109.602 167.195C109.802 166.825 109.902 166.375 109.902 165.845C109.902 165.055 109.692 164.45 109.272 164.03C108.862 163.6 108.357 163.385 107.757 163.385C107.157 163.385 106.652 163.6 106.242 164.03C105.842 164.45 105.642 165.055 105.642 165.845C105.642 166.635 105.837 167.245 106.227 167.675C106.627 168.095 107.127 168.305 107.727 168.305ZM115.703 162.98C115.973 162.54 116.323 162.195 116.753 161.945C117.193 161.695 117.693 161.57 118.253 161.57V163.775H117.698C117.038 163.775 116.538 163.93 116.198 164.24C115.868 164.55 115.703 165.09 115.703 165.86V170H113.603V161.69H115.703V162.98ZM122.702 165.815C122.702 164.975 122.867 164.23 123.197 163.58C123.537 162.93 123.992 162.43 124.562 162.08C125.142 161.73 125.787 161.555 126.497 161.555C127.117 161.555 127.657 161.68 128.117 161.93C128.587 162.18 128.962 162.495 129.242 162.875V161.69H131.357V170H129.242V168.785C128.972 169.175 128.597 169.5 128.117 169.76C127.647 170.01 127.102 170.135 126.482 170.135C125.782 170.135 125.142 169.955 124.562 169.595C123.992 169.235 123.537 168.73 123.197 168.08C122.867 167.42 122.702 166.665 122.702 165.815ZM129.242 165.845C129.242 165.335 129.142 164.9 128.942 164.54C128.742 164.17 128.472 163.89 128.132 163.7C127.792 163.5 127.427 163.4 127.037 163.4C126.647 163.4 126.287 163.495 125.957 163.685C125.627 163.875 125.357 164.155 125.147 164.525C124.947 164.885 124.847 165.315 124.847 165.815C124.847 166.315 124.947 166.755 125.147 167.135C125.357 167.505 125.627 167.79 125.957 167.99C126.297 168.19 126.657 168.29 127.037 168.29C127.427 168.29 127.792 168.195 128.132 168.005C128.472 167.805 128.742 167.525 128.942 167.165C129.142 166.795 129.242 166.355 129.242 165.845ZM135.508 158.9V170H133.408V158.9H135.508ZM139.682 158.9V170H137.582V158.9H139.682ZM149.021 170.135C148.221 170.135 147.501 169.96 146.861 169.61C146.221 169.25 145.716 168.745 145.346 168.095C144.986 167.445 144.806 166.695 144.806 165.845C144.806 164.995 144.991 164.245 145.361 163.595C145.741 162.945 146.256 162.445 146.906 162.095C147.556 161.735 148.281 161.555 149.081 161.555C149.881 161.555 150.606 161.735 151.256 162.095C151.906 162.445 152.416 162.945 152.786 163.595C153.166 164.245 153.356 164.995 153.356 165.845C153.356 166.695 153.161 167.445 152.771 168.095C152.391 168.745 151.871 169.25 151.211 169.61C150.561 169.96 149.831 170.135 149.021 170.135ZM149.021 168.305C149.401 168.305 149.756 168.215 150.086 168.035C150.426 167.845 150.696 167.565 150.896 167.195C151.096 166.825 151.196 166.375 151.196 165.845C151.196 165.055 150.986 164.45 150.566 164.03C150.156 163.6 149.651 163.385 149.051 163.385C148.451 163.385 147.946 163.6 147.536 164.03C147.136 164.45 146.936 165.055 146.936 165.845C146.936 166.635 147.131 167.245 147.521 167.675C147.921 168.095 148.421 168.305 149.021 168.305ZM158.707 163.415H157.252V170H155.122V163.415H154.177V161.69H155.122V161.27C155.122 160.25 155.412 159.5 155.992 159.02C156.572 158.54 157.447 158.315 158.617 158.345V160.115C158.107 160.105 157.752 160.19 157.552 160.37C157.352 160.55 157.252 160.875 157.252 161.345V161.69H158.707V163.415ZM44.7831 193.135C43.9831 193.135 43.2631 192.96 42.6231 192.61C41.9831 192.25 41.4781 191.745 41.1081 191.095C40.7481 190.445 40.5681 189.695 40.5681 188.845C40.5681 187.995 40.7531 187.245 41.1231 186.595C41.5031 185.945 42.0181 185.445 42.6681 185.095C43.3181 184.735 44.0431 184.555 44.8431 184.555C45.6431 184.555 46.3681 184.735 47.0181 185.095C47.6681 185.445 48.1781 185.945 48.5481 186.595C48.9281 187.245 49.1181 187.995 49.1181 188.845C49.1181 189.695 48.9231 190.445 48.5331 191.095C48.1531 191.745 47.6331 192.25 46.9731 192.61C46.3231 192.96 45.5931 193.135 44.7831 193.135ZM44.7831 191.305C45.1631 191.305 45.5181 191.215 45.8481 191.035C46.1881 190.845 46.4581 190.565 46.6581 190.195C46.8581 189.825 46.9581 189.375 46.9581 188.845C46.9581 188.055 46.7481 187.45 46.3281 187.03C45.9181 186.6 45.4131 186.385 44.8131 186.385C44.2131 186.385 43.7081 186.6 43.2981 187.03C42.8981 187.45 42.6981 188.055 42.6981 188.845C42.6981 189.635 42.8931 190.245 43.2831 190.675C43.6831 191.095 44.1831 191.305 44.7831 191.305ZM58.5035 184.69V193H56.3885V191.95C56.1185 192.31 55.7635 192.595 55.3235 192.805C54.8935 193.005 54.4235 193.105 53.9135 193.105C53.2635 193.105 52.6885 192.97 52.1885 192.7C51.6885 192.42 51.2935 192.015 51.0035 191.485C50.7235 190.945 50.5835 190.305 50.5835 189.565V184.69H52.6835V189.265C52.6835 189.925 52.8485 190.435 53.1785 190.795C53.5085 191.145 53.9585 191.32 54.5285 191.32C55.1085 191.32 55.5635 191.145 55.8935 190.795C56.2235 190.435 56.3885 189.925 56.3885 189.265V184.69H58.5035ZM62.6755 185.98C62.9455 185.54 63.2955 185.195 63.7255 184.945C64.1655 184.695 64.6655 184.57 65.2255 184.57V186.775H64.6705C64.0105 186.775 63.5105 186.93 63.1705 187.24C62.8405 187.55 62.6755 188.09 62.6755 188.86V193H60.5755V184.69H62.6755V185.98ZM72.3142 185.89C72.5842 185.51 72.9542 185.195 73.4242 184.945C73.9042 184.685 74.4492 184.555 75.0592 184.555C75.7692 184.555 76.4092 184.73 76.9792 185.08C77.5592 185.43 78.0142 185.93 78.3442 186.58C78.6842 187.22 78.8542 187.965 78.8542 188.815C78.8542 189.665 78.6842 190.42 78.3442 191.08C78.0142 191.73 77.5592 192.235 76.9792 192.595C76.4092 192.955 75.7692 193.135 75.0592 193.135C74.4492 193.135 73.9092 193.01 73.4392 192.76C72.9792 192.51 72.6042 192.195 72.3142 191.815V196.96H70.2142V184.69H72.3142V185.89ZM76.7092 188.815C76.7092 188.315 76.6042 187.885 76.3942 187.525C76.1942 187.155 75.9242 186.875 75.5842 186.685C75.2542 186.495 74.8942 186.4 74.5042 186.4C74.1242 186.4 73.7642 186.5 73.4242 186.7C73.0942 186.89 72.8242 187.17 72.6142 187.54C72.4142 187.91 72.3142 188.345 72.3142 188.845C72.3142 189.345 72.4142 189.78 72.6142 190.15C72.8242 190.52 73.0942 190.805 73.4242 191.005C73.7642 191.195 74.1242 191.29 74.5042 191.29C74.8942 191.29 75.2542 191.19 75.5842 190.99C75.9242 190.79 76.1942 190.505 76.3942 190.135C76.6042 189.765 76.7092 189.325 76.7092 188.815ZM79.8402 188.815C79.8402 187.975 80.0052 187.23 80.3352 186.58C80.6752 185.93 81.1302 185.43 81.7002 185.08C82.2802 184.73 82.9252 184.555 83.6352 184.555C84.2552 184.555 84.7952 184.68 85.2552 184.93C85.7252 185.18 86.1002 185.495 86.3802 185.875V184.69H88.4952V193H86.3802V191.785C86.1102 192.175 85.7352 192.5 85.2552 192.76C84.7852 193.01 84.2402 193.135 83.6202 193.135C82.9202 193.135 82.2802 192.955 81.7002 192.595C81.1302 192.235 80.6752 191.73 80.3352 191.08C80.0052 190.42 79.8402 189.665 79.8402 188.815ZM86.3802 188.845C86.3802 188.335 86.2802 187.9 86.0802 187.54C85.8802 187.17 85.6102 186.89 85.2702 186.7C84.9302 186.5 84.5652 186.4 84.1752 186.4C83.7852 186.4 83.4252 186.495 83.0952 186.685C82.7652 186.875 82.4952 187.155 82.2852 187.525C82.0852 187.885 81.9852 188.315 81.9852 188.815C81.9852 189.315 82.0852 189.755 82.2852 190.135C82.4952 190.505 82.7652 190.79 83.0952 190.99C83.4352 191.19 83.7952 191.29 84.1752 191.29C84.5652 191.29 84.9302 191.195 85.2702 191.005C85.6102 190.805 85.8802 190.525 86.0802 190.165C86.2802 189.795 86.3802 189.355 86.3802 188.845ZM92.6462 185.98C92.9162 185.54 93.2662 185.195 93.6962 184.945C94.1362 184.695 94.6362 184.57 95.1962 184.57V186.775H94.6412C93.9812 186.775 93.4812 186.93 93.1412 187.24C92.8112 187.55 92.6462 188.09 92.6462 188.86V193H90.5462V184.69H92.6462V185.98ZM99.0557 186.415V190.435C99.0557 190.715 99.1207 190.92 99.2507 191.05C99.3907 191.17 99.6207 191.23 99.9407 191.23H100.916V193H99.5957C97.8257 193 96.9407 192.14 96.9407 190.42V186.415H95.9507V184.69H96.9407V182.635H99.0557V184.69H100.916V186.415H99.0557ZM107.031 184.57C108.021 184.57 108.821 184.885 109.431 185.515C110.041 186.135 110.346 187.005 110.346 188.125V193H108.246V188.41C108.246 187.75 108.081 187.245 107.751 186.895C107.421 186.535 106.971 186.355 106.401 186.355C105.821 186.355 105.361 186.535 105.021 186.895C104.691 187.245 104.526 187.75 104.526 188.41V193H102.426V184.69H104.526V185.725C104.806 185.365 105.161 185.085 105.591 184.885C106.031 184.675 106.511 184.57 107.031 184.57ZM120.068 188.665C120.068 188.965 120.048 189.235 120.008 189.475H113.933C113.983 190.075 114.193 190.545 114.563 190.885C114.933 191.225 115.388 191.395 115.928 191.395C116.708 191.395 117.263 191.06 117.593 190.39H119.858C119.618 191.19 119.158 191.85 118.478 192.37C117.798 192.88 116.963 193.135 115.973 193.135C115.173 193.135 114.453 192.96 113.813 192.61C113.183 192.25 112.688 191.745 112.328 191.095C111.978 190.445 111.803 189.695 111.803 188.845C111.803 187.985 111.978 187.23 112.328 186.58C112.678 185.93 113.168 185.43 113.798 185.08C114.428 184.73 115.153 184.555 115.973 184.555C116.763 184.555 117.468 184.725 118.088 185.065C118.718 185.405 119.203 185.89 119.543 186.52C119.893 187.14 120.068 187.855 120.068 188.665ZM117.893 188.065C117.883 187.525 117.688 187.095 117.308 186.775C116.928 186.445 116.463 186.28 115.913 186.28C115.393 186.28 114.953 186.44 114.593 186.76C114.243 187.07 114.028 187.505 113.948 188.065H117.893ZM123.701 185.98C123.971 185.54 124.321 185.195 124.751 184.945C125.191 184.695 125.691 184.57 126.251 184.57V186.775H125.696C125.036 186.775 124.536 186.93 124.196 187.24C123.866 187.55 123.701 188.09 123.701 188.86V193H121.601V184.69H123.701V185.98ZM130.845 193.135C130.165 193.135 129.555 193.015 129.015 192.775C128.475 192.525 128.045 192.19 127.725 191.77C127.415 191.35 127.245 190.885 127.215 190.375H129.33C129.37 190.695 129.525 190.96 129.795 191.17C130.075 191.38 130.42 191.485 130.83 191.485C131.23 191.485 131.54 191.405 131.76 191.245C131.99 191.085 132.105 190.88 132.105 190.63C132.105 190.36 131.965 190.16 131.685 190.03C131.415 189.89 130.98 189.74 130.38 189.58C129.76 189.43 129.25 189.275 128.85 189.115C128.46 188.955 128.12 188.71 127.83 188.38C127.55 188.05 127.41 187.605 127.41 187.045C127.41 186.585 127.54 186.165 127.8 185.785C128.07 185.405 128.45 185.105 128.94 184.885C129.44 184.665 130.025 184.555 130.695 184.555C131.685 184.555 132.475 184.805 133.065 185.305C133.655 185.795 133.98 186.46 134.04 187.3H132.03C132 186.97 131.86 186.71 131.61 186.52C131.37 186.32 131.045 186.22 130.635 186.22C130.255 186.22 129.96 186.29 129.75 186.43C129.55 186.57 129.45 186.765 129.45 187.015C129.45 187.295 129.59 187.51 129.87 187.66C130.15 187.8 130.585 187.945 131.175 188.095C131.775 188.245 132.27 188.4 132.66 188.56C133.05 188.72 133.385 188.97 133.665 189.31C133.955 189.64 134.105 190.08 134.115 190.63C134.115 191.11 133.98 191.54 133.71 191.92C133.45 192.3 133.07 192.6 132.57 192.82C132.08 193.03 131.505 193.135 130.845 193.135ZM150.933 184.69L148.503 193H146.238L144.723 187.195L143.208 193H140.928L138.483 184.69H140.613L142.083 191.02L143.673 184.69H145.893L147.453 191.005L148.923 184.69H150.933ZM153.135 183.7C152.765 183.7 152.455 183.585 152.205 183.355C151.965 183.115 151.845 182.82 151.845 182.47C151.845 182.12 151.965 181.83 152.205 181.6C152.455 181.36 152.765 181.24 153.135 181.24C153.505 181.24 153.81 181.36 154.05 181.6C154.3 181.83 154.425 182.12 154.425 182.47C154.425 182.82 154.3 183.115 154.05 183.355C153.81 183.585 153.505 183.7 153.135 183.7ZM154.17 184.69V193H152.07V184.69H154.17ZM158.689 186.415V190.435C158.689 190.715 158.754 190.92 158.884 191.05C159.024 191.17 159.254 191.23 159.574 191.23H160.549V193H159.229C157.459 193 156.574 192.14 156.574 190.42V186.415H155.584V184.69H156.574V182.635H158.689V184.69H160.549V186.415H158.689ZM166.74 184.57C167.37 184.57 167.93 184.71 168.42 184.99C168.91 185.26 169.29 185.665 169.56 186.205C169.84 186.735 169.98 187.375 169.98 188.125V193H167.88V188.41C167.88 187.75 167.715 187.245 167.385 186.895C167.055 186.535 166.605 186.355 166.035 186.355C165.455 186.355 164.995 186.535 164.655 186.895C164.325 187.245 164.16 187.75 164.16 188.41V193H162.06V181.9H164.16V185.725C164.43 185.365 164.79 185.085 165.24 184.885C165.69 184.675 166.19 184.57 166.74 184.57ZM66.9608 216.135C66.1608 216.135 65.4408 215.96 64.8008 215.61C64.1608 215.25 63.6558 214.745 63.2858 214.095C62.9258 213.445 62.7458 212.695 62.7458 211.845C62.7458 210.995 62.9308 210.245 63.3008 209.595C63.6808 208.945 64.1958 208.445 64.8458 208.095C65.4958 207.735 66.2208 207.555 67.0208 207.555C67.8208 207.555 68.5458 207.735 69.1958 208.095C69.8458 208.445 70.3558 208.945 70.7258 209.595C71.1058 210.245 71.2958 210.995 71.2958 211.845C71.2958 212.695 71.1008 213.445 70.7108 214.095C70.3308 214.745 69.8108 215.25 69.1508 215.61C68.5008 215.96 67.7708 216.135 66.9608 216.135ZM66.9608 214.305C67.3408 214.305 67.6958 214.215 68.0258 214.035C68.3658 213.845 68.6358 213.565 68.8358 213.195C69.0358 212.825 69.1358 212.375 69.1358 211.845C69.1358 211.055 68.9258 210.45 68.5058 210.03C68.0958 209.6 67.5908 209.385 66.9908 209.385C66.3908 209.385 65.8858 209.6 65.4758 210.03C65.0758 210.45 64.8758 211.055 64.8758 211.845C64.8758 212.635 65.0708 213.245 65.4608 213.675C65.8608 214.095 66.3608 214.305 66.9608 214.305ZM80.6813 207.69V216H78.5663V214.95C78.2963 215.31 77.9413 215.595 77.5013 215.805C77.0713 216.005 76.6013 216.105 76.0913 216.105C75.4413 216.105 74.8663 215.97 74.3663 215.7C73.8663 215.42 73.4713 215.015 73.1813 214.485C72.9013 213.945 72.7613 213.305 72.7613 212.565V207.69H74.8613V212.265C74.8613 212.925 75.0263 213.435 75.3563 213.795C75.6863 214.145 76.1363 214.32 76.7063 214.32C77.2863 214.32 77.7413 214.145 78.0713 213.795C78.4013 213.435 78.5663 212.925 78.5663 212.265V207.69H80.6813ZM84.8533 208.98C85.1233 208.54 85.4733 208.195 85.9033 207.945C86.3433 207.695 86.8433 207.57 87.4033 207.57V209.775H86.8483C86.1883 209.775 85.6883 209.93 85.3483 210.24C85.0183 210.55 84.8533 211.09 84.8533 211.86V216H82.7533V207.69H84.8533V208.98ZM100.117 211.665C100.117 211.965 100.097 212.235 100.057 212.475H93.9819C94.0319 213.075 94.2419 213.545 94.6119 213.885C94.9819 214.225 95.4369 214.395 95.9769 214.395C96.7569 214.395 97.3119 214.06 97.6419 213.39H99.9069C99.6669 214.19 99.2069 214.85 98.5269 215.37C97.8469 215.88 97.0119 216.135 96.0219 216.135C95.2219 216.135 94.5019 215.96 93.8619 215.61C93.2319 215.25 92.7369 214.745 92.3769 214.095C92.0269 213.445 91.8519 212.695 91.8519 211.845C91.8519 210.985 92.0269 210.23 92.3769 209.58C92.7269 208.93 93.2169 208.43 93.8469 208.08C94.4769 207.73 95.2019 207.555 96.0219 207.555C96.8119 207.555 97.5169 207.725 98.1369 208.065C98.7669 208.405 99.2519 208.89 99.5919 209.52C99.9419 210.14 100.117 210.855 100.117 211.665ZM97.9419 211.065C97.9319 210.525 97.7369 210.095 97.3569 209.775C96.9769 209.445 96.5119 209.28 95.9619 209.28C95.4419 209.28 95.0019 209.44 94.6419 209.76C94.2919 210.07 94.0769 210.505 93.9969 211.065H97.9419ZM106.24 216L104.53 213.42L103.015 216H100.765L103.48 211.83L100.735 207.69H103.105L104.8 210.255L106.33 207.69H108.58L105.85 211.83L108.61 216H106.24ZM111.85 208.89C112.12 208.51 112.49 208.195 112.96 207.945C113.44 207.685 113.985 207.555 114.595 207.555C115.305 207.555 115.945 207.73 116.515 208.08C117.095 208.43 117.55 208.93 117.88 209.58C118.22 210.22 118.39 210.965 118.39 211.815C118.39 212.665 118.22 213.42 117.88 214.08C117.55 214.73 117.095 215.235 116.515 215.595C115.945 215.955 115.305 216.135 114.595 216.135C113.985 216.135 113.445 216.01 112.975 215.76C112.515 215.51 112.14 215.195 111.85 214.815V219.96H109.75V207.69H111.85V208.89ZM116.245 211.815C116.245 211.315 116.14 210.885 115.93 210.525C115.73 210.155 115.46 209.875 115.12 209.685C114.79 209.495 114.43 209.4 114.04 209.4C113.66 209.4 113.3 209.5 112.96 209.7C112.63 209.89 112.36 210.17 112.15 210.54C111.95 210.91 111.85 211.345 111.85 211.845C111.85 212.345 111.95 212.78 112.15 213.15C112.36 213.52 112.63 213.805 112.96 214.005C113.3 214.195 113.66 214.29 114.04 214.29C114.43 214.29 114.79 214.19 115.12 213.99C115.46 213.79 115.73 213.505 115.93 213.135C116.14 212.765 116.245 212.325 116.245 211.815ZM127.641 211.665C127.641 211.965 127.621 212.235 127.581 212.475H121.506C121.556 213.075 121.766 213.545 122.136 213.885C122.506 214.225 122.961 214.395 123.501 214.395C124.281 214.395 124.836 214.06 125.166 213.39H127.431C127.191 214.19 126.731 214.85 126.051 215.37C125.371 215.88 124.536 216.135 123.546 216.135C122.746 216.135 122.026 215.96 121.386 215.61C120.756 215.25 120.261 214.745 119.901 214.095C119.551 213.445 119.376 212.695 119.376 211.845C119.376 210.985 119.551 210.23 119.901 209.58C120.251 208.93 120.741 208.43 121.371 208.08C122.001 207.73 122.726 207.555 123.546 207.555C124.336 207.555 125.041 207.725 125.661 208.065C126.291 208.405 126.776 208.89 127.116 209.52C127.466 210.14 127.641 210.855 127.641 211.665ZM125.466 211.065C125.456 210.525 125.261 210.095 124.881 209.775C124.501 209.445 124.036 209.28 123.486 209.28C122.966 209.28 122.526 209.44 122.166 209.76C121.816 210.07 121.601 210.505 121.521 211.065H125.466ZM131.274 208.98C131.544 208.54 131.894 208.195 132.324 207.945C132.764 207.695 133.264 207.57 133.824 207.57V209.775H133.269C132.609 209.775 132.109 209.93 131.769 210.24C131.439 210.55 131.274 211.09 131.274 211.86V216H129.174V207.69H131.274V208.98ZM137.684 209.415V213.435C137.684 213.715 137.749 213.92 137.879 214.05C138.019 214.17 138.249 214.23 138.569 214.23H139.544V216H138.224C136.454 216 135.569 215.14 135.569 213.42V209.415H134.579V207.69H135.569V205.635H137.684V207.69H139.544V209.415H137.684ZM147.444 209.76V211.53H141.084V209.76H147.444ZM84.917 230.555C85.537 230.555 86.082 230.68 86.552 230.93C87.022 231.17 87.392 231.485 87.662 231.875V230.69H89.777V239.06C89.777 239.83 89.622 240.515 89.312 241.115C89.002 241.725 88.537 242.205 87.917 242.555C87.297 242.915 86.547 243.095 85.667 243.095C84.487 243.095 83.517 242.82 82.757 242.27C82.007 241.72 81.582 240.97 81.482 240.02H83.567C83.677 240.4 83.912 240.7 84.272 240.92C84.642 241.15 85.087 241.265 85.607 241.265C86.217 241.265 86.712 241.08 87.092 240.71C87.472 240.35 87.662 239.8 87.662 239.06V237.77C87.392 238.16 87.017 238.485 86.537 238.745C86.067 239.005 85.527 239.135 84.917 239.135C84.217 239.135 83.577 238.955 82.997 238.595C82.417 238.235 81.957 237.73 81.617 237.08C81.287 236.42 81.122 235.665 81.122 234.815C81.122 233.975 81.287 233.23 81.617 232.58C81.957 231.93 82.412 231.43 82.982 231.08C83.562 230.73 84.207 230.555 84.917 230.555ZM87.662 234.845C87.662 234.335 87.562 233.9 87.362 233.54C87.162 233.17 86.892 232.89 86.552 232.7C86.212 232.5 85.847 232.4 85.457 232.4C85.067 232.4 84.707 232.495 84.377 232.685C84.047 232.875 83.777 233.155 83.567 233.525C83.367 233.885 83.267 234.315 83.267 234.815C83.267 235.315 83.367 235.755 83.567 236.135C83.777 236.505 84.047 236.79 84.377 236.99C84.717 237.19 85.077 237.29 85.457 237.29C85.847 237.29 86.212 237.195 86.552 237.005C86.892 236.805 87.162 236.525 87.362 236.165C87.562 235.795 87.662 235.355 87.662 234.845ZM99.673 230.69V239H97.558V237.95C97.288 238.31 96.933 238.595 96.493 238.805C96.063 239.005 95.593 239.105 95.083 239.105C94.433 239.105 93.858 238.97 93.358 238.7C92.858 238.42 92.463 238.015 92.173 237.485C91.893 236.945 91.753 236.305 91.753 235.565V230.69H93.853V235.265C93.853 235.925 94.018 236.435 94.348 236.795C94.678 237.145 95.128 237.32 95.698 237.32C96.278 237.32 96.733 237.145 97.063 236.795C97.393 236.435 97.558 235.925 97.558 235.265V230.69H99.673ZM102.81 229.7C102.44 229.7 102.13 229.585 101.88 229.355C101.64 229.115 101.52 228.82 101.52 228.47C101.52 228.12 101.64 227.83 101.88 227.6C102.13 227.36 102.44 227.24 102.81 227.24C103.18 227.24 103.485 227.36 103.725 227.6C103.975 227.83 104.1 228.12 104.1 228.47C104.1 228.82 103.975 229.115 103.725 229.355C103.485 229.585 103.18 229.7 102.81 229.7ZM103.845 230.69V239H101.745V230.69H103.845ZM105.38 234.815C105.38 233.975 105.545 233.23 105.875 232.58C106.215 231.93 106.675 231.43 107.255 231.08C107.835 230.73 108.48 230.555 109.19 230.555C109.73 230.555 110.245 230.675 110.735 230.915C111.225 231.145 111.615 231.455 111.905 231.845V227.9H114.035V239H111.905V237.77C111.645 238.18 111.28 238.51 110.81 238.76C110.34 239.01 109.795 239.135 109.175 239.135C108.475 239.135 107.835 238.955 107.255 238.595C106.675 238.235 106.215 237.73 105.875 237.08C105.545 236.42 105.38 235.665 105.38 234.815ZM111.92 234.845C111.92 234.335 111.82 233.9 111.62 233.54C111.42 233.17 111.15 232.89 110.81 232.7C110.47 232.5 110.105 232.4 109.715 232.4C109.325 232.4 108.965 232.495 108.635 232.685C108.305 232.875 108.035 233.155 107.825 233.525C107.625 233.885 107.525 234.315 107.525 234.815C107.525 235.315 107.625 235.755 107.825 236.135C108.035 236.505 108.305 236.79 108.635 236.99C108.975 237.19 109.335 237.29 109.715 237.29C110.105 237.29 110.47 237.195 110.81 237.005C111.15 236.805 111.42 236.525 111.62 236.165C111.82 235.795 111.92 235.355 111.92 234.845ZM123.811 234.665C123.811 234.965 123.791 235.235 123.751 235.475H117.676C117.726 236.075 117.936 236.545 118.306 236.885C118.676 237.225 119.131 237.395 119.671 237.395C120.451 237.395 121.006 237.06 121.336 236.39H123.601C123.361 237.19 122.901 237.85 122.221 238.37C121.541 238.88 120.706 239.135 119.716 239.135C118.916 239.135 118.196 238.96 117.556 238.61C116.926 238.25 116.431 237.745 116.071 237.095C115.721 236.445 115.546 235.695 115.546 234.845C115.546 233.985 115.721 233.23 116.071 232.58C116.421 231.93 116.911 231.43 117.541 231.08C118.171 230.73 118.896 230.555 119.716 230.555C120.506 230.555 121.211 230.725 121.831 231.065C122.461 231.405 122.946 231.89 123.286 232.52C123.636 233.14 123.811 233.855 123.811 234.665ZM121.636 234.065C121.626 233.525 121.431 233.095 121.051 232.775C120.671 232.445 120.206 232.28 119.656 232.28C119.136 232.28 118.696 232.44 118.336 232.76C117.986 233.07 117.771 233.505 117.691 234.065H121.636ZM127.444 231.98C127.714 231.54 128.064 231.195 128.494 230.945C128.934 230.695 129.434 230.57 129.994 230.57V232.775H129.439C128.779 232.775 128.279 232.93 127.939 233.24C127.609 233.55 127.444 234.09 127.444 234.86V239H125.344V230.69H127.444V231.98Z" fill="#B67B3E"/>
</g>
</g>
<defs>
<filter id="filter0_bd_495_235" x="-5" y="-5" width="220" height="341" filterUnits="userSpaceOnUse" color-interpolation-filters="sRGB">
<feFlood flood-opacity="0" result="BackgroundImageFix"/>
<feGaussianBlur in="BackgroundImage" stdDeviation="2.5"/>
<feComposite in2="SourceAlpha" operator="in" result="effect1_backgroundBlur_495_235"/>
<feColorMatrix in="SourceAlpha" type="matrix" values="0 0 0 0 0 0 0 0 0 0 0 0 0 0 0 0 0 0 127 0" result="hardAlpha"/>
<feOffset dy="4"/>
<feGaussianBlur stdDeviation="2"/>
<feComposite in2="hardAlpha" operator="out"/>
<feColorMatrix type="matrix" values="0 0 0 0 0 0 0 0 0 0 0 0 0 0 0 0 0 0 0.25 0"/>
<feBlend mode="normal" in2="effect1_backgroundBlur_495_235" result="effect2_dropShadow_495_235"/>
<feBlend mode="normal" in="SourceGraphic" in2="effect2_dropShadow_495_235" result="shape"/>
</filter>
</defs>
</svg>
