<svg width="220" height="164" viewBox="0 0 220 164" fill="none" xmlns="http://www.w3.org/2000/svg">
<g filter="url(#filter0_bd_495_290)">
<rect width="220" height="164" rx="25" fill="#BF9D46" fill-opacity="0.6"/>
<g filter="url(#filter1_dd_495_290)">
<path d="M29.75 91.175C28.5333 91.175 27.4333 90.9667 26.45 90.55C25.4833 90.1333 24.7167 89.5333 24.15 88.75C23.5833 87.9667 23.2917 87.0417 23.275 85.975H27.025C27.075 86.6917 27.325 87.2583 27.775 87.675C28.2417 88.0917 28.875 88.3 29.675 88.3C30.4917 88.3 31.1333 88.1083 31.6 87.725C32.0667 87.325 32.3 86.8083 32.3 86.175C32.3 85.6583 32.1417 85.2333 31.825 84.9C31.5083 84.5667 31.1083 84.3083 30.625 84.125C30.1583 83.925 29.5083 83.7083 28.675 83.475C27.5417 83.1417 26.6167 82.8167 25.9 82.5C25.2 82.1667 24.5917 81.675 24.075 81.025C23.575 80.3583 23.325 79.475 23.325 78.375C23.325 77.3417 23.5833 76.4417 24.1 75.675C24.6167 74.9083 25.3417 74.325 26.275 73.925C27.2083 73.5083 28.275 73.3 29.475 73.3C31.275 73.3 32.7333 73.7417 33.85 74.625C34.9833 75.4917 35.6083 76.7083 35.725 78.275H31.875C31.8417 77.675 31.5833 77.1833 31.1 76.8C30.6333 76.4 30.0083 76.2 29.225 76.2C28.5417 76.2 27.9917 76.375 27.575 76.725C27.175 77.075 26.975 77.5833 26.975 78.25C26.975 78.7167 27.125 79.1083 27.425 79.425C27.7417 79.725 28.125 79.975 28.575 80.175C29.0417 80.3583 29.6917 80.575 30.525 80.825C31.6583 81.1583 32.5833 81.4917 33.3 81.825C34.0167 82.1583 34.6333 82.6583 35.15 83.325C35.6667 83.9917 35.925 84.8667 35.925 85.95C35.925 86.8833 35.6833 87.75 35.2 88.55C34.7167 89.35 34.0083 89.9917 33.075 90.475C32.1417 90.9417 31.0333 91.175 29.75 91.175ZM52.0344 77.15V91H48.5094V89.25C48.0594 89.85 47.4677 90.325 46.7344 90.675C46.0177 91.0083 45.2344 91.175 44.3844 91.175C43.301 91.175 42.3427 90.95 41.5094 90.5C40.676 90.0333 40.0177 89.3583 39.5344 88.475C39.0677 87.575 38.8344 86.5083 38.8344 85.275V77.15H42.3344V84.775C42.3344 85.875 42.6094 86.725 43.1594 87.325C43.7094 87.9083 44.4594 88.2 45.4094 88.2C46.376 88.2 47.1344 87.9083 47.6844 87.325C48.2344 86.725 48.5094 85.875 48.5094 84.775V77.15H52.0344ZM60.7877 91.225C59.6544 91.225 58.6377 91.025 57.7377 90.625C56.8377 90.2083 56.121 89.65 55.5877 88.95C55.071 88.25 54.7877 87.475 54.7377 86.625H58.2627C58.3294 87.1583 58.5877 87.6 59.0377 87.95C59.5044 88.3 60.0794 88.475 60.7627 88.475C61.4294 88.475 61.946 88.3417 62.3127 88.075C62.696 87.8083 62.8877 87.4667 62.8877 87.05C62.8877 86.6 62.6544 86.2667 62.1877 86.05C61.7377 85.8167 61.0127 85.5667 60.0127 85.3C58.9794 85.05 58.1294 84.7917 57.4627 84.525C56.8127 84.2583 56.246 83.85 55.7627 83.3C55.296 82.75 55.0627 82.0083 55.0627 81.075C55.0627 80.3083 55.2794 79.6083 55.7127 78.975C56.1627 78.3417 56.796 77.8417 57.6127 77.475C58.446 77.1083 59.421 76.925 60.5377 76.925C62.1877 76.925 63.5044 77.3417 64.4877 78.175C65.471 78.9917 66.0127 80.1 66.1127 81.5H62.7627C62.7127 80.95 62.4794 80.5167 62.0627 80.2C61.6627 79.8667 61.121 79.7 60.4377 79.7C59.8044 79.7 59.3127 79.8167 58.9627 80.05C58.6294 80.2833 58.4627 80.6083 58.4627 81.025C58.4627 81.4917 58.696 81.85 59.1627 82.1C59.6294 82.3333 60.3544 82.575 61.3377 82.825C62.3377 83.075 63.1627 83.3333 63.8127 83.6C64.4627 83.8667 65.021 84.2833 65.4877 84.85C65.971 85.4 66.221 86.1333 66.2377 87.05C66.2377 87.85 66.0127 88.5667 65.5627 89.2C65.1294 89.8333 64.496 90.3333 63.6627 90.7C62.846 91.05 61.8877 91.225 60.7877 91.225ZM73.1857 80.025V86.725C73.1857 87.1917 73.2941 87.5333 73.5107 87.75C73.7441 87.95 74.1274 88.05 74.6607 88.05H76.2857V91H74.0857C71.1357 91 69.6607 89.5667 69.6607 86.7V80.025H68.0107V77.15H69.6607V73.725H73.1857V77.15H76.2857V80.025H73.1857ZM77.9031 84.025C77.9031 82.625 78.1781 81.3833 78.7281 80.3C79.2948 79.2167 80.0531 78.3833 81.0031 77.8C81.9698 77.2167 83.0448 76.925 84.2281 76.925C85.2615 76.925 86.1615 77.1333 86.9281 77.55C87.7115 77.9667 88.3365 78.4917 88.8031 79.125V77.15H92.3281V91H88.8031V88.975C88.3531 89.625 87.7281 90.1667 86.9281 90.6C86.1448 91.0167 85.2365 91.225 84.2031 91.225C83.0365 91.225 81.9698 90.925 81.0031 90.325C80.0531 89.725 79.2948 88.8833 78.7281 87.8C78.1781 86.7 77.9031 85.4417 77.9031 84.025ZM88.8031 84.075C88.8031 83.225 88.6365 82.5 88.3031 81.9C87.9698 81.2833 87.5198 80.8167 86.9531 80.5C86.3865 80.1667 85.7781 80 85.1281 80C84.4781 80 83.8781 80.1583 83.3281 80.475C82.7781 80.7917 82.3281 81.2583 81.9781 81.875C81.6448 82.475 81.4781 83.1917 81.4781 84.025C81.4781 84.8583 81.6448 85.5917 81.9781 86.225C82.3281 86.8417 82.7781 87.3167 83.3281 87.65C83.8948 87.9833 84.4948 88.15 85.1281 88.15C85.7781 88.15 86.3865 87.9917 86.9531 87.675C87.5198 87.3417 87.9698 86.875 88.3031 86.275C88.6365 85.6583 88.8031 84.925 88.8031 84.075ZM97.5215 75.5C96.9048 75.5 96.3882 75.3083 95.9715 74.925C95.5715 74.525 95.3715 74.0333 95.3715 73.45C95.3715 72.8667 95.5715 72.3833 95.9715 72C96.3882 71.6 96.9048 71.4 97.5215 71.4C98.1382 71.4 98.6465 71.6 99.0465 72C99.4632 72.3833 99.6715 72.8667 99.6715 73.45C99.6715 74.0333 99.4632 74.525 99.0465 74.925C98.6465 75.3083 98.1382 75.5 97.5215 75.5ZM99.2465 77.15V91H95.7465V77.15H99.2465ZM110.379 76.95C112.029 76.95 113.363 77.475 114.379 78.525C115.396 79.5583 115.904 81.0083 115.904 82.875V91H112.404V83.35C112.404 82.25 112.129 81.4083 111.579 80.825C111.029 80.225 110.279 79.925 109.329 79.925C108.363 79.925 107.596 80.225 107.029 80.825C106.479 81.4083 106.204 82.25 106.204 83.35V91H102.704V77.15H106.204V78.875C106.671 78.275 107.263 77.8083 107.979 77.475C108.713 77.125 109.513 76.95 110.379 76.95ZM118.333 84.025C118.333 82.625 118.608 81.3833 119.158 80.3C119.724 79.2167 120.483 78.3833 121.433 77.8C122.399 77.2167 123.474 76.925 124.658 76.925C125.691 76.925 126.591 77.1333 127.358 77.55C128.141 77.9667 128.766 78.4917 129.233 79.125V77.15H132.758V91H129.233V88.975C128.783 89.625 128.158 90.1667 127.358 90.6C126.574 91.0167 125.666 91.225 124.633 91.225C123.466 91.225 122.399 90.925 121.433 90.325C120.483 89.725 119.724 88.8833 119.158 87.8C118.608 86.7 118.333 85.4417 118.333 84.025ZM129.233 84.075C129.233 83.225 129.066 82.5 128.733 81.9C128.399 81.2833 127.949 80.8167 127.383 80.5C126.816 80.1667 126.208 80 125.558 80C124.908 80 124.308 80.1583 123.758 80.475C123.208 80.7917 122.758 81.2583 122.408 81.875C122.074 82.475 121.908 83.1917 121.908 84.025C121.908 84.8583 122.074 85.5917 122.408 86.225C122.758 86.8417 123.208 87.3167 123.758 87.65C124.324 87.9833 124.924 88.15 125.558 88.15C126.208 88.15 126.816 87.9917 127.383 87.675C127.949 87.3417 128.399 86.875 128.733 86.275C129.066 85.6583 129.233 84.925 129.233 84.075ZM139.676 79.175C140.126 78.5083 140.743 77.9667 141.526 77.55C142.326 77.1333 143.235 76.925 144.251 76.925C145.435 76.925 146.501 77.2167 147.451 77.8C148.418 78.3833 149.176 79.2167 149.726 80.3C150.293 81.3667 150.576 82.6083 150.576 84.025C150.576 85.4417 150.293 86.7 149.726 87.8C149.176 88.8833 148.418 89.725 147.451 90.325C146.501 90.925 145.435 91.225 144.251 91.225C143.218 91.225 142.31 91.025 141.526 90.625C140.76 90.2083 140.143 89.675 139.676 89.025V91H136.176V72.5H139.676V79.175ZM147.001 84.025C147.001 83.1917 146.826 82.475 146.476 81.875C146.143 81.2583 145.693 80.7917 145.126 80.475C144.576 80.1583 143.976 80 143.326 80C142.693 80 142.093 80.1667 141.526 80.5C140.976 80.8167 140.526 81.2833 140.176 81.9C139.843 82.5167 139.676 83.2417 139.676 84.075C139.676 84.9083 139.843 85.6333 140.176 86.25C140.526 86.8667 140.976 87.3417 141.526 87.675C142.093 87.9917 142.693 88.15 143.326 88.15C143.976 88.15 144.576 87.9833 145.126 87.65C145.693 87.3167 146.143 86.8417 146.476 86.225C146.826 85.6083 147.001 84.875 147.001 84.025ZM154.895 75.5C154.278 75.5 153.761 75.3083 153.345 74.925C152.945 74.525 152.745 74.0333 152.745 73.45C152.745 72.8667 152.945 72.3833 153.345 72C153.761 71.6 154.278 71.4 154.895 71.4C155.511 71.4 156.02 71.6 156.42 72C156.836 72.3833 157.045 72.8667 157.045 73.45C157.045 74.0333 156.836 74.525 156.42 74.925C156.02 75.3083 155.511 75.5 154.895 75.5ZM156.62 77.15V91H153.12V77.15H156.62ZM163.578 72.5V91H160.078V72.5H163.578ZM168.811 75.5C168.194 75.5 167.677 75.3083 167.261 74.925C166.861 74.525 166.661 74.0333 166.661 73.45C166.661 72.8667 166.861 72.3833 167.261 72C167.677 71.6 168.194 71.4 168.811 71.4C169.427 71.4 169.936 71.6 170.336 72C170.752 72.3833 170.961 72.8667 170.961 73.45C170.961 74.0333 170.752 74.525 170.336 74.925C169.936 75.3083 169.427 75.5 168.811 75.5ZM170.536 77.15V91H167.036V77.15H170.536ZM178.069 80.025V86.725C178.069 87.1917 178.177 87.5333 178.394 87.75C178.627 87.95 179.01 88.05 179.544 88.05H181.169V91H178.969C176.019 91 174.544 89.5667 174.544 86.7V80.025H172.894V77.15H174.544V73.725H178.069V77.15H181.169V80.025H178.069ZM196.936 77.15L188.361 97.55H184.636L187.636 90.65L182.086 77.15H186.011L189.586 86.825L193.211 77.15H196.936Z" fill="white"/>
</g>
</g>
<defs>
<filter id="filter0_bd_495_290" x="-5" y="-5" width="230" height="177" filterUnits="userSpaceOnUse" color-interpolation-filters="sRGB">
<feFlood flood-opacity="0" result="BackgroundImageFix"/>
<feGaussianBlur in="BackgroundImage" stdDeviation="2.5"/>
<feComposite in2="SourceAlpha" operator="in" result="effect1_backgroundBlur_495_290"/>
<feColorMatrix in="SourceAlpha" type="matrix" values="0 0 0 0 0 0 0 0 0 0 0 0 0 0 0 0 0 0 127 0" result="hardAlpha"/>
<feOffset dy="4"/>
<feGaussianBlur stdDeviation="2"/>
<feComposite in2="hardAlpha" operator="out"/>
<feColorMatrix type="matrix" values="0 0 0 0 0 0 0 0 0 0 0 0 0 0 0 0 0 0 0.25 0"/>
<feBlend mode="normal" in2="effect1_backgroundBlur_495_290" result="effect2_dropShadow_495_290"/>
<feBlend mode="normal" in="SourceGraphic" in2="effect2_dropShadow_495_290" result="shape"/>
</filter>
<filter id="filter1_dd_495_290" x="4.2749" y="52.3999" width="211.661" height="64.1499" filterUnits="userSpaceOnUse" color-interpolation-filters="sRGB">
<feFlood flood-opacity="0" result="BackgroundImageFix"/>
<feColorMatrix in="SourceAlpha" type="matrix" values="0 0 0 0 0 0 0 0 0 0 0 0 0 0 0 0 0 0 127 0" result="hardAlpha"/>
<feOffset dx="-4" dy="-4"/>
<feGaussianBlur stdDeviation="7.5"/>
<feComposite in2="hardAlpha" operator="out"/>
<feColorMatrix type="matrix" values="0 0 0 0 1 0 0 0 0 1 0 0 0 0 1 0 0 0 0.6 0"/>
<feBlend mode="normal" in2="BackgroundImageFix" result="effect1_dropShadow_495_290"/>
<feColorMatrix in="SourceAlpha" type="matrix" values="0 0 0 0 0 0 0 0 0 0 0 0 0 0 0 0 0 0 127 0" result="hardAlpha"/>
<feOffset dx="4" dy="4"/>
<feGaussianBlur stdDeviation="7.5"/>
<feComposite in2="hardAlpha" operator="out"/>
<feColorMatrix type="matrix" values="0 0 0 0 1 0 0 0 0 1 0 0 0 0 1 0 0 0 0.6 0"/>
<feBlend mode="normal" in2="effect1_dropShadow_495_290" result="effect2_dropShadow_495_290"/>
<feBlend mode="normal" in="SourceGraphic" in2="effect2_dropShadow_495_290" result="shape"/>
</filter>
</defs>
</svg>
