<svg width="220" height="164" viewBox="0 0 220 164" fill="none" xmlns="http://www.w3.org/2000/svg">
<mask id="mask0_495_324" style="mask-type:alpha" maskUnits="userSpaceOnUse" x="0" y="0" width="220" height="164">
<rect width="220" height="164" rx="25" fill="#AB9F9F"/>
</mask>
<g mask="url(#mask0_495_324)">
<g filter="url(#filter0_bd_495_324)">
<rect width="220" height="164" rx="25" fill="#F0F0F0"/>
<rect x="14" y="14" width="192" height="136" rx="23" stroke="#BF9D46" stroke-width="4"/>
<path d="M48.7629 48.53L45.8379 59H43.3629L41.3979 51.545L39.3429 59L36.8829 59.015L34.0629 48.53H36.3129L38.1579 56.66L40.2879 48.53H42.6279L44.6379 56.615L46.4979 48.53H48.7629ZM57.8591 54.665C57.8591 54.965 57.8391 55.235 57.7991 55.475H51.7241C51.7741 56.075 51.9841 56.545 52.3541 56.885C52.7241 57.225 53.1791 57.395 53.7191 57.395C54.4991 57.395 55.0541 57.06 55.3841 56.39H57.6491C57.4091 57.19 56.9491 57.85 56.2691 58.37C55.5891 58.88 54.7541 59.135 53.7641 59.135C52.9641 59.135 52.2441 58.96 51.6041 58.61C50.9741 58.25 50.4791 57.745 50.1191 57.095C49.7691 56.445 49.5941 55.695 49.5941 54.845C49.5941 53.985 49.7691 53.23 50.1191 52.58C50.4691 51.93 50.9591 51.43 51.5891 51.08C52.2191 50.73 52.9441 50.555 53.7641 50.555C54.5541 50.555 55.2591 50.725 55.8791 51.065C56.5091 51.405 56.9941 51.89 57.3341 52.52C57.6841 53.14 57.8591 53.855 57.8591 54.665ZM55.6841 54.065C55.6741 53.525 55.4791 53.095 55.0991 52.775C54.7191 52.445 54.2541 52.28 53.7041 52.28C53.1841 52.28 52.7441 52.44 52.3841 52.76C52.0341 53.07 51.8191 53.505 51.7391 54.065H55.6841ZM62.4262 54.815C62.4262 53.975 62.5912 53.23 62.9212 52.58C63.2612 51.93 63.7162 51.43 64.2862 51.08C64.8662 50.73 65.5112 50.555 66.2212 50.555C66.8412 50.555 67.3812 50.68 67.8412 50.93C68.3112 51.18 68.6862 51.495 68.9662 51.875V50.69H71.0812V59H68.9662V57.785C68.6962 58.175 68.3212 58.5 67.8412 58.76C67.3712 59.01 66.8262 59.135 66.2062 59.135C65.5062 59.135 64.8662 58.955 64.2862 58.595C63.7162 58.235 63.2612 57.73 62.9212 57.08C62.5912 56.42 62.4262 55.665 62.4262 54.815ZM68.9662 54.845C68.9662 54.335 68.8662 53.9 68.6662 53.54C68.4662 53.17 68.1962 52.89 67.8562 52.7C67.5162 52.5 67.1512 52.4 66.7612 52.4C66.3712 52.4 66.0112 52.495 65.6812 52.685C65.3512 52.875 65.0812 53.155 64.8712 53.525C64.6712 53.885 64.5712 54.315 64.5712 54.815C64.5712 55.315 64.6712 55.755 64.8712 56.135C65.0812 56.505 65.3512 56.79 65.6812 56.99C66.0212 57.19 66.3812 57.29 66.7612 57.29C67.1512 57.29 67.5162 57.195 67.8562 57.005C68.1962 56.805 68.4662 56.525 68.6662 56.165C68.8662 55.795 68.9662 55.355 68.9662 54.845ZM75.2322 47.9V59H73.1322V47.9H75.2322ZM88.827 50.69L86.397 59H84.132L82.617 53.195L81.102 59H78.822L76.377 50.69H78.507L79.977 57.02L81.567 50.69H83.787L85.347 57.005L86.817 50.69H88.827ZM89.4232 54.815C89.4232 53.975 89.5882 53.23 89.9182 52.58C90.2582 51.93 90.7132 51.43 91.2832 51.08C91.8632 50.73 92.5082 50.555 93.2182 50.555C93.8382 50.555 94.3782 50.68 94.8382 50.93C95.3082 51.18 95.6832 51.495 95.9632 51.875V50.69H98.0782V59H95.9632V57.785C95.6932 58.175 95.3182 58.5 94.8382 58.76C94.3682 59.01 93.8232 59.135 93.2032 59.135C92.5032 59.135 91.8632 58.955 91.2832 58.595C90.7132 58.235 90.2582 57.73 89.9182 57.08C89.5882 56.42 89.4232 55.665 89.4232 54.815ZM95.9632 54.845C95.9632 54.335 95.8632 53.9 95.6632 53.54C95.4632 53.17 95.1932 52.89 94.8532 52.7C94.5132 52.5 94.1482 52.4 93.7582 52.4C93.3682 52.4 93.0082 52.495 92.6782 52.685C92.3482 52.875 92.0782 53.155 91.8682 53.525C91.6682 53.885 91.5682 54.315 91.5682 54.815C91.5682 55.315 91.6682 55.755 91.8682 56.135C92.0782 56.505 92.3482 56.79 92.6782 56.99C93.0182 57.19 93.3782 57.29 93.7582 57.29C94.1482 57.29 94.5132 57.195 94.8532 57.005C95.1932 56.805 95.4632 56.525 95.6632 56.165C95.8632 55.795 95.9632 55.355 95.9632 54.845ZM108.079 50.69L102.934 62.93H100.699L102.499 58.79L99.1692 50.69H101.524L103.669 56.495L105.844 50.69H108.079ZM112.391 59.135C111.711 59.135 111.101 59.015 110.561 58.775C110.021 58.525 109.591 58.19 109.271 57.77C108.961 57.35 108.791 56.885 108.761 56.375H110.876C110.916 56.695 111.071 56.96 111.341 57.17C111.621 57.38 111.966 57.485 112.376 57.485C112.776 57.485 113.086 57.405 113.306 57.245C113.536 57.085 113.651 56.88 113.651 56.63C113.651 56.36 113.511 56.16 113.231 56.03C112.961 55.89 112.526 55.74 111.926 55.58C111.306 55.43 110.796 55.275 110.396 55.115C110.006 54.955 109.666 54.71 109.376 54.38C109.096 54.05 108.956 53.605 108.956 53.045C108.956 52.585 109.086 52.165 109.346 51.785C109.616 51.405 109.996 51.105 110.486 50.885C110.986 50.665 111.571 50.555 112.241 50.555C113.231 50.555 114.021 50.805 114.611 51.305C115.201 51.795 115.526 52.46 115.586 53.3H113.576C113.546 52.97 113.406 52.71 113.156 52.52C112.916 52.32 112.591 52.22 112.181 52.22C111.801 52.22 111.506 52.29 111.296 52.43C111.096 52.57 110.996 52.765 110.996 53.015C110.996 53.295 111.136 53.51 111.416 53.66C111.696 53.8 112.131 53.945 112.721 54.095C113.321 54.245 113.816 54.4 114.206 54.56C114.596 54.72 114.931 54.97 115.211 55.31C115.501 55.64 115.651 56.08 115.661 56.63C115.661 57.11 115.526 57.54 115.256 57.92C114.996 58.3 114.616 58.6 114.116 58.82C113.626 59.03 113.051 59.135 112.391 59.135ZM120.419 54.845C120.419 53.985 120.594 53.235 120.944 52.595C121.294 51.945 121.779 51.445 122.399 51.095C123.019 50.735 123.729 50.555 124.529 50.555C125.559 50.555 126.409 50.815 127.079 51.335C127.759 51.845 128.214 52.565 128.444 53.495H126.179C126.059 53.135 125.854 52.855 125.564 52.655C125.284 52.445 124.934 52.34 124.514 52.34C123.914 52.34 123.439 52.56 123.089 53C122.739 53.43 122.564 54.045 122.564 54.845C122.564 55.635 122.739 56.25 123.089 56.69C123.439 57.12 123.914 57.335 124.514 57.335C125.364 57.335 125.919 56.955 126.179 56.195H128.444C128.214 57.095 127.759 57.81 127.079 58.34C126.399 58.87 125.549 59.135 124.529 59.135C123.729 59.135 123.019 58.96 122.399 58.61C121.779 58.25 121.294 57.75 120.944 57.11C120.594 56.46 120.419 55.705 120.419 54.845ZM133.673 59.135C132.873 59.135 132.153 58.96 131.513 58.61C130.873 58.25 130.368 57.745 129.998 57.095C129.638 56.445 129.458 55.695 129.458 54.845C129.458 53.995 129.643 53.245 130.013 52.595C130.393 51.945 130.908 51.445 131.558 51.095C132.208 50.735 132.933 50.555 133.733 50.555C134.533 50.555 135.258 50.735 135.908 51.095C136.558 51.445 137.068 51.945 137.438 52.595C137.818 53.245 138.008 53.995 138.008 54.845C138.008 55.695 137.813 56.445 137.423 57.095C137.043 57.745 136.523 58.25 135.863 58.61C135.213 58.96 134.483 59.135 133.673 59.135ZM133.673 57.305C134.053 57.305 134.408 57.215 134.738 57.035C135.078 56.845 135.348 56.565 135.548 56.195C135.748 55.825 135.848 55.375 135.848 54.845C135.848 54.055 135.638 53.45 135.218 53.03C134.808 52.6 134.303 52.385 133.703 52.385C133.103 52.385 132.598 52.6 132.188 53.03C131.788 53.45 131.588 54.055 131.588 54.845C131.588 55.635 131.783 56.245 132.173 56.675C132.573 57.095 133.073 57.305 133.673 57.305ZM144.153 50.57C145.143 50.57 145.943 50.885 146.553 51.515C147.163 52.135 147.468 53.005 147.468 54.125V59H145.368V54.41C145.368 53.75 145.203 53.245 144.873 52.895C144.543 52.535 144.093 52.355 143.523 52.355C142.943 52.355 142.483 52.535 142.143 52.895C141.813 53.245 141.648 53.75 141.648 54.41V59H139.548V50.69H141.648V51.725C141.928 51.365 142.283 51.085 142.713 50.885C143.153 50.675 143.633 50.57 144.153 50.57ZM152.645 59.135C151.965 59.135 151.355 59.015 150.815 58.775C150.275 58.525 149.845 58.19 149.525 57.77C149.215 57.35 149.045 56.885 149.015 56.375H151.13C151.17 56.695 151.325 56.96 151.595 57.17C151.875 57.38 152.22 57.485 152.63 57.485C153.03 57.485 153.34 57.405 153.56 57.245C153.79 57.085 153.905 56.88 153.905 56.63C153.905 56.36 153.765 56.16 153.485 56.03C153.215 55.89 152.78 55.74 152.18 55.58C151.56 55.43 151.05 55.275 150.65 55.115C150.26 54.955 149.92 54.71 149.63 54.38C149.35 54.05 149.21 53.605 149.21 53.045C149.21 52.585 149.34 52.165 149.6 51.785C149.87 51.405 150.25 51.105 150.74 50.885C151.24 50.665 151.825 50.555 152.495 50.555C153.485 50.555 154.275 50.805 154.865 51.305C155.455 51.795 155.78 52.46 155.84 53.3H153.83C153.8 52.97 153.66 52.71 153.41 52.52C153.17 52.32 152.845 52.22 152.435 52.22C152.055 52.22 151.76 52.29 151.55 52.43C151.35 52.57 151.25 52.765 151.25 53.015C151.25 53.295 151.39 53.51 151.67 53.66C151.95 53.8 152.385 53.945 152.975 54.095C153.575 54.245 154.07 54.4 154.46 54.56C154.85 54.72 155.185 54.97 155.465 55.31C155.755 55.64 155.905 56.08 155.915 56.63C155.915 57.11 155.78 57.54 155.51 57.92C155.25 58.3 154.87 58.6 154.37 58.82C153.88 59.03 153.305 59.135 152.645 59.135ZM158.704 49.7C158.334 49.7 158.024 49.585 157.774 49.355C157.534 49.115 157.414 48.82 157.414 48.47C157.414 48.12 157.534 47.83 157.774 47.6C158.024 47.36 158.334 47.24 158.704 47.24C159.074 47.24 159.379 47.36 159.619 47.6C159.869 47.83 159.994 48.12 159.994 48.47C159.994 48.82 159.869 49.115 159.619 49.355C159.379 49.585 159.074 49.7 158.704 49.7ZM159.739 50.69V59H157.639V50.69H159.739ZM161.274 54.815C161.274 53.975 161.439 53.23 161.769 52.58C162.109 51.93 162.569 51.43 163.149 51.08C163.729 50.73 164.374 50.555 165.084 50.555C165.624 50.555 166.139 50.675 166.629 50.915C167.119 51.145 167.509 51.455 167.799 51.845V47.9H169.929V59H167.799V57.77C167.539 58.18 167.174 58.51 166.704 58.76C166.234 59.01 165.689 59.135 165.069 59.135C164.369 59.135 163.729 58.955 163.149 58.595C162.569 58.235 162.109 57.73 161.769 57.08C161.439 56.42 161.274 55.665 161.274 54.815ZM167.814 54.845C167.814 54.335 167.714 53.9 167.514 53.54C167.314 53.17 167.044 52.89 166.704 52.7C166.364 52.5 165.999 52.4 165.609 52.4C165.219 52.4 164.859 52.495 164.529 52.685C164.199 52.875 163.929 53.155 163.719 53.525C163.519 53.885 163.419 54.315 163.419 54.815C163.419 55.315 163.519 55.755 163.719 56.135C163.929 56.505 164.199 56.79 164.529 56.99C164.869 57.19 165.229 57.29 165.609 57.29C165.999 57.29 166.364 57.195 166.704 57.005C167.044 56.805 167.314 56.525 167.514 56.165C167.714 55.795 167.814 55.355 167.814 54.845ZM179.705 54.665C179.705 54.965 179.685 55.235 179.645 55.475H173.57C173.62 56.075 173.83 56.545 174.2 56.885C174.57 57.225 175.025 57.395 175.565 57.395C176.345 57.395 176.9 57.06 177.23 56.39H179.495C179.255 57.19 178.795 57.85 178.115 58.37C177.435 58.88 176.6 59.135 175.61 59.135C174.81 59.135 174.09 58.96 173.45 58.61C172.82 58.25 172.325 57.745 171.965 57.095C171.615 56.445 171.44 55.695 171.44 54.845C171.44 53.985 171.615 53.23 171.965 52.58C172.315 51.93 172.805 51.43 173.435 51.08C174.065 50.73 174.79 50.555 175.61 50.555C176.4 50.555 177.105 50.725 177.725 51.065C178.355 51.405 178.84 51.89 179.18 52.52C179.53 53.14 179.705 53.855 179.705 54.665ZM177.53 54.065C177.52 53.525 177.325 53.095 176.945 52.775C176.565 52.445 176.1 52.28 175.55 52.28C175.03 52.28 174.59 52.44 174.23 52.76C173.88 53.07 173.665 53.505 173.585 54.065H177.53ZM183.338 51.98C183.608 51.54 183.958 51.195 184.388 50.945C184.828 50.695 185.328 50.57 185.888 50.57V52.775H185.333C184.673 52.775 184.173 52.93 183.833 53.24C183.503 53.55 183.338 54.09 183.338 54.86V59H181.238V50.69H183.338V51.98ZM38.3189 75.415V79.435C38.3189 79.715 38.3839 79.92 38.5139 80.05C38.6539 80.17 38.8839 80.23 39.2039 80.23H40.1789V82H38.8589C37.0889 82 36.2039 81.14 36.2039 79.42V75.415H35.2139V73.69H36.2039V71.635H38.3189V73.69H40.1789V75.415H38.3189ZM46.3693 73.57C46.9993 73.57 47.5593 73.71 48.0493 73.99C48.5393 74.26 48.9193 74.665 49.1893 75.205C49.4693 75.735 49.6093 76.375 49.6093 77.125V82H47.5093V77.41C47.5093 76.75 47.3443 76.245 47.0143 75.895C46.6843 75.535 46.2343 75.355 45.6643 75.355C45.0843 75.355 44.6243 75.535 44.2843 75.895C43.9543 76.245 43.7893 76.75 43.7893 77.41V82H41.6893V70.9H43.7893V74.725C44.0593 74.365 44.4193 74.085 44.8693 73.885C45.3193 73.675 45.8193 73.57 46.3693 73.57ZM59.3313 77.665C59.3313 77.965 59.3113 78.235 59.2713 78.475H53.1963C53.2463 79.075 53.4563 79.545 53.8263 79.885C54.1963 80.225 54.6513 80.395 55.1913 80.395C55.9713 80.395 56.5263 80.06 56.8563 79.39H59.1213C58.8813 80.19 58.4213 80.85 57.7413 81.37C57.0613 81.88 56.2263 82.135 55.2363 82.135C54.4363 82.135 53.7163 81.96 53.0763 81.61C52.4463 81.25 51.9513 80.745 51.5913 80.095C51.2413 79.445 51.0663 78.695 51.0663 77.845C51.0663 76.985 51.2413 76.23 51.5913 75.58C51.9413 74.93 52.4313 74.43 53.0613 74.08C53.6913 73.73 54.4163 73.555 55.2363 73.555C56.0263 73.555 56.7313 73.725 57.3513 74.065C57.9813 74.405 58.4663 74.89 58.8063 75.52C59.1563 76.14 59.3313 76.855 59.3313 77.665ZM57.1563 77.065C57.1463 76.525 56.9513 76.095 56.5713 75.775C56.1913 75.445 55.7263 75.28 55.1763 75.28C54.6563 75.28 54.2163 75.44 53.8563 75.76C53.5063 76.07 53.2913 76.505 53.2113 77.065H57.1563ZM67.6183 82.135C66.9383 82.135 66.3283 82.015 65.7883 81.775C65.2483 81.525 64.8183 81.19 64.4983 80.77C64.1883 80.35 64.0183 79.885 63.9883 79.375H66.1033C66.1433 79.695 66.2983 79.96 66.5683 80.17C66.8483 80.38 67.1933 80.485 67.6033 80.485C68.0033 80.485 68.3133 80.405 68.5333 80.245C68.7633 80.085 68.8783 79.88 68.8783 79.63C68.8783 79.36 68.7383 79.16 68.4583 79.03C68.1883 78.89 67.7533 78.74 67.1533 78.58C66.5333 78.43 66.0233 78.275 65.6233 78.115C65.2333 77.955 64.8933 77.71 64.6033 77.38C64.3233 77.05 64.1833 76.605 64.1833 76.045C64.1833 75.585 64.3133 75.165 64.5733 74.785C64.8433 74.405 65.2233 74.105 65.7133 73.885C66.2133 73.665 66.7983 73.555 67.4683 73.555C68.4583 73.555 69.2483 73.805 69.8383 74.305C70.4283 74.795 70.7533 75.46 70.8133 76.3H68.8033C68.7733 75.97 68.6333 75.71 68.3833 75.52C68.1433 75.32 67.8183 75.22 67.4083 75.22C67.0283 75.22 66.7333 75.29 66.5233 75.43C66.3233 75.57 66.2233 75.765 66.2233 76.015C66.2233 76.295 66.3633 76.51 66.6433 76.66C66.9233 76.8 67.3583 76.945 67.9483 77.095C68.5483 77.245 69.0433 77.4 69.4333 77.56C69.8233 77.72 70.1583 77.97 70.4383 78.31C70.7283 78.64 70.8783 79.08 70.8883 79.63C70.8883 80.11 70.7533 80.54 70.4833 80.92C70.2233 81.3 69.8433 81.6 69.3433 81.82C68.8533 82.03 68.2783 82.135 67.6183 82.135ZM80.4571 73.69V82H78.3421V80.95C78.0721 81.31 77.7171 81.595 77.2771 81.805C76.8471 82.005 76.3771 82.105 75.8671 82.105C75.2171 82.105 74.6421 81.97 74.1421 81.7C73.6421 81.42 73.2471 81.015 72.9571 80.485C72.6771 79.945 72.5371 79.305 72.5371 78.565V73.69H74.6371V78.265C74.6371 78.925 74.8021 79.435 75.1321 79.795C75.4621 80.145 75.9121 80.32 76.4821 80.32C77.0621 80.32 77.5171 80.145 77.8471 79.795C78.1771 79.435 78.3421 78.925 78.3421 78.265V73.69H80.4571ZM85.7091 82.135C85.0291 82.135 84.4191 82.015 83.8791 81.775C83.3391 81.525 82.9091 81.19 82.5891 80.77C82.2791 80.35 82.1091 79.885 82.0791 79.375H84.1941C84.2341 79.695 84.3891 79.96 84.6591 80.17C84.9391 80.38 85.2841 80.485 85.6941 80.485C86.0941 80.485 86.4041 80.405 86.6241 80.245C86.8541 80.085 86.9691 79.88 86.9691 79.63C86.9691 79.36 86.8291 79.16 86.5491 79.03C86.2791 78.89 85.8441 78.74 85.2441 78.58C84.6241 78.43 84.1141 78.275 83.7141 78.115C83.3241 77.955 82.9841 77.71 82.6941 77.38C82.4141 77.05 82.2741 76.605 82.2741 76.045C82.2741 75.585 82.4041 75.165 82.6641 74.785C82.9341 74.405 83.3141 74.105 83.8041 73.885C84.3041 73.665 84.8891 73.555 85.5591 73.555C86.5491 73.555 87.3391 73.805 87.9291 74.305C88.5191 74.795 88.8441 75.46 88.9041 76.3H86.8941C86.8641 75.97 86.7241 75.71 86.4741 75.52C86.2341 75.32 85.9091 75.22 85.4991 75.22C85.1191 75.22 84.8241 75.29 84.6141 75.43C84.4141 75.57 84.3141 75.765 84.3141 76.015C84.3141 76.295 84.4541 76.51 84.7341 76.66C85.0141 76.8 85.4491 76.945 86.0391 77.095C86.6391 77.245 87.1341 77.4 87.5241 77.56C87.9141 77.72 88.2491 77.97 88.5291 78.31C88.8191 78.64 88.9691 79.08 88.9791 79.63C88.9791 80.11 88.8441 80.54 88.5741 80.92C88.3141 81.3 87.9341 81.6 87.4341 81.82C86.9441 82.03 86.3691 82.135 85.7091 82.135ZM93.148 75.415V79.435C93.148 79.715 93.213 79.92 93.343 80.05C93.483 80.17 93.713 80.23 94.033 80.23H95.008V82H93.688C91.918 82 91.033 81.14 91.033 79.42V75.415H90.043V73.69H91.033V71.635H93.148V73.69H95.008V75.415H93.148ZM95.9784 77.815C95.9784 76.975 96.1434 76.23 96.4734 75.58C96.8134 74.93 97.2684 74.43 97.8384 74.08C98.4184 73.73 99.0634 73.555 99.7734 73.555C100.393 73.555 100.933 73.68 101.393 73.93C101.863 74.18 102.238 74.495 102.518 74.875V73.69H104.633V82H102.518V80.785C102.248 81.175 101.873 81.5 101.393 81.76C100.923 82.01 100.378 82.135 99.7584 82.135C99.0584 82.135 98.4184 81.955 97.8384 81.595C97.2684 81.235 96.8134 80.73 96.4734 80.08C96.1434 79.42 95.9784 78.665 95.9784 77.815ZM102.518 77.845C102.518 77.335 102.418 76.9 102.218 76.54C102.018 76.17 101.748 75.89 101.408 75.7C101.068 75.5 100.703 75.4 100.313 75.4C99.9234 75.4 99.5634 75.495 99.2334 75.685C98.9034 75.875 98.6334 76.155 98.4234 76.525C98.2234 76.885 98.1234 77.315 98.1234 77.815C98.1234 78.315 98.2234 78.755 98.4234 79.135C98.6334 79.505 98.9034 79.79 99.2334 79.99C99.5734 80.19 99.9334 80.29 100.313 80.29C100.703 80.29 101.068 80.195 101.408 80.005C101.748 79.805 102.018 79.525 102.218 79.165C102.418 78.795 102.518 78.355 102.518 77.845ZM107.749 72.7C107.379 72.7 107.069 72.585 106.819 72.355C106.579 72.115 106.459 71.82 106.459 71.47C106.459 71.12 106.579 70.83 106.819 70.6C107.069 70.36 107.379 70.24 107.749 70.24C108.119 70.24 108.424 70.36 108.664 70.6C108.914 70.83 109.039 71.12 109.039 71.47C109.039 71.82 108.914 72.115 108.664 72.355C108.424 72.585 108.119 72.7 107.749 72.7ZM108.784 73.69V82H106.684V73.69H108.784ZM115.464 73.57C116.454 73.57 117.254 73.885 117.864 74.515C118.474 75.135 118.779 76.005 118.779 77.125V82H116.679V77.41C116.679 76.75 116.514 76.245 116.184 75.895C115.854 75.535 115.404 75.355 114.834 75.355C114.254 75.355 113.794 75.535 113.454 75.895C113.124 76.245 112.959 76.75 112.959 77.41V82H110.859V73.69H112.959V74.725C113.239 74.365 113.594 74.085 114.024 73.885C114.464 73.675 114.944 73.57 115.464 73.57ZM120.236 77.815C120.236 76.975 120.401 76.23 120.731 75.58C121.071 74.93 121.526 74.43 122.096 74.08C122.676 73.73 123.321 73.555 124.031 73.555C124.651 73.555 125.191 73.68 125.651 73.93C126.121 74.18 126.496 74.495 126.776 74.875V73.69H128.891V82H126.776V80.785C126.506 81.175 126.131 81.5 125.651 81.76C125.181 82.01 124.636 82.135 124.016 82.135C123.316 82.135 122.676 81.955 122.096 81.595C121.526 81.235 121.071 80.73 120.731 80.08C120.401 79.42 120.236 78.665 120.236 77.815ZM126.776 77.845C126.776 77.335 126.676 76.9 126.476 76.54C126.276 76.17 126.006 75.89 125.666 75.7C125.326 75.5 124.961 75.4 124.571 75.4C124.181 75.4 123.821 75.495 123.491 75.685C123.161 75.875 122.891 76.155 122.681 76.525C122.481 76.885 122.381 77.315 122.381 77.815C122.381 78.315 122.481 78.755 122.681 79.135C122.891 79.505 123.161 79.79 123.491 79.99C123.831 80.19 124.191 80.29 124.571 80.29C124.961 80.29 125.326 80.195 125.666 80.005C126.006 79.805 126.276 79.525 126.476 79.165C126.676 78.795 126.776 78.355 126.776 77.845ZM133.042 74.905C133.312 74.505 133.682 74.18 134.152 73.93C134.632 73.68 135.177 73.555 135.787 73.555C136.497 73.555 137.137 73.73 137.707 74.08C138.287 74.43 138.742 74.93 139.072 75.58C139.412 76.22 139.582 76.965 139.582 77.815C139.582 78.665 139.412 79.42 139.072 80.08C138.742 80.73 138.287 81.235 137.707 81.595C137.137 81.955 136.497 82.135 135.787 82.135C135.167 82.135 134.622 82.015 134.152 81.775C133.692 81.525 133.322 81.205 133.042 80.815V82H130.942V70.9H133.042V74.905ZM137.437 77.815C137.437 77.315 137.332 76.885 137.122 76.525C136.922 76.155 136.652 75.875 136.312 75.685C135.982 75.495 135.622 75.4 135.232 75.4C134.852 75.4 134.492 75.5 134.152 75.7C133.822 75.89 133.552 76.17 133.342 76.54C133.142 76.91 133.042 77.345 133.042 77.845C133.042 78.345 133.142 78.78 133.342 79.15C133.552 79.52 133.822 79.805 134.152 80.005C134.492 80.195 134.852 80.29 135.232 80.29C135.622 80.29 135.982 80.19 136.312 79.99C136.652 79.79 136.922 79.505 137.122 79.135C137.332 78.765 137.437 78.325 137.437 77.815ZM142.173 72.7C141.803 72.7 141.493 72.585 141.243 72.355C141.003 72.115 140.883 71.82 140.883 71.47C140.883 71.12 141.003 70.83 141.243 70.6C141.493 70.36 141.803 70.24 142.173 70.24C142.543 70.24 142.848 70.36 143.088 70.6C143.338 70.83 143.463 71.12 143.463 71.47C143.463 71.82 143.338 72.115 143.088 72.355C142.848 72.585 142.543 72.7 142.173 72.7ZM143.208 73.69V82H141.108V73.69H143.208ZM147.383 70.9V82H145.283V70.9H147.383ZM150.523 72.7C150.153 72.7 149.843 72.585 149.593 72.355C149.353 72.115 149.233 71.82 149.233 71.47C149.233 71.12 149.353 70.83 149.593 70.6C149.843 70.36 150.153 70.24 150.523 70.24C150.893 70.24 151.198 70.36 151.438 70.6C151.688 70.83 151.813 71.12 151.813 71.47C151.813 71.82 151.688 72.115 151.438 72.355C151.198 72.585 150.893 72.7 150.523 72.7ZM151.558 73.69V82H149.458V73.69H151.558ZM156.078 75.415V79.435C156.078 79.715 156.143 79.92 156.273 80.05C156.413 80.17 156.643 80.23 156.963 80.23H157.938V82H156.618C154.848 82 153.963 81.14 153.963 79.42V75.415H152.973V73.69H153.963V71.635H156.078V73.69H157.938V75.415H156.078ZM167.398 73.69L162.253 85.93H160.018L161.818 81.79L158.488 73.69H160.843L162.988 79.495L165.163 73.69H167.398ZM173.169 72.7C172.799 72.7 172.489 72.585 172.239 72.355C171.999 72.115 171.879 71.82 171.879 71.47C171.879 71.12 171.999 70.83 172.239 70.6C172.489 70.36 172.799 70.24 173.169 70.24C173.539 70.24 173.844 70.36 174.084 70.6C174.334 70.83 174.459 71.12 174.459 71.47C174.459 71.82 174.334 72.115 174.084 72.355C173.844 72.585 173.539 72.7 173.169 72.7ZM174.204 73.69V82H172.104V73.69H174.204ZM180.884 73.57C181.874 73.57 182.674 73.885 183.284 74.515C183.894 75.135 184.199 76.005 184.199 77.125V82H182.099V77.41C182.099 76.75 181.934 76.245 181.604 75.895C181.274 75.535 180.824 75.355 180.254 75.355C179.674 75.355 179.214 75.535 178.874 75.895C178.544 76.245 178.379 76.75 178.379 77.41V82H176.279V73.69H178.379V74.725C178.659 74.365 179.014 74.085 179.444 73.885C179.884 73.675 180.364 73.57 180.884 73.57ZM52.3147 100.665C52.3147 100.965 52.2947 101.235 52.2547 101.475H46.1797C46.2297 102.075 46.4397 102.545 46.8097 102.885C47.1797 103.225 47.6347 103.395 48.1747 103.395C48.9547 103.395 49.5097 103.06 49.8397 102.39H52.1047C51.8647 103.19 51.4047 103.85 50.7247 104.37C50.0447 104.88 49.2097 105.135 48.2197 105.135C47.4197 105.135 46.6997 104.96 46.0597 104.61C45.4297 104.25 44.9347 103.745 44.5747 103.095C44.2247 102.445 44.0497 101.695 44.0497 100.845C44.0497 99.985 44.2247 99.23 44.5747 98.58C44.9247 97.93 45.4147 97.43 46.0447 97.08C46.6747 96.73 47.3997 96.555 48.2197 96.555C49.0097 96.555 49.7147 96.725 50.3347 97.065C50.9647 97.405 51.4497 97.89 51.7897 98.52C52.1397 99.14 52.3147 99.855 52.3147 100.665ZM50.1397 100.065C50.1297 99.525 49.9347 99.095 49.5547 98.775C49.1747 98.445 48.7097 98.28 48.1597 98.28C47.6397 98.28 47.1997 98.44 46.8397 98.76C46.4897 99.07 46.2747 99.505 46.1947 100.065H50.1397ZM53.3075 100.815C53.3075 99.975 53.4725 99.23 53.8025 98.58C54.1425 97.93 54.5975 97.43 55.1675 97.08C55.7475 96.73 56.3925 96.555 57.1025 96.555C57.7225 96.555 58.2625 96.68 58.7225 96.93C59.1925 97.18 59.5675 97.495 59.8475 97.875V96.69H61.9625V105H59.8475V103.785C59.5775 104.175 59.2025 104.5 58.7225 104.76C58.2525 105.01 57.7075 105.135 57.0875 105.135C56.3875 105.135 55.7475 104.955 55.1675 104.595C54.5975 104.235 54.1425 103.73 53.8025 103.08C53.4725 102.42 53.3075 101.665 53.3075 100.815ZM59.8475 100.845C59.8475 100.335 59.7475 99.9 59.5475 99.54C59.3475 99.17 59.0775 98.89 58.7375 98.7C58.3975 98.5 58.0325 98.4 57.6425 98.4C57.2525 98.4 56.8925 98.495 56.5625 98.685C56.2325 98.875 55.9625 99.155 55.7525 99.525C55.5525 99.885 55.4525 100.315 55.4525 100.815C55.4525 101.315 55.5525 101.755 55.7525 102.135C55.9625 102.505 56.2325 102.79 56.5625 102.99C56.9025 103.19 57.2625 103.29 57.6425 103.29C58.0325 103.29 58.3975 103.195 58.7375 103.005C59.0775 102.805 59.3475 102.525 59.5475 102.165C59.7475 101.795 59.8475 101.355 59.8475 100.845ZM63.4735 100.845C63.4735 99.985 63.6485 99.235 63.9985 98.595C64.3485 97.945 64.8335 97.445 65.4535 97.095C66.0735 96.735 66.7835 96.555 67.5835 96.555C68.6135 96.555 69.4635 96.815 70.1335 97.335C70.8135 97.845 71.2685 98.565 71.4985 99.495H69.2335C69.1135 99.135 68.9085 98.855 68.6185 98.655C68.3385 98.445 67.9885 98.34 67.5685 98.34C66.9685 98.34 66.4935 98.56 66.1435 99C65.7935 99.43 65.6185 100.045 65.6185 100.845C65.6185 101.635 65.7935 102.25 66.1435 102.69C66.4935 103.12 66.9685 103.335 67.5685 103.335C68.4185 103.335 68.9735 102.955 69.2335 102.195H71.4985C71.2685 103.095 70.8135 103.81 70.1335 104.34C69.4535 104.87 68.6035 105.135 67.5835 105.135C66.7835 105.135 66.0735 104.96 65.4535 104.61C64.8335 104.25 64.3485 103.75 63.9985 103.11C63.6485 102.46 63.4735 101.705 63.4735 100.845ZM77.717 96.57C78.347 96.57 78.907 96.71 79.397 96.99C79.887 97.26 80.267 97.665 80.537 98.205C80.817 98.735 80.957 99.375 80.957 100.125V105H78.857V100.41C78.857 99.75 78.692 99.245 78.362 98.895C78.032 98.535 77.582 98.355 77.012 98.355C76.432 98.355 75.972 98.535 75.632 98.895C75.302 99.245 75.137 99.75 75.137 100.41V105H73.037V93.9H75.137V97.725C75.407 97.365 75.767 97.085 76.217 96.885C76.667 96.675 77.167 96.57 77.717 96.57ZM90.2182 105.135C89.4182 105.135 88.6982 104.96 88.0582 104.61C87.4182 104.25 86.9132 103.745 86.5432 103.095C86.1832 102.445 86.0032 101.695 86.0032 100.845C86.0032 99.995 86.1882 99.245 86.5582 98.595C86.9382 97.945 87.4532 97.445 88.1032 97.095C88.7532 96.735 89.4782 96.555 90.2782 96.555C91.0782 96.555 91.8032 96.735 92.4532 97.095C93.1032 97.445 93.6132 97.945 93.9832 98.595C94.3632 99.245 94.5532 99.995 94.5532 100.845C94.5532 101.695 94.3582 102.445 93.9682 103.095C93.5882 103.745 93.0682 104.25 92.4082 104.61C91.7582 104.96 91.0282 105.135 90.2182 105.135ZM90.2182 103.305C90.5982 103.305 90.9532 103.215 91.2832 103.035C91.6232 102.845 91.8932 102.565 92.0932 102.195C92.2932 101.825 92.3932 101.375 92.3932 100.845C92.3932 100.055 92.1832 99.45 91.7632 99.03C91.3532 98.6 90.8482 98.385 90.2482 98.385C89.6482 98.385 89.1432 98.6 88.7332 99.03C88.3332 99.45 88.1332 100.055 88.1332 100.845C88.1332 101.635 88.3282 102.245 88.7182 102.675C89.1182 103.095 89.6182 103.305 90.2182 103.305ZM99.9036 98.415H98.4486V105H96.3186V98.415H95.3736V96.69H96.3186V96.27C96.3186 95.25 96.6086 94.5 97.1886 94.02C97.7686 93.54 98.6436 93.315 99.8136 93.345V95.115C99.3036 95.105 98.9486 95.19 98.7486 95.37C98.5486 95.55 98.4486 95.875 98.4486 96.345V96.69H99.9036V98.415ZM108.529 105.135C107.729 105.135 107.009 104.96 106.369 104.61C105.729 104.25 105.224 103.745 104.854 103.095C104.494 102.445 104.314 101.695 104.314 100.845C104.314 99.995 104.499 99.245 104.869 98.595C105.249 97.945 105.764 97.445 106.414 97.095C107.064 96.735 107.789 96.555 108.589 96.555C109.389 96.555 110.114 96.735 110.764 97.095C111.414 97.445 111.924 97.945 112.294 98.595C112.674 99.245 112.864 99.995 112.864 100.845C112.864 101.695 112.669 102.445 112.279 103.095C111.899 103.745 111.379 104.25 110.719 104.61C110.069 104.96 109.339 105.135 108.529 105.135ZM108.529 103.305C108.909 103.305 109.264 103.215 109.594 103.035C109.934 102.845 110.204 102.565 110.404 102.195C110.604 101.825 110.704 101.375 110.704 100.845C110.704 100.055 110.494 99.45 110.074 99.03C109.664 98.6 109.159 98.385 108.559 98.385C107.959 98.385 107.454 98.6 107.044 99.03C106.644 99.45 106.444 100.055 106.444 100.845C106.444 101.635 106.639 102.245 107.029 102.675C107.429 103.095 107.929 103.305 108.529 103.305ZM122.249 96.69V105H120.134V103.95C119.864 104.31 119.509 104.595 119.069 104.805C118.639 105.005 118.169 105.105 117.659 105.105C117.009 105.105 116.434 104.97 115.934 104.7C115.434 104.42 115.039 104.015 114.749 103.485C114.469 102.945 114.329 102.305 114.329 101.565V96.69H116.429V101.265C116.429 101.925 116.594 102.435 116.924 102.795C117.254 103.145 117.704 103.32 118.274 103.32C118.854 103.32 119.309 103.145 119.639 102.795C119.969 102.435 120.134 101.925 120.134 101.265V96.69H122.249ZM126.421 97.98C126.691 97.54 127.041 97.195 127.471 96.945C127.911 96.695 128.411 96.57 128.971 96.57V98.775H128.416C127.756 98.775 127.256 98.93 126.916 99.24C126.586 99.55 126.421 100.09 126.421 100.86V105H124.321V96.69H126.421V97.98ZM144.28 96.57C145.3 96.57 146.12 96.885 146.74 97.515C147.37 98.135 147.685 99.005 147.685 100.125V105H145.585V100.41C145.585 99.76 145.42 99.265 145.09 98.925C144.76 98.575 144.31 98.4 143.74 98.4C143.17 98.4 142.715 98.575 142.375 98.925C142.045 99.265 141.88 99.76 141.88 100.41V105H139.78V100.41C139.78 99.76 139.615 99.265 139.285 98.925C138.955 98.575 138.505 98.4 137.935 98.4C137.355 98.4 136.895 98.575 136.555 98.925C136.225 99.265 136.06 99.76 136.06 100.41V105H133.96V96.69H136.06V97.695C136.33 97.345 136.675 97.07 137.095 96.87C137.525 96.67 137.995 96.57 138.505 96.57C139.155 96.57 139.735 96.71 140.245 96.99C140.755 97.26 141.15 97.65 141.43 98.16C141.7 97.68 142.09 97.295 142.6 97.005C143.12 96.715 143.68 96.57 144.28 96.57ZM153.368 105.135C152.568 105.135 151.848 104.96 151.208 104.61C150.568 104.25 150.063 103.745 149.693 103.095C149.333 102.445 149.153 101.695 149.153 100.845C149.153 99.995 149.338 99.245 149.708 98.595C150.088 97.945 150.603 97.445 151.253 97.095C151.903 96.735 152.628 96.555 153.428 96.555C154.228 96.555 154.953 96.735 155.603 97.095C156.253 97.445 156.763 97.945 157.133 98.595C157.513 99.245 157.703 99.995 157.703 100.845C157.703 101.695 157.508 102.445 157.118 103.095C156.738 103.745 156.218 104.25 155.558 104.61C154.908 104.96 154.178 105.135 153.368 105.135ZM153.368 103.305C153.748 103.305 154.103 103.215 154.433 103.035C154.773 102.845 155.043 102.565 155.243 102.195C155.443 101.825 155.543 101.375 155.543 100.845C155.543 100.055 155.333 99.45 154.913 99.03C154.503 98.6 153.998 98.385 153.398 98.385C152.798 98.385 152.293 98.6 151.883 99.03C151.483 99.45 151.283 100.055 151.283 100.845C151.283 101.635 151.478 102.245 151.868 102.675C152.268 103.095 152.768 103.305 153.368 103.305ZM162.708 103.065L164.808 96.69H167.043L163.968 105H161.418L158.358 96.69H160.608L162.708 103.065ZM175.948 100.665C175.948 100.965 175.928 101.235 175.888 101.475H169.813C169.863 102.075 170.073 102.545 170.443 102.885C170.813 103.225 171.268 103.395 171.808 103.395C172.588 103.395 173.143 103.06 173.473 102.39H175.738C175.498 103.19 175.038 103.85 174.358 104.37C173.678 104.88 172.843 105.135 171.853 105.135C171.053 105.135 170.333 104.96 169.693 104.61C169.063 104.25 168.568 103.745 168.208 103.095C167.858 102.445 167.682 101.695 167.682 100.845C167.682 99.985 167.858 99.23 168.208 98.58C168.558 97.93 169.048 97.43 169.678 97.08C170.308 96.73 171.033 96.555 171.853 96.555C172.643 96.555 173.348 96.725 173.968 97.065C174.598 97.405 175.083 97.89 175.423 98.52C175.773 99.14 175.948 99.855 175.948 100.665ZM173.773 100.065C173.763 99.525 173.568 99.095 173.188 98.775C172.808 98.445 172.343 98.28 171.793 98.28C171.273 98.28 170.833 98.44 170.473 98.76C170.123 99.07 169.908 99.505 169.828 100.065H173.773Z" fill="#BF9D46"/>
</g>
</g>
<defs>
<filter id="filter0_bd_495_324" x="-5" y="-5" width="230" height="177" filterUnits="userSpaceOnUse" color-interpolation-filters="sRGB">
<feFlood flood-opacity="0" result="BackgroundImageFix"/>
<feGaussianBlur in="BackgroundImage" stdDeviation="2.5"/>
<feComposite in2="SourceAlpha" operator="in" result="effect1_backgroundBlur_495_324"/>
<feColorMatrix in="SourceAlpha" type="matrix" values="0 0 0 0 0 0 0 0 0 0 0 0 0 0 0 0 0 0 127 0" result="hardAlpha"/>
<feOffset dy="4"/>
<feGaussianBlur stdDeviation="2"/>
<feComposite in2="hardAlpha" operator="out"/>
<feColorMatrix type="matrix" values="0 0 0 0 0 0 0 0 0 0 0 0 0 0 0 0 0 0 0.25 0"/>
<feBlend mode="normal" in2="effect1_backgroundBlur_495_324" result="effect2_dropShadow_495_324"/>
<feBlend mode="normal" in="SourceGraphic" in2="effect2_dropShadow_495_324" result="shape"/>
</filter>
</defs>
</svg>
