<svg width="58" height="58" viewBox="0 0 58 58" fill="none" xmlns="http://www.w3.org/2000/svg">
<path fill-rule="evenodd" clip-rule="evenodd" d="M29 3.625C35.7299 3.625 42.1841 6.29843 46.9428 11.0572C51.7016 15.8159 54.375 22.2701 54.375 29C54.375 35.7299 51.7016 42.1841 46.9428 46.9428C42.1841 51.7016 35.7299 54.375 29 54.375C22.2701 54.375 15.8159 51.7016 11.0572 46.9428C6.29843 42.1841 3.625 35.7299 3.625 29C3.625 22.2701 6.29843 15.8159 11.0572 11.0572C15.8159 6.29843 22.2701 3.625 29 3.625ZM29 58C36.6913 58 44.0675 54.9447 49.5061 49.5061C54.9447 44.0675 58 36.6913 58 29C58 21.3087 54.9447 13.9325 49.5061 8.4939C44.0675 3.05535 36.6913 0 29 0C21.3087 0 13.9325 3.05535 8.4939 8.4939C3.05535 13.9325 0 21.3087 0 29C0 36.6913 3.05535 44.0675 8.4939 49.5061C13.9325 54.9447 21.3087 58 29 58ZM16.3125 30.8125C15.8318 30.8125 15.3708 30.6215 15.0309 30.2816C14.691 29.9417 14.5 29.4807 14.5 29C14.5 28.5193 14.691 28.0583 15.0309 27.7184C15.3708 27.3785 15.8318 27.1875 16.3125 27.1875L37.3121 27.1875L29.5292 19.4083C29.1889 19.0679 28.9977 18.6063 28.9977 18.125C28.9977 17.6437 29.1889 17.1821 29.5292 16.8417C29.8696 16.5014 30.3312 16.3102 30.8125 16.3102C31.2938 16.3102 31.7554 16.5014 32.0957 16.8417L42.9707 27.7167C43.1395 27.8851 43.2735 28.0851 43.3648 28.3053C43.4562 28.5255 43.5032 28.7616 43.5032 29C43.5032 29.2384 43.4562 29.4745 43.3648 29.6947C43.2735 29.9149 43.1395 30.1149 42.9707 30.2833L32.0957 41.1582C31.7554 41.4986 31.2938 41.6898 30.8125 41.6898C30.3312 41.6898 29.8696 41.4986 29.5292 41.1582C29.1889 40.8179 28.9977 40.3563 28.9977 39.875C28.9977 39.3937 29.1889 38.9321 29.5292 38.5918L37.3121 30.8125L16.3125 30.8125Z" fill="#2B2B2B"/>
</svg>
