<svg width="110" height="104" viewBox="0 0 110 104" fill="none" xmlns="http://www.w3.org/2000/svg">
<g filter="url(#filter0_ii_458_142)">
<path d="M0 52C0 23.2812 23.2812 0 52 0H58C86.7188 0 110 23.2812 110 52C110 80.7188 86.7188 104 58 104H52C23.2812 104 0 80.7188 0 52Z" fill="#B67B3E"/>
<g filter="url(#filter1_i_458_142)">
<path d="M64.1077 61.26C64.1077 61.26 71.3768 54.0417 73.8423 51.5C81.6452 43.875 77.7564 28.1675 77.7564 28.1675C77.7564 28.1675 62.1252 24.2788 54.5002 32.0817C48.5527 37.8767 44.6893 41.8925 44.6893 41.8925C44.6893 41.8925 34.9293 39.8592 29.0835 45.705L60.2189 76.9167C66.0647 70.9946 64.1077 61.26 64.1077 61.26ZM60.2952 38.385C60.7673 37.9124 61.3279 37.5374 61.945 37.2816C62.5621 37.0258 63.2236 36.8941 63.8916 36.8941C64.5597 36.8941 65.2211 37.0258 65.8382 37.2816C66.4553 37.5374 67.016 37.9124 67.4881 38.385C68.1984 39.0961 68.682 40.0019 68.8777 40.9878C69.0734 41.9737 68.9724 42.9955 68.5875 43.9241C68.2026 44.8526 67.551 45.6462 66.7152 46.2045C65.8794 46.7628 64.8968 47.0608 63.8916 47.0608C62.8865 47.0608 61.9039 46.7628 61.0681 46.2045C60.2322 45.6462 59.5807 44.8526 59.1958 43.9241C58.8109 42.9955 58.7099 41.9737 58.9056 40.9878C59.1012 40.0019 59.5848 39.0961 60.2952 38.385ZM31.6252 74.375C36.33 74.2408 40.834 72.4392 44.3335 69.2917L36.7085 61.6667C31.6252 64.2083 31.6252 74.375 31.6252 74.375Z" fill="white"/>
</g>
</g>
<defs>
<filter id="filter0_ii_458_142" x="-4" y="-4" width="114" height="112" filterUnits="userSpaceOnUse" color-interpolation-filters="sRGB">
<feFlood flood-opacity="0" result="BackgroundImageFix"/>
<feBlend mode="normal" in="SourceGraphic" in2="BackgroundImageFix" result="shape"/>
<feColorMatrix in="SourceAlpha" type="matrix" values="0 0 0 0 0 0 0 0 0 0 0 0 0 0 0 0 0 0 127 0" result="hardAlpha"/>
<feOffset dx="-7" dy="-7"/>
<feGaussianBlur stdDeviation="2"/>
<feComposite in2="hardAlpha" operator="arithmetic" k2="-1" k3="1"/>
<feColorMatrix type="matrix" values="0 0 0 0 0 0 0 0 0 0 0 0 0 0 0 0 0 0 0.25 0"/>
<feBlend mode="normal" in2="shape" result="effect1_innerShadow_458_142"/>
<feColorMatrix in="SourceAlpha" type="matrix" values="0 0 0 0 0 0 0 0 0 0 0 0 0 0 0 0 0 0 127 0" result="hardAlpha"/>
<feOffset dy="7"/>
<feGaussianBlur stdDeviation="2"/>
<feComposite in2="hardAlpha" operator="arithmetic" k2="-1" k3="1"/>
<feColorMatrix type="matrix" values="0 0 0 0 0 0 0 0 0 0 0 0 0 0 0 0 0 0 0.25 0"/>
<feBlend mode="normal" in2="effect1_innerShadow_458_142" result="effect2_innerShadow_458_142"/>
</filter>
<filter id="filter1_i_458_142" x="24" y="21" width="61" height="65" filterUnits="userSpaceOnUse" color-interpolation-filters="sRGB">
<feFlood flood-opacity="0" result="BackgroundImageFix"/>
<feBlend mode="normal" in="SourceGraphic" in2="BackgroundImageFix" result="shape"/>
<feColorMatrix in="SourceAlpha" type="matrix" values="0 0 0 0 0 0 0 0 0 0 0 0 0 0 0 0 0 0 127 0" result="hardAlpha"/>
<feOffset dy="4"/>
<feGaussianBlur stdDeviation="2"/>
<feComposite in2="hardAlpha" operator="arithmetic" k2="-1" k3="1"/>
<feColorMatrix type="matrix" values="0 0 0 0 0 0 0 0 0 0 0 0 0 0 0 0 0 0 0.25 0"/>
<feBlend mode="normal" in2="shape" result="effect1_innerShadow_458_142"/>
</filter>
</defs>
</svg>
