<svg width="110" height="104" viewBox="0 0 110 104" fill="none" xmlns="http://www.w3.org/2000/svg">
<g filter="url(#filter0_ii_483_150)">
<path d="M0 52C0 23.2812 23.2812 0 52 0H58C86.7188 0 110 23.2812 110 52C110 80.7188 86.7188 104 58 104H52C23.2812 104 0 80.7188 0 52Z" fill="white"/>
<g filter="url(#filter1_i_483_150)">
<path d="M8.18469 60.68C10.7447 58.5467 12.7847 56.7733 14.3047 55.36C15.8247 53.92 17.0914 52.4267 18.1047 50.88C19.118 49.3333 19.6247 47.8133 19.6247 46.32C19.6247 44.96 19.3047 43.8933 18.6647 43.12C18.0247 42.3467 17.038 41.96 15.7047 41.96C14.3714 41.96 13.3447 42.4133 12.6247 43.32C11.9047 44.2 11.5314 45.4133 11.5047 46.96H6.06469C6.17135 43.76 7.11802 41.3333 8.90469 39.68C10.718 38.0267 13.0114 37.2 15.7847 37.2C18.8247 37.2 21.158 38.0133 22.7847 39.64C24.4114 41.24 25.2247 43.36 25.2247 46C25.2247 48.08 24.6647 50.0667 23.5447 51.96C22.4247 53.8533 21.1447 55.5067 19.7047 56.92C18.2647 58.3067 16.3847 59.9867 14.0647 61.96H25.8647V66.6H6.10469V62.44L8.18469 60.68ZM29.3934 52.04C29.3934 47.4267 30.2201 43.8133 31.8734 41.2C33.5534 38.5867 36.3268 37.28 40.1934 37.28C44.0601 37.28 46.8201 38.5867 48.4734 41.2C50.1534 43.8133 50.9934 47.4267 50.9934 52.04C50.9934 56.68 50.1534 60.32 48.4734 62.96C46.8201 65.6 44.0601 66.92 40.1934 66.92C36.3268 66.92 33.5534 65.6 31.8734 62.96C30.2201 60.32 29.3934 56.68 29.3934 52.04ZM45.4734 52.04C45.4734 50.0667 45.3401 48.4133 45.0734 47.08C44.8334 45.72 44.3268 44.6133 43.5534 43.76C42.8068 42.9067 41.6868 42.48 40.1934 42.48C38.7001 42.48 37.5668 42.9067 36.7934 43.76C36.0468 44.6133 35.5401 45.72 35.2734 47.08C35.0334 48.4133 34.9134 50.0667 34.9134 52.04C34.9134 54.0667 35.0334 55.7733 35.2734 57.16C35.5134 58.52 36.0201 59.6267 36.7934 60.48C37.5668 61.3067 38.7001 61.72 40.1934 61.72C41.6868 61.72 42.8201 61.3067 43.5934 60.48C44.3668 59.6267 44.8734 58.52 45.1134 57.16C45.3534 55.7733 45.4734 54.0667 45.4734 52.04ZM55.2528 52.04C55.2528 47.4267 56.0795 43.8133 57.7328 41.2C59.4128 38.5867 62.1861 37.28 66.0528 37.28C69.9195 37.28 72.6795 38.5867 74.3328 41.2C76.0128 43.8133 76.8528 47.4267 76.8528 52.04C76.8528 56.68 76.0128 60.32 74.3328 62.96C72.6795 65.6 69.9195 66.92 66.0528 66.92C62.1861 66.92 59.4128 65.6 57.7328 62.96C56.0795 60.32 55.2528 56.68 55.2528 52.04ZM71.3328 52.04C71.3328 50.0667 71.1995 48.4133 70.9328 47.08C70.6928 45.72 70.1861 44.6133 69.4128 43.76C68.6661 42.9067 67.5461 42.48 66.0528 42.48C64.5595 42.48 63.4261 42.9067 62.6528 43.76C61.9061 44.6133 61.3995 45.72 61.1328 47.08C60.8928 48.4133 60.7728 50.0667 60.7728 52.04C60.7728 54.0667 60.8928 55.7733 61.1328 57.16C61.3728 58.52 61.8795 59.6267 62.6528 60.48C63.4261 61.3067 64.5595 61.72 66.0528 61.72C67.5461 61.72 68.6795 61.3067 69.4528 60.48C70.2261 59.6267 70.7328 58.52 70.9728 57.16C71.2128 55.7733 71.3328 54.0667 71.3328 52.04ZM85.9922 51.56C83.3255 50.1733 81.9922 48.0267 81.9922 45.12C81.9922 43.68 82.3522 42.3733 83.0722 41.2C83.8189 40 84.9255 39.0533 86.3922 38.36C87.8855 37.64 89.6989 37.28 91.8322 37.28C93.9655 37.28 95.7655 37.64 97.2322 38.36C98.7255 39.0533 99.8322 40 100.552 41.2C101.299 42.3733 101.672 43.68 101.672 45.12C101.672 46.5867 101.312 47.88 100.592 49C99.8722 50.0933 98.9122 50.9467 97.7122 51.56C99.1789 52.2 100.326 53.1333 101.152 54.36C101.979 55.5867 102.392 57.04 102.392 58.72C102.392 60.5333 101.926 62.12 100.992 63.48C100.086 64.8133 98.8322 65.84 97.2322 66.56C95.6322 67.28 93.8322 67.64 91.8322 67.64C89.8322 67.64 88.0322 67.28 86.4322 66.56C84.8589 65.84 83.6055 64.8133 82.6722 63.48C81.7655 62.12 81.3122 60.5333 81.3122 58.72C81.3122 57.04 81.7255 55.5867 82.5522 54.36C83.3789 53.1067 84.5255 52.1733 85.9922 51.56ZM96.2322 45.92C96.2322 44.6133 95.8322 43.6 95.0322 42.88C94.2589 42.16 93.1922 41.8 91.8322 41.8C90.4989 41.8 89.4322 42.16 88.6322 42.88C87.8589 43.6 87.4722 44.6267 87.4722 45.96C87.4722 47.16 87.8722 48.12 88.6722 48.84C89.4989 49.56 90.5522 49.92 91.8322 49.92C93.1122 49.92 94.1655 49.56 94.9922 48.84C95.8189 48.0933 96.2322 47.12 96.2322 45.92ZM91.8322 54C90.3122 54 89.0722 54.3867 88.1122 55.16C87.1789 55.9333 86.7122 57.04 86.7122 58.48C86.7122 59.8133 87.1655 60.9067 88.0722 61.76C89.0055 62.5867 90.2589 63 91.8322 63C93.4055 63 94.6455 62.5733 95.5522 61.72C96.4589 60.8667 96.9122 59.7867 96.9122 58.48C96.9122 57.0667 96.4455 55.9733 95.5122 55.2C94.5789 54.4 93.3522 54 91.8322 54Z" fill="#BF9D46"/>
</g>
</g>
<defs>
<filter id="filter0_ii_483_150" x="-4" y="-4" width="114" height="112" filterUnits="userSpaceOnUse" color-interpolation-filters="sRGB">
<feFlood flood-opacity="0" result="BackgroundImageFix"/>
<feBlend mode="normal" in="SourceGraphic" in2="BackgroundImageFix" result="shape"/>
<feColorMatrix in="SourceAlpha" type="matrix" values="0 0 0 0 0 0 0 0 0 0 0 0 0 0 0 0 0 0 127 0" result="hardAlpha"/>
<feOffset dx="-7" dy="-7"/>
<feGaussianBlur stdDeviation="2"/>
<feComposite in2="hardAlpha" operator="arithmetic" k2="-1" k3="1"/>
<feColorMatrix type="matrix" values="0 0 0 0 0 0 0 0 0 0 0 0 0 0 0 0 0 0 0.25 0"/>
<feBlend mode="normal" in2="shape" result="effect1_innerShadow_483_150"/>
<feColorMatrix in="SourceAlpha" type="matrix" values="0 0 0 0 0 0 0 0 0 0 0 0 0 0 0 0 0 0 127 0" result="hardAlpha"/>
<feOffset dy="7"/>
<feGaussianBlur stdDeviation="2"/>
<feComposite in2="hardAlpha" operator="arithmetic" k2="-1" k3="1"/>
<feColorMatrix type="matrix" values="0 0 0 0 0 0 0 0 0 0 0 0 0 0 0 0 0 0 0.25 0"/>
<feBlend mode="normal" in2="effect1_innerShadow_483_150" result="effect2_innerShadow_483_150"/>
</filter>
<filter id="filter1_i_483_150" x="6.0647" y="37.2002" width="96.3274" height="34.4399" filterUnits="userSpaceOnUse" color-interpolation-filters="sRGB">
<feFlood flood-opacity="0" result="BackgroundImageFix"/>
<feBlend mode="normal" in="SourceGraphic" in2="BackgroundImageFix" result="shape"/>
<feColorMatrix in="SourceAlpha" type="matrix" values="0 0 0 0 0 0 0 0 0 0 0 0 0 0 0 0 0 0 127 0" result="hardAlpha"/>
<feOffset dy="4"/>
<feGaussianBlur stdDeviation="2"/>
<feComposite in2="hardAlpha" operator="arithmetic" k2="-1" k3="1"/>
<feColorMatrix type="matrix" values="0 0 0 0 0 0 0 0 0 0 0 0 0 0 0 0 0 0 0.25 0"/>
<feBlend mode="normal" in2="shape" result="effect1_innerShadow_483_150"/>
</filter>
</defs>
</svg>
