<svg width="110" height="104" viewBox="0 0 110 104" fill="none" xmlns="http://www.w3.org/2000/svg">
<g filter="url(#filter0_ii_483_111)">
<path d="M0 52C0 23.2812 23.2812 0 52 0H58C86.7188 0 110 23.2812 110 52C110 80.7188 86.7188 104 58 104H52C23.2812 104 0 80.7188 0 52Z" fill="white"/>
<g filter="url(#filter1_i_483_111)">
<path d="M13.7902 60.68C16.3502 58.5467 18.3902 56.7733 19.9102 55.36C21.4302 53.92 22.6968 52.4267 23.7102 50.88C24.7235 49.3333 25.2302 47.8133 25.2302 46.32C25.2302 44.96 24.9102 43.8933 24.2702 43.12C23.6302 42.3467 22.6435 41.96 21.3102 41.96C19.9768 41.96 18.9502 42.4133 18.2302 43.32C17.5102 44.2 17.1368 45.4133 17.1102 46.96H11.6702C11.7768 43.76 12.7235 41.3333 14.5102 39.68C16.3235 38.0267 18.6168 37.2 21.3902 37.2C24.4302 37.2 26.7635 38.0133 28.3902 39.64C30.0168 41.24 30.8302 43.36 30.8302 46C30.8302 48.08 30.2702 50.0667 29.1502 51.96C28.0302 53.8533 26.7502 55.5067 25.3102 56.92C23.8702 58.3067 21.9902 59.9867 19.6702 61.96H31.4702V66.6H11.7102V62.44L13.7902 60.68ZM34.9989 52.04C34.9989 47.4267 35.8256 43.8133 37.4789 41.2C39.1589 38.5867 41.9322 37.28 45.7989 37.28C49.6656 37.28 52.4256 38.5867 54.0789 41.2C55.7589 43.8133 56.5989 47.4267 56.5989 52.04C56.5989 56.68 55.7589 60.32 54.0789 62.96C52.4256 65.6 49.6656 66.92 45.7989 66.92C41.9322 66.92 39.1589 65.6 37.4789 62.96C35.8256 60.32 34.9989 56.68 34.9989 52.04ZM51.0789 52.04C51.0789 50.0667 50.9456 48.4133 50.6789 47.08C50.4389 45.72 49.9322 44.6133 49.1589 43.76C48.4122 42.9067 47.2922 42.48 45.7989 42.48C44.3056 42.48 43.1722 42.9067 42.3989 43.76C41.6522 44.6133 41.1456 45.72 40.8789 47.08C40.6389 48.4133 40.5189 50.0667 40.5189 52.04C40.5189 54.0667 40.6389 55.7733 40.8789 57.16C41.1189 58.52 41.6256 59.6267 42.3989 60.48C43.1722 61.3067 44.3056 61.72 45.7989 61.72C47.2922 61.72 48.4256 61.3067 49.1989 60.48C49.9722 59.6267 50.4789 58.52 50.7189 57.16C50.9589 55.7733 51.0789 54.0667 51.0789 52.04ZM60.1783 43V37.84H69.8183V67H64.0583V43H60.1783ZM75.3505 52.04C75.3505 47.4267 76.1771 43.8133 77.8305 41.2C79.5105 38.5867 82.2838 37.28 86.1505 37.28C90.0171 37.28 92.7771 38.5867 94.4305 41.2C96.1105 43.8133 96.9505 47.4267 96.9505 52.04C96.9505 56.68 96.1105 60.32 94.4305 62.96C92.7771 65.6 90.0171 66.92 86.1505 66.92C82.2838 66.92 79.5105 65.6 77.8305 62.96C76.1771 60.32 75.3505 56.68 75.3505 52.04ZM91.4305 52.04C91.4305 50.0667 91.2971 48.4133 91.0305 47.08C90.7905 45.72 90.2838 44.6133 89.5105 43.76C88.7638 42.9067 87.6438 42.48 86.1505 42.48C84.6571 42.48 83.5238 42.9067 82.7505 43.76C82.0038 44.6133 81.4971 45.72 81.2305 47.08C80.9905 48.4133 80.8705 50.0667 80.8705 52.04C80.8705 54.0667 80.9905 55.7733 81.2305 57.16C81.4705 58.52 81.9771 59.6267 82.7505 60.48C83.5238 61.3067 84.6571 61.72 86.1505 61.72C87.6438 61.72 88.7771 61.3067 89.5505 60.48C90.3238 59.6267 90.8305 58.52 91.0705 57.16C91.3105 55.7733 91.4305 54.0667 91.4305 52.04Z" fill="#BF9D46"/>
</g>
</g>
<defs>
<filter id="filter0_ii_483_111" x="-4" y="-4" width="114" height="112" filterUnits="userSpaceOnUse" color-interpolation-filters="sRGB">
<feFlood flood-opacity="0" result="BackgroundImageFix"/>
<feBlend mode="normal" in="SourceGraphic" in2="BackgroundImageFix" result="shape"/>
<feColorMatrix in="SourceAlpha" type="matrix" values="0 0 0 0 0 0 0 0 0 0 0 0 0 0 0 0 0 0 127 0" result="hardAlpha"/>
<feOffset dx="-7" dy="-7"/>
<feGaussianBlur stdDeviation="2"/>
<feComposite in2="hardAlpha" operator="arithmetic" k2="-1" k3="1"/>
<feColorMatrix type="matrix" values="0 0 0 0 0 0 0 0 0 0 0 0 0 0 0 0 0 0 0.25 0"/>
<feBlend mode="normal" in2="shape" result="effect1_innerShadow_483_111"/>
<feColorMatrix in="SourceAlpha" type="matrix" values="0 0 0 0 0 0 0 0 0 0 0 0 0 0 0 0 0 0 127 0" result="hardAlpha"/>
<feOffset dy="7"/>
<feGaussianBlur stdDeviation="2"/>
<feComposite in2="hardAlpha" operator="arithmetic" k2="-1" k3="1"/>
<feColorMatrix type="matrix" values="0 0 0 0 0 0 0 0 0 0 0 0 0 0 0 0 0 0 0.25 0"/>
<feBlend mode="normal" in2="effect1_innerShadow_483_111" result="effect2_innerShadow_483_111"/>
</filter>
<filter id="filter1_i_483_111" x="11.6702" y="37.2002" width="85.2803" height="33.7998" filterUnits="userSpaceOnUse" color-interpolation-filters="sRGB">
<feFlood flood-opacity="0" result="BackgroundImageFix"/>
<feBlend mode="normal" in="SourceGraphic" in2="BackgroundImageFix" result="shape"/>
<feColorMatrix in="SourceAlpha" type="matrix" values="0 0 0 0 0 0 0 0 0 0 0 0 0 0 0 0 0 0 127 0" result="hardAlpha"/>
<feOffset dy="4"/>
<feGaussianBlur stdDeviation="2"/>
<feComposite in2="hardAlpha" operator="arithmetic" k2="-1" k3="1"/>
<feColorMatrix type="matrix" values="0 0 0 0 0 0 0 0 0 0 0 0 0 0 0 0 0 0 0.25 0"/>
<feBlend mode="normal" in2="shape" result="effect1_innerShadow_483_111"/>
</filter>
</defs>
</svg>
