<svg width="110" height="104" viewBox="0 0 110 104" fill="none" xmlns="http://www.w3.org/2000/svg">
<g filter="url(#filter0_ii_458_159)">
<path d="M0 52C0 23.2812 23.2812 0 52 0H58C86.7188 0 110 23.2812 110 52C110 80.7188 86.7188 104 58 104H52C23.2812 104 0 80.7188 0 52Z" fill="#B67B3E"/>
<g filter="url(#filter1_i_458_159)">
<path d="M54.5 29C48.3384 29 43.3438 33.9579 43.3438 40.0742C43.3438 45.0189 50.6352 54.0312 53.4286 57.3025C53.9944 57.9652 55.0065 57.9652 55.5714 57.3025C58.3648 54.0312 65.6562 45.0189 65.6562 40.0742C65.6562 33.9579 60.6616 29 54.5 29ZM54.5 43.7656C52.4458 43.7656 50.7812 42.1133 50.7812 40.0742C50.7812 38.0352 52.4458 36.3828 54.5 36.3828C56.5542 36.3828 58.2188 38.0352 58.2188 40.0742C58.2188 42.1133 56.5542 43.7656 54.5 43.7656ZM30.7815 47.98C30.2557 48.1887 29.805 48.5491 29.4874 49.0145C29.1699 49.4799 29.0001 50.0291 29 50.5912V72.592C29 73.5869 30.012 74.2672 30.9426 73.898L43.1667 68.375V47.8895C42.384 46.485 41.7438 45.1174 41.2852 43.8096L30.7815 47.98ZM54.5 60.6116C53.2542 60.6116 52.0757 60.0685 51.2673 59.121C49.5266 57.0819 47.6752 54.7599 46 52.378V68.3741L63 73.9991V52.3789C61.3248 54.7599 59.4743 57.0828 57.7327 59.1219C56.9243 60.0685 55.7458 60.6116 54.5 60.6116ZM78.0574 43.1645L65.8333 48.6875V74L78.2185 69.0825C78.7444 68.8739 79.1952 68.5136 79.5127 68.0481C79.8303 67.5827 80 67.0334 80 66.4713V44.4705C80 43.4756 78.988 42.7953 78.0574 43.1645Z" fill="white"/>
</g>
</g>
<defs>
<filter id="filter0_ii_458_159" x="-4" y="-4" width="114" height="112" filterUnits="userSpaceOnUse" color-interpolation-filters="sRGB">
<feFlood flood-opacity="0" result="BackgroundImageFix"/>
<feBlend mode="normal" in="SourceGraphic" in2="BackgroundImageFix" result="shape"/>
<feColorMatrix in="SourceAlpha" type="matrix" values="0 0 0 0 0 0 0 0 0 0 0 0 0 0 0 0 0 0 127 0" result="hardAlpha"/>
<feOffset dx="-7" dy="-7"/>
<feGaussianBlur stdDeviation="2"/>
<feComposite in2="hardAlpha" operator="arithmetic" k2="-1" k3="1"/>
<feColorMatrix type="matrix" values="0 0 0 0 0 0 0 0 0 0 0 0 0 0 0 0 0 0 0.25 0"/>
<feBlend mode="normal" in2="shape" result="effect1_innerShadow_458_159"/>
<feColorMatrix in="SourceAlpha" type="matrix" values="0 0 0 0 0 0 0 0 0 0 0 0 0 0 0 0 0 0 127 0" result="hardAlpha"/>
<feOffset dy="7"/>
<feGaussianBlur stdDeviation="2"/>
<feComposite in2="hardAlpha" operator="arithmetic" k2="-1" k3="1"/>
<feColorMatrix type="matrix" values="0 0 0 0 0 0 0 0 0 0 0 0 0 0 0 0 0 0 0.25 0"/>
<feBlend mode="normal" in2="effect1_innerShadow_458_159" result="effect2_innerShadow_458_159"/>
</filter>
<filter id="filter1_i_458_159" x="29" y="29" width="51" height="49" filterUnits="userSpaceOnUse" color-interpolation-filters="sRGB">
<feFlood flood-opacity="0" result="BackgroundImageFix"/>
<feBlend mode="normal" in="SourceGraphic" in2="BackgroundImageFix" result="shape"/>
<feColorMatrix in="SourceAlpha" type="matrix" values="0 0 0 0 0 0 0 0 0 0 0 0 0 0 0 0 0 0 127 0" result="hardAlpha"/>
<feOffset dy="4"/>
<feGaussianBlur stdDeviation="2"/>
<feComposite in2="hardAlpha" operator="arithmetic" k2="-1" k3="1"/>
<feColorMatrix type="matrix" values="0 0 0 0 0 0 0 0 0 0 0 0 0 0 0 0 0 0 0.25 0"/>
<feBlend mode="normal" in2="shape" result="effect1_innerShadow_458_159"/>
</filter>
</defs>
</svg>
