<svg width="110" height="104" viewBox="0 0 110 104" fill="none" xmlns="http://www.w3.org/2000/svg">
<g filter="url(#filter0_ii_483_113)">
<path d="M0 52C0 23.2812 23.2812 0 52 0H58C86.7188 0 110 23.2812 110 52C110 80.7188 86.7188 104 58 104H52C23.2812 104 0 80.7188 0 52Z" fill="white"/>
<g filter="url(#filter1_i_483_113)">
<path d="M13.8683 60.68C16.4283 58.5467 18.4683 56.7733 19.9883 55.36C21.5083 53.92 22.7749 52.4267 23.7883 50.88C24.8016 49.3333 25.3083 47.8133 25.3083 46.32C25.3083 44.96 24.9883 43.8933 24.3483 43.12C23.7083 42.3467 22.7216 41.96 21.3883 41.96C20.0549 41.96 19.0283 42.4133 18.3083 43.32C17.5883 44.2 17.2149 45.4133 17.1883 46.96H11.7483C11.8549 43.76 12.8016 41.3333 14.5883 39.68C16.4016 38.0267 18.6949 37.2 21.4683 37.2C24.5083 37.2 26.8416 38.0133 28.4683 39.64C30.0949 41.24 30.9083 43.36 30.9083 46C30.9083 48.08 30.3483 50.0667 29.2283 51.96C28.1083 53.8533 26.8283 55.5067 25.3883 56.92C23.9483 58.3067 22.0683 59.9867 19.7483 61.96H31.5483V66.6H11.7883V62.44L13.8683 60.68ZM35.077 52.04C35.077 47.4267 35.9037 43.8133 37.557 41.2C39.237 38.5867 42.0104 37.28 45.877 37.28C49.7437 37.28 52.5037 38.5867 54.157 41.2C55.837 43.8133 56.677 47.4267 56.677 52.04C56.677 56.68 55.837 60.32 54.157 62.96C52.5037 65.6 49.7437 66.92 45.877 66.92C42.0104 66.92 39.237 65.6 37.557 62.96C35.9037 60.32 35.077 56.68 35.077 52.04ZM51.157 52.04C51.157 50.0667 51.0237 48.4133 50.757 47.08C50.517 45.72 50.0104 44.6133 49.237 43.76C48.4904 42.9067 47.3704 42.48 45.877 42.48C44.3837 42.48 43.2504 42.9067 42.477 43.76C41.7304 44.6133 41.2237 45.72 40.957 47.08C40.717 48.4133 40.597 50.0667 40.597 52.04C40.597 54.0667 40.717 55.7733 40.957 57.16C41.197 58.52 41.7037 59.6267 42.477 60.48C43.2504 61.3067 44.3837 61.72 45.877 61.72C47.3704 61.72 48.5037 61.3067 49.277 60.48C50.0504 59.6267 50.557 58.52 50.797 57.16C51.037 55.7733 51.157 54.0667 51.157 52.04ZM60.2564 43V37.84H69.8964V67H64.1364V43H60.2564ZM80.3086 51.56C77.6419 50.1733 76.3086 48.0267 76.3086 45.12C76.3086 43.68 76.6686 42.3733 77.3886 41.2C78.1353 40 79.2419 39.0533 80.7086 38.36C82.2019 37.64 84.0153 37.28 86.1486 37.28C88.2819 37.28 90.0819 37.64 91.5486 38.36C93.0419 39.0533 94.1486 40 94.8686 41.2C95.6153 42.3733 95.9886 43.68 95.9886 45.12C95.9886 46.5867 95.6286 47.88 94.9086 49C94.1886 50.0933 93.2286 50.9467 92.0286 51.56C93.4953 52.2 94.6419 53.1333 95.4686 54.36C96.2953 55.5867 96.7086 57.04 96.7086 58.72C96.7086 60.5333 96.2419 62.12 95.3086 63.48C94.4019 64.8133 93.1486 65.84 91.5486 66.56C89.9486 67.28 88.1486 67.64 86.1486 67.64C84.1486 67.64 82.3486 67.28 80.7486 66.56C79.1753 65.84 77.9219 64.8133 76.9886 63.48C76.0819 62.12 75.6286 60.5333 75.6286 58.72C75.6286 57.04 76.0419 55.5867 76.8686 54.36C77.6953 53.1067 78.8419 52.1733 80.3086 51.56ZM90.5486 45.92C90.5486 44.6133 90.1486 43.6 89.3486 42.88C88.5753 42.16 87.5086 41.8 86.1486 41.8C84.8153 41.8 83.7486 42.16 82.9486 42.88C82.1753 43.6 81.7886 44.6267 81.7886 45.96C81.7886 47.16 82.1886 48.12 82.9886 48.84C83.8153 49.56 84.8686 49.92 86.1486 49.92C87.4286 49.92 88.4819 49.56 89.3086 48.84C90.1353 48.0933 90.5486 47.12 90.5486 45.92ZM86.1486 54C84.6286 54 83.3886 54.3867 82.4286 55.16C81.4953 55.9333 81.0286 57.04 81.0286 58.48C81.0286 59.8133 81.4819 60.9067 82.3886 61.76C83.3219 62.5867 84.5753 63 86.1486 63C87.7219 63 88.9619 62.5733 89.8686 61.72C90.7753 60.8667 91.2286 59.7867 91.2286 58.48C91.2286 57.0667 90.7619 55.9733 89.8286 55.2C88.8953 54.4 87.6686 54 86.1486 54Z" fill="#BF9D46"/>
</g>
</g>
<defs>
<filter id="filter0_ii_483_113" x="-4" y="-4" width="114" height="112" filterUnits="userSpaceOnUse" color-interpolation-filters="sRGB">
<feFlood flood-opacity="0" result="BackgroundImageFix"/>
<feBlend mode="normal" in="SourceGraphic" in2="BackgroundImageFix" result="shape"/>
<feColorMatrix in="SourceAlpha" type="matrix" values="0 0 0 0 0 0 0 0 0 0 0 0 0 0 0 0 0 0 127 0" result="hardAlpha"/>
<feOffset dx="-7" dy="-7"/>
<feGaussianBlur stdDeviation="2"/>
<feComposite in2="hardAlpha" operator="arithmetic" k2="-1" k3="1"/>
<feColorMatrix type="matrix" values="0 0 0 0 0 0 0 0 0 0 0 0 0 0 0 0 0 0 0.25 0"/>
<feBlend mode="normal" in2="shape" result="effect1_innerShadow_483_113"/>
<feColorMatrix in="SourceAlpha" type="matrix" values="0 0 0 0 0 0 0 0 0 0 0 0 0 0 0 0 0 0 127 0" result="hardAlpha"/>
<feOffset dy="7"/>
<feGaussianBlur stdDeviation="2"/>
<feComposite in2="hardAlpha" operator="arithmetic" k2="-1" k3="1"/>
<feColorMatrix type="matrix" values="0 0 0 0 0 0 0 0 0 0 0 0 0 0 0 0 0 0 0.25 0"/>
<feBlend mode="normal" in2="effect1_innerShadow_483_113" result="effect2_innerShadow_483_113"/>
</filter>
<filter id="filter1_i_483_113" x="11.7483" y="37.2002" width="84.9602" height="34.4399" filterUnits="userSpaceOnUse" color-interpolation-filters="sRGB">
<feFlood flood-opacity="0" result="BackgroundImageFix"/>
<feBlend mode="normal" in="SourceGraphic" in2="BackgroundImageFix" result="shape"/>
<feColorMatrix in="SourceAlpha" type="matrix" values="0 0 0 0 0 0 0 0 0 0 0 0 0 0 0 0 0 0 127 0" result="hardAlpha"/>
<feOffset dy="4"/>
<feGaussianBlur stdDeviation="2"/>
<feComposite in2="hardAlpha" operator="arithmetic" k2="-1" k3="1"/>
<feColorMatrix type="matrix" values="0 0 0 0 0 0 0 0 0 0 0 0 0 0 0 0 0 0 0.25 0"/>
<feBlend mode="normal" in2="shape" result="effect1_innerShadow_483_113"/>
</filter>
</defs>
</svg>
