<svg width="100" height="100" viewBox="0 0 100 100" fill="none" xmlns="http://www.w3.org/2000/svg">
<rect width="100" height="100" rx="20" fill="white"/>
<g clip-path="url(#clip0_831_431)">
<path d="M55.0833 32.49L84.9489 69.7836C85.963 71.0547 86.5081 72.6181 86.5081 74.2324V77.2321C86.5081 80.6005 83.7826 83.3333 80.4234 83.3333H19.5768C16.2163 83.3333 13.4922 80.6005 13.4922 77.2321V74.2324C13.4922 72.6181 14.0408 71.0547 15.0476 69.7836L44.8028 32.49L38.7182 24.8623C37.2097 23.1082 37.6026 20.5482 39.352 19.1453C41.1013 17.742 43.6493 18.0265 44.9423 19.7805L50.0001 25.9795L54.9439 19.7805C56.351 18.0265 58.8989 17.742 60.5342 19.1453C62.3976 20.5482 62.6765 23.1082 61.168 24.8623L55.0833 32.49ZM65.1484 75.1984L50.0001 55.3314L34.8519 75.1984H65.1484Z" fill="#B67B3E"/>
</g>
<defs>
<clipPath id="clip0_831_431">
<rect width="73.0159" height="65.0794" fill="white" transform="translate(13.4922 18.2539)"/>
</clipPath>
</defs>
</svg>
