<svg width="100" height="100" viewBox="0 0 100 100" fill="none" xmlns="http://www.w3.org/2000/svg">
<rect width="100" height="100" rx="20" fill="white"/>
<path d="M63.4922 32.2419V66.9641C63.4922 87.7975 28.77 87.7975 28.77 66.9641V53.0752L35.7145 60.0197M63.4922 32.2419C65.334 32.2419 67.1004 31.5103 68.4027 30.2079C69.705 28.9056 70.4367 27.1393 70.4367 25.2975C70.4367 23.4557 69.705 21.6893 68.4027 20.387C67.1004 19.0847 65.334 18.353 63.4922 18.353C61.6505 18.353 59.8841 19.0847 58.5818 20.387C57.2794 21.6893 56.5478 23.4557 56.5478 25.2975C56.5478 27.1393 57.2794 28.9056 58.5818 30.2079C59.8841 31.5103 61.6505 32.2419 63.4922 32.2419Z" stroke="#B67B3E" stroke-width="9" stroke-linecap="round" stroke-linejoin="round"/>
</svg>
