<svg width="100" height="100" viewBox="0 0 100 100" fill="none" xmlns="http://www.w3.org/2000/svg">
<rect width="100" height="100" rx="20" fill="white"/>
<g clip-path="url(#clip0_831_433)">
<path d="M33.3073 81.5066C32.6792 84.0069 34.2083 86.5379 36.7235 87.1615C37.1065 87.2577 37.4895 87.3 37.8681 87.3C39.9709 87.3 41.8844 85.8866 42.42 83.7694L46.1238 69.0572L38.3787 61.3666L33.3073 81.5066V81.5066ZM35.4923 52.93L41.5322 29.7462C41.8536 28.5194 41.0715 27.2765 39.7831 26.969C33.344 25.4362 26.8183 29.1649 25.2086 35.2992L21.5004 49.5977C21.179 50.8245 21.9611 52.0674 23.2496 52.3749L32.5765 54.597C33.8664 54.9029 35.1709 54.1569 35.4923 52.93ZM75.4298 36.0117H73.0819C71.7847 36.0117 70.734 37.055 70.734 38.3431V40.6744H65.6347L58.7701 33.8581C57.1427 32.2393 54.9753 31.349 52.6715 31.349C48.7065 31.349 45.2654 34.0155 44.3027 37.836L40.3524 53.5318C40.1559 54.313 40.1665 55.1315 40.383 55.9074C40.5995 56.6834 41.0146 57.3905 41.588 57.9599L54.2988 70.5813V82.6387C54.2988 85.2134 56.4017 87.3014 58.9946 87.3014C61.5876 87.3014 63.6904 85.2134 63.6904 82.6387V70.5813C63.6904 68.0911 62.7131 65.7495 60.9389 63.9879L54.0685 57.1658C54.0905 57.093 54.1404 57.0361 54.1594 56.9604L57.0781 45.3663L60.3696 48.6345C61.25 49.5088 62.4445 50.0013 63.6889 50.0013H70.7326V84.9715C70.7326 86.2596 71.7832 87.3029 73.0804 87.3029H75.4283C76.7255 87.3029 77.7762 86.2596 77.7762 84.9715V38.3431C77.7777 37.055 76.727 36.0117 75.4298 36.0117ZM56.6467 26.6863C60.5369 26.6863 63.6904 23.555 63.6904 19.6923C63.6904 15.8295 60.5369 12.6982 56.6467 12.6982C52.7566 12.6982 49.6031 15.8295 49.6031 19.6923C49.6031 23.555 52.7566 26.6863 56.6467 26.6863Z" fill="#B67B3E"/>
</g>
<defs>
<clipPath id="clip0_831_433">
<rect width="56.3492" height="74.6032" fill="white" transform="translate(21.4287 12.6982)"/>
</clipPath>
</defs>
</svg>
