<svg width="828" height="281" viewBox="0 0 828 281" fill="none" xmlns="http://www.w3.org/2000/svg">
<path d="M4 30C4 13.4315 17.4315 0 34 0H79C95.5685 0 109 13.4315 109 30V51H4V30Z" fill="#A06C36"/>
<path d="M214 30C214 13.4315 227.431 0 244 0H289C305.569 0 319 13.4315 319 30V51H214V30Z" fill="#987D39"/>
<g filter="url(#filter0_dd_1289_502)">
<path d="M4 50H794C810.569 50 824 63.4315 824 80V245C824 261.569 810.569 275 794 275H34C17.4315 275 4 261.569 4 245V50Z" fill="#BA8043"/>
</g>
<path d="M109 30C109 13.4315 122.431 0 139 0H184C200.569 0 214 13.4315 214 30V51H109V30Z" fill="#BA8043"/>
<defs>
<filter id="filter0_dd_1289_502" x="0" y="42" width="828" height="239" filterUnits="userSpaceOnUse" color-interpolation-filters="sRGB">
<feFlood flood-opacity="0" result="BackgroundImageFix"/>
<feColorMatrix in="SourceAlpha" type="matrix" values="0 0 0 0 0 0 0 0 0 0 0 0 0 0 0 0 0 0 127 0" result="hardAlpha"/>
<feOffset dy="4"/>
<feGaussianBlur stdDeviation="1"/>
<feComposite in2="hardAlpha" operator="out"/>
<feColorMatrix type="matrix" values="0 0 0 0 0 0 0 0 0 0 0 0 0 0 0 0 0 0 0.25 0"/>
<feBlend mode="normal" in2="BackgroundImageFix" result="effect1_dropShadow_1289_502"/>
<feColorMatrix in="SourceAlpha" type="matrix" values="0 0 0 0 0 0 0 0 0 0 0 0 0 0 0 0 0 0 127 0" result="hardAlpha"/>
<feOffset dy="-4"/>
<feGaussianBlur stdDeviation="2"/>
<feComposite in2="hardAlpha" operator="out"/>
<feColorMatrix type="matrix" values="0 0 0 0 0 0 0 0 0 0 0 0 0 0 0 0 0 0 0.25 0"/>
<feBlend mode="normal" in2="effect1_dropShadow_1289_502" result="effect2_dropShadow_1289_502"/>
<feBlend mode="normal" in="SourceGraphic" in2="effect2_dropShadow_1289_502" result="shape"/>
</filter>
</defs>
</svg>
