<svg width="104" height="104" viewBox="0 0 104 104" fill="none" xmlns="http://www.w3.org/2000/svg">
<g filter="url(#filter0_i_1_299)">
<circle cx="52" cy="52" r="52" fill="white"/>
</g>
<g filter="url(#filter1_i_1_299)">
<path d="M55.5125 69.5H55.4C56.9188 69.5 57.8 67.7937 56.9375 66.5562L47.4125 52.9437C47.2397 52.6962 47.0097 52.494 46.742 52.3544C46.4743 52.2148 46.1769 52.1419 45.875 52.1419C45.5731 52.1419 45.2757 52.2148 45.008 52.3544C44.7403 52.494 44.5103 52.6962 44.3375 52.9437L34.8125 66.5562C33.95 67.7937 34.8313 69.5 36.35 69.5H36.2375L30.8563 77.8625C30.05 79.1 30.95 80.75 32.4313 80.75H42.125V84.5C42.125 86.5625 43.8125 88.25 45.875 88.25C47.9375 88.25 49.625 86.5625 49.625 84.5V80.75H59.3188C60.8 80.75 61.7 79.1 60.8937 77.8625L55.5125 69.5Z" fill="#BF9D46" fill-opacity="0.85"/>
<path d="M72.1437 77.8625L66.7625 69.5H66.65C68.1687 69.5 69.05 67.7937 68.1875 66.5562L58.6625 52.9437C58.4897 52.6962 58.2597 52.494 57.992 52.3544C57.7243 52.2148 57.4269 52.1419 57.125 52.1419C56.8231 52.1419 56.5257 52.2148 56.258 52.3544C55.9903 52.494 55.7603 52.6962 55.5875 52.9437L52.6437 57.1437L58.475 65.4687C58.965 66.1679 59.2022 67.0131 59.1477 67.8651C59.0932 68.7172 58.7501 69.5252 58.175 70.1562L62.4687 76.85C63.2187 78.0125 63.2562 79.475 62.6 80.675C62.5812 80.7125 62.5625 80.7312 62.5437 80.75H70.5687C72.05 80.75 72.95 79.1 72.1437 77.8625ZM53.375 84.5C53.375 86.5625 55.0625 88.25 57.125 88.25C59.1875 88.25 60.875 86.5625 60.875 84.5V82.625H53.375V84.5Z" fill="#BF9D46" fill-opacity="0.85"/>
</g>
<defs>
<filter id="filter0_i_1_299" x="0" y="0" width="104" height="108" filterUnits="userSpaceOnUse" color-interpolation-filters="sRGB">
<feFlood flood-opacity="0" result="BackgroundImageFix"/>
<feBlend mode="normal" in="SourceGraphic" in2="BackgroundImageFix" result="shape"/>
<feColorMatrix in="SourceAlpha" type="matrix" values="0 0 0 0 0 0 0 0 0 0 0 0 0 0 0 0 0 0 127 0" result="hardAlpha"/>
<feOffset dy="4"/>
<feGaussianBlur stdDeviation="2"/>
<feComposite in2="hardAlpha" operator="arithmetic" k2="-1" k3="1"/>
<feColorMatrix type="matrix" values="0 0 0 0 0 0 0 0 0 0 0 0 0 0 0 0 0 0 0.25 0"/>
<feBlend mode="normal" in2="shape" result="effect1_innerShadow_1_299"/>
</filter>
<filter id="filter1_i_1_299" x="29" y="47" width="45" height="49" filterUnits="userSpaceOnUse" color-interpolation-filters="sRGB">
<feFlood flood-opacity="0" result="BackgroundImageFix"/>
<feBlend mode="normal" in="SourceGraphic" in2="BackgroundImageFix" result="shape"/>
<feColorMatrix in="SourceAlpha" type="matrix" values="0 0 0 0 0 0 0 0 0 0 0 0 0 0 0 0 0 0 127 0" result="hardAlpha"/>
<feOffset dy="4"/>
<feGaussianBlur stdDeviation="2"/>
<feComposite in2="hardAlpha" operator="arithmetic" k2="-1" k3="1"/>
<feColorMatrix type="matrix" values="0 0 0 0 0 0 0 0 0 0 0 0 0 0 0 0 0 0 0.25 0"/>
<feBlend mode="normal" in2="shape" result="effect1_innerShadow_1_299"/>
</filter>
</defs>
</svg>
