<svg width="104" height="104" viewBox="0 0 104 104" fill="none" xmlns="http://www.w3.org/2000/svg">
<g filter="url(#filter0_i_1_260)">
<circle cx="52" cy="52" r="52" fill="white"/>
</g>
<g filter="url(#filter1_i_1_260)">
<path d="M50.9871 80.5522L42 75H69C70.6569 75 72 76.3431 72 78C72 79.6569 70.6569 81 69 81H52.5639C52.0069 81 51.461 80.845 50.9871 80.5522Z" stroke="#FAA955" stroke-opacity="0.85" stroke-width="4" stroke-linecap="round" stroke-linejoin="round"/>
<path d="M60 57C61.1046 57 62 56.1046 62 55C62 53.8954 61.1046 53 60 53C58.8954 53 58 53.8954 58 55C58 56.1046 58.8954 57 60 57Z" stroke="#FAA955" stroke-opacity="0.85" stroke-width="4" stroke-miterlimit="2"/>
<path d="M64.0001 78C68 75 66.5001 68.4336 65.5001 66.5C64.5001 64.5664 62.5494 62 62.5494 62C62.5494 62 61.5001 62 60.5001 63C57.8215 65.6786 56.0001 69 53.5001 69C51.0001 69 47.5001 67 47.5001 67" stroke="#FAA955" stroke-opacity="0.85" stroke-width="4" stroke-miterlimit="2" stroke-linecap="round" stroke-linejoin="round"/>
<path d="M50.0005 61C46.4037 56.5041 43.6152 54.4338 38.0005 54.062C36.8983 53.989 36.0001 54.8954 36.0001 56V74" stroke="#FAA955" stroke-opacity="0.85" stroke-width="4" stroke-linecap="round" stroke-linejoin="round"/>
<path d="M37 89C41 89 39.9375 87 43 87C46.0625 87 45 89 48.5 89C52 89 51 87 54.5 87C58 87 57.4375 89 60.5 89C63.5625 89 62 87 65.5 87C69 87 68.0625 89 72 89" stroke="#FAA955" stroke-opacity="0.85" stroke-width="4" stroke-linecap="round" stroke-linejoin="round"/>
</g>
<defs>
<filter id="filter0_i_1_260" x="0" y="0" width="104" height="108" filterUnits="userSpaceOnUse" color-interpolation-filters="sRGB">
<feFlood flood-opacity="0" result="BackgroundImageFix"/>
<feBlend mode="normal" in="SourceGraphic" in2="BackgroundImageFix" result="shape"/>
<feColorMatrix in="SourceAlpha" type="matrix" values="0 0 0 0 0 0 0 0 0 0 0 0 0 0 0 0 0 0 127 0" result="hardAlpha"/>
<feOffset dy="4"/>
<feGaussianBlur stdDeviation="2"/>
<feComposite in2="hardAlpha" operator="arithmetic" k2="-1" k3="1"/>
<feColorMatrix type="matrix" values="0 0 0 0 0 0 0 0 0 0 0 0 0 0 0 0 0 0 0.25 0"/>
<feBlend mode="normal" in2="shape" result="effect1_innerShadow_1_260"/>
</filter>
<filter id="filter1_i_1_260" x="30" y="46" width="48" height="52" filterUnits="userSpaceOnUse" color-interpolation-filters="sRGB">
<feFlood flood-opacity="0" result="BackgroundImageFix"/>
<feBlend mode="normal" in="SourceGraphic" in2="BackgroundImageFix" result="shape"/>
<feColorMatrix in="SourceAlpha" type="matrix" values="0 0 0 0 0 0 0 0 0 0 0 0 0 0 0 0 0 0 127 0" result="hardAlpha"/>
<feOffset dy="4"/>
<feGaussianBlur stdDeviation="2"/>
<feComposite in2="hardAlpha" operator="arithmetic" k2="-1" k3="1"/>
<feColorMatrix type="matrix" values="0 0 0 0 0 0 0 0 0 0 0 0 0 0 0 0 0 0 0.25 0"/>
<feBlend mode="normal" in2="shape" result="effect1_innerShadow_1_260"/>
</filter>
</defs>
</svg>
