<svg width="104" height="104" viewBox="0 0 104 104" fill="none" xmlns="http://www.w3.org/2000/svg">
<g filter="url(#filter0_i_1_226)">
<circle cx="52" cy="52" r="52" fill="white"/>
</g>
<g filter="url(#filter1_i_1_226)">
<path d="M52.1 51C51.08 51 50.74 51.68 50.06 52.36L30.34 84.66C30 85 30 85.68 30 86.02C30 87.72 31.36 88.4 32.38 88.4H71.82C73.18 88.4 74.2 87.72 74.2 86.02C74.2 85.34 74.2 85.34 73.86 84.66L54.48 52.36C53.8 51.68 53.12 51 52.1 51ZM52.1 56.1L63.32 74.8H60.6L55.5 69.7L52.1 74.8L48.7 69.7L43.6 74.8H40.54L52.1 56.1Z" fill="#B67B3E" fill-opacity="0.85"/>
</g>
<defs>
<filter id="filter0_i_1_226" x="0" y="0" width="104" height="108" filterUnits="userSpaceOnUse" color-interpolation-filters="sRGB">
<feFlood flood-opacity="0" result="BackgroundImageFix"/>
<feBlend mode="normal" in="SourceGraphic" in2="BackgroundImageFix" result="shape"/>
<feColorMatrix in="SourceAlpha" type="matrix" values="0 0 0 0 0 0 0 0 0 0 0 0 0 0 0 0 0 0 127 0" result="hardAlpha"/>
<feOffset dy="4"/>
<feGaussianBlur stdDeviation="2"/>
<feComposite in2="hardAlpha" operator="arithmetic" k2="-1" k3="1"/>
<feColorMatrix type="matrix" values="0 0 0 0 0 0 0 0 0 0 0 0 0 0 0 0 0 0 0.25 0"/>
<feBlend mode="normal" in2="shape" result="effect1_innerShadow_1_226"/>
</filter>
<filter id="filter1_i_1_226" x="30" y="51" width="44.2" height="41.4" filterUnits="userSpaceOnUse" color-interpolation-filters="sRGB">
<feFlood flood-opacity="0" result="BackgroundImageFix"/>
<feBlend mode="normal" in="SourceGraphic" in2="BackgroundImageFix" result="shape"/>
<feColorMatrix in="SourceAlpha" type="matrix" values="0 0 0 0 0 0 0 0 0 0 0 0 0 0 0 0 0 0 127 0" result="hardAlpha"/>
<feOffset dy="4"/>
<feGaussianBlur stdDeviation="2"/>
<feComposite in2="hardAlpha" operator="arithmetic" k2="-1" k3="1"/>
<feColorMatrix type="matrix" values="0 0 0 0 0 0 0 0 0 0 0 0 0 0 0 0 0 0 0.25 0"/>
<feBlend mode="normal" in2="shape" result="effect1_innerShadow_1_226"/>
</filter>
</defs>
</svg>
