<svg width="104" height="104" viewBox="0 0 104 104" fill="none" xmlns="http://www.w3.org/2000/svg">
<g filter="url(#filter0_i_1_294)">
<circle cx="52" cy="52" r="52" fill="white"/>
</g>
<g filter="url(#filter1_i_1_294)">
<path d="M57.2326 65.2632C59.068 65.2632 60.5576 66.7486 60.5576 68.5789V74.7368H60.55V76.6316H43.45V70.9474H43.4538V68.5789C43.4538 66.7486 44.9415 65.2632 46.7788 65.2632H57.2326ZM71 68.5789C71 67.6995 70.6497 66.8562 70.0261 66.2343C69.4026 65.6125 68.5568 65.2632 67.675 65.2632H61.2625C62.0092 66.1632 62.4576 67.3189 62.4576 68.5789V70.9474H62.45V76.6316H69.575C69.9529 76.6316 70.3154 76.4819 70.5826 76.2154C70.8499 75.9489 71 75.5874 71 75.2105V68.5789ZM41.55 74.7368H41.5538V68.5789L41.5709 68.1621C41.6529 67.0974 42.0646 66.0844 42.7489 65.2632H36.325L36.0514 65.2745C35.2198 65.343 34.4444 65.7208 33.8791 66.3329C33.3138 66.9451 33 67.7468 33 68.5789V75.2105C33 75.9949 33.6384 76.6316 34.425 76.6316H41.55V74.7368ZM52 52C53.5117 52 54.9616 52.5989 56.0305 53.6649C57.0995 54.7309 57.7 56.1767 57.7 57.6842C57.7 59.1918 57.0995 60.6376 56.0305 61.7036C54.9616 62.7696 53.5117 63.3684 52 63.3684C50.4883 63.3684 49.0384 62.7696 47.9695 61.7036C46.9005 60.6376 46.3 59.1918 46.3 57.6842C46.3 56.1767 46.9005 54.7309 47.9695 53.6649C49.0384 52.5989 50.4883 52 52 52ZM64.35 53.8947C65.6098 53.8947 66.818 54.3938 67.7088 55.2821C68.5996 56.1705 69.1 57.3753 69.1 58.6316C69.1 59.8879 68.5996 61.0927 67.7088 61.981C66.818 62.8694 65.6098 63.3684 64.35 63.3684C63.0902 63.3684 61.882 62.8694 60.9912 61.981C60.1004 61.0927 59.6 59.8879 59.6 58.6316C59.6 57.3753 60.1004 56.1705 60.9912 55.2821C61.882 54.3938 63.0902 53.8947 64.35 53.8947ZM39.65 53.8947C40.9098 53.8947 42.118 54.3938 43.0088 55.2821C43.8996 56.1705 44.4 57.3753 44.4 58.6316C44.4 59.8879 43.8996 61.0927 43.0088 61.981C42.118 62.8694 40.9098 63.3684 39.65 63.3684C38.3902 63.3684 37.182 62.8694 36.2912 61.981C35.4004 61.0927 34.9 59.8879 34.9 58.6316C34.9 57.3753 35.4004 56.1705 36.2912 55.2821C37.182 54.3938 38.3902 53.8947 39.65 53.8947ZM33 79.9474C33 79.5705 33.1501 79.209 33.4174 78.9425C33.6846 78.676 34.0471 78.5263 34.425 78.5263H69.575C69.9529 78.5263 70.3154 78.676 70.5826 78.9425C70.8499 79.209 71 79.5705 71 79.9474V80.8947C71 82.7792 70.2493 84.5864 68.9131 85.9189C67.5769 87.2514 65.7647 88 63.875 88H40.125C38.2353 88 36.4231 87.2514 35.0869 85.9189C33.7507 84.5864 33 82.7792 33 80.8947V79.9474Z" fill="#BF9D46" fill-opacity="0.85"/>
</g>
<defs>
<filter id="filter0_i_1_294" x="0" y="0" width="104" height="108" filterUnits="userSpaceOnUse" color-interpolation-filters="sRGB">
<feFlood flood-opacity="0" result="BackgroundImageFix"/>
<feBlend mode="normal" in="SourceGraphic" in2="BackgroundImageFix" result="shape"/>
<feColorMatrix in="SourceAlpha" type="matrix" values="0 0 0 0 0 0 0 0 0 0 0 0 0 0 0 0 0 0 127 0" result="hardAlpha"/>
<feOffset dy="4"/>
<feGaussianBlur stdDeviation="2"/>
<feComposite in2="hardAlpha" operator="arithmetic" k2="-1" k3="1"/>
<feColorMatrix type="matrix" values="0 0 0 0 0 0 0 0 0 0 0 0 0 0 0 0 0 0 0.25 0"/>
<feBlend mode="normal" in2="shape" result="effect1_innerShadow_1_294"/>
</filter>
<filter id="filter1_i_1_294" x="33" y="52" width="38" height="40" filterUnits="userSpaceOnUse" color-interpolation-filters="sRGB">
<feFlood flood-opacity="0" result="BackgroundImageFix"/>
<feBlend mode="normal" in="SourceGraphic" in2="BackgroundImageFix" result="shape"/>
<feColorMatrix in="SourceAlpha" type="matrix" values="0 0 0 0 0 0 0 0 0 0 0 0 0 0 0 0 0 0 127 0" result="hardAlpha"/>
<feOffset dy="4"/>
<feGaussianBlur stdDeviation="2"/>
<feComposite in2="hardAlpha" operator="arithmetic" k2="-1" k3="1"/>
<feColorMatrix type="matrix" values="0 0 0 0 0 0 0 0 0 0 0 0 0 0 0 0 0 0 0.25 0"/>
<feBlend mode="normal" in2="shape" result="effect1_innerShadow_1_294"/>
</filter>
</defs>
</svg>
