<svg width="266" height="253" viewBox="0 0 266 253" fill="none" xmlns="http://www.w3.org/2000/svg">
<g filter="url(#filter0_ii_512_474)">
<rect x="0.801514" y="0.896484" width="264.802" height="251.026" rx="25" fill="#B67B3E"/>
</g>
<path d="M102.898 43.5215C102.448 42.6548 101.823 42.0048 101.023 41.5715C100.223 41.1215 99.2977 40.8965 98.2477 40.8965C97.0977 40.8965 96.0727 41.1548 95.1727 41.6715C94.2727 42.1882 93.5644 42.9215 93.0477 43.8715C92.5477 44.8215 92.2977 45.9215 92.2977 47.1715C92.2977 48.4215 92.5477 49.5298 93.0477 50.4965C93.5644 51.4465 94.2727 52.1798 95.1727 52.6965C96.0727 53.2132 97.0977 53.4715 98.2477 53.4715C99.7977 53.4715 101.056 53.0382 102.023 52.1715C102.989 51.3048 103.581 50.1298 103.798 48.6465H97.2727V46.3715H106.848V48.5965C106.664 49.9465 106.181 51.1882 105.398 52.3215C104.631 53.4548 103.623 54.3632 102.373 55.0465C101.139 55.7132 99.7644 56.0465 98.2477 56.0465C96.6144 56.0465 95.1227 55.6715 93.7727 54.9215C92.4227 54.1548 91.3477 53.0965 90.5477 51.7465C89.7644 50.3965 89.3727 48.8715 89.3727 47.1715C89.3727 45.4715 89.7644 43.9465 90.5477 42.5965C91.3477 41.2465 92.4227 40.1965 93.7727 39.4465C95.1394 38.6798 96.631 38.2965 98.2477 38.2965C100.098 38.2965 101.739 38.7548 103.173 39.6715C104.623 40.5715 105.673 41.8548 106.323 43.5215H102.898ZM112.509 44.1215C112.925 43.4215 113.475 42.8798 114.159 42.4965C114.859 42.0965 115.684 41.8965 116.634 41.8965V44.8465H115.909C114.792 44.8465 113.942 45.1298 113.359 45.6965C112.792 46.2632 112.509 47.2465 112.509 48.6465V55.8965H109.659V42.1215H112.509V44.1215ZM125.228 56.1215C123.928 56.1215 122.753 55.8298 121.703 55.2465C120.653 54.6465 119.828 53.8132 119.228 52.7465C118.628 51.6632 118.328 50.4132 118.328 48.9965C118.328 47.5965 118.637 46.3548 119.253 45.2715C119.87 44.1882 120.712 43.3548 121.778 42.7715C122.845 42.1882 124.037 41.8965 125.353 41.8965C126.67 41.8965 127.862 42.1882 128.928 42.7715C129.995 43.3548 130.837 44.1882 131.453 45.2715C132.07 46.3548 132.378 47.5965 132.378 48.9965C132.378 50.3965 132.062 51.6382 131.428 52.7215C130.795 53.8048 129.928 54.6465 128.828 55.2465C127.745 55.8298 126.545 56.1215 125.228 56.1215ZM125.228 53.6465C125.962 53.6465 126.645 53.4715 127.278 53.1215C127.928 52.7715 128.453 52.2465 128.853 51.5465C129.253 50.8465 129.453 49.9965 129.453 48.9965C129.453 47.9965 129.262 47.1548 128.878 46.4715C128.495 45.7715 127.987 45.2465 127.353 44.8965C126.72 44.5465 126.037 44.3715 125.303 44.3715C124.57 44.3715 123.887 44.5465 123.253 44.8965C122.637 45.2465 122.145 45.7715 121.778 46.4715C121.412 47.1548 121.228 47.9965 121.228 48.9965C121.228 50.4798 121.603 51.6298 122.353 52.4465C123.12 53.2465 124.078 53.6465 125.228 53.6465ZM153.696 42.1215L149.421 55.8965H146.421L143.646 45.7215L140.871 55.8965H137.871L133.571 42.1215H136.471L139.346 53.1965L142.271 42.1215H145.246L148.046 53.1465L150.896 42.1215H153.696ZM159.151 44.4465V52.0715C159.151 52.5882 159.267 52.9632 159.501 53.1965C159.751 53.4132 160.167 53.5215 160.751 53.5215H162.501V55.8965H160.251C158.967 55.8965 157.984 55.5965 157.301 54.9965C156.617 54.3965 156.276 53.4215 156.276 52.0715V44.4465H154.651V42.1215H156.276V38.6965H159.151V42.1215H162.501V44.4465H159.151ZM172.252 41.8965C173.302 41.8965 174.236 42.1215 175.052 42.5715C175.886 43.0215 176.536 43.6882 177.002 44.5715C177.486 45.4548 177.727 46.5215 177.727 47.7715V55.8965H174.902V48.1965C174.902 46.9632 174.594 46.0215 173.977 45.3715C173.361 44.7048 172.519 44.3715 171.452 44.3715C170.386 44.3715 169.536 44.7048 168.902 45.3715C168.286 46.0215 167.977 46.9632 167.977 48.1965V55.8965H165.127V37.3965H167.977V43.7215C168.461 43.1382 169.069 42.6882 169.802 42.3715C170.552 42.0548 171.369 41.8965 172.252 41.8965Z" fill="white"/>
<path d="M183 108.178C172.459 108.178 147.827 120.721 133.621 170.896C117.275 135.121 99.7295 126.178 92.9998 126.178M183 108.178L168.648 98.8965M183 108.178L178.621 126.178M92.9998 126.178L107.594 119.709M92.9998 126.178L98.3511 141.646" stroke="white" stroke-width="10" stroke-linecap="round"/>
<defs>
<filter id="filter0_ii_512_474" x="-5.19849" y="-5.10352" width="270.802" height="257.026" filterUnits="userSpaceOnUse" color-interpolation-filters="sRGB">
<feFlood flood-opacity="0" result="BackgroundImageFix"/>
<feBlend mode="normal" in="SourceGraphic" in2="BackgroundImageFix" result="shape"/>
<feColorMatrix in="SourceAlpha" type="matrix" values="0 0 0 0 0 0 0 0 0 0 0 0 0 0 0 0 0 0 127 0" result="hardAlpha"/>
<feOffset dx="-6" dy="-6"/>
<feGaussianBlur stdDeviation="25"/>
<feComposite in2="hardAlpha" operator="arithmetic" k2="-1" k3="1"/>
<feColorMatrix type="matrix" values="0 0 0 0 0 0 0 0 0 0 0 0 0 0 0 0 0 0 0.25 0"/>
<feBlend mode="normal" in2="shape" result="effect1_innerShadow_512_474"/>
<feColorMatrix in="SourceAlpha" type="matrix" values="0 0 0 0 0 0 0 0 0 0 0 0 0 0 0 0 0 0 127 0" result="hardAlpha"/>
<feOffset dx="6" dy="6"/>
<feComposite in2="hardAlpha" operator="arithmetic" k2="-1" k3="1"/>
<feColorMatrix type="matrix" values="0 0 0 0 0 0 0 0 0 0 0 0 0 0 0 0 0 0 0.25 0"/>
<feBlend mode="normal" in2="effect1_innerShadow_512_474" result="effect2_innerShadow_512_474"/>
</filter>
</defs>
</svg>
