<svg width="265" height="252" viewBox="0 0 265 252" fill="none" xmlns="http://www.w3.org/2000/svg">
<g filter="url(#filter0_ii_458_187)">
<rect y="0.103516" width="264.802" height="251.026" rx="25" fill="white"/>
</g>
<path d="M64.4527 70.1776V72.0376H60.7527V84.0776H58.4727V72.0376H54.7527V70.1776H64.4527ZM71.5417 84.2576C70.5017 84.2576 69.5617 84.0243 68.7217 83.5576C67.8817 83.0776 67.2217 82.411 66.7417 81.5576C66.2617 80.691 66.0217 79.691 66.0217 78.5576C66.0217 77.4376 66.2684 76.4443 66.7617 75.5776C67.2551 74.711 67.9284 74.0443 68.7817 73.5776C69.6351 73.111 70.5884 72.8776 71.6417 72.8776C72.6951 72.8776 73.6484 73.111 74.5017 73.5776C75.3551 74.0443 76.0284 74.711 76.5217 75.5776C77.0151 76.4443 77.2617 77.4376 77.2617 78.5576C77.2617 79.6776 77.0084 80.671 76.5017 81.5376C75.9951 82.4043 75.3017 83.0776 74.4217 83.5576C73.5551 84.0243 72.5951 84.2576 71.5417 84.2576ZM71.5417 82.2776C72.1284 82.2776 72.6751 82.1376 73.1817 81.8576C73.7017 81.5776 74.1217 81.1576 74.4417 80.5976C74.7617 80.0376 74.9217 79.3576 74.9217 78.5576C74.9217 77.7576 74.7684 77.0843 74.4617 76.5376C74.1551 75.9776 73.7484 75.5576 73.2417 75.2776C72.7351 74.9976 72.1884 74.8576 71.6017 74.8576C71.0151 74.8576 70.4684 74.9976 69.9617 75.2776C69.4684 75.5576 69.0751 75.9776 68.7817 76.5376C68.4884 77.0843 68.3417 77.7576 68.3417 78.5576C68.3417 79.7443 68.6417 80.6643 69.2417 81.3176C69.8551 81.9576 70.6217 82.2776 71.5417 82.2776ZM83.9509 78.5176C83.9509 77.411 84.1776 76.431 84.6309 75.5776C85.0976 74.7243 85.7243 74.0643 86.5109 73.5976C87.3109 73.1176 88.1909 72.8776 89.1509 72.8776C90.0176 72.8776 90.7709 73.051 91.4109 73.3976C92.0643 73.731 92.5843 74.151 92.9709 74.6576V73.0576H95.2709V84.0776H92.9709V82.4376C92.5843 82.9576 92.0576 83.391 91.3909 83.7376C90.7243 84.0843 89.9643 84.2576 89.1109 84.2576C88.1643 84.2576 87.2976 84.0176 86.5109 83.5376C85.7243 83.0443 85.0976 82.3643 84.6309 81.4976C84.1776 80.6176 83.9509 79.6243 83.9509 78.5176ZM92.9709 78.5576C92.9709 77.7976 92.8109 77.1376 92.4909 76.5776C92.1843 76.0176 91.7776 75.591 91.2709 75.2976C90.7643 75.0043 90.2176 74.8576 89.6309 74.8576C89.0443 74.8576 88.4976 75.0043 87.9909 75.2976C87.4843 75.5776 87.0709 75.9976 86.7509 76.5576C86.4443 77.1043 86.2909 77.7576 86.2909 78.5176C86.2909 79.2776 86.4443 79.9443 86.7509 80.5176C87.0709 81.091 87.4843 81.531 87.9909 81.8376C88.5109 82.131 89.0576 82.2776 89.6309 82.2776C90.2176 82.2776 90.7643 82.131 91.2709 81.8376C91.7776 81.5443 92.1843 81.1176 92.4909 80.5576C92.8109 79.9843 92.9709 79.3176 92.9709 78.5576ZM100.546 69.2776V84.0776H98.2656V69.2776H100.546ZM118.339 73.0576L114.919 84.0776H112.519L110.299 75.9376L108.079 84.0776H105.679L102.239 73.0576H104.559L106.859 81.9176L109.199 73.0576H111.579L113.819 81.8776L116.099 73.0576H118.339ZM119.283 78.5176C119.283 77.411 119.51 76.431 119.963 75.5776C120.43 74.7243 121.056 74.0643 121.843 73.5976C122.643 73.1176 123.523 72.8776 124.483 72.8776C125.35 72.8776 126.103 73.051 126.743 73.3976C127.396 73.731 127.916 74.151 128.303 74.6576V73.0576H130.603V84.0776H128.303V82.4376C127.916 82.9576 127.39 83.391 126.723 83.7376C126.056 84.0843 125.296 84.2576 124.443 84.2576C123.496 84.2576 122.63 84.0176 121.843 83.5376C121.056 83.0443 120.43 82.3643 119.963 81.4976C119.51 80.6176 119.283 79.6243 119.283 78.5176ZM128.303 78.5576C128.303 77.7976 128.143 77.1376 127.823 76.5776C127.516 76.0176 127.11 75.591 126.603 75.2976C126.096 75.0043 125.55 74.8576 124.963 74.8576C124.376 74.8576 123.83 75.0043 123.323 75.2976C122.816 75.5776 122.403 75.9976 122.083 76.5576C121.776 77.1043 121.623 77.7576 121.623 78.5176C121.623 79.2776 121.776 79.9443 122.083 80.5176C122.403 81.091 122.816 81.531 123.323 81.8376C123.843 82.131 124.39 82.2776 124.963 82.2776C125.55 82.2776 126.096 82.131 126.603 81.8376C127.11 81.5443 127.516 81.1176 127.823 80.5576C128.143 79.9843 128.303 79.3176 128.303 78.5576ZM143.518 73.0576L136.758 89.2576H134.398L136.638 83.8976L132.298 73.0576H134.838L137.938 81.4576L141.158 73.0576H143.518ZM149.238 84.2576C148.372 84.2576 147.592 84.1043 146.898 83.7976C146.218 83.4776 145.678 83.051 145.278 82.5176C144.878 81.971 144.665 81.3643 144.638 80.6976H146.998C147.038 81.1643 147.258 81.5576 147.658 81.8776C148.072 82.1843 148.585 82.3376 149.198 82.3376C149.838 82.3376 150.332 82.2176 150.678 81.9776C151.038 81.7243 151.218 81.4043 151.218 81.0176C151.218 80.6043 151.018 80.2976 150.618 80.0976C150.232 79.8976 149.612 79.6776 148.758 79.4376C147.932 79.211 147.258 78.991 146.738 78.7776C146.218 78.5643 145.765 78.2376 145.378 77.7976C145.005 77.3576 144.818 76.7776 144.818 76.0576C144.818 75.471 144.992 74.9376 145.338 74.4576C145.685 73.9643 146.178 73.5776 146.818 73.2976C147.472 73.0176 148.218 72.8776 149.058 72.8776C150.312 72.8776 151.318 73.1976 152.078 73.8376C152.852 74.4643 153.265 75.3243 153.318 76.4176H151.038C150.998 75.9243 150.798 75.531 150.438 75.2376C150.078 74.9443 149.592 74.7976 148.978 74.7976C148.378 74.7976 147.918 74.911 147.598 75.1376C147.278 75.3643 147.118 75.6643 147.118 76.0376C147.118 76.331 147.225 76.5776 147.438 76.7776C147.652 76.9776 147.912 77.1376 148.218 77.2576C148.525 77.3643 148.978 77.5043 149.578 77.6776C150.378 77.891 151.032 78.111 151.538 78.3376C152.058 78.551 152.505 78.871 152.878 79.2976C153.252 79.7243 153.445 80.291 153.458 80.9976C153.458 81.6243 153.285 82.1843 152.938 82.6776C152.592 83.171 152.098 83.5576 151.458 83.8376C150.832 84.1176 150.092 84.2576 149.238 84.2576ZM166.817 72.8776C167.657 72.8776 168.404 73.0576 169.057 73.4176C169.724 73.7776 170.244 74.311 170.617 75.0176C171.004 75.7243 171.197 76.5776 171.197 77.5776V84.0776H168.937V77.9176C168.937 76.931 168.691 76.1776 168.197 75.6576C167.704 75.1243 167.031 74.8576 166.177 74.8576C165.324 74.8576 164.644 75.1243 164.137 75.6576C163.644 76.1776 163.397 76.931 163.397 77.9176V84.0776H161.117V69.2776H163.397V74.3376C163.784 73.871 164.271 73.511 164.857 73.2576C165.457 73.0043 166.111 72.8776 166.817 72.8776ZM173.345 78.5176C173.345 77.411 173.572 76.431 174.025 75.5776C174.492 74.7243 175.119 74.0643 175.905 73.5976C176.705 73.1176 177.585 72.8776 178.545 72.8776C179.412 72.8776 180.165 73.051 180.805 73.3976C181.459 73.731 181.979 74.151 182.365 74.6576V73.0576H184.665V84.0776H182.365V82.4376C181.979 82.9576 181.452 83.391 180.785 83.7376C180.119 84.0843 179.359 84.2576 178.505 84.2576C177.559 84.2576 176.692 84.0176 175.905 83.5376C175.119 83.0443 174.492 82.3643 174.025 81.4976C173.572 80.6176 173.345 79.6243 173.345 78.5176ZM182.365 78.5576C182.365 77.7976 182.205 77.1376 181.885 76.5776C181.579 76.0176 181.172 75.591 180.665 75.2976C180.159 75.0043 179.612 74.8576 179.025 74.8576C178.439 74.8576 177.892 75.0043 177.385 75.2976C176.879 75.5776 176.465 75.9976 176.145 76.5576C175.839 77.1043 175.685 77.7576 175.685 78.5176C175.685 79.2776 175.839 79.9443 176.145 80.5176C176.465 81.091 176.879 81.531 177.385 81.8376C177.905 82.131 178.452 82.2776 179.025 82.2776C179.612 82.2776 180.159 82.131 180.665 81.8376C181.172 81.5443 181.579 81.1176 181.885 80.5576C182.205 79.9843 182.365 79.3176 182.365 78.5576ZM191.92 82.0376L195.04 73.0576H197.46L193.26 84.0776H190.54L186.36 73.0576H188.8L191.92 82.0376ZM209.284 78.2976C209.284 78.711 209.257 79.0843 209.204 79.4176H200.784C200.85 80.2976 201.177 81.0043 201.764 81.5376C202.35 82.071 203.07 82.3376 203.924 82.3376C205.15 82.3376 206.017 81.8243 206.524 80.7976H208.984C208.65 81.811 208.044 82.6443 207.164 83.2976C206.297 83.9376 205.217 84.2576 203.924 84.2576C202.87 84.2576 201.924 84.0243 201.084 83.5576C200.257 83.0776 199.604 82.411 199.124 81.5576C198.657 80.691 198.424 79.691 198.424 78.5576C198.424 77.4243 198.65 76.431 199.104 75.5776C199.57 74.711 200.217 74.0443 201.044 73.5776C201.884 73.111 202.844 72.8776 203.924 72.8776C204.964 72.8776 205.89 73.1043 206.704 73.5576C207.517 74.011 208.15 74.651 208.604 75.4776C209.057 76.291 209.284 77.231 209.284 78.2976ZM206.904 77.5776C206.89 76.7376 206.59 76.0643 206.004 75.5576C205.417 75.051 204.69 74.7976 203.824 74.7976C203.037 74.7976 202.364 75.051 201.804 75.5576C201.244 76.051 200.91 76.7243 200.804 77.5776H206.904ZM76.6463 108.558C76.6463 107.424 76.8729 106.431 77.3263 105.578C77.7929 104.711 78.4329 104.044 79.2463 103.578C80.0596 103.111 80.9929 102.878 82.0463 102.878C83.3796 102.878 84.4796 103.198 85.3463 103.838C86.2263 104.464 86.8196 105.364 87.1263 106.538H84.6663C84.4663 105.991 84.1463 105.564 83.7063 105.258C83.2663 104.951 82.7129 104.798 82.0463 104.798C81.1129 104.798 80.3663 105.131 79.8063 105.798C79.2596 106.451 78.9863 107.371 78.9863 108.558C78.9863 109.744 79.2596 110.671 79.8063 111.338C80.3663 112.004 81.1129 112.338 82.0463 112.338C83.3663 112.338 84.2396 111.758 84.6663 110.598H87.1263C86.8063 111.718 86.2063 112.611 85.3263 113.278C84.4463 113.931 83.3529 114.258 82.0463 114.258C80.9929 114.258 80.0596 114.024 79.2463 113.558C78.4329 113.078 77.7929 112.411 77.3263 111.558C76.8729 110.691 76.6463 109.691 76.6463 108.558ZM99.3784 103.058V114.078H97.0984V112.778C96.7384 113.231 96.2651 113.591 95.6784 113.858C95.1051 114.111 94.4918 114.238 93.8384 114.238C92.9718 114.238 92.1918 114.058 91.4984 113.698C90.8184 113.338 90.2784 112.804 89.8784 112.098C89.4918 111.391 89.2984 110.538 89.2984 109.538V103.058H91.5584V109.198C91.5584 110.184 91.8051 110.944 92.2984 111.478C92.7918 111.998 93.4651 112.258 94.3184 112.258C95.1718 112.258 95.8451 111.998 96.3384 111.478C96.8451 110.944 97.0984 110.184 97.0984 109.198V103.058H99.3784ZM106.387 114.258C105.52 114.258 104.74 114.104 104.047 113.798C103.367 113.478 102.827 113.051 102.427 112.518C102.027 111.971 101.813 111.364 101.787 110.698H104.147C104.187 111.164 104.407 111.558 104.807 111.878C105.22 112.184 105.733 112.338 106.347 112.338C106.987 112.338 107.48 112.218 107.827 111.978C108.187 111.724 108.367 111.404 108.367 111.018C108.367 110.604 108.167 110.298 107.767 110.098C107.38 109.898 106.76 109.678 105.907 109.438C105.08 109.211 104.407 108.991 103.887 108.778C103.367 108.564 102.913 108.238 102.527 107.798C102.153 107.358 101.967 106.778 101.967 106.058C101.967 105.471 102.14 104.938 102.487 104.458C102.833 103.964 103.327 103.578 103.967 103.298C104.62 103.018 105.367 102.878 106.207 102.878C107.46 102.878 108.467 103.198 109.227 103.838C110 104.464 110.413 105.324 110.467 106.418H108.187C108.147 105.924 107.947 105.531 107.587 105.238C107.227 104.944 106.74 104.798 106.127 104.798C105.527 104.798 105.067 104.911 104.747 105.138C104.427 105.364 104.267 105.664 104.267 106.038C104.267 106.331 104.373 106.578 104.587 106.778C104.8 106.978 105.06 107.138 105.367 107.258C105.673 107.364 106.127 107.504 106.727 107.678C107.527 107.891 108.18 108.111 108.687 108.338C109.207 108.551 109.653 108.871 110.027 109.298C110.4 109.724 110.593 110.291 110.607 110.998C110.607 111.624 110.433 112.184 110.087 112.678C109.74 113.171 109.247 113.558 108.607 113.838C107.98 114.118 107.24 114.258 106.387 114.258ZM115.73 104.918V111.018C115.73 111.431 115.824 111.731 116.01 111.918C116.21 112.091 116.544 112.178 117.01 112.178H118.41V114.078H116.61C115.584 114.078 114.797 113.838 114.25 113.358C113.704 112.878 113.43 112.098 113.43 111.018V104.918H112.13V103.058H113.43V100.318H115.73V103.058H118.41V104.918H115.73ZM125.292 114.258C124.252 114.258 123.312 114.024 122.472 113.558C121.632 113.078 120.972 112.411 120.492 111.558C120.012 110.691 119.772 109.691 119.772 108.558C119.772 107.438 120.018 106.444 120.512 105.578C121.005 104.711 121.678 104.044 122.532 103.578C123.385 103.111 124.338 102.878 125.392 102.878C126.445 102.878 127.398 103.111 128.252 103.578C129.105 104.044 129.778 104.711 130.272 105.578C130.765 106.444 131.012 107.438 131.012 108.558C131.012 109.678 130.758 110.671 130.252 111.538C129.745 112.404 129.052 113.078 128.172 113.558C127.305 114.024 126.345 114.258 125.292 114.258ZM125.292 112.278C125.878 112.278 126.425 112.138 126.932 111.858C127.452 111.578 127.872 111.158 128.192 110.598C128.512 110.038 128.672 109.358 128.672 108.558C128.672 107.758 128.518 107.084 128.212 106.538C127.905 105.978 127.498 105.558 126.992 105.278C126.485 104.998 125.938 104.858 125.352 104.858C124.765 104.858 124.218 104.998 123.712 105.278C123.218 105.558 122.825 105.978 122.532 106.538C122.238 107.084 122.092 107.758 122.092 108.558C122.092 109.744 122.392 110.664 122.992 111.318C123.605 111.958 124.372 112.278 125.292 112.278ZM146.606 102.878C147.472 102.878 148.246 103.058 148.926 103.418C149.619 103.778 150.159 104.311 150.546 105.018C150.946 105.724 151.146 106.578 151.146 107.578V114.078H148.886V107.918C148.886 106.931 148.639 106.178 148.146 105.658C147.652 105.124 146.979 104.858 146.126 104.858C145.272 104.858 144.592 105.124 144.086 105.658C143.592 106.178 143.346 106.931 143.346 107.918V114.078H141.086V107.918C141.086 106.931 140.839 106.178 140.346 105.658C139.852 105.124 139.179 104.858 138.326 104.858C137.472 104.858 136.792 105.124 136.286 105.658C135.792 106.178 135.546 106.931 135.546 107.918V114.078H133.266V103.058H135.546V104.318C135.919 103.864 136.392 103.511 136.966 103.258C137.539 103.004 138.152 102.878 138.806 102.878C139.686 102.878 140.472 103.064 141.166 103.438C141.859 103.811 142.392 104.351 142.766 105.058C143.099 104.391 143.619 103.864 144.326 103.478C145.032 103.078 145.792 102.878 146.606 102.878ZM164.147 108.298C164.147 108.711 164.12 109.084 164.067 109.418H155.647C155.714 110.298 156.04 111.004 156.627 111.538C157.214 112.071 157.934 112.338 158.787 112.338C160.014 112.338 160.88 111.824 161.387 110.798H163.847C163.514 111.811 162.907 112.644 162.027 113.298C161.16 113.938 160.08 114.258 158.787 114.258C157.734 114.258 156.787 114.024 155.947 113.558C155.12 113.078 154.467 112.411 153.987 111.558C153.52 110.691 153.287 109.691 153.287 108.558C153.287 107.424 153.514 106.431 153.967 105.578C154.434 104.711 155.08 104.044 155.907 103.578C156.747 103.111 157.707 102.878 158.787 102.878C159.827 102.878 160.754 103.104 161.567 103.558C162.38 104.011 163.014 104.651 163.467 105.478C163.92 106.291 164.147 107.231 164.147 108.298ZM161.767 107.578C161.754 106.738 161.454 106.064 160.867 105.558C160.28 105.051 159.554 104.798 158.687 104.798C157.9 104.798 157.227 105.051 156.667 105.558C156.107 106.051 155.774 106.724 155.667 107.578H161.767ZM168.671 104.658C169.004 104.098 169.444 103.664 169.991 103.358C170.551 103.038 171.211 102.878 171.971 102.878V105.238H171.391C170.497 105.238 169.817 105.464 169.351 105.918C168.897 106.371 168.671 107.158 168.671 108.278V114.078H166.391V103.058H168.671V104.658ZM174.426 100.178H176.906L174.806 104.938H173.206L174.426 100.178ZM182.91 114.258C182.043 114.258 181.263 114.104 180.57 113.798C179.89 113.478 179.35 113.051 178.95 112.518C178.55 111.971 178.337 111.364 178.31 110.698H180.67C180.71 111.164 180.93 111.558 181.33 111.878C181.743 112.184 182.257 112.338 182.87 112.338C183.51 112.338 184.003 112.218 184.35 111.978C184.71 111.724 184.89 111.404 184.89 111.018C184.89 110.604 184.69 110.298 184.29 110.098C183.903 109.898 183.283 109.678 182.43 109.438C181.603 109.211 180.93 108.991 180.41 108.778C179.89 108.564 179.437 108.238 179.05 107.798C178.677 107.358 178.49 106.778 178.49 106.058C178.49 105.471 178.663 104.938 179.01 104.458C179.357 103.964 179.85 103.578 180.49 103.298C181.143 103.018 181.89 102.878 182.73 102.878C183.983 102.878 184.99 103.198 185.75 103.838C186.523 104.464 186.937 105.324 186.99 106.418H184.71C184.67 105.924 184.47 105.531 184.11 105.238C183.75 104.944 183.263 104.798 182.65 104.798C182.05 104.798 181.59 104.911 181.27 105.138C180.95 105.364 180.79 105.664 180.79 106.038C180.79 106.331 180.897 106.578 181.11 106.778C181.323 106.978 181.583 107.138 181.89 107.258C182.197 107.364 182.65 107.504 183.25 107.678C184.05 107.891 184.703 108.111 185.21 108.338C185.73 108.551 186.177 108.871 186.55 109.298C186.923 109.724 187.117 110.291 187.13 110.998C187.13 111.624 186.957 112.184 186.61 112.678C186.263 113.171 185.77 113.558 185.13 113.838C184.503 114.118 183.763 114.258 182.91 114.258ZM44.3359 144.258C43.4693 144.258 42.6893 144.104 41.9959 143.798C41.3159 143.478 40.7759 143.051 40.3759 142.518C39.9759 141.971 39.7626 141.364 39.7359 140.698H42.0959C42.1359 141.164 42.3559 141.558 42.7559 141.878C43.1693 142.184 43.6826 142.338 44.2959 142.338C44.9359 142.338 45.4293 142.218 45.7759 141.978C46.1359 141.724 46.3159 141.404 46.3159 141.018C46.3159 140.604 46.1159 140.298 45.7159 140.098C45.3293 139.898 44.7093 139.678 43.8559 139.438C43.0293 139.211 42.3559 138.991 41.8359 138.778C41.3159 138.564 40.8626 138.238 40.4759 137.798C40.1026 137.358 39.9159 136.778 39.9159 136.058C39.9159 135.471 40.0893 134.938 40.4359 134.458C40.7826 133.964 41.2759 133.578 41.9159 133.298C42.5693 133.018 43.3159 132.878 44.1559 132.878C45.4093 132.878 46.4159 133.198 47.1759 133.838C47.9493 134.464 48.3626 135.324 48.4159 136.418H46.1359C46.0959 135.924 45.8959 135.531 45.5359 135.238C45.1759 134.944 44.6893 134.798 44.0759 134.798C43.4759 134.798 43.0159 134.911 42.6959 135.138C42.3759 135.364 42.2159 135.664 42.2159 136.038C42.2159 136.331 42.3226 136.578 42.5359 136.778C42.7493 136.978 43.0093 137.138 43.3159 137.258C43.6226 137.364 44.0759 137.504 44.6759 137.678C45.4759 137.891 46.1293 138.111 46.6359 138.338C47.1559 138.551 47.6026 138.871 47.9759 139.298C48.3493 139.724 48.5426 140.291 48.5559 140.998C48.5559 141.624 48.3826 142.184 48.0359 142.678C47.6893 143.171 47.1959 143.558 46.5559 143.838C45.9293 144.118 45.1893 144.258 44.3359 144.258ZM50.2595 138.518C50.2595 137.411 50.4862 136.431 50.9395 135.578C51.4062 134.724 52.0329 134.064 52.8195 133.598C53.6195 133.118 54.4995 132.878 55.4595 132.878C56.3262 132.878 57.0795 133.051 57.7195 133.398C58.3729 133.731 58.8929 134.151 59.2795 134.658V133.058H61.5795V144.078H59.2795V142.438C58.8929 142.958 58.3662 143.391 57.6995 143.738C57.0329 144.084 56.2729 144.258 55.4195 144.258C54.4729 144.258 53.6062 144.018 52.8195 143.538C52.0329 143.044 51.4062 142.364 50.9395 141.498C50.4862 140.618 50.2595 139.624 50.2595 138.518ZM59.2795 138.558C59.2795 137.798 59.1195 137.138 58.7995 136.578C58.4929 136.018 58.0862 135.591 57.5795 135.298C57.0729 135.004 56.5262 134.858 55.9395 134.858C55.3529 134.858 54.8062 135.004 54.2995 135.298C53.7929 135.578 53.3795 135.998 53.0595 136.558C52.7529 137.104 52.5995 137.758 52.5995 138.518C52.5995 139.278 52.7529 139.944 53.0595 140.518C53.3795 141.091 53.7929 141.531 54.2995 141.838C54.8195 142.131 55.3662 142.278 55.9395 142.278C56.5262 142.278 57.0729 142.131 57.5795 141.838C58.0862 141.544 58.4929 141.118 58.7995 140.558C59.1195 139.984 59.2795 139.318 59.2795 138.558ZM67.2342 134.918V141.018C67.2342 141.431 67.3276 141.731 67.5142 141.918C67.7142 142.091 68.0476 142.178 68.5142 142.178H69.9142V144.078H68.1142C67.0876 144.078 66.3009 143.838 65.7542 143.358C65.2076 142.878 64.9342 142.098 64.9342 141.018V134.918H63.6342V133.058H64.9342V130.318H67.2342V133.058H69.9142V134.918H67.2342ZM73.1756 131.598C72.7623 131.598 72.4156 131.458 72.1356 131.178C71.8556 130.898 71.7156 130.551 71.7156 130.138C71.7156 129.724 71.8556 129.378 72.1356 129.098C72.4156 128.818 72.7623 128.678 73.1756 128.678C73.5756 128.678 73.9156 128.818 74.1956 129.098C74.4756 129.378 74.6156 129.724 74.6156 130.138C74.6156 130.551 74.4756 130.898 74.1956 131.178C73.9156 131.458 73.5756 131.598 73.1756 131.598ZM74.2956 133.058V144.078H72.0156V133.058H74.2956ZM81.2891 144.258C80.4224 144.258 79.6424 144.104 78.9491 143.798C78.2691 143.478 77.7291 143.051 77.3291 142.518C76.9291 141.971 76.7157 141.364 76.6891 140.698H79.0491C79.0891 141.164 79.3091 141.558 79.7091 141.878C80.1224 142.184 80.6357 142.338 81.2491 142.338C81.8891 142.338 82.3824 142.218 82.7291 141.978C83.0891 141.724 83.2691 141.404 83.2691 141.018C83.2691 140.604 83.0691 140.298 82.6691 140.098C82.2824 139.898 81.6624 139.678 80.8091 139.438C79.9824 139.211 79.3091 138.991 78.7891 138.778C78.2691 138.564 77.8157 138.238 77.4291 137.798C77.0557 137.358 76.8691 136.778 76.8691 136.058C76.8691 135.471 77.0424 134.938 77.3891 134.458C77.7357 133.964 78.2291 133.578 78.8691 133.298C79.5224 133.018 80.2691 132.878 81.1091 132.878C82.3624 132.878 83.3691 133.198 84.1291 133.838C84.9024 134.464 85.3157 135.324 85.3691 136.418H83.0891C83.0491 135.924 82.8491 135.531 82.4891 135.238C82.1291 134.944 81.6424 134.798 81.0291 134.798C80.4291 134.798 79.9691 134.911 79.6491 135.138C79.3291 135.364 79.1691 135.664 79.1691 136.038C79.1691 136.331 79.2757 136.578 79.4891 136.778C79.7024 136.978 79.9624 137.138 80.2691 137.258C80.5757 137.364 81.0291 137.504 81.6291 137.678C82.4291 137.891 83.0824 138.111 83.5891 138.338C84.1091 138.551 84.5557 138.871 84.9291 139.298C85.3024 139.724 85.4957 140.291 85.5091 140.998C85.5091 141.624 85.3357 142.184 84.9891 142.678C84.6424 143.171 84.1491 143.558 83.5091 143.838C82.8824 144.118 82.1424 144.258 81.2891 144.258ZM92.5927 134.918H90.5527V144.078H88.2527V134.918H86.9527V133.058H88.2527V132.278C88.2527 131.011 88.586 130.091 89.2527 129.518C89.9327 128.931 90.9927 128.638 92.4327 128.638V130.538C91.7393 130.538 91.2527 130.671 90.9727 130.938C90.6927 131.191 90.5527 131.638 90.5527 132.278V133.058H92.5927V134.918ZM93.8533 138.518C93.8533 137.411 94.0799 136.431 94.5333 135.578C94.9999 134.724 95.6266 134.064 96.4133 133.598C97.2133 133.118 98.0933 132.878 99.0533 132.878C99.9199 132.878 100.673 133.051 101.313 133.398C101.967 133.731 102.487 134.151 102.873 134.658V133.058H105.173V144.078H102.873V142.438C102.487 142.958 101.96 143.391 101.293 143.738C100.627 144.084 99.8666 144.258 99.0133 144.258C98.0666 144.258 97.1999 144.018 96.4133 143.538C95.6266 143.044 94.9999 142.364 94.5333 141.498C94.0799 140.618 93.8533 139.624 93.8533 138.518ZM102.873 138.558C102.873 137.798 102.713 137.138 102.393 136.578C102.087 136.018 101.68 135.591 101.173 135.298C100.667 135.004 100.12 134.858 99.5333 134.858C98.9466 134.858 98.3999 135.004 97.8933 135.298C97.3866 135.578 96.9733 135.998 96.6533 136.558C96.3466 137.104 96.1933 137.758 96.1933 138.518C96.1933 139.278 96.3466 139.944 96.6533 140.518C96.9733 141.091 97.3866 141.531 97.8933 141.838C98.4133 142.131 98.9599 142.278 99.5333 142.278C100.12 142.278 100.667 142.131 101.173 141.838C101.68 141.544 102.087 141.118 102.393 140.558C102.713 139.984 102.873 139.318 102.873 138.558ZM107.408 138.558C107.408 137.424 107.635 136.431 108.088 135.578C108.555 134.711 109.195 134.044 110.008 133.578C110.821 133.111 111.755 132.878 112.808 132.878C114.141 132.878 115.241 133.198 116.108 133.838C116.988 134.464 117.581 135.364 117.888 136.538H115.428C115.228 135.991 114.908 135.564 114.468 135.258C114.028 134.951 113.475 134.798 112.808 134.798C111.875 134.798 111.128 135.131 110.568 135.798C110.021 136.451 109.748 137.371 109.748 138.558C109.748 139.744 110.021 140.671 110.568 141.338C111.128 142.004 111.875 142.338 112.808 142.338C114.128 142.338 115.001 141.758 115.428 140.598H117.888C117.568 141.718 116.968 142.611 116.088 143.278C115.208 143.931 114.115 144.258 112.808 144.258C111.755 144.258 110.821 144.024 110.008 143.558C109.195 143.078 108.555 142.411 108.088 141.558C107.635 140.691 107.408 139.691 107.408 138.558ZM122.82 134.918V141.018C122.82 141.431 122.913 141.731 123.1 141.918C123.3 142.091 123.633 142.178 124.1 142.178H125.5V144.078H123.7C122.673 144.078 121.887 143.838 121.34 143.358C120.793 142.878 120.52 142.098 120.52 141.018V134.918H119.22V133.058H120.52V130.318H122.82V133.058H125.5V134.918H122.82ZM128.762 131.598C128.348 131.598 128.002 131.458 127.722 131.178C127.442 130.898 127.302 130.551 127.302 130.138C127.302 129.724 127.442 129.378 127.722 129.098C128.002 128.818 128.348 128.678 128.762 128.678C129.162 128.678 129.502 128.818 129.782 129.098C130.062 129.378 130.202 129.724 130.202 130.138C130.202 130.551 130.062 130.898 129.782 131.178C129.502 131.458 129.162 131.598 128.762 131.598ZM129.882 133.058V144.078H127.602V133.058H129.882ZM137.655 144.258C136.615 144.258 135.675 144.024 134.835 143.558C133.995 143.078 133.335 142.411 132.855 141.558C132.375 140.691 132.135 139.691 132.135 138.558C132.135 137.438 132.382 136.444 132.875 135.578C133.368 134.711 134.042 134.044 134.895 133.578C135.748 133.111 136.702 132.878 137.755 132.878C138.808 132.878 139.762 133.111 140.615 133.578C141.468 134.044 142.142 134.711 142.635 135.578C143.128 136.444 143.375 137.438 143.375 138.558C143.375 139.678 143.122 140.671 142.615 141.538C142.108 142.404 141.415 143.078 140.535 143.558C139.668 144.024 138.708 144.258 137.655 144.258ZM137.655 142.278C138.242 142.278 138.788 142.138 139.295 141.858C139.815 141.578 140.235 141.158 140.555 140.598C140.875 140.038 141.035 139.358 141.035 138.558C141.035 137.758 140.882 137.084 140.575 136.538C140.268 135.978 139.862 135.558 139.355 135.278C138.848 134.998 138.302 134.858 137.715 134.858C137.128 134.858 136.582 134.998 136.075 135.278C135.582 135.558 135.188 135.978 134.895 136.538C134.602 137.084 134.455 137.758 134.455 138.558C134.455 139.744 134.755 140.664 135.355 141.318C135.968 141.958 136.735 142.278 137.655 142.278ZM151.189 132.878C152.056 132.878 152.829 133.058 153.509 133.418C154.202 133.778 154.742 134.311 155.129 135.018C155.516 135.724 155.709 136.578 155.709 137.578V144.078H153.449V137.918C153.449 136.931 153.202 136.178 152.709 135.658C152.216 135.124 151.542 134.858 150.689 134.858C149.836 134.858 149.156 135.124 148.649 135.658C148.156 136.178 147.909 136.931 147.909 137.918V144.078H145.629V133.058H147.909V134.318C148.282 133.864 148.756 133.511 149.329 133.258C149.916 133.004 150.536 132.878 151.189 132.878ZM163.053 138.518C163.053 137.411 163.279 136.431 163.733 135.578C164.199 134.724 164.826 134.064 165.613 133.598C166.413 133.118 167.293 132.878 168.253 132.878C169.119 132.878 169.873 133.051 170.513 133.398C171.166 133.731 171.686 134.151 172.073 134.658V133.058H174.373V144.078H172.073V142.438C171.686 142.958 171.159 143.391 170.493 143.738C169.826 144.084 169.066 144.258 168.213 144.258C167.266 144.258 166.399 144.018 165.613 143.538C164.826 143.044 164.199 142.364 163.733 141.498C163.279 140.618 163.053 139.624 163.053 138.518ZM172.073 138.558C172.073 137.798 171.913 137.138 171.593 136.578C171.286 136.018 170.879 135.591 170.373 135.298C169.866 135.004 169.319 134.858 168.733 134.858C168.146 134.858 167.599 135.004 167.093 135.298C166.586 135.578 166.173 135.998 165.853 136.558C165.546 137.104 165.393 137.758 165.393 138.518C165.393 139.278 165.546 139.944 165.853 140.518C166.173 141.091 166.586 141.531 167.093 141.838C167.613 142.131 168.159 142.278 168.733 142.278C169.319 142.278 169.866 142.131 170.373 141.838C170.879 141.544 171.286 141.118 171.593 140.558C171.913 139.984 172.073 139.318 172.073 138.558ZM181.367 144.258C180.501 144.258 179.721 144.104 179.027 143.798C178.347 143.478 177.807 143.051 177.407 142.518C177.007 141.971 176.794 141.364 176.767 140.698H179.127C179.167 141.164 179.387 141.558 179.787 141.878C180.201 142.184 180.714 142.338 181.327 142.338C181.967 142.338 182.461 142.218 182.807 141.978C183.167 141.724 183.347 141.404 183.347 141.018C183.347 140.604 183.147 140.298 182.747 140.098C182.361 139.898 181.741 139.678 180.887 139.438C180.061 139.211 179.387 138.991 178.867 138.778C178.347 138.564 177.894 138.238 177.507 137.798C177.134 137.358 176.947 136.778 176.947 136.058C176.947 135.471 177.121 134.938 177.467 134.458C177.814 133.964 178.307 133.578 178.947 133.298C179.601 133.018 180.347 132.878 181.187 132.878C182.441 132.878 183.447 133.198 184.207 133.838C184.981 134.464 185.394 135.324 185.447 136.418H183.167C183.127 135.924 182.927 135.531 182.567 135.238C182.207 134.944 181.721 134.798 181.107 134.798C180.507 134.798 180.047 134.911 179.727 135.138C179.407 135.364 179.247 135.664 179.247 136.038C179.247 136.331 179.354 136.578 179.567 136.778C179.781 136.978 180.041 137.138 180.347 137.258C180.654 137.364 181.107 137.504 181.707 137.678C182.507 137.891 183.161 138.111 183.667 138.338C184.187 138.551 184.634 138.871 185.007 139.298C185.381 139.724 185.574 140.291 185.587 140.998C185.587 141.624 185.414 142.184 185.067 142.678C184.721 143.171 184.227 143.558 183.587 143.838C182.961 144.118 182.221 144.258 181.367 144.258ZM198.026 144.258C196.986 144.258 196.046 144.024 195.206 143.558C194.366 143.078 193.706 142.411 193.226 141.558C192.746 140.691 192.506 139.691 192.506 138.558C192.506 137.438 192.753 136.444 193.246 135.578C193.739 134.711 194.413 134.044 195.266 133.578C196.119 133.111 197.073 132.878 198.126 132.878C199.179 132.878 200.133 133.111 200.986 133.578C201.839 134.044 202.513 134.711 203.006 135.578C203.499 136.444 203.746 137.438 203.746 138.558C203.746 139.678 203.493 140.671 202.986 141.538C202.479 142.404 201.786 143.078 200.906 143.558C200.039 144.024 199.079 144.258 198.026 144.258ZM198.026 142.278C198.613 142.278 199.159 142.138 199.666 141.858C200.186 141.578 200.606 141.158 200.926 140.598C201.246 140.038 201.406 139.358 201.406 138.558C201.406 137.758 201.253 137.084 200.946 136.538C200.639 135.978 200.233 135.558 199.726 135.278C199.219 134.998 198.673 134.858 198.086 134.858C197.499 134.858 196.953 134.998 196.446 135.278C195.953 135.558 195.559 135.978 195.266 136.538C194.973 137.084 194.826 137.758 194.826 138.558C194.826 139.744 195.126 140.664 195.726 141.318C196.339 141.958 197.106 142.278 198.026 142.278ZM215.98 133.058V144.078H213.7V142.778C213.34 143.231 212.867 143.591 212.28 143.858C211.707 144.111 211.093 144.238 210.44 144.238C209.573 144.238 208.793 144.058 208.1 143.698C207.42 143.338 206.88 142.804 206.48 142.098C206.093 141.391 205.9 140.538 205.9 139.538V133.058H208.16V139.198C208.16 140.184 208.407 140.944 208.9 141.478C209.393 141.998 210.067 142.258 210.92 142.258C211.773 142.258 212.447 141.998 212.94 141.478C213.447 140.944 213.7 140.184 213.7 139.198V133.058H215.98ZM221.268 134.658C221.602 134.098 222.042 133.664 222.588 133.358C223.148 133.038 223.808 132.878 224.568 132.878V135.238H223.988C223.095 135.238 222.415 135.464 221.948 135.918C221.495 136.371 221.268 137.158 221.268 138.278V144.078H218.988V133.058H221.268V134.658ZM92.7527 174.258C91.7127 174.258 90.7727 174.024 89.9327 173.558C89.0927 173.078 88.4327 172.411 87.9527 171.558C87.4727 170.691 87.2327 169.691 87.2327 168.558C87.2327 167.438 87.4793 166.444 87.9727 165.578C88.466 164.711 89.1393 164.044 89.9927 163.578C90.846 163.111 91.7993 162.878 92.8527 162.878C93.906 162.878 94.8593 163.111 95.7127 163.578C96.566 164.044 97.2393 164.711 97.7327 165.578C98.226 166.444 98.4727 167.438 98.4727 168.558C98.4727 169.678 98.2193 170.671 97.7127 171.538C97.206 172.404 96.5127 173.078 95.6327 173.558C94.766 174.024 93.806 174.258 92.7527 174.258ZM92.7527 172.278C93.3393 172.278 93.886 172.138 94.3927 171.858C94.9127 171.578 95.3327 171.158 95.6527 170.598C95.9727 170.038 96.1327 169.358 96.1327 168.558C96.1327 167.758 95.9793 167.084 95.6727 166.538C95.366 165.978 94.9593 165.558 94.4527 165.278C93.946 164.998 93.3993 164.858 92.8127 164.858C92.226 164.858 91.6793 164.998 91.1727 165.278C90.6793 165.558 90.286 165.978 89.9927 166.538C89.6993 167.084 89.5527 167.758 89.5527 168.558C89.5527 169.744 89.8527 170.664 90.4527 171.318C91.066 171.958 91.8327 172.278 92.7527 172.278ZM110.707 163.058V174.078H108.427V172.778C108.067 173.231 107.593 173.591 107.007 173.858C106.433 174.111 105.82 174.238 105.167 174.238C104.3 174.238 103.52 174.058 102.827 173.698C102.147 173.338 101.607 172.804 101.207 172.098C100.82 171.391 100.627 170.538 100.627 169.538V163.058H102.887V169.198C102.887 170.184 103.133 170.944 103.627 171.478C104.12 171.998 104.793 172.258 105.647 172.258C106.5 172.258 107.173 171.998 107.667 171.478C108.173 170.944 108.427 170.184 108.427 169.198V163.058H110.707ZM116.375 164.918V171.018C116.375 171.431 116.468 171.731 116.655 171.918C116.855 172.091 117.188 172.178 117.655 172.178H119.055V174.078H117.255C116.228 174.078 115.442 173.838 114.895 173.358C114.348 172.878 114.075 172.098 114.075 171.018V164.918H112.775V163.058H114.075V160.318H116.375V163.058H119.055V164.918H116.375ZM120.396 168.558C120.396 167.424 120.623 166.431 121.076 165.578C121.543 164.711 122.183 164.044 122.996 163.578C123.81 163.111 124.743 162.878 125.796 162.878C127.13 162.878 128.23 163.198 129.096 163.838C129.976 164.464 130.57 165.364 130.876 166.538H128.416C128.216 165.991 127.896 165.564 127.456 165.258C127.016 164.951 126.463 164.798 125.796 164.798C124.863 164.798 124.116 165.131 123.556 165.798C123.01 166.451 122.736 167.371 122.736 168.558C122.736 169.744 123.01 170.671 123.556 171.338C124.116 172.004 124.863 172.338 125.796 172.338C127.116 172.338 127.99 171.758 128.416 170.598H130.876C130.556 171.718 129.956 172.611 129.076 173.278C128.196 173.931 127.103 174.258 125.796 174.258C124.743 174.258 123.81 174.024 122.996 173.558C122.183 173.078 121.543 172.411 121.076 171.558C120.623 170.691 120.396 169.691 120.396 168.558ZM137.928 174.258C136.888 174.258 135.948 174.024 135.108 173.558C134.268 173.078 133.608 172.411 133.128 171.558C132.648 170.691 132.408 169.691 132.408 168.558C132.408 167.438 132.655 166.444 133.148 165.578C133.642 164.711 134.315 164.044 135.168 163.578C136.022 163.111 136.975 162.878 138.028 162.878C139.082 162.878 140.035 163.111 140.888 163.578C141.742 164.044 142.415 164.711 142.908 165.578C143.402 166.444 143.648 167.438 143.648 168.558C143.648 169.678 143.395 170.671 142.888 171.538C142.382 172.404 141.688 173.078 140.808 173.558C139.942 174.024 138.982 174.258 137.928 174.258ZM137.928 172.278C138.515 172.278 139.062 172.138 139.568 171.858C140.088 171.578 140.508 171.158 140.828 170.598C141.148 170.038 141.308 169.358 141.308 168.558C141.308 167.758 141.155 167.084 140.848 166.538C140.542 165.978 140.135 165.558 139.628 165.278C139.122 164.998 138.575 164.858 137.988 164.858C137.402 164.858 136.855 164.998 136.348 165.278C135.855 165.558 135.462 165.978 135.168 166.538C134.875 167.084 134.728 167.758 134.728 168.558C134.728 169.744 135.028 170.664 135.628 171.318C136.242 171.958 137.008 172.278 137.928 172.278ZM159.242 162.878C160.109 162.878 160.882 163.058 161.562 163.418C162.256 163.778 162.796 164.311 163.182 165.018C163.582 165.724 163.782 166.578 163.782 167.578V174.078H161.522V167.918C161.522 166.931 161.276 166.178 160.782 165.658C160.289 165.124 159.616 164.858 158.762 164.858C157.909 164.858 157.229 165.124 156.722 165.658C156.229 166.178 155.982 166.931 155.982 167.918V174.078H153.722V167.918C153.722 166.931 153.476 166.178 152.982 165.658C152.489 165.124 151.816 164.858 150.962 164.858C150.109 164.858 149.429 165.124 148.922 165.658C148.429 166.178 148.182 166.931 148.182 167.918V174.078H145.902V163.058H148.182V164.318C148.556 163.864 149.029 163.511 149.602 163.258C150.176 163.004 150.789 162.878 151.442 162.878C152.322 162.878 153.109 163.064 153.802 163.438C154.496 163.811 155.029 164.351 155.402 165.058C155.736 164.391 156.256 163.864 156.962 163.478C157.669 163.078 158.429 162.878 159.242 162.878ZM176.784 168.298C176.784 168.711 176.757 169.084 176.704 169.418H168.284C168.35 170.298 168.677 171.004 169.264 171.538C169.85 172.071 170.57 172.338 171.424 172.338C172.65 172.338 173.517 171.824 174.024 170.798H176.484C176.15 171.811 175.544 172.644 174.664 173.298C173.797 173.938 172.717 174.258 171.424 174.258C170.37 174.258 169.424 174.024 168.584 173.558C167.757 173.078 167.104 172.411 166.624 171.558C166.157 170.691 165.924 169.691 165.924 168.558C165.924 167.424 166.15 166.431 166.604 165.578C167.07 164.711 167.717 164.044 168.544 163.578C169.384 163.111 170.344 162.878 171.424 162.878C172.464 162.878 173.39 163.104 174.204 163.558C175.017 164.011 175.65 164.651 176.104 165.478C176.557 166.291 176.784 167.231 176.784 168.298ZM174.404 167.578C174.39 166.738 174.09 166.064 173.504 165.558C172.917 165.051 172.19 164.798 171.324 164.798C170.537 164.798 169.864 165.051 169.304 165.558C168.744 166.051 168.41 166.724 168.304 167.578H174.404Z" fill="#FAA955"/>
<defs>
<filter id="filter0_ii_458_187" x="-6" y="-5.89648" width="270.802" height="257.026" filterUnits="userSpaceOnUse" color-interpolation-filters="sRGB">
<feFlood flood-opacity="0" result="BackgroundImageFix"/>
<feBlend mode="normal" in="SourceGraphic" in2="BackgroundImageFix" result="shape"/>
<feColorMatrix in="SourceAlpha" type="matrix" values="0 0 0 0 0 0 0 0 0 0 0 0 0 0 0 0 0 0 127 0" result="hardAlpha"/>
<feOffset dx="-6" dy="-6"/>
<feGaussianBlur stdDeviation="25"/>
<feComposite in2="hardAlpha" operator="arithmetic" k2="-1" k3="1"/>
<feColorMatrix type="matrix" values="0 0 0 0 0 0 0 0 0 0 0 0 0 0 0 0 0 0 0.25 0"/>
<feBlend mode="normal" in2="shape" result="effect1_innerShadow_458_187"/>
<feColorMatrix in="SourceAlpha" type="matrix" values="0 0 0 0 0 0 0 0 0 0 0 0 0 0 0 0 0 0 127 0" result="hardAlpha"/>
<feOffset dx="6" dy="6"/>
<feComposite in2="hardAlpha" operator="arithmetic" k2="-1" k3="1"/>
<feColorMatrix type="matrix" values="0 0 0 0 0 0 0 0 0 0 0 0 0 0 0 0 0 0 0.25 0"/>
<feBlend mode="normal" in2="effect1_innerShadow_458_187" result="effect2_innerShadow_458_187"/>
</filter>
</defs>
</svg>
