<svg width="265" height="252" viewBox="0 0 265 252" fill="none" xmlns="http://www.w3.org/2000/svg">
<g filter="url(#filter0_ii_458_202)">
<rect width="264.802" height="251.026" rx="25" fill="white"/>
</g>
<path d="M43.9937 90.0482V91.9082H40.2937V103.948H38.0137V91.9082H34.2937V90.0482H43.9937ZM51.0827 104.128C50.0427 104.128 49.1027 103.895 48.2627 103.428C47.4227 102.948 46.7627 102.282 46.2827 101.428C45.8027 100.562 45.5627 99.5616 45.5627 98.4282C45.5627 97.3082 45.8094 96.3149 46.3027 95.4482C46.7961 94.5816 47.4694 93.9149 48.3227 93.4482C49.1761 92.9816 50.1294 92.7482 51.1827 92.7482C52.2361 92.7482 53.1894 92.9816 54.0427 93.4482C54.8961 93.9149 55.5694 94.5816 56.0627 95.4482C56.5561 96.3149 56.8027 97.3082 56.8027 98.4282C56.8027 99.5482 56.5494 100.542 56.0427 101.408C55.5361 102.275 54.8427 102.948 53.9627 103.428C53.0961 103.895 52.1361 104.128 51.0827 104.128ZM51.0827 102.148C51.6694 102.148 52.2161 102.008 52.7227 101.728C53.2427 101.448 53.6627 101.028 53.9827 100.468C54.3027 99.9082 54.4627 99.2282 54.4627 98.4282C54.4627 97.6282 54.3094 96.9549 54.0027 96.4082C53.6961 95.8482 53.2894 95.4282 52.7827 95.1482C52.2761 94.8682 51.7294 94.7282 51.1427 94.7282C50.5561 94.7282 50.0094 94.8682 49.5027 95.1482C49.0094 95.4282 48.6161 95.8482 48.3227 96.4082C48.0294 96.9549 47.8827 97.6282 47.8827 98.4282C47.8827 99.6149 48.1827 100.535 48.7827 101.188C49.3961 101.828 50.1627 102.148 51.0827 102.148ZM68.692 92.7482C69.5453 92.7482 70.2986 92.9216 70.952 93.2682C71.6186 93.6016 72.1386 94.0216 72.512 94.5282V92.9282H74.812V104.128C74.812 105.142 74.5986 106.042 74.172 106.828C73.7453 107.628 73.1253 108.255 72.312 108.708C71.512 109.162 70.552 109.388 69.432 109.388C67.9386 109.388 66.6986 109.035 65.712 108.328C64.7253 107.635 64.1653 106.688 64.032 105.488H66.292C66.4653 106.062 66.832 106.522 67.392 106.868C67.9653 107.228 68.6453 107.408 69.432 107.408C70.352 107.408 71.092 107.128 71.652 106.568C72.2253 106.008 72.512 105.195 72.512 104.128V102.288C72.1253 102.808 71.5986 103.248 70.932 103.608C70.2786 103.955 69.532 104.128 68.692 104.128C67.732 104.128 66.852 103.888 66.052 103.408C65.2653 102.915 64.6386 102.235 64.172 101.368C63.7186 100.488 63.492 99.4949 63.492 98.3882C63.492 97.2816 63.7186 96.3016 64.172 95.4482C64.6386 94.5949 65.2653 93.9349 66.052 93.4682C66.852 92.9882 67.732 92.7482 68.692 92.7482ZM72.512 98.4282C72.512 97.6682 72.352 97.0082 72.032 96.4482C71.7253 95.8882 71.3186 95.4616 70.812 95.1682C70.3053 94.8749 69.7586 94.7282 69.172 94.7282C68.5853 94.7282 68.0386 94.8749 67.532 95.1682C67.0253 95.4482 66.612 95.8682 66.292 96.4282C65.9853 96.9749 65.832 97.6282 65.832 98.3882C65.832 99.1482 65.9853 99.8149 66.292 100.388C66.612 100.962 67.0253 101.402 67.532 101.708C68.052 102.002 68.5986 102.148 69.172 102.148C69.7586 102.148 70.3053 102.002 70.812 101.708C71.3186 101.415 71.7253 100.988 72.032 100.428C72.352 99.8549 72.512 99.1882 72.512 98.4282ZM80.0866 94.5282C80.42 93.9682 80.86 93.5349 81.4066 93.2282C81.9666 92.9082 82.6266 92.7482 83.3866 92.7482V95.1082H82.8066C81.9133 95.1082 81.2333 95.3349 80.7666 95.7882C80.3133 96.2416 80.0866 97.0282 80.0866 98.1482V103.948H77.8066V92.9282H80.0866V94.5282ZM90.2624 104.128C89.2224 104.128 88.2824 103.895 87.4424 103.428C86.6024 102.948 85.9424 102.282 85.4624 101.428C84.9824 100.562 84.7424 99.5616 84.7424 98.4282C84.7424 97.3082 84.9891 96.3149 85.4824 95.4482C85.9758 94.5816 86.6491 93.9149 87.5024 93.4482C88.3558 92.9816 89.3091 92.7482 90.3624 92.7482C91.4158 92.7482 92.3691 92.9816 93.2224 93.4482C94.0758 93.9149 94.7491 94.5816 95.2424 95.4482C95.7358 96.3149 95.9824 97.3082 95.9824 98.4282C95.9824 99.5482 95.7291 100.542 95.2224 101.408C94.7158 102.275 94.0224 102.948 93.1424 103.428C92.2758 103.895 91.3158 104.128 90.2624 104.128ZM90.2624 102.148C90.8491 102.148 91.3958 102.008 91.9024 101.728C92.4224 101.448 92.8424 101.028 93.1624 100.468C93.4824 99.9082 93.6424 99.2282 93.6424 98.4282C93.6424 97.6282 93.4891 96.9549 93.1824 96.4082C92.8758 95.8482 92.4691 95.4282 91.9624 95.1482C91.4558 94.8682 90.9091 94.7282 90.3224 94.7282C89.7358 94.7282 89.1891 94.8682 88.6824 95.1482C88.1891 95.4282 87.7958 95.8482 87.5024 96.4082C87.2091 96.9549 87.0624 97.6282 87.0624 98.4282C87.0624 99.6149 87.3624 100.535 87.9624 101.188C88.5758 101.828 89.3424 102.148 90.2624 102.148ZM113.036 92.9282L109.616 103.948H107.216L104.996 95.8082L102.776 103.948H100.376L96.9363 92.9282H99.2563L101.556 101.788L103.896 92.9282H106.276L108.516 101.748L110.796 92.9282H113.036ZM122.216 94.5682C122.602 94.0349 123.129 93.6016 123.796 93.2682C124.476 92.9216 125.229 92.7482 126.056 92.7482C127.029 92.7482 127.909 92.9816 128.696 93.4482C129.482 93.9149 130.102 94.5816 130.556 95.4482C131.009 96.3016 131.236 97.2816 131.236 98.3882C131.236 99.4949 131.009 100.488 130.556 101.368C130.102 102.235 129.476 102.915 128.676 103.408C127.889 103.888 127.016 104.128 126.056 104.128C125.202 104.128 124.442 103.962 123.776 103.628C123.122 103.295 122.602 102.868 122.216 102.348V103.948H119.936V89.1482H122.216V94.5682ZM128.916 98.3882C128.916 97.6282 128.756 96.9749 128.436 96.4282C128.129 95.8682 127.716 95.4482 127.196 95.1682C126.689 94.8749 126.142 94.7282 125.556 94.7282C124.982 94.7282 124.436 94.8749 123.916 95.1682C123.409 95.4616 122.996 95.8882 122.676 96.4482C122.369 97.0082 122.216 97.6682 122.216 98.4282C122.216 99.1882 122.369 99.8549 122.676 100.428C122.996 100.988 123.409 101.415 123.916 101.708C124.436 102.002 124.982 102.148 125.556 102.148C126.142 102.148 126.689 102.002 127.196 101.708C127.716 101.402 128.129 100.962 128.436 100.388C128.756 99.8149 128.916 99.1482 128.916 98.3882ZM138.27 104.128C137.23 104.128 136.29 103.895 135.45 103.428C134.61 102.948 133.95 102.282 133.47 101.428C132.99 100.562 132.75 99.5616 132.75 98.4282C132.75 97.3082 132.997 96.3149 133.49 95.4482C133.984 94.5816 134.657 93.9149 135.51 93.4482C136.364 92.9816 137.317 92.7482 138.37 92.7482C139.424 92.7482 140.377 92.9816 141.23 93.4482C142.084 93.9149 142.757 94.5816 143.25 95.4482C143.744 96.3149 143.99 97.3082 143.99 98.4282C143.99 99.5482 143.737 100.542 143.23 101.408C142.724 102.275 142.03 102.948 141.15 103.428C140.284 103.895 139.324 104.128 138.27 104.128ZM138.27 102.148C138.857 102.148 139.404 102.008 139.91 101.728C140.43 101.448 140.85 101.028 141.17 100.468C141.49 99.9082 141.65 99.2282 141.65 98.4282C141.65 97.6282 141.497 96.9549 141.19 96.4082C140.884 95.8482 140.477 95.4282 139.97 95.1482C139.464 94.8682 138.917 94.7282 138.33 94.7282C137.744 94.7282 137.197 94.8682 136.69 95.1482C136.197 95.4282 135.804 95.8482 135.51 96.4082C135.217 96.9549 135.07 97.6282 135.07 98.4282C135.07 99.6149 135.37 100.535 135.97 101.188C136.584 101.828 137.35 102.148 138.27 102.148ZM148.904 94.7882V100.888C148.904 101.302 148.997 101.602 149.184 101.788C149.384 101.962 149.717 102.048 150.184 102.048H151.584V103.948H149.784C148.757 103.948 147.971 103.708 147.424 103.228C146.877 102.748 146.604 101.968 146.604 100.888V94.7882H145.304V92.9282H146.604V90.1882H148.904V92.9282H151.584V94.7882H148.904ZM159.386 92.7482C160.226 92.7482 160.972 92.9282 161.626 93.2882C162.292 93.6482 162.812 94.1816 163.186 94.8882C163.572 95.5949 163.766 96.4482 163.766 97.4482V103.948H161.506V97.7882C161.506 96.8016 161.259 96.0482 160.766 95.5282C160.272 94.9949 159.599 94.7282 158.746 94.7282C157.892 94.7282 157.212 94.9949 156.706 95.5282C156.212 96.0482 155.966 96.8016 155.966 97.7882V103.948H153.686V89.1482H155.966V94.2082C156.352 93.7416 156.839 93.3816 157.426 93.1282C158.026 92.8749 158.679 92.7482 159.386 92.7482ZM173.029 91.4682C172.616 91.4682 172.269 91.3282 171.989 91.0482C171.709 90.7682 171.569 90.4216 171.569 90.0082C171.569 89.5949 171.709 89.2482 171.989 88.9682C172.269 88.6882 172.616 88.5482 173.029 88.5482C173.429 88.5482 173.769 88.6882 174.049 88.9682C174.329 89.2482 174.469 89.5949 174.469 90.0082C174.469 90.4216 174.329 90.7682 174.049 91.0482C173.769 91.3282 173.429 91.4682 173.029 91.4682ZM174.149 92.9282V103.948H171.869V92.9282H174.149ZM182.703 92.7482C183.569 92.7482 184.343 92.9282 185.023 93.2882C185.716 93.6482 186.256 94.1816 186.643 94.8882C187.029 95.5949 187.223 96.4482 187.223 97.4482V103.948H184.963V97.7882C184.963 96.8016 184.716 96.0482 184.223 95.5282C183.729 94.9949 183.056 94.7282 182.203 94.7282C181.349 94.7282 180.669 94.9949 180.163 95.5282C179.669 96.0482 179.423 96.8016 179.423 97.7882V103.948H177.143V92.9282H179.423V94.1882C179.796 93.7349 180.269 93.3816 180.843 93.1282C181.429 92.8749 182.049 92.7482 182.703 92.7482ZM194.131 104.128C193.264 104.128 192.484 103.975 191.791 103.668C191.111 103.348 190.571 102.922 190.171 102.388C189.771 101.842 189.558 101.235 189.531 100.568H191.891C191.931 101.035 192.151 101.428 192.551 101.748C192.964 102.055 193.478 102.208 194.091 102.208C194.731 102.208 195.224 102.088 195.571 101.848C195.931 101.595 196.111 101.275 196.111 100.888C196.111 100.475 195.911 100.168 195.511 99.9682C195.124 99.7682 194.504 99.5482 193.651 99.3082C192.824 99.0816 192.151 98.8616 191.631 98.6482C191.111 98.4349 190.658 98.1082 190.271 97.6682C189.898 97.2282 189.711 96.6482 189.711 95.9282C189.711 95.3416 189.884 94.8082 190.231 94.3282C190.578 93.8349 191.071 93.4482 191.711 93.1682C192.364 92.8882 193.111 92.7482 193.951 92.7482C195.204 92.7482 196.211 93.0682 196.971 93.7082C197.744 94.3349 198.158 95.1949 198.211 96.2882H195.931C195.891 95.7949 195.691 95.4016 195.331 95.1082C194.971 94.8149 194.484 94.6682 193.871 94.6682C193.271 94.6682 192.811 94.7816 192.491 95.0082C192.171 95.2349 192.011 95.5349 192.011 95.9082C192.011 96.2016 192.118 96.4482 192.331 96.6482C192.544 96.8482 192.804 97.0082 193.111 97.1282C193.418 97.2349 193.871 97.3749 194.471 97.5482C195.271 97.7616 195.924 97.9816 196.431 98.2082C196.951 98.4216 197.398 98.7416 197.771 99.1682C198.144 99.5949 198.338 100.162 198.351 100.868C198.351 101.495 198.178 102.055 197.831 102.548C197.484 103.042 196.991 103.428 196.351 103.708C195.724 103.988 194.984 104.128 194.131 104.128ZM201.974 91.4682C201.561 91.4682 201.214 91.3282 200.934 91.0482C200.654 90.7682 200.514 90.4216 200.514 90.0082C200.514 89.5949 200.654 89.2482 200.934 88.9682C201.214 88.6882 201.561 88.5482 201.974 88.5482C202.374 88.5482 202.714 88.6882 202.994 88.9682C203.274 89.2482 203.414 89.5949 203.414 90.0082C203.414 90.4216 203.274 90.7682 202.994 91.0482C202.714 91.3282 202.374 91.4682 201.974 91.4682ZM203.094 92.9282V103.948H200.814V92.9282H203.094ZM205.328 98.3882C205.328 97.2816 205.555 96.3016 206.008 95.4482C206.475 94.5949 207.101 93.9349 207.888 93.4682C208.688 92.9882 209.575 92.7482 210.548 92.7482C211.268 92.7482 211.975 92.9082 212.668 93.2282C213.375 93.5349 213.935 93.9482 214.348 94.4682V89.1482H216.648V103.948H214.348V102.288C213.975 102.822 213.455 103.262 212.788 103.608C212.135 103.955 211.381 104.128 210.528 104.128C209.568 104.128 208.688 103.888 207.888 103.408C207.101 102.915 206.475 102.235 206.008 101.368C205.555 100.488 205.328 99.4949 205.328 98.3882ZM214.348 98.4282C214.348 97.6682 214.188 97.0082 213.868 96.4482C213.561 95.8882 213.155 95.4616 212.648 95.1682C212.141 94.8749 211.595 94.7282 211.008 94.7282C210.421 94.7282 209.875 94.8749 209.368 95.1682C208.861 95.4482 208.448 95.8682 208.128 96.4282C207.821 96.9749 207.668 97.6282 207.668 98.3882C207.668 99.1482 207.821 99.8149 208.128 100.388C208.448 100.962 208.861 101.402 209.368 101.708C209.888 102.002 210.435 102.148 211.008 102.148C211.595 102.148 212.141 102.002 212.648 101.708C213.155 101.415 213.561 100.988 213.868 100.428C214.188 99.8549 214.348 99.1882 214.348 98.4282ZM229.743 98.1682C229.743 98.5816 229.716 98.9549 229.663 99.2882H221.243C221.309 100.168 221.636 100.875 222.223 101.408C222.809 101.942 223.529 102.208 224.383 102.208C225.609 102.208 226.476 101.695 226.983 100.668H229.443C229.109 101.682 228.503 102.515 227.623 103.168C226.756 103.808 225.676 104.128 224.383 104.128C223.329 104.128 222.383 103.895 221.543 103.428C220.716 102.948 220.063 102.282 219.583 101.428C219.116 100.562 218.883 99.5616 218.883 98.4282C218.883 97.2949 219.109 96.3016 219.563 95.4482C220.029 94.5816 220.676 93.9149 221.503 93.4482C222.343 92.9816 223.303 92.7482 224.383 92.7482C225.423 92.7482 226.349 92.9749 227.163 93.4282C227.976 93.8816 228.609 94.5216 229.063 95.3482C229.516 96.1616 229.743 97.1016 229.743 98.1682ZM227.363 97.4482C227.349 96.6082 227.049 95.9349 226.463 95.4282C225.876 94.9216 225.149 94.6682 224.283 94.6682C223.496 94.6682 222.823 94.9216 222.263 95.4282C221.703 95.9216 221.369 96.5949 221.263 97.4482H227.363ZM53.5896 128.388C53.5896 127.282 53.8163 126.302 54.2696 125.448C54.7363 124.595 55.3629 123.935 56.1496 123.468C56.9496 122.988 57.8296 122.748 58.7896 122.748C59.6563 122.748 60.4096 122.922 61.0496 123.268C61.7029 123.602 62.2229 124.022 62.6096 124.528V122.928H64.9096V133.948H62.6096V132.308C62.2229 132.828 61.6963 133.262 61.0296 133.608C60.3629 133.955 59.6029 134.128 58.7496 134.128C57.8029 134.128 56.9363 133.888 56.1496 133.408C55.3629 132.915 54.7363 132.235 54.2696 131.368C53.8163 130.488 53.5896 129.495 53.5896 128.388ZM62.6096 128.428C62.6096 127.668 62.4496 127.008 62.1296 126.448C61.8229 125.888 61.4163 125.462 60.9096 125.168C60.4029 124.875 59.8563 124.728 59.2696 124.728C58.6829 124.728 58.1363 124.875 57.6296 125.168C57.1229 125.448 56.7096 125.868 56.3896 126.428C56.0829 126.975 55.9296 127.628 55.9296 128.388C55.9296 129.148 56.0829 129.815 56.3896 130.388C56.7096 130.962 57.1229 131.402 57.6296 131.708C58.1496 132.002 58.6963 132.148 59.2696 132.148C59.8563 132.148 60.4029 132.002 60.9096 131.708C61.4163 131.415 61.8229 130.988 62.1296 130.428C62.4496 129.855 62.6096 129.188 62.6096 128.428ZM73.4643 122.748C74.331 122.748 75.1043 122.928 75.7843 123.288C76.4776 123.648 77.0176 124.182 77.4043 124.888C77.791 125.595 77.9843 126.448 77.9843 127.448V133.948H75.7243V127.788C75.7243 126.802 75.4776 126.048 74.9843 125.528C74.491 124.995 73.8176 124.728 72.9643 124.728C72.111 124.728 71.431 124.995 70.9243 125.528C70.431 126.048 70.1843 126.802 70.1843 127.788V133.948H67.9043V122.928H70.1843V124.188C70.5576 123.735 71.031 123.382 71.6043 123.128C72.191 122.875 72.811 122.748 73.4643 122.748ZM80.1326 128.388C80.1326 127.282 80.3592 126.302 80.8126 125.448C81.2792 124.595 81.9059 123.935 82.6926 123.468C83.4926 122.988 84.3792 122.748 85.3526 122.748C86.0726 122.748 86.7792 122.908 87.4726 123.228C88.1792 123.535 88.7392 123.948 89.1526 124.468V119.148H91.4526V133.948H89.1526V132.288C88.7792 132.822 88.2592 133.262 87.5926 133.608C86.9392 133.955 86.1859 134.128 85.3326 134.128C84.3726 134.128 83.4926 133.888 82.6926 133.408C81.9059 132.915 81.2792 132.235 80.8126 131.368C80.3592 130.488 80.1326 129.495 80.1326 128.388ZM89.1526 128.428C89.1526 127.668 88.9926 127.008 88.6726 126.448C88.3659 125.888 87.9592 125.462 87.4526 125.168C86.9459 124.875 86.3992 124.728 85.8126 124.728C85.2259 124.728 84.6792 124.875 84.1726 125.168C83.6659 125.448 83.2526 125.868 82.9326 126.428C82.6259 126.975 82.4726 127.628 82.4726 128.388C82.4726 129.148 82.6259 129.815 82.9326 130.388C83.2526 130.962 83.6659 131.402 84.1726 131.708C84.6926 132.002 85.2392 132.148 85.8126 132.148C86.3992 132.148 86.9459 132.002 87.4526 131.708C87.9592 131.415 88.3659 130.988 88.6726 130.428C88.9926 129.855 89.1526 129.188 89.1526 128.428ZM104.423 134.128C103.383 134.128 102.443 133.895 101.603 133.428C100.763 132.948 100.103 132.282 99.6226 131.428C99.1426 130.562 98.9026 129.562 98.9026 128.428C98.9026 127.308 99.1492 126.315 99.6426 125.448C100.136 124.582 100.809 123.915 101.663 123.448C102.516 122.982 103.469 122.748 104.523 122.748C105.576 122.748 106.529 122.982 107.383 123.448C108.236 123.915 108.909 124.582 109.403 125.448C109.896 126.315 110.143 127.308 110.143 128.428C110.143 129.548 109.889 130.542 109.383 131.408C108.876 132.275 108.183 132.948 107.303 133.428C106.436 133.895 105.476 134.128 104.423 134.128ZM104.423 132.148C105.009 132.148 105.556 132.008 106.063 131.728C106.583 131.448 107.003 131.028 107.323 130.468C107.643 129.908 107.803 129.228 107.803 128.428C107.803 127.628 107.649 126.955 107.343 126.408C107.036 125.848 106.629 125.428 106.123 125.148C105.616 124.868 105.069 124.728 104.483 124.728C103.896 124.728 103.349 124.868 102.843 125.148C102.349 125.428 101.956 125.848 101.663 126.408C101.369 126.955 101.223 127.628 101.223 128.428C101.223 129.615 101.523 130.535 102.123 131.188C102.736 131.828 103.503 132.148 104.423 132.148ZM122.376 122.928V133.948H120.096V132.648C119.736 133.102 119.263 133.462 118.676 133.728C118.103 133.982 117.49 134.108 116.836 134.108C115.97 134.108 115.19 133.928 114.496 133.568C113.816 133.208 113.276 132.675 112.876 131.968C112.49 131.262 112.296 130.408 112.296 129.408V122.928H114.556V129.068C114.556 130.055 114.803 130.815 115.296 131.348C115.79 131.868 116.463 132.128 117.316 132.128C118.17 132.128 118.843 131.868 119.336 131.348C119.843 130.815 120.096 130.055 120.096 129.068V122.928H122.376ZM128.045 124.788V130.888C128.045 131.302 128.138 131.602 128.325 131.788C128.525 131.962 128.858 132.048 129.325 132.048H130.725V133.948H128.925C127.898 133.948 127.111 133.708 126.565 133.228C126.018 132.748 125.745 131.968 125.745 130.888V124.788H124.445V122.928H125.745V120.188H128.045V122.928H130.725V124.788H128.045ZM136.826 134.128C135.96 134.128 135.18 133.975 134.486 133.668C133.806 133.348 133.266 132.922 132.866 132.388C132.466 131.842 132.253 131.235 132.226 130.568H134.586C134.626 131.035 134.846 131.428 135.246 131.748C135.66 132.055 136.173 132.208 136.786 132.208C137.426 132.208 137.92 132.088 138.266 131.848C138.626 131.595 138.806 131.275 138.806 130.888C138.806 130.475 138.606 130.168 138.206 129.968C137.82 129.768 137.2 129.548 136.346 129.308C135.52 129.082 134.846 128.862 134.326 128.648C133.806 128.435 133.353 128.108 132.966 127.668C132.593 127.228 132.406 126.648 132.406 125.928C132.406 125.342 132.58 124.808 132.926 124.328C133.273 123.835 133.766 123.448 134.406 123.168C135.06 122.888 135.806 122.748 136.646 122.748C137.9 122.748 138.906 123.068 139.666 123.708C140.44 124.335 140.853 125.195 140.906 126.288H138.626C138.586 125.795 138.386 125.402 138.026 125.108C137.666 124.815 137.18 124.668 136.566 124.668C135.966 124.668 135.506 124.782 135.186 125.008C134.866 125.235 134.706 125.535 134.706 125.908C134.706 126.202 134.813 126.448 135.026 126.648C135.24 126.848 135.5 127.008 135.806 127.128C136.113 127.235 136.566 127.375 137.166 127.548C137.966 127.762 138.62 127.982 139.126 128.208C139.646 128.422 140.093 128.742 140.466 129.168C140.84 129.595 141.033 130.162 141.046 130.868C141.046 131.495 140.873 132.055 140.526 132.548C140.18 133.042 139.686 133.428 139.046 133.708C138.42 133.988 137.68 134.128 136.826 134.128ZM144.67 121.468C144.256 121.468 143.91 121.328 143.63 121.048C143.35 120.768 143.21 120.422 143.21 120.008C143.21 119.595 143.35 119.248 143.63 118.968C143.91 118.688 144.256 118.548 144.67 118.548C145.07 118.548 145.41 118.688 145.69 118.968C145.97 119.248 146.11 119.595 146.11 120.008C146.11 120.422 145.97 120.768 145.69 121.048C145.41 121.328 145.07 121.468 144.67 121.468ZM145.79 122.928V133.948H143.51V122.928H145.79ZM148.023 128.388C148.023 127.282 148.25 126.302 148.703 125.448C149.17 124.595 149.797 123.935 150.583 123.468C151.383 122.988 152.27 122.748 153.243 122.748C153.963 122.748 154.67 122.908 155.363 123.228C156.07 123.535 156.63 123.948 157.043 124.468V119.148H159.343V133.948H157.043V132.288C156.67 132.822 156.15 133.262 155.483 133.608C154.83 133.955 154.077 134.128 153.223 134.128C152.263 134.128 151.383 133.888 150.583 133.408C149.797 132.915 149.17 132.235 148.703 131.368C148.25 130.488 148.023 129.495 148.023 128.388ZM157.043 128.428C157.043 127.668 156.883 127.008 156.563 126.448C156.257 125.888 155.85 125.462 155.343 125.168C154.837 124.875 154.29 124.728 153.703 124.728C153.117 124.728 152.57 124.875 152.063 125.168C151.557 125.448 151.143 125.868 150.823 126.428C150.517 126.975 150.363 127.628 150.363 128.388C150.363 129.148 150.517 129.815 150.823 130.388C151.143 130.962 151.557 131.402 152.063 131.708C152.583 132.002 153.13 132.148 153.703 132.148C154.29 132.148 154.837 132.002 155.343 131.708C155.85 131.415 156.257 130.988 156.563 130.428C156.883 129.855 157.043 129.188 157.043 128.428ZM172.438 128.168C172.438 128.582 172.411 128.955 172.358 129.288H163.938C164.005 130.168 164.331 130.875 164.918 131.408C165.505 131.942 166.225 132.208 167.078 132.208C168.305 132.208 169.171 131.695 169.678 130.668H172.138C171.805 131.682 171.198 132.515 170.318 133.168C169.451 133.808 168.371 134.128 167.078 134.128C166.025 134.128 165.078 133.895 164.238 133.428C163.411 132.948 162.758 132.282 162.278 131.428C161.811 130.562 161.578 129.562 161.578 128.428C161.578 127.295 161.805 126.302 162.258 125.448C162.725 124.582 163.371 123.915 164.198 123.448C165.038 122.982 165.998 122.748 167.078 122.748C168.118 122.748 169.045 122.975 169.858 123.428C170.671 123.882 171.305 124.522 171.758 125.348C172.211 126.162 172.438 127.102 172.438 128.168ZM170.058 127.448C170.045 126.608 169.745 125.935 169.158 125.428C168.571 124.922 167.845 124.668 166.978 124.668C166.191 124.668 165.518 124.922 164.958 125.428C164.398 125.922 164.065 126.595 163.958 127.448H170.058ZM182.537 124.788V130.888C182.537 131.302 182.63 131.602 182.817 131.788C183.017 131.962 183.35 132.048 183.817 132.048H185.217V133.948H183.417C182.39 133.948 181.604 133.708 181.057 133.228C180.51 132.748 180.237 131.968 180.237 130.888V124.788H178.937V122.928H180.237V120.188H182.537V122.928H185.217V124.788H182.537ZM193.018 122.748C193.858 122.748 194.605 122.928 195.258 123.288C195.925 123.648 196.445 124.182 196.818 124.888C197.205 125.595 197.398 126.448 197.398 127.448V133.948H195.138V127.788C195.138 126.802 194.892 126.048 194.398 125.528C193.905 124.995 193.232 124.728 192.378 124.728C191.525 124.728 190.845 124.995 190.338 125.528C189.845 126.048 189.598 126.802 189.598 127.788V133.948H187.318V119.148H189.598V124.208C189.985 123.742 190.472 123.382 191.058 123.128C191.658 122.875 192.312 122.748 193.018 122.748ZM210.407 128.168C210.407 128.582 210.38 128.955 210.327 129.288H201.907C201.973 130.168 202.3 130.875 202.887 131.408C203.473 131.942 204.193 132.208 205.047 132.208C206.273 132.208 207.14 131.695 207.647 130.668H210.107C209.773 131.682 209.167 132.515 208.287 133.168C207.42 133.808 206.34 134.128 205.047 134.128C203.993 134.128 203.047 133.895 202.207 133.428C201.38 132.948 200.727 132.282 200.247 131.428C199.78 130.562 199.547 129.562 199.547 128.428C199.547 127.295 199.773 126.302 200.227 125.448C200.693 124.582 201.34 123.915 202.167 123.448C203.007 122.982 203.967 122.748 205.047 122.748C206.087 122.748 207.013 122.975 207.827 123.428C208.64 123.882 209.273 124.522 209.727 125.348C210.18 126.162 210.407 127.102 210.407 128.168ZM208.027 127.448C208.013 126.608 207.713 125.935 207.127 125.428C206.54 124.922 205.813 124.668 204.947 124.668C204.16 124.668 203.487 124.922 202.927 125.428C202.367 125.922 202.033 126.595 201.927 127.448H208.027ZM84.1072 158.428C84.1072 157.295 84.3339 156.302 84.7872 155.448C85.2539 154.582 85.8939 153.915 86.7072 153.448C87.5205 152.982 88.4539 152.748 89.5072 152.748C90.8405 152.748 91.9405 153.068 92.8072 153.708C93.6872 154.335 94.2805 155.235 94.5872 156.408H92.1272C91.9272 155.862 91.6072 155.435 91.1672 155.128C90.7272 154.822 90.1739 154.668 89.5072 154.668C88.5739 154.668 87.8272 155.002 87.2672 155.668C86.7205 156.322 86.4472 157.242 86.4472 158.428C86.4472 159.615 86.7205 160.542 87.2672 161.208C87.8272 161.875 88.5739 162.208 89.5072 162.208C90.8272 162.208 91.7005 161.628 92.1272 160.468H94.5872C94.2672 161.588 93.6672 162.482 92.7872 163.148C91.9072 163.802 90.8139 164.128 89.5072 164.128C88.4539 164.128 87.5205 163.895 86.7072 163.428C85.8939 162.948 85.2539 162.282 84.7872 161.428C84.3339 160.562 84.1072 159.562 84.1072 158.428ZM101.639 164.128C100.599 164.128 99.6594 163.895 98.8194 163.428C97.9794 162.948 97.3194 162.282 96.8394 161.428C96.3594 160.562 96.1194 159.562 96.1194 158.428C96.1194 157.308 96.366 156.315 96.8594 155.448C97.3527 154.582 98.026 153.915 98.8794 153.448C99.7327 152.982 100.686 152.748 101.739 152.748C102.793 152.748 103.746 152.982 104.599 153.448C105.453 153.915 106.126 154.582 106.619 155.448C107.113 156.315 107.359 157.308 107.359 158.428C107.359 159.548 107.106 160.542 106.599 161.408C106.093 162.275 105.399 162.948 104.519 163.428C103.653 163.895 102.693 164.128 101.639 164.128ZM101.639 162.148C102.226 162.148 102.773 162.008 103.279 161.728C103.799 161.448 104.219 161.028 104.539 160.468C104.859 159.908 105.019 159.228 105.019 158.428C105.019 157.628 104.866 156.955 104.559 156.408C104.253 155.848 103.846 155.428 103.339 155.148C102.833 154.868 102.286 154.728 101.699 154.728C101.113 154.728 100.566 154.868 100.059 155.148C99.566 155.428 99.1727 155.848 98.8794 156.408C98.586 156.955 98.4394 157.628 98.4394 158.428C98.4394 159.615 98.7394 160.535 99.3394 161.188C99.9527 161.828 100.719 162.148 101.639 162.148ZM122.953 152.748C123.82 152.748 124.593 152.928 125.273 153.288C125.967 153.648 126.507 154.182 126.893 154.888C127.293 155.595 127.493 156.448 127.493 157.448V163.948H125.233V157.788C125.233 156.802 124.987 156.048 124.493 155.528C124 154.995 123.327 154.728 122.473 154.728C121.62 154.728 120.94 154.995 120.433 155.528C119.94 156.048 119.693 156.802 119.693 157.788V163.948H117.433V157.788C117.433 156.802 117.187 156.048 116.693 155.528C116.2 154.995 115.527 154.728 114.673 154.728C113.82 154.728 113.14 154.995 112.633 155.528C112.14 156.048 111.893 156.802 111.893 157.788V163.948H109.613V152.928H111.893V154.188C112.267 153.735 112.74 153.382 113.313 153.128C113.887 152.875 114.5 152.748 115.153 152.748C116.033 152.748 116.82 152.935 117.513 153.308C118.207 153.682 118.74 154.222 119.113 154.928C119.447 154.262 119.967 153.735 120.673 153.348C121.38 152.948 122.14 152.748 122.953 152.748ZM132.675 154.548C133.061 154.042 133.588 153.615 134.255 153.268C134.921 152.922 135.675 152.748 136.515 152.748C137.475 152.748 138.348 152.988 139.135 153.468C139.935 153.935 140.561 154.595 141.015 155.448C141.468 156.302 141.695 157.282 141.695 158.388C141.695 159.495 141.468 160.488 141.015 161.368C140.561 162.235 139.935 162.915 139.135 163.408C138.348 163.888 137.475 164.128 136.515 164.128C135.675 164.128 134.928 163.962 134.275 163.628C133.621 163.282 133.088 162.855 132.675 162.348V169.188H130.395V152.928H132.675V154.548ZM139.375 158.388C139.375 157.628 139.215 156.975 138.895 156.428C138.588 155.868 138.175 155.448 137.655 155.168C137.148 154.875 136.601 154.728 136.015 154.728C135.441 154.728 134.895 154.875 134.375 155.168C133.868 155.462 133.455 155.888 133.135 156.448C132.828 157.008 132.675 157.668 132.675 158.428C132.675 159.188 132.828 159.855 133.135 160.428C133.455 160.988 133.868 161.415 134.375 161.708C134.895 162.002 135.441 162.148 136.015 162.148C136.601 162.148 137.148 162.002 137.655 161.708C138.175 161.402 138.588 160.962 138.895 160.388C139.215 159.815 139.375 159.148 139.375 158.388ZM143.189 158.388C143.189 157.282 143.416 156.302 143.869 155.448C144.336 154.595 144.963 153.935 145.749 153.468C146.549 152.988 147.429 152.748 148.389 152.748C149.256 152.748 150.009 152.922 150.649 153.268C151.303 153.602 151.823 154.022 152.209 154.528V152.928H154.509V163.948H152.209V162.308C151.823 162.828 151.296 163.262 150.629 163.608C149.963 163.955 149.203 164.128 148.349 164.128C147.403 164.128 146.536 163.888 145.749 163.408C144.963 162.915 144.336 162.235 143.869 161.368C143.416 160.488 143.189 159.495 143.189 158.388ZM152.209 158.428C152.209 157.668 152.049 157.008 151.729 156.448C151.423 155.888 151.016 155.462 150.509 155.168C150.003 154.875 149.456 154.728 148.869 154.728C148.283 154.728 147.736 154.875 147.229 155.168C146.723 155.448 146.309 155.868 145.989 156.428C145.683 156.975 145.529 157.628 145.529 158.388C145.529 159.148 145.683 159.815 145.989 160.388C146.309 160.962 146.723 161.402 147.229 161.708C147.749 162.002 148.296 162.148 148.869 162.148C149.456 162.148 150.003 162.002 150.509 161.708C151.016 161.415 151.423 160.988 151.729 160.428C152.049 159.855 152.209 159.188 152.209 158.428ZM163.064 152.748C163.931 152.748 164.704 152.928 165.384 153.288C166.077 153.648 166.617 154.182 167.004 154.888C167.391 155.595 167.584 156.448 167.584 157.448V163.948H165.324V157.788C165.324 156.802 165.077 156.048 164.584 155.528C164.091 154.995 163.417 154.728 162.564 154.728C161.711 154.728 161.031 154.995 160.524 155.528C160.031 156.048 159.784 156.802 159.784 157.788V163.948H157.504V152.928H159.784V154.188C160.157 153.735 160.631 153.382 161.204 153.128C161.791 152.875 162.411 152.748 163.064 152.748ZM180.412 152.928L173.652 169.128H171.292L173.532 163.768L169.192 152.928H171.732L174.832 161.328L178.052 152.928H180.412Z" fill="#B67B3E"/>
<defs>
<filter id="filter0_ii_458_202" x="-6" y="-6" width="270.802" height="257.026" filterUnits="userSpaceOnUse" color-interpolation-filters="sRGB">
<feFlood flood-opacity="0" result="BackgroundImageFix"/>
<feBlend mode="normal" in="SourceGraphic" in2="BackgroundImageFix" result="shape"/>
<feColorMatrix in="SourceAlpha" type="matrix" values="0 0 0 0 0 0 0 0 0 0 0 0 0 0 0 0 0 0 127 0" result="hardAlpha"/>
<feOffset dx="-6" dy="-6"/>
<feGaussianBlur stdDeviation="25"/>
<feComposite in2="hardAlpha" operator="arithmetic" k2="-1" k3="1"/>
<feColorMatrix type="matrix" values="0 0 0 0 0 0 0 0 0 0 0 0 0 0 0 0 0 0 0.25 0"/>
<feBlend mode="normal" in2="shape" result="effect1_innerShadow_458_202"/>
<feColorMatrix in="SourceAlpha" type="matrix" values="0 0 0 0 0 0 0 0 0 0 0 0 0 0 0 0 0 0 127 0" result="hardAlpha"/>
<feOffset dx="6" dy="6"/>
<feComposite in2="hardAlpha" operator="arithmetic" k2="-1" k3="1"/>
<feColorMatrix type="matrix" values="0 0 0 0 0 0 0 0 0 0 0 0 0 0 0 0 0 0 0.25 0"/>
<feBlend mode="normal" in2="effect1_innerShadow_458_202" result="effect2_innerShadow_458_202"/>
</filter>
</defs>
</svg>
