<svg width="265" height="252" viewBox="0 0 265 252" fill="none" xmlns="http://www.w3.org/2000/svg">
<g filter="url(#filter0_ii_483_118)">
<rect width="264.802" height="251.026" rx="25" fill="#FAA955"/>
</g>
<path d="M65.1664 55.175C63.9997 55.175 62.9497 54.975 62.0164 54.575C61.0831 54.1583 60.3497 53.575 59.8164 52.825C59.2831 52.075 59.0164 51.2 59.0164 50.2H62.0664C62.1331 50.95 62.4247 51.5667 62.9414 52.05C63.4747 52.5333 64.2164 52.775 65.1664 52.775C66.1497 52.775 66.9164 52.5417 67.4664 52.075C68.0164 51.5917 68.2914 50.975 68.2914 50.225C68.2914 49.6417 68.1164 49.1667 67.7664 48.8C67.4331 48.4333 67.0081 48.15 66.4914 47.95C65.9914 47.75 65.2914 47.5333 64.3914 47.3C63.2581 47 62.3331 46.7 61.6164 46.4C60.9164 46.0833 60.3164 45.6 59.8164 44.95C59.3164 44.3 59.0664 43.4333 59.0664 42.35C59.0664 41.35 59.3164 40.475 59.8164 39.725C60.3164 38.975 61.0164 38.4 61.9164 38C62.8164 37.6 63.8581 37.4 65.0414 37.4C66.7247 37.4 68.0997 37.825 69.1664 38.675C70.2497 39.5083 70.8497 40.6583 70.9664 42.125H67.8164C67.7664 41.4917 67.4664 40.95 66.9164 40.5C66.3664 40.05 65.6414 39.825 64.7414 39.825C63.9247 39.825 63.2581 40.0333 62.7414 40.45C62.2247 40.8667 61.9664 41.4667 61.9664 42.25C61.9664 42.7833 62.1247 43.225 62.4414 43.575C62.7747 43.9083 63.1914 44.175 63.6914 44.375C64.1914 44.575 64.8747 44.7917 65.7414 45.025C66.8914 45.3417 67.8247 45.6583 68.5414 45.975C69.2747 46.2917 69.8914 46.7833 70.3914 47.45C70.9081 48.1 71.1664 48.975 71.1664 50.075C71.1664 50.9583 70.9247 51.7917 70.4414 52.575C69.9747 53.3583 69.2831 53.9917 68.3664 54.475C67.4664 54.9417 66.3997 55.175 65.1664 55.175ZM73.5793 48.05C73.5793 46.6667 73.8626 45.4417 74.4293 44.375C75.0126 43.3083 75.7959 42.4833 76.7793 41.9C77.7793 41.3 78.8793 41 80.0793 41C81.1626 41 82.1043 41.2167 82.9043 41.65C83.7209 42.0667 84.3709 42.5917 84.8543 43.225V41.225H87.7293V55H84.8543V52.95C84.3709 53.6 83.7126 54.1417 82.8793 54.575C82.0459 55.0083 81.0959 55.225 80.0293 55.225C78.8459 55.225 77.7626 54.925 76.7793 54.325C75.7959 53.7083 75.0126 52.8583 74.4293 51.775C73.8626 50.675 73.5793 49.4333 73.5793 48.05ZM84.8543 48.1C84.8543 47.15 84.6543 46.325 84.2543 45.625C83.8709 44.925 83.3626 44.3917 82.7293 44.025C82.0959 43.6583 81.4126 43.475 80.6793 43.475C79.9459 43.475 79.2626 43.6583 78.6293 44.025C77.9959 44.375 77.4793 44.9 77.0793 45.6C76.6959 46.2833 76.5043 47.1 76.5043 48.05C76.5043 49 76.6959 49.8333 77.0793 50.55C77.4793 51.2667 77.9959 51.8167 78.6293 52.2C79.2793 52.5667 79.9626 52.75 80.6793 52.75C81.4126 52.75 82.0959 52.5667 82.7293 52.2C83.3626 51.8333 83.8709 51.3 84.2543 50.6C84.6543 49.8833 84.8543 49.05 84.8543 48.1ZM94.7976 43.55V51.175C94.7976 51.6917 94.9143 52.0667 95.1476 52.3C95.3976 52.5167 95.8143 52.625 96.3976 52.625H98.1476V55H95.8976C94.6143 55 93.631 54.7 92.9476 54.1C92.2643 53.5 91.9226 52.525 91.9226 51.175V43.55H90.2976V41.225H91.9226V37.8H94.7976V41.225H98.1476V43.55H94.7976ZM102.224 39.4C101.708 39.4 101.274 39.225 100.924 38.875C100.574 38.525 100.399 38.0917 100.399 37.575C100.399 37.0583 100.574 36.625 100.924 36.275C101.274 35.925 101.708 35.75 102.224 35.75C102.724 35.75 103.149 35.925 103.499 36.275C103.849 36.625 104.024 37.0583 104.024 37.575C104.024 38.0917 103.849 38.525 103.499 38.875C103.149 39.225 102.724 39.4 102.224 39.4ZM103.624 41.225V55H100.774V41.225H103.624ZM112.366 55.225C111.283 55.225 110.308 55.0333 109.441 54.65C108.591 54.25 107.916 53.7167 107.416 53.05C106.916 52.3667 106.65 51.6083 106.616 50.775H109.566C109.616 51.3583 109.891 51.85 110.391 52.25C110.908 52.6333 111.55 52.825 112.316 52.825C113.116 52.825 113.733 52.675 114.166 52.375C114.616 52.0583 114.841 51.6583 114.841 51.175C114.841 50.6583 114.591 50.275 114.091 50.025C113.608 49.775 112.833 49.5 111.766 49.2C110.733 48.9167 109.891 48.6417 109.241 48.375C108.591 48.1083 108.025 47.7 107.541 47.15C107.075 46.6 106.841 45.875 106.841 44.975C106.841 44.2417 107.058 43.575 107.491 42.975C107.925 42.3583 108.541 41.875 109.341 41.525C110.158 41.175 111.091 41 112.141 41C113.708 41 114.966 41.4 115.916 42.2C116.883 42.9833 117.4 44.0583 117.466 45.425H114.616C114.566 44.8083 114.316 44.3167 113.866 43.95C113.416 43.5833 112.808 43.4 112.041 43.4C111.291 43.4 110.716 43.5417 110.316 43.825C109.916 44.1083 109.716 44.4833 109.716 44.95C109.716 45.3167 109.85 45.625 110.116 45.875C110.383 46.125 110.708 46.325 111.091 46.475C111.475 46.6083 112.041 46.7833 112.791 47C113.791 47.2667 114.608 47.5417 115.241 47.825C115.891 48.0917 116.45 48.4917 116.916 49.025C117.383 49.5583 117.625 50.2667 117.641 51.15C117.641 51.9333 117.425 52.6333 116.991 53.25C116.558 53.8667 115.941 54.35 115.141 54.7C114.358 55.05 113.433 55.225 112.366 55.225ZM126.496 43.55H123.946V55H121.071V43.55H119.446V41.225H121.071V40.25C121.071 38.6667 121.487 37.5167 122.321 36.8C123.171 36.0667 124.496 35.7 126.296 35.7V38.075C125.429 38.075 124.821 38.2417 124.471 38.575C124.121 38.8917 123.946 39.45 123.946 40.25V41.225H126.496V43.55ZM128.071 48.05C128.071 46.6667 128.355 45.4417 128.921 44.375C129.505 43.3083 130.288 42.4833 131.271 41.9C132.271 41.3 133.371 41 134.571 41C135.655 41 136.596 41.2167 137.396 41.65C138.213 42.0667 138.863 42.5917 139.346 43.225V41.225H142.221V55H139.346V52.95C138.863 53.6 138.205 54.1417 137.371 54.575C136.538 55.0083 135.588 55.225 134.521 55.225C133.338 55.225 132.255 54.925 131.271 54.325C130.288 53.7083 129.505 52.8583 128.921 51.775C128.355 50.675 128.071 49.4333 128.071 48.05ZM139.346 48.1C139.346 47.15 139.146 46.325 138.746 45.625C138.363 44.925 137.855 44.3917 137.221 44.025C136.588 43.6583 135.905 43.475 135.171 43.475C134.438 43.475 133.755 43.6583 133.121 44.025C132.488 44.375 131.971 44.9 131.571 45.6C131.188 46.2833 130.996 47.1 130.996 48.05C130.996 49 131.188 49.8333 131.571 50.55C131.971 51.2667 132.488 51.8167 133.121 52.2C133.771 52.5667 134.455 52.75 135.171 52.75C135.905 52.75 136.588 52.5667 137.221 52.2C137.855 51.8333 138.363 51.3 138.746 50.6C139.146 49.8833 139.346 49.05 139.346 48.1ZM145.015 48.1C145.015 46.6833 145.298 45.4417 145.865 44.375C146.448 43.2917 147.248 42.4583 148.265 41.875C149.281 41.2917 150.448 41 151.765 41C153.431 41 154.806 41.4 155.89 42.2C156.99 42.9833 157.731 44.1083 158.115 45.575H155.04C154.79 44.8917 154.39 44.3583 153.84 43.975C153.29 43.5917 152.598 43.4 151.765 43.4C150.598 43.4 149.665 43.8167 148.965 44.65C148.281 45.4667 147.94 46.6167 147.94 48.1C147.94 49.5833 148.281 50.7417 148.965 51.575C149.665 52.4083 150.598 52.825 151.765 52.825C153.415 52.825 154.506 52.1 155.04 50.65H158.115C157.715 52.05 156.965 53.1667 155.865 54C154.765 54.8167 153.398 55.225 151.765 55.225C150.448 55.225 149.281 54.9333 148.265 54.35C147.248 53.75 146.448 52.9167 145.865 51.85C145.298 50.7667 145.015 49.5167 145.015 48.1ZM164.28 43.55V51.175C164.28 51.6917 164.397 52.0667 164.63 52.3C164.88 52.5167 165.297 52.625 165.88 52.625H167.63V55H165.38C164.097 55 163.113 54.7 162.43 54.1C161.747 53.5 161.405 52.525 161.405 51.175V43.55H159.78V41.225H161.405V37.8H164.28V41.225H167.63V43.55H164.28ZM171.707 39.4C171.19 39.4 170.757 39.225 170.407 38.875C170.057 38.525 169.882 38.0917 169.882 37.575C169.882 37.0583 170.057 36.625 170.407 36.275C170.757 35.925 171.19 35.75 171.707 35.75C172.207 35.75 172.632 35.925 172.982 36.275C173.332 36.625 173.507 37.0583 173.507 37.575C173.507 38.0917 173.332 38.525 172.982 38.875C172.632 39.225 172.207 39.4 171.707 39.4ZM173.107 41.225V55H170.257V41.225H173.107ZM182.824 55.225C181.524 55.225 180.349 54.9333 179.299 54.35C178.249 53.75 177.424 52.9167 176.824 51.85C176.224 50.7667 175.924 49.5167 175.924 48.1C175.924 46.7 176.232 45.4583 176.849 44.375C177.465 43.2917 178.307 42.4583 179.374 41.875C180.44 41.2917 181.632 41 182.949 41C184.265 41 185.457 41.2917 186.524 41.875C187.59 42.4583 188.432 43.2917 189.049 44.375C189.665 45.4583 189.974 46.7 189.974 48.1C189.974 49.5 189.657 50.7417 189.024 51.825C188.39 52.9083 187.524 53.75 186.424 54.35C185.34 54.9333 184.14 55.225 182.824 55.225ZM182.824 52.75C183.557 52.75 184.24 52.575 184.874 52.225C185.524 51.875 186.049 51.35 186.449 50.65C186.849 49.95 187.049 49.1 187.049 48.1C187.049 47.1 186.857 46.2583 186.474 45.575C186.09 44.875 185.582 44.35 184.949 44C184.315 43.65 183.632 43.475 182.899 43.475C182.165 43.475 181.482 43.65 180.849 44C180.232 44.35 179.74 44.875 179.374 45.575C179.007 46.2583 178.824 47.1 178.824 48.1C178.824 49.5833 179.199 50.7333 179.949 51.55C180.715 52.35 181.674 52.75 182.824 52.75ZM199.741 41C200.824 41 201.791 41.225 202.641 41.675C203.508 42.125 204.183 42.7917 204.666 43.675C205.149 44.5583 205.391 45.625 205.391 46.875V55H202.566V47.3C202.566 46.0667 202.258 45.125 201.641 44.475C201.024 43.8083 200.183 43.475 199.116 43.475C198.049 43.475 197.199 43.8083 196.566 44.475C195.949 45.125 195.641 46.0667 195.641 47.3V55H192.791V41.225H195.641V42.8C196.108 42.2333 196.699 41.7917 197.416 41.475C198.149 41.1583 198.924 41 199.741 41Z" fill="white"/>
<path fill-rule="evenodd" clip-rule="evenodd" d="M130.517 179C120.969 179 111.813 175.207 105.061 168.456C98.3099 161.705 94.5171 152.548 94.5171 143C94.5171 133.452 98.3099 124.295 105.061 117.544C111.813 110.793 120.969 107 130.517 107C140.065 107 149.222 110.793 155.973 117.544C162.724 124.295 166.517 133.452 166.517 143C166.517 152.548 162.724 161.705 155.973 168.456C149.222 175.207 140.065 179 130.517 179ZM130.517 170C134.063 170 137.574 169.302 140.85 167.945C144.125 166.588 147.102 164.599 149.609 162.092C152.116 159.585 154.105 156.608 155.462 153.332C156.819 150.057 157.517 146.546 157.517 143C157.517 139.454 156.819 135.943 155.462 132.668C154.105 129.392 152.116 126.415 149.609 123.908C147.102 121.401 144.125 119.412 140.85 118.055C137.574 116.698 134.063 116 130.517 116C123.356 116 116.489 118.845 111.425 123.908C106.362 128.972 103.517 135.839 103.517 143C103.517 150.161 106.362 157.028 111.425 162.092C116.489 167.155 123.356 170 130.517 170ZM144.017 147.5C144.017 151.08 142.595 154.514 140.063 157.046C137.531 159.578 134.098 161 130.517 161C126.937 161 123.503 159.578 120.971 157.046C118.439 154.514 117.017 151.08 117.017 147.5H144.017ZM121.517 138.5C122.711 138.5 123.855 138.026 124.699 137.182C125.543 136.338 126.017 135.193 126.017 134C126.017 132.807 125.543 131.662 124.699 130.818C123.855 129.974 122.711 129.5 121.517 129.5C120.324 129.5 119.179 129.974 118.335 130.818C117.491 131.662 117.017 132.807 117.017 134C117.017 135.193 117.491 136.338 118.335 137.182C119.179 138.026 120.324 138.5 121.517 138.5ZM139.517 138.5C138.324 138.5 137.179 138.026 136.335 137.182C135.491 136.338 135.017 135.193 135.017 134C135.017 132.807 135.491 131.662 136.335 130.818C137.179 129.974 138.324 129.5 139.517 129.5C140.711 129.5 141.855 129.974 142.699 130.818C143.543 131.662 144.017 132.807 144.017 134C144.017 135.193 143.543 136.338 142.699 137.182C141.855 138.026 140.711 138.5 139.517 138.5ZM169.33 116C165.608 115.19 154.142 108.845 154.142 97.4375C154.142 95.6666 154.699 93.9406 155.735 92.504C156.77 91.0674 158.231 89.993 159.911 89.433C161.591 88.873 163.405 88.8558 165.095 89.3838C166.786 89.9118 168.267 90.9583 169.33 92.375C170.392 90.9583 171.873 89.9118 173.564 89.3838C175.254 88.8558 177.068 88.873 178.748 89.433C180.428 89.993 181.889 91.0674 182.924 92.504C183.96 93.9406 184.517 95.6666 184.517 97.4375C184.517 108.845 173.051 115.19 169.33 116Z" fill="white"/>
<defs>
<filter id="filter0_ii_483_118" x="-6" y="-6" width="270.802" height="257.026" filterUnits="userSpaceOnUse" color-interpolation-filters="sRGB">
<feFlood flood-opacity="0" result="BackgroundImageFix"/>
<feBlend mode="normal" in="SourceGraphic" in2="BackgroundImageFix" result="shape"/>
<feColorMatrix in="SourceAlpha" type="matrix" values="0 0 0 0 0 0 0 0 0 0 0 0 0 0 0 0 0 0 127 0" result="hardAlpha"/>
<feOffset dx="-6" dy="-6"/>
<feGaussianBlur stdDeviation="25"/>
<feComposite in2="hardAlpha" operator="arithmetic" k2="-1" k3="1"/>
<feColorMatrix type="matrix" values="0 0 0 0 0 0 0 0 0 0 0 0 0 0 0 0 0 0 0.25 0"/>
<feBlend mode="normal" in2="shape" result="effect1_innerShadow_483_118"/>
<feColorMatrix in="SourceAlpha" type="matrix" values="0 0 0 0 0 0 0 0 0 0 0 0 0 0 0 0 0 0 127 0" result="hardAlpha"/>
<feOffset dx="6" dy="6"/>
<feComposite in2="hardAlpha" operator="arithmetic" k2="-1" k3="1"/>
<feColorMatrix type="matrix" values="0 0 0 0 0 0 0 0 0 0 0 0 0 0 0 0 0 0 0.25 0"/>
<feBlend mode="normal" in2="effect1_innerShadow_483_118" result="effect2_innerShadow_483_118"/>
</filter>
</defs>
</svg>
