<svg width="265" height="252" viewBox="0 0 265 252" fill="none" xmlns="http://www.w3.org/2000/svg">
<g filter="url(#filter0_ii_458_205)">
<rect y="0.0776367" width="264.802" height="251.026" rx="25" fill="white"/>
</g>
<path d="M52.2671 99.1V100.96H48.5671V113H46.2871V100.96H42.5671V99.1H52.2671ZM59.3562 113.18C58.3162 113.18 57.3762 112.947 56.5362 112.48C55.6962 112 55.0362 111.333 54.5562 110.48C54.0762 109.613 53.8362 108.613 53.8362 107.48C53.8362 106.36 54.0828 105.367 54.5762 104.5C55.0695 103.633 55.7428 102.967 56.5962 102.5C57.4495 102.033 58.4028 101.8 59.4562 101.8C60.5095 101.8 61.4628 102.033 62.3162 102.5C63.1695 102.967 63.8428 103.633 64.3362 104.5C64.8295 105.367 65.0762 106.36 65.0762 107.48C65.0762 108.6 64.8228 109.593 64.3162 110.46C63.8095 111.327 63.1162 112 62.2362 112.48C61.3695 112.947 60.4095 113.18 59.3562 113.18ZM59.3562 111.2C59.9428 111.2 60.4895 111.06 60.9962 110.78C61.5162 110.5 61.9362 110.08 62.2562 109.52C62.5762 108.96 62.7362 108.28 62.7362 107.48C62.7362 106.68 62.5828 106.007 62.2762 105.46C61.9695 104.9 61.5628 104.48 61.0562 104.2C60.5495 103.92 60.0028 103.78 59.4162 103.78C58.8295 103.78 58.2828 103.92 57.7762 104.2C57.2828 104.48 56.8895 104.9 56.5962 105.46C56.3028 106.007 56.1562 106.68 56.1562 107.48C56.1562 108.667 56.4562 109.587 57.0562 110.24C57.6695 110.88 58.4362 111.2 59.3562 111.2ZM85.8654 101.8C86.7321 101.8 87.5054 101.98 88.1854 102.34C88.8787 102.7 89.4187 103.233 89.8054 103.94C90.2054 104.647 90.4054 105.5 90.4054 106.5V113H88.1454V106.84C88.1454 105.853 87.8987 105.1 87.4054 104.58C86.9121 104.047 86.2387 103.78 85.3854 103.78C84.5321 103.78 83.8521 104.047 83.3454 104.58C82.8521 105.1 82.6054 105.853 82.6054 106.84V113H80.3454V106.84C80.3454 105.853 80.0987 105.1 79.6054 104.58C79.1121 104.047 78.4387 103.78 77.5854 103.78C76.7321 103.78 76.0521 104.047 75.5454 104.58C75.0521 105.1 74.8054 105.853 74.8054 106.84V113H72.5254V101.98H74.8054V103.24C75.1787 102.787 75.6521 102.433 76.2254 102.18C76.7987 101.927 77.4121 101.8 78.0654 101.8C78.9454 101.8 79.7321 101.987 80.4254 102.36C81.1187 102.733 81.6521 103.273 82.0254 103.98C82.3587 103.313 82.8787 102.787 83.5854 102.4C84.2921 102 85.0521 101.8 85.8654 101.8ZM98.0866 113.18C97.0466 113.18 96.1066 112.947 95.2666 112.48C94.4266 112 93.7666 111.333 93.2866 110.48C92.8066 109.613 92.5666 108.613 92.5666 107.48C92.5666 106.36 92.8133 105.367 93.3066 104.5C93.8 103.633 94.4733 102.967 95.3266 102.5C96.18 102.033 97.1333 101.8 98.1866 101.8C99.24 101.8 100.193 102.033 101.047 102.5C101.9 102.967 102.573 103.633 103.067 104.5C103.56 105.367 103.807 106.36 103.807 107.48C103.807 108.6 103.553 109.593 103.047 110.46C102.54 111.327 101.847 112 100.967 112.48C100.1 112.947 99.14 113.18 98.0866 113.18ZM98.0866 111.2C98.6733 111.2 99.22 111.06 99.7266 110.78C100.247 110.5 100.667 110.08 100.987 109.52C101.307 108.96 101.467 108.28 101.467 107.48C101.467 106.68 101.313 106.007 101.007 105.46C100.7 104.9 100.293 104.48 99.7866 104.2C99.28 103.92 98.7333 103.78 98.1466 103.78C97.56 103.78 97.0133 103.92 96.5066 104.2C96.0133 104.48 95.62 104.9 95.3266 105.46C95.0333 106.007 94.8866 106.68 94.8866 107.48C94.8866 108.667 95.1866 109.587 95.7866 110.24C96.4 110.88 97.1666 111.2 98.0866 111.2ZM110.321 110.96L113.441 101.98H115.861L111.661 113H108.941L104.761 101.98H107.201L110.321 110.96ZM127.684 107.22C127.684 107.633 127.657 108.007 127.604 108.34H119.184C119.251 109.22 119.577 109.927 120.164 110.46C120.751 110.993 121.471 111.26 122.324 111.26C123.551 111.26 124.417 110.747 124.924 109.72H127.384C127.051 110.733 126.444 111.567 125.564 112.22C124.697 112.86 123.617 113.18 122.324 113.18C121.271 113.18 120.324 112.947 119.484 112.48C118.657 112 118.004 111.333 117.524 110.48C117.057 109.613 116.824 108.613 116.824 107.48C116.824 106.347 117.051 105.353 117.504 104.5C117.971 103.633 118.617 102.967 119.444 102.5C120.284 102.033 121.244 101.8 122.324 101.8C123.364 101.8 124.291 102.027 125.104 102.48C125.917 102.933 126.551 103.573 127.004 104.4C127.457 105.213 127.684 106.153 127.684 107.22ZM125.304 106.5C125.291 105.66 124.991 104.987 124.404 104.48C123.817 103.973 123.091 103.72 122.224 103.72C121.437 103.72 120.764 103.973 120.204 104.48C119.644 104.973 119.311 105.647 119.204 106.5H125.304ZM149.923 101.98L146.503 113H144.103L141.883 104.86L139.663 113H137.263L133.823 101.98H136.143L138.443 110.84L140.783 101.98H143.163L145.403 110.8L147.683 101.98H149.923ZM152.787 100.52C152.374 100.52 152.027 100.38 151.747 100.1C151.467 99.82 151.327 99.4733 151.327 99.06C151.327 98.6467 151.467 98.3 151.747 98.02C152.027 97.74 152.374 97.6 152.787 97.6C153.187 97.6 153.527 97.74 153.807 98.02C154.087 98.3 154.227 98.6467 154.227 99.06C154.227 99.4733 154.087 99.82 153.807 100.1C153.527 100.38 153.187 100.52 152.787 100.52ZM153.907 101.98V113H151.627V101.98H153.907ZM159.56 103.84V109.94C159.56 110.353 159.654 110.653 159.84 110.84C160.04 111.013 160.374 111.1 160.84 111.1H162.24V113H160.44C159.414 113 158.627 112.76 158.08 112.28C157.534 111.8 157.26 111.02 157.26 109.94V103.84H155.96V101.98H157.26V99.24H159.56V101.98H162.24V103.84H159.56ZM170.042 101.8C170.882 101.8 171.628 101.98 172.282 102.34C172.948 102.7 173.468 103.233 173.842 103.94C174.228 104.647 174.422 105.5 174.422 106.5V113H172.162V106.84C172.162 105.853 171.915 105.1 171.422 104.58C170.928 104.047 170.255 103.78 169.402 103.78C168.548 103.78 167.868 104.047 167.362 104.58C166.868 105.1 166.622 105.853 166.622 106.84V113H164.342V98.2H166.622V103.26C167.008 102.793 167.495 102.433 168.082 102.18C168.682 101.927 169.335 101.8 170.042 101.8ZM184.545 111.14H189.545V113H181.905V111.14L186.925 103.84H181.905V101.98H189.545V103.84L184.545 111.14ZM202.039 107.22C202.039 107.633 202.013 108.007 201.959 108.34H193.539C193.606 109.22 193.933 109.927 194.519 110.46C195.106 110.993 195.826 111.26 196.679 111.26C197.906 111.26 198.773 110.747 199.279 109.72H201.739C201.406 110.733 200.799 111.567 199.919 112.22C199.053 112.86 197.973 113.18 196.679 113.18C195.626 113.18 194.679 112.947 193.839 112.48C193.013 112 192.359 111.333 191.879 110.48C191.413 109.613 191.179 108.613 191.179 107.48C191.179 106.347 191.406 105.353 191.859 104.5C192.326 103.633 192.973 102.967 193.799 102.5C194.639 102.033 195.599 101.8 196.679 101.8C197.719 101.8 198.646 102.027 199.459 102.48C200.273 102.933 200.906 103.573 201.359 104.4C201.813 105.213 202.039 106.153 202.039 107.22ZM199.659 106.5C199.646 105.66 199.346 104.987 198.759 104.48C198.173 103.973 197.446 103.72 196.579 103.72C195.793 103.72 195.119 103.973 194.559 104.48C193.999 104.973 193.666 105.647 193.559 106.5H199.659ZM206.563 103.58C206.897 103.02 207.337 102.587 207.883 102.28C208.443 101.96 209.103 101.8 209.863 101.8V104.16H209.283C208.39 104.16 207.71 104.387 207.243 104.84C206.79 105.293 206.563 106.08 206.563 107.2V113H204.283V101.98H206.563V103.58ZM216.739 113.18C215.699 113.18 214.759 112.947 213.919 112.48C213.079 112 212.419 111.333 211.939 110.48C211.459 109.613 211.219 108.613 211.219 107.48C211.219 106.36 211.466 105.367 211.959 104.5C212.452 103.633 213.126 102.967 213.979 102.5C214.832 102.033 215.786 101.8 216.839 101.8C217.892 101.8 218.846 102.033 219.699 102.5C220.552 102.967 221.226 103.633 221.719 104.5C222.212 105.367 222.459 106.36 222.459 107.48C222.459 108.6 222.206 109.593 221.699 110.46C221.192 111.327 220.499 112 219.619 112.48C218.752 112.947 217.792 113.18 216.739 113.18ZM216.739 111.2C217.326 111.2 217.872 111.06 218.379 110.78C218.899 110.5 219.319 110.08 219.639 109.52C219.959 108.96 220.119 108.28 220.119 107.48C220.119 106.68 219.966 106.007 219.659 105.46C219.352 104.9 218.946 104.48 218.439 104.2C217.932 103.92 217.386 103.78 216.799 103.78C216.212 103.78 215.666 103.92 215.159 104.2C214.666 104.48 214.272 104.9 213.979 105.46C213.686 106.007 213.539 106.68 213.539 107.48C213.539 108.667 213.839 109.587 214.439 110.24C215.052 110.88 215.819 111.2 216.739 111.2ZM40.7791 137.44C40.7791 136.333 41.0057 135.353 41.4591 134.5C41.9257 133.647 42.5524 132.987 43.3391 132.52C44.1391 132.04 45.0257 131.8 45.9991 131.8C46.7191 131.8 47.4257 131.96 48.1191 132.28C48.8257 132.587 49.3857 133 49.7991 133.52V128.2H52.0991V143H49.7991V141.34C49.4257 141.873 48.9057 142.313 48.2391 142.66C47.5857 143.007 46.8324 143.18 45.9791 143.18C45.0191 143.18 44.1391 142.94 43.3391 142.46C42.5524 141.967 41.9257 141.287 41.4591 140.42C41.0057 139.54 40.7791 138.547 40.7791 137.44ZM49.7991 137.48C49.7991 136.72 49.6391 136.06 49.3191 135.5C49.0124 134.94 48.6057 134.513 48.0991 134.22C47.5924 133.927 47.0457 133.78 46.4591 133.78C45.8724 133.78 45.3257 133.927 44.8191 134.22C44.3124 134.5 43.8991 134.92 43.5791 135.48C43.2724 136.027 43.1191 136.68 43.1191 137.44C43.1191 138.2 43.2724 138.867 43.5791 139.44C43.8991 140.013 44.3124 140.453 44.8191 140.76C45.3391 141.053 45.8857 141.2 46.4591 141.2C47.0457 141.2 47.5924 141.053 48.0991 140.76C48.6057 140.467 49.0124 140.04 49.3191 139.48C49.6391 138.907 49.7991 138.24 49.7991 137.48ZM54.3338 137.44C54.3338 136.333 54.5604 135.353 55.0138 134.5C55.4804 133.647 56.1071 132.987 56.8938 132.52C57.6938 132.04 58.5738 131.8 59.5338 131.8C60.4004 131.8 61.1538 131.973 61.7938 132.32C62.4471 132.653 62.9671 133.073 63.3538 133.58V131.98H65.6538V143H63.3538V141.36C62.9671 141.88 62.4404 142.313 61.7738 142.66C61.1071 143.007 60.3471 143.18 59.4938 143.18C58.5471 143.18 57.6804 142.94 56.8938 142.46C56.1071 141.967 55.4804 141.287 55.0138 140.42C54.5604 139.54 54.3338 138.547 54.3338 137.44ZM63.3538 137.48C63.3538 136.72 63.1938 136.06 62.8738 135.5C62.5671 134.94 62.1604 134.513 61.6538 134.22C61.1471 133.927 60.6004 133.78 60.0138 133.78C59.4271 133.78 58.8804 133.927 58.3738 134.22C57.8671 134.5 57.4538 134.92 57.1338 135.48C56.8271 136.027 56.6738 136.68 56.6738 137.44C56.6738 138.2 56.8271 138.867 57.1338 139.44C57.4538 140.013 57.8671 140.453 58.3738 140.76C58.8938 141.053 59.4404 141.2 60.0138 141.2C60.6004 141.2 61.1471 141.053 61.6538 140.76C62.1604 140.467 62.5671 140.04 62.8738 139.48C63.1938 138.907 63.3538 138.24 63.3538 137.48ZM81.9884 131.8C82.8551 131.8 83.6284 131.98 84.3084 132.34C85.0018 132.7 85.5418 133.233 85.9284 133.94C86.3284 134.647 86.5284 135.5 86.5284 136.5V143H84.2684V136.84C84.2684 135.853 84.0218 135.1 83.5284 134.58C83.0351 134.047 82.3618 133.78 81.5084 133.78C80.6551 133.78 79.9751 134.047 79.4684 134.58C78.9751 135.1 78.7284 135.853 78.7284 136.84V143H76.4684V136.84C76.4684 135.853 76.2218 135.1 75.7284 134.58C75.2351 134.047 74.5618 133.78 73.7084 133.78C72.8551 133.78 72.1751 134.047 71.6684 134.58C71.1751 135.1 70.9284 135.853 70.9284 136.84V143H68.6484V131.98H70.9284V133.24C71.3018 132.787 71.7751 132.433 72.3484 132.18C72.9218 131.927 73.5351 131.8 74.1884 131.8C75.0684 131.8 75.8551 131.987 76.5484 132.36C77.2418 132.733 77.7751 133.273 78.1484 133.98C78.4818 133.313 79.0018 132.787 79.7084 132.4C80.4151 132 81.1751 131.8 81.9884 131.8ZM88.6697 137.44C88.6697 136.333 88.8964 135.353 89.3497 134.5C89.8164 133.647 90.443 132.987 91.2297 132.52C92.0297 132.04 92.9097 131.8 93.8697 131.8C94.7364 131.8 95.4897 131.973 96.1297 132.32C96.783 132.653 97.303 133.073 97.6897 133.58V131.98H99.9897V143H97.6897V141.36C97.303 141.88 96.7764 142.313 96.1097 142.66C95.443 143.007 94.683 143.18 93.8297 143.18C92.883 143.18 92.0164 142.94 91.2297 142.46C90.443 141.967 89.8164 141.287 89.3497 140.42C88.8964 139.54 88.6697 138.547 88.6697 137.44ZM97.6897 137.48C97.6897 136.72 97.5297 136.06 97.2097 135.5C96.903 134.94 96.4964 134.513 95.9897 134.22C95.483 133.927 94.9364 133.78 94.3497 133.78C93.763 133.78 93.2164 133.927 92.7097 134.22C92.203 134.5 91.7897 134.92 91.4697 135.48C91.163 136.027 91.0097 136.68 91.0097 137.44C91.0097 138.2 91.163 138.867 91.4697 139.44C91.7897 140.013 92.203 140.453 92.7097 140.76C93.2297 141.053 93.7764 141.2 94.3497 141.2C94.9364 141.2 95.483 141.053 95.9897 140.76C96.4964 140.467 96.903 140.04 97.2097 139.48C97.5297 138.907 97.6897 138.24 97.6897 137.48ZM107.424 131.8C108.278 131.8 109.031 131.973 109.684 132.32C110.351 132.653 110.871 133.073 111.244 133.58V131.98H113.544V143.18C113.544 144.193 113.331 145.093 112.904 145.88C112.478 146.68 111.858 147.307 111.044 147.76C110.244 148.213 109.284 148.44 108.164 148.44C106.671 148.44 105.431 148.087 104.444 147.38C103.458 146.687 102.898 145.74 102.764 144.54H105.024C105.198 145.113 105.564 145.573 106.124 145.92C106.698 146.28 107.378 146.46 108.164 146.46C109.084 146.46 109.824 146.18 110.384 145.62C110.958 145.06 111.244 144.247 111.244 143.18V141.34C110.858 141.86 110.331 142.3 109.664 142.66C109.011 143.007 108.264 143.18 107.424 143.18C106.464 143.18 105.584 142.94 104.784 142.46C103.998 141.967 103.371 141.287 102.904 140.42C102.451 139.54 102.224 138.547 102.224 137.44C102.224 136.333 102.451 135.353 102.904 134.5C103.371 133.647 103.998 132.987 104.784 132.52C105.584 132.04 106.464 131.8 107.424 131.8ZM111.244 137.48C111.244 136.72 111.084 136.06 110.764 135.5C110.458 134.94 110.051 134.513 109.544 134.22C109.038 133.927 108.491 133.78 107.904 133.78C107.318 133.78 106.771 133.927 106.264 134.22C105.758 134.5 105.344 134.92 105.024 135.48C104.718 136.027 104.564 136.68 104.564 137.44C104.564 138.2 104.718 138.867 105.024 139.44C105.344 140.013 105.758 140.453 106.264 140.76C106.784 141.053 107.331 141.2 107.904 141.2C108.491 141.2 109.038 141.053 109.544 140.76C110.051 140.467 110.458 140.04 110.764 139.48C111.084 138.907 111.244 138.24 111.244 137.48ZM126.639 137.22C126.639 137.633 126.612 138.007 126.559 138.34H118.139C118.206 139.22 118.532 139.927 119.119 140.46C119.706 140.993 120.426 141.26 121.279 141.26C122.506 141.26 123.372 140.747 123.879 139.72H126.339C126.006 140.733 125.399 141.567 124.519 142.22C123.652 142.86 122.572 143.18 121.279 143.18C120.226 143.18 119.279 142.947 118.439 142.48C117.612 142 116.959 141.333 116.479 140.48C116.012 139.613 115.779 138.613 115.779 137.48C115.779 136.347 116.006 135.353 116.459 134.5C116.926 133.633 117.572 132.967 118.399 132.5C119.239 132.033 120.199 131.8 121.279 131.8C122.319 131.8 123.246 132.027 124.059 132.48C124.872 132.933 125.506 133.573 125.959 134.4C126.412 135.213 126.639 136.153 126.639 137.22ZM124.259 136.5C124.246 135.66 123.946 134.987 123.359 134.48C122.772 133.973 122.046 133.72 121.179 133.72C120.392 133.72 119.719 133.973 119.159 134.48C118.599 134.973 118.266 135.647 118.159 136.5H124.259ZM136.738 133.84V139.94C136.738 140.353 136.831 140.653 137.018 140.84C137.218 141.013 137.551 141.1 138.018 141.1H139.418V143H137.618C136.591 143 135.805 142.76 135.258 142.28C134.711 141.8 134.438 141.02 134.438 139.94V133.84H133.138V131.98H134.438V129.24H136.738V131.98H139.418V133.84H136.738ZM146.3 143.18C145.26 143.18 144.32 142.947 143.48 142.48C142.64 142 141.98 141.333 141.5 140.48C141.02 139.613 140.78 138.613 140.78 137.48C140.78 136.36 141.026 135.367 141.52 134.5C142.013 133.633 142.686 132.967 143.54 132.5C144.393 132.033 145.346 131.8 146.4 131.8C147.453 131.8 148.406 132.033 149.26 132.5C150.113 132.967 150.786 133.633 151.28 134.5C151.773 135.367 152.02 136.36 152.02 137.48C152.02 138.6 151.766 139.593 151.26 140.46C150.753 141.327 150.06 142 149.18 142.48C148.313 142.947 147.353 143.18 146.3 143.18ZM146.3 141.2C146.886 141.2 147.433 141.06 147.94 140.78C148.46 140.5 148.88 140.08 149.2 139.52C149.52 138.96 149.68 138.28 149.68 137.48C149.68 136.68 149.526 136.007 149.22 135.46C148.913 134.9 148.506 134.48 148 134.2C147.493 133.92 146.946 133.78 146.36 133.78C145.773 133.78 145.226 133.92 144.72 134.2C144.226 134.48 143.833 134.9 143.54 135.46C143.246 136.007 143.1 136.68 143.1 137.48C143.1 138.667 143.4 139.587 144 140.24C144.613 140.88 145.38 141.2 146.3 141.2ZM165.029 131.8C165.895 131.8 166.669 131.98 167.349 132.34C168.042 132.7 168.582 133.233 168.969 133.94C169.355 134.647 169.549 135.5 169.549 136.5V143H167.289V136.84C167.289 135.853 167.042 135.1 166.549 134.58C166.055 134.047 165.382 133.78 164.529 133.78C163.675 133.78 162.995 134.047 162.489 134.58C161.995 135.1 161.749 135.853 161.749 136.84V143H159.469V131.98H161.749V133.24C162.122 132.787 162.595 132.433 163.169 132.18C163.755 131.927 164.375 131.8 165.029 131.8ZM171.697 137.44C171.697 136.333 171.924 135.353 172.377 134.5C172.844 133.647 173.47 132.987 174.257 132.52C175.057 132.04 175.937 131.8 176.897 131.8C177.764 131.8 178.517 131.973 179.157 132.32C179.81 132.653 180.33 133.073 180.717 133.58V131.98H183.017V143H180.717V141.36C180.33 141.88 179.804 142.313 179.137 142.66C178.47 143.007 177.71 143.18 176.857 143.18C175.91 143.18 175.044 142.94 174.257 142.46C173.47 141.967 172.844 141.287 172.377 140.42C171.924 139.54 171.697 138.547 171.697 137.44ZM180.717 137.48C180.717 136.72 180.557 136.06 180.237 135.5C179.93 134.94 179.524 134.513 179.017 134.22C178.51 133.927 177.964 133.78 177.377 133.78C176.79 133.78 176.244 133.927 175.737 134.22C175.23 134.5 174.817 134.92 174.497 135.48C174.19 136.027 174.037 136.68 174.037 137.44C174.037 138.2 174.19 138.867 174.497 139.44C174.817 140.013 175.23 140.453 175.737 140.76C176.257 141.053 176.804 141.2 177.377 141.2C177.964 141.2 178.51 141.053 179.017 140.76C179.524 140.467 179.93 140.04 180.237 139.48C180.557 138.907 180.717 138.24 180.717 137.48ZM188.672 133.84V139.94C188.672 140.353 188.765 140.653 188.952 140.84C189.152 141.013 189.485 141.1 189.952 141.1H191.352V143H189.552C188.525 143 187.738 142.76 187.192 142.28C186.645 141.8 186.372 141.02 186.372 139.94V133.84H185.072V131.98H186.372V129.24H188.672V131.98H191.352V133.84H188.672ZM203.433 131.98V143H201.153V141.7C200.793 142.153 200.32 142.513 199.733 142.78C199.16 143.033 198.546 143.16 197.893 143.16C197.026 143.16 196.246 142.98 195.553 142.62C194.873 142.26 194.333 141.727 193.933 141.02C193.546 140.313 193.353 139.46 193.353 138.46V131.98H195.613V138.12C195.613 139.107 195.86 139.867 196.353 140.4C196.846 140.92 197.52 141.18 198.373 141.18C199.226 141.18 199.9 140.92 200.393 140.4C200.9 139.867 201.153 139.107 201.153 138.12V131.98H203.433ZM208.721 133.58C209.055 133.02 209.495 132.587 210.041 132.28C210.601 131.96 211.261 131.8 212.021 131.8V134.16H211.441C210.548 134.16 209.868 134.387 209.401 134.84C208.948 135.293 208.721 136.08 208.721 137.2V143H206.441V131.98H208.721V133.58ZM224.217 137.22C224.217 137.633 224.191 138.007 224.137 138.34H215.717C215.784 139.22 216.111 139.927 216.697 140.46C217.284 140.993 218.004 141.26 218.857 141.26C220.084 141.26 220.951 140.747 221.457 139.72H223.917C223.584 140.733 222.977 141.567 222.097 142.22C221.231 142.86 220.151 143.18 218.857 143.18C217.804 143.18 216.857 142.947 216.017 142.48C215.191 142 214.537 141.333 214.057 140.48C213.591 139.613 213.357 138.613 213.357 137.48C213.357 136.347 213.584 135.353 214.037 134.5C214.504 133.633 215.151 132.967 215.977 132.5C216.817 132.033 217.777 131.8 218.857 131.8C219.897 131.8 220.824 132.027 221.637 132.48C222.451 132.933 223.084 133.573 223.537 134.4C223.991 135.213 224.217 136.153 224.217 137.22ZM221.837 136.5C221.824 135.66 221.524 134.987 220.937 134.48C220.351 133.973 219.624 133.72 218.757 133.72C217.971 133.72 217.297 133.973 216.737 134.48C216.177 134.973 215.844 135.647 215.737 136.5H221.837Z" fill="#BF9D46"/>
<defs>
<filter id="filter0_ii_458_205" x="-6" y="-5.92236" width="270.802" height="257.026" filterUnits="userSpaceOnUse" color-interpolation-filters="sRGB">
<feFlood flood-opacity="0" result="BackgroundImageFix"/>
<feBlend mode="normal" in="SourceGraphic" in2="BackgroundImageFix" result="shape"/>
<feColorMatrix in="SourceAlpha" type="matrix" values="0 0 0 0 0 0 0 0 0 0 0 0 0 0 0 0 0 0 127 0" result="hardAlpha"/>
<feOffset dx="-6" dy="-6"/>
<feGaussianBlur stdDeviation="25"/>
<feComposite in2="hardAlpha" operator="arithmetic" k2="-1" k3="1"/>
<feColorMatrix type="matrix" values="0 0 0 0 0 0 0 0 0 0 0 0 0 0 0 0 0 0 0.25 0"/>
<feBlend mode="normal" in2="shape" result="effect1_innerShadow_458_205"/>
<feColorMatrix in="SourceAlpha" type="matrix" values="0 0 0 0 0 0 0 0 0 0 0 0 0 0 0 0 0 0 127 0" result="hardAlpha"/>
<feOffset dx="6" dy="6"/>
<feComposite in2="hardAlpha" operator="arithmetic" k2="-1" k3="1"/>
<feColorMatrix type="matrix" values="0 0 0 0 0 0 0 0 0 0 0 0 0 0 0 0 0 0 0.25 0"/>
<feBlend mode="normal" in2="effect1_innerShadow_458_205" result="effect2_innerShadow_458_205"/>
</filter>
</defs>
</svg>
