<svg width="266" height="252" viewBox="0 0 266 252" fill="none" xmlns="http://www.w3.org/2000/svg">
<g filter="url(#filter0_ii_512_490)">
<rect x="0.603271" width="264.802" height="251.026" rx="25" fill="#BF9D46"/>
</g>
<path d="M69.3317 42.8C69.3317 43.6833 69.1233 44.5167 68.7067 45.3C68.29 46.0833 67.6233 46.725 66.7067 47.225C65.79 47.7083 64.615 47.95 63.1817 47.95H60.0317V55H57.1817V37.625H63.1817C64.515 37.625 65.64 37.8583 66.5567 38.325C67.49 38.775 68.1817 39.3917 68.6317 40.175C69.0983 40.9583 69.3317 41.8333 69.3317 42.8ZM63.1817 45.625C64.265 45.625 65.0733 45.3833 65.6067 44.9C66.14 44.4 66.4067 43.7 66.4067 42.8C66.4067 40.9 65.3317 39.95 63.1817 39.95H60.0317V45.625H63.1817ZM74.8998 43.225C75.3165 42.525 75.8665 41.9833 76.5498 41.6C77.2498 41.2 78.0748 41 79.0248 41V43.95H78.2998C77.1832 43.95 76.3332 44.2333 75.7498 44.8C75.1832 45.3667 74.8998 46.35 74.8998 47.75V55H72.0498V41.225H74.8998V43.225ZM94.2696 47.775C94.2696 48.2917 94.2362 48.7583 94.1696 49.175H83.6446C83.7279 50.275 84.1362 51.1583 84.8696 51.825C85.6029 52.4917 86.5029 52.825 87.5696 52.825C89.1029 52.825 90.1862 52.1833 90.8196 50.9H93.8946C93.4779 52.1667 92.7196 53.2083 91.6196 54.025C90.5362 54.825 89.1862 55.225 87.5696 55.225C86.2529 55.225 85.0696 54.9333 84.0196 54.35C82.9862 53.75 82.1696 52.9167 81.5696 51.85C80.9862 50.7667 80.6946 49.5167 80.6946 48.1C80.6946 46.6833 80.9779 45.4417 81.5446 44.375C82.1279 43.2917 82.9362 42.4583 83.9696 41.875C85.0196 41.2917 86.2196 41 87.5696 41C88.8696 41 90.0279 41.2833 91.0446 41.85C92.0612 42.4167 92.8529 43.2167 93.4196 44.25C93.9862 45.2667 94.2696 46.4417 94.2696 47.775ZM91.2946 46.875C91.2779 45.825 90.9029 44.9833 90.1696 44.35C89.4362 43.7167 88.5279 43.4 87.4446 43.4C86.4612 43.4 85.6196 43.7167 84.9196 44.35C84.2196 44.9667 83.8029 45.8083 83.6696 46.875H91.2946ZM102.074 55.225C100.991 55.225 100.016 55.0333 99.1492 54.65C98.2992 54.25 97.6242 53.7167 97.1242 53.05C96.6242 52.3667 96.3576 51.6083 96.3242 50.775H99.2742C99.3242 51.3583 99.5992 51.85 100.099 52.25C100.616 52.6333 101.258 52.825 102.024 52.825C102.824 52.825 103.441 52.675 103.874 52.375C104.324 52.0583 104.549 51.6583 104.549 51.175C104.549 50.6583 104.299 50.275 103.799 50.025C103.316 49.775 102.541 49.5 101.474 49.2C100.441 48.9167 99.5992 48.6417 98.9492 48.375C98.2992 48.1083 97.7326 47.7 97.2492 47.15C96.7826 46.6 96.5492 45.875 96.5492 44.975C96.5492 44.2417 96.7659 43.575 97.1992 42.975C97.6326 42.3583 98.2492 41.875 99.0492 41.525C99.8659 41.175 100.799 41 101.849 41C103.416 41 104.674 41.4 105.624 42.2C106.591 42.9833 107.108 44.0583 107.174 45.425H104.324C104.274 44.8083 104.024 44.3167 103.574 43.95C103.124 43.5833 102.516 43.4 101.749 43.4C100.999 43.4 100.424 43.5417 100.024 43.825C99.6242 44.1083 99.4242 44.4833 99.4242 44.95C99.4242 45.3167 99.5576 45.625 99.8242 45.875C100.091 46.125 100.416 46.325 100.799 46.475C101.183 46.6083 101.749 46.7833 102.499 47C103.499 47.2667 104.316 47.5417 104.949 47.825C105.599 48.0917 106.158 48.4917 106.624 49.025C107.091 49.5583 107.333 50.2667 107.349 51.15C107.349 51.9333 107.133 52.6333 106.699 53.25C106.266 53.8667 105.649 54.35 104.849 54.7C104.066 55.05 103.141 55.225 102.074 55.225ZM123.054 47.775C123.054 48.2917 123.02 48.7583 122.954 49.175H112.429C112.512 50.275 112.92 51.1583 113.654 51.825C114.387 52.4917 115.287 52.825 116.354 52.825C117.887 52.825 118.97 52.1833 119.604 50.9H122.679C122.262 52.1667 121.504 53.2083 120.404 54.025C119.32 54.825 117.97 55.225 116.354 55.225C115.037 55.225 113.854 54.9333 112.804 54.35C111.77 53.75 110.954 52.9167 110.354 51.85C109.77 50.7667 109.479 49.5167 109.479 48.1C109.479 46.6833 109.762 45.4417 110.329 44.375C110.912 43.2917 111.72 42.4583 112.754 41.875C113.804 41.2917 115.004 41 116.354 41C117.654 41 118.812 41.2833 119.829 41.85C120.845 42.4167 121.637 43.2167 122.204 44.25C122.77 45.2667 123.054 46.4417 123.054 47.775ZM120.079 46.875C120.062 45.825 119.687 44.9833 118.954 44.35C118.22 43.7167 117.312 43.4 116.229 43.4C115.245 43.4 114.404 43.7167 113.704 44.35C113.004 44.9667 112.587 45.8083 112.454 46.875H120.079ZM128.708 43.225C129.125 42.525 129.675 41.9833 130.358 41.6C131.058 41.2 131.883 41 132.833 41V43.95H132.108C130.992 43.95 130.142 44.2333 129.558 44.8C128.992 45.3667 128.708 46.35 128.708 47.75V55H125.858V41.225H128.708V43.225ZM140.778 52.45L144.678 41.225H147.703L142.453 55H139.053L133.828 41.225H136.878L140.778 52.45ZM148.907 48.05C148.907 46.6667 149.191 45.4417 149.757 44.375C150.341 43.3083 151.124 42.4833 152.107 41.9C153.107 41.3 154.207 41 155.407 41C156.491 41 157.432 41.2167 158.232 41.65C159.049 42.0667 159.699 42.5917 160.182 43.225V41.225H163.057V55H160.182V52.95C159.699 53.6 159.041 54.1417 158.207 54.575C157.374 55.0083 156.424 55.225 155.357 55.225C154.174 55.225 153.091 54.925 152.107 54.325C151.124 53.7083 150.341 52.8583 149.757 51.775C149.191 50.675 148.907 49.4333 148.907 48.05ZM160.182 48.1C160.182 47.15 159.982 46.325 159.582 45.625C159.199 44.925 158.691 44.3917 158.057 44.025C157.424 43.6583 156.741 43.475 156.007 43.475C155.274 43.475 154.591 43.6583 153.957 44.025C153.324 44.375 152.807 44.9 152.407 45.6C152.024 46.2833 151.832 47.1 151.832 48.05C151.832 49 152.024 49.8333 152.407 50.55C152.807 51.2667 153.324 51.8167 153.957 52.2C154.607 52.5667 155.291 52.75 156.007 52.75C156.741 52.75 157.424 52.5667 158.057 52.2C158.691 51.8333 159.199 51.3 159.582 50.6C159.982 49.8833 160.182 49.05 160.182 48.1ZM170.126 43.55V51.175C170.126 51.6917 170.242 52.0667 170.476 52.3C170.726 52.5167 171.142 52.625 171.726 52.625H173.476V55H171.226C169.942 55 168.959 54.7 168.276 54.1C167.592 53.5 167.251 52.525 167.251 51.175V43.55H165.626V41.225H167.251V37.8H170.126V41.225H173.476V43.55H170.126ZM177.553 39.4C177.036 39.4 176.603 39.225 176.253 38.875C175.903 38.525 175.728 38.0917 175.728 37.575C175.728 37.0583 175.903 36.625 176.253 36.275C176.603 35.925 177.036 35.75 177.553 35.75C178.053 35.75 178.478 35.925 178.828 36.275C179.178 36.625 179.353 37.0583 179.353 37.575C179.353 38.0917 179.178 38.525 178.828 38.875C178.478 39.225 178.053 39.4 177.553 39.4ZM178.953 41.225V55H176.103V41.225H178.953ZM188.669 55.225C187.369 55.225 186.194 54.9333 185.144 54.35C184.094 53.75 183.269 52.9167 182.669 51.85C182.069 50.7667 181.769 49.5167 181.769 48.1C181.769 46.7 182.078 45.4583 182.694 44.375C183.311 43.2917 184.153 42.4583 185.219 41.875C186.286 41.2917 187.478 41 188.794 41C190.111 41 191.303 41.2917 192.369 41.875C193.436 42.4583 194.278 43.2917 194.894 44.375C195.511 45.4583 195.819 46.7 195.819 48.1C195.819 49.5 195.503 50.7417 194.869 51.825C194.236 52.9083 193.369 53.75 192.269 54.35C191.186 54.9333 189.986 55.225 188.669 55.225ZM188.669 52.75C189.403 52.75 190.086 52.575 190.719 52.225C191.369 51.875 191.894 51.35 192.294 50.65C192.694 49.95 192.894 49.1 192.894 48.1C192.894 47.1 192.703 46.2583 192.319 45.575C191.936 44.875 191.428 44.35 190.794 44C190.161 43.65 189.478 43.475 188.744 43.475C188.011 43.475 187.328 43.65 186.694 44C186.078 44.35 185.586 44.875 185.219 45.575C184.853 46.2583 184.669 47.1 184.669 48.1C184.669 49.5833 185.044 50.7333 185.794 51.55C186.561 52.35 187.519 52.75 188.669 52.75ZM205.587 41C206.67 41 207.637 41.225 208.487 41.675C209.353 42.125 210.028 42.7917 210.512 43.675C210.995 44.5583 211.237 45.625 211.237 46.875V55H208.412V47.3C208.412 46.0667 208.103 45.125 207.487 44.475C206.87 43.8083 206.028 43.475 204.962 43.475C203.895 43.475 203.045 43.8083 202.412 44.475C201.795 45.125 201.487 46.0667 201.487 47.3V55H198.637V41.225H201.487V42.8C201.953 42.2333 202.545 41.7917 203.262 41.475C203.995 41.1583 204.77 41 205.587 41Z" fill="white"/>
<path d="M165.25 138.625C168.564 138.621 171.741 137.303 174.085 134.959C176.428 132.616 177.746 129.439 177.75 126.125V116.75H168.375C165.176 116.755 162.101 117.993 159.791 120.206C158.172 117.269 155.795 114.819 152.908 113.112C150.021 111.405 146.729 110.503 143.375 110.5H134V119.875C134.006 124.846 135.983 129.612 139.498 133.127C143.013 136.642 147.779 138.619 152.75 138.625H155.875V179.25H118.375V163.625H121.5C124.814 163.621 127.991 162.303 130.335 159.959C132.678 157.616 133.996 154.439 134 151.125V141.75H124.625C121.426 141.755 118.351 142.993 116.041 145.206C114.422 142.269 112.045 139.819 109.158 138.112C106.271 136.405 102.979 135.503 99.6252 135.5H90.2502V144.875C90.256 149.846 92.2333 154.612 95.7484 158.127C99.2634 161.642 104.029 163.619 109 163.625H112.125V179.25H90.2502V185.5H177.75V179.25H162.125V138.625H165.25ZM162.125 129.25C162.127 127.593 162.786 126.004 163.958 124.832C165.129 123.661 166.718 123.002 168.375 123H171.5V126.125C171.499 127.782 170.84 129.371 169.668 130.543C168.496 131.714 166.907 132.373 165.25 132.375H162.125V129.25ZM118.375 154.25C118.377 152.593 119.036 151.004 120.208 149.832C121.379 148.661 122.968 148.002 124.625 148H127.75V151.125C127.749 152.782 127.09 154.371 125.918 155.543C124.746 156.714 123.157 157.373 121.5 157.375H118.375V154.25ZM112.125 157.375H109C105.686 157.371 102.509 156.053 100.166 153.709C97.8227 151.366 96.5044 148.189 96.5002 144.875V141.75H99.6252C102.939 141.754 106.116 143.072 108.46 145.416C110.803 147.759 112.121 150.936 112.125 154.25V157.375ZM155.875 132.375H152.75C149.436 132.371 146.259 131.053 143.916 128.709C141.573 126.366 140.254 123.189 140.25 119.875V116.75H143.375C146.689 116.754 149.866 118.072 152.21 120.416C154.553 122.759 155.871 125.936 155.875 129.25V132.375Z" fill="white"/>
<defs>
<filter id="filter0_ii_512_490" x="-5.39673" y="-6" width="270.802" height="257.026" filterUnits="userSpaceOnUse" color-interpolation-filters="sRGB">
<feFlood flood-opacity="0" result="BackgroundImageFix"/>
<feBlend mode="normal" in="SourceGraphic" in2="BackgroundImageFix" result="shape"/>
<feColorMatrix in="SourceAlpha" type="matrix" values="0 0 0 0 0 0 0 0 0 0 0 0 0 0 0 0 0 0 127 0" result="hardAlpha"/>
<feOffset dx="-6" dy="-6"/>
<feGaussianBlur stdDeviation="25"/>
<feComposite in2="hardAlpha" operator="arithmetic" k2="-1" k3="1"/>
<feColorMatrix type="matrix" values="0 0 0 0 0 0 0 0 0 0 0 0 0 0 0 0 0 0 0.25 0"/>
<feBlend mode="normal" in2="shape" result="effect1_innerShadow_512_490"/>
<feColorMatrix in="SourceAlpha" type="matrix" values="0 0 0 0 0 0 0 0 0 0 0 0 0 0 0 0 0 0 127 0" result="hardAlpha"/>
<feOffset dx="6" dy="6"/>
<feComposite in2="hardAlpha" operator="arithmetic" k2="-1" k3="1"/>
<feColorMatrix type="matrix" values="0 0 0 0 0 0 0 0 0 0 0 0 0 0 0 0 0 0 0.25 0"/>
<feBlend mode="normal" in2="effect1_innerShadow_512_490" result="effect2_innerShadow_512_490"/>
</filter>
</defs>
</svg>
